%TF.GenerationSoftware,KiCad,Pcbnew,9.0.7*%
%TF.CreationDate,2026-02-03T16:32:22-08:00*%
%TF.ProjectId,BasicDatalogger,42617369-6344-4617-9461-6c6f67676572,rev?*%
%TF.SameCoordinates,Original*%
%TF.FileFunction,Legend,Bot*%
%TF.FilePolarity,Positive*%
%FSLAX46Y46*%
G04 Gerber Fmt 4.6, Leading zero omitted, Abs format (unit mm)*
G04 Created by KiCad (PCBNEW 9.0.7) date 2026-02-03 16:32:22*
%MOMM*%
%LPD*%
G01*
G04 APERTURE LIST*
%ADD10C,0.150000*%
%ADD11C,0.120000*%
G04 APERTURE END LIST*
D10*
X112157142Y-57054819D02*
X112157142Y-56054819D01*
X112157142Y-56054819D02*
X111823809Y-56769104D01*
X111823809Y-56769104D02*
X111490476Y-56054819D01*
X111490476Y-56054819D02*
X111490476Y-57054819D01*
X110823809Y-56054819D02*
X110633333Y-56054819D01*
X110633333Y-56054819D02*
X110538095Y-56102438D01*
X110538095Y-56102438D02*
X110442857Y-56197676D01*
X110442857Y-56197676D02*
X110395238Y-56388152D01*
X110395238Y-56388152D02*
X110395238Y-56721485D01*
X110395238Y-56721485D02*
X110442857Y-56911961D01*
X110442857Y-56911961D02*
X110538095Y-57007200D01*
X110538095Y-57007200D02*
X110633333Y-57054819D01*
X110633333Y-57054819D02*
X110823809Y-57054819D01*
X110823809Y-57054819D02*
X110919047Y-57007200D01*
X110919047Y-57007200D02*
X111014285Y-56911961D01*
X111014285Y-56911961D02*
X111061904Y-56721485D01*
X111061904Y-56721485D02*
X111061904Y-56388152D01*
X111061904Y-56388152D02*
X111014285Y-56197676D01*
X111014285Y-56197676D02*
X110919047Y-56102438D01*
X110919047Y-56102438D02*
X110823809Y-56054819D01*
X108471427Y-56854819D02*
X108471427Y-55854819D01*
X108471427Y-55854819D02*
X108138094Y-56569104D01*
X108138094Y-56569104D02*
X107804761Y-55854819D01*
X107804761Y-55854819D02*
X107804761Y-56854819D01*
X107328570Y-56854819D02*
X107328570Y-55854819D01*
X104466666Y-55159580D02*
X104514285Y-55207200D01*
X104514285Y-55207200D02*
X104657142Y-55254819D01*
X104657142Y-55254819D02*
X104752380Y-55254819D01*
X104752380Y-55254819D02*
X104895237Y-55207200D01*
X104895237Y-55207200D02*
X104990475Y-55111961D01*
X104990475Y-55111961D02*
X105038094Y-55016723D01*
X105038094Y-55016723D02*
X105085713Y-54826247D01*
X105085713Y-54826247D02*
X105085713Y-54683390D01*
X105085713Y-54683390D02*
X105038094Y-54492914D01*
X105038094Y-54492914D02*
X104990475Y-54397676D01*
X104990475Y-54397676D02*
X104895237Y-54302438D01*
X104895237Y-54302438D02*
X104752380Y-54254819D01*
X104752380Y-54254819D02*
X104657142Y-54254819D01*
X104657142Y-54254819D02*
X104514285Y-54302438D01*
X104514285Y-54302438D02*
X104466666Y-54350057D01*
X104085713Y-55207200D02*
X103942856Y-55254819D01*
X103942856Y-55254819D02*
X103704761Y-55254819D01*
X103704761Y-55254819D02*
X103609523Y-55207200D01*
X103609523Y-55207200D02*
X103561904Y-55159580D01*
X103561904Y-55159580D02*
X103514285Y-55064342D01*
X103514285Y-55064342D02*
X103514285Y-54969104D01*
X103514285Y-54969104D02*
X103561904Y-54873866D01*
X103561904Y-54873866D02*
X103609523Y-54826247D01*
X103609523Y-54826247D02*
X103704761Y-54778628D01*
X103704761Y-54778628D02*
X103895237Y-54731009D01*
X103895237Y-54731009D02*
X103990475Y-54683390D01*
X103990475Y-54683390D02*
X104038094Y-54635771D01*
X104038094Y-54635771D02*
X104085713Y-54540533D01*
X104085713Y-54540533D02*
X104085713Y-54445295D01*
X104085713Y-54445295D02*
X104038094Y-54350057D01*
X104038094Y-54350057D02*
X103990475Y-54302438D01*
X103990475Y-54302438D02*
X103895237Y-54254819D01*
X103895237Y-54254819D02*
X103657142Y-54254819D01*
X103657142Y-54254819D02*
X103514285Y-54302438D01*
X130761904Y-54202438D02*
X130857142Y-54154819D01*
X130857142Y-54154819D02*
X130999999Y-54154819D01*
X130999999Y-54154819D02*
X131142856Y-54202438D01*
X131142856Y-54202438D02*
X131238094Y-54297676D01*
X131238094Y-54297676D02*
X131285713Y-54392914D01*
X131285713Y-54392914D02*
X131333332Y-54583390D01*
X131333332Y-54583390D02*
X131333332Y-54726247D01*
X131333332Y-54726247D02*
X131285713Y-54916723D01*
X131285713Y-54916723D02*
X131238094Y-55011961D01*
X131238094Y-55011961D02*
X131142856Y-55107200D01*
X131142856Y-55107200D02*
X130999999Y-55154819D01*
X130999999Y-55154819D02*
X130904761Y-55154819D01*
X130904761Y-55154819D02*
X130761904Y-55107200D01*
X130761904Y-55107200D02*
X130714285Y-55059580D01*
X130714285Y-55059580D02*
X130714285Y-54726247D01*
X130714285Y-54726247D02*
X130904761Y-54726247D01*
X130285713Y-55154819D02*
X130285713Y-54154819D01*
X130285713Y-54154819D02*
X129714285Y-55154819D01*
X129714285Y-55154819D02*
X129714285Y-54154819D01*
X129238094Y-55154819D02*
X129238094Y-54154819D01*
X129238094Y-54154819D02*
X128999999Y-54154819D01*
X128999999Y-54154819D02*
X128857142Y-54202438D01*
X128857142Y-54202438D02*
X128761904Y-54297676D01*
X128761904Y-54297676D02*
X128714285Y-54392914D01*
X128714285Y-54392914D02*
X128666666Y-54583390D01*
X128666666Y-54583390D02*
X128666666Y-54726247D01*
X128666666Y-54726247D02*
X128714285Y-54916723D01*
X128714285Y-54916723D02*
X128761904Y-55011961D01*
X128761904Y-55011961D02*
X128857142Y-55107200D01*
X128857142Y-55107200D02*
X128999999Y-55154819D01*
X128999999Y-55154819D02*
X129238094Y-55154819D01*
X106090475Y-66007200D02*
X105947618Y-66054819D01*
X105947618Y-66054819D02*
X105709523Y-66054819D01*
X105709523Y-66054819D02*
X105614285Y-66007200D01*
X105614285Y-66007200D02*
X105566666Y-65959580D01*
X105566666Y-65959580D02*
X105519047Y-65864342D01*
X105519047Y-65864342D02*
X105519047Y-65769104D01*
X105519047Y-65769104D02*
X105566666Y-65673866D01*
X105566666Y-65673866D02*
X105614285Y-65626247D01*
X105614285Y-65626247D02*
X105709523Y-65578628D01*
X105709523Y-65578628D02*
X105899999Y-65531009D01*
X105899999Y-65531009D02*
X105995237Y-65483390D01*
X105995237Y-65483390D02*
X106042856Y-65435771D01*
X106042856Y-65435771D02*
X106090475Y-65340533D01*
X106090475Y-65340533D02*
X106090475Y-65245295D01*
X106090475Y-65245295D02*
X106042856Y-65150057D01*
X106042856Y-65150057D02*
X105995237Y-65102438D01*
X105995237Y-65102438D02*
X105899999Y-65054819D01*
X105899999Y-65054819D02*
X105661904Y-65054819D01*
X105661904Y-65054819D02*
X105519047Y-65102438D01*
X104519047Y-65959580D02*
X104566666Y-66007200D01*
X104566666Y-66007200D02*
X104709523Y-66054819D01*
X104709523Y-66054819D02*
X104804761Y-66054819D01*
X104804761Y-66054819D02*
X104947618Y-66007200D01*
X104947618Y-66007200D02*
X105042856Y-65911961D01*
X105042856Y-65911961D02*
X105090475Y-65816723D01*
X105090475Y-65816723D02*
X105138094Y-65626247D01*
X105138094Y-65626247D02*
X105138094Y-65483390D01*
X105138094Y-65483390D02*
X105090475Y-65292914D01*
X105090475Y-65292914D02*
X105042856Y-65197676D01*
X105042856Y-65197676D02*
X104947618Y-65102438D01*
X104947618Y-65102438D02*
X104804761Y-65054819D01*
X104804761Y-65054819D02*
X104709523Y-65054819D01*
X104709523Y-65054819D02*
X104566666Y-65102438D01*
X104566666Y-65102438D02*
X104519047Y-65150057D01*
X103614285Y-66054819D02*
X104090475Y-66054819D01*
X104090475Y-66054819D02*
X104090475Y-65054819D01*
X115985713Y-55307200D02*
X115842856Y-55354819D01*
X115842856Y-55354819D02*
X115604761Y-55354819D01*
X115604761Y-55354819D02*
X115509523Y-55307200D01*
X115509523Y-55307200D02*
X115461904Y-55259580D01*
X115461904Y-55259580D02*
X115414285Y-55164342D01*
X115414285Y-55164342D02*
X115414285Y-55069104D01*
X115414285Y-55069104D02*
X115461904Y-54973866D01*
X115461904Y-54973866D02*
X115509523Y-54926247D01*
X115509523Y-54926247D02*
X115604761Y-54878628D01*
X115604761Y-54878628D02*
X115795237Y-54831009D01*
X115795237Y-54831009D02*
X115890475Y-54783390D01*
X115890475Y-54783390D02*
X115938094Y-54735771D01*
X115938094Y-54735771D02*
X115985713Y-54640533D01*
X115985713Y-54640533D02*
X115985713Y-54545295D01*
X115985713Y-54545295D02*
X115938094Y-54450057D01*
X115938094Y-54450057D02*
X115890475Y-54402438D01*
X115890475Y-54402438D02*
X115795237Y-54354819D01*
X115795237Y-54354819D02*
X115557142Y-54354819D01*
X115557142Y-54354819D02*
X115414285Y-54402438D01*
X114414285Y-55259580D02*
X114461904Y-55307200D01*
X114461904Y-55307200D02*
X114604761Y-55354819D01*
X114604761Y-55354819D02*
X114699999Y-55354819D01*
X114699999Y-55354819D02*
X114842856Y-55307200D01*
X114842856Y-55307200D02*
X114938094Y-55211961D01*
X114938094Y-55211961D02*
X114985713Y-55116723D01*
X114985713Y-55116723D02*
X115033332Y-54926247D01*
X115033332Y-54926247D02*
X115033332Y-54783390D01*
X115033332Y-54783390D02*
X114985713Y-54592914D01*
X114985713Y-54592914D02*
X114938094Y-54497676D01*
X114938094Y-54497676D02*
X114842856Y-54402438D01*
X114842856Y-54402438D02*
X114699999Y-54354819D01*
X114699999Y-54354819D02*
X114604761Y-54354819D01*
X114604761Y-54354819D02*
X114461904Y-54402438D01*
X114461904Y-54402438D02*
X114414285Y-54450057D01*
X113985713Y-55354819D02*
X113985713Y-54354819D01*
X113414285Y-55354819D02*
X113842856Y-54783390D01*
X113414285Y-54354819D02*
X113985713Y-54926247D01*
X136338094Y-54254819D02*
X135719047Y-54254819D01*
X135719047Y-54254819D02*
X136052380Y-54635771D01*
X136052380Y-54635771D02*
X135909523Y-54635771D01*
X135909523Y-54635771D02*
X135814285Y-54683390D01*
X135814285Y-54683390D02*
X135766666Y-54731009D01*
X135766666Y-54731009D02*
X135719047Y-54826247D01*
X135719047Y-54826247D02*
X135719047Y-55064342D01*
X135719047Y-55064342D02*
X135766666Y-55159580D01*
X135766666Y-55159580D02*
X135814285Y-55207200D01*
X135814285Y-55207200D02*
X135909523Y-55254819D01*
X135909523Y-55254819D02*
X136195237Y-55254819D01*
X136195237Y-55254819D02*
X136290475Y-55207200D01*
X136290475Y-55207200D02*
X136338094Y-55159580D01*
X135433332Y-54254819D02*
X135099999Y-55254819D01*
X135099999Y-55254819D02*
X134766666Y-54254819D01*
X134528570Y-54254819D02*
X133909523Y-54254819D01*
X133909523Y-54254819D02*
X134242856Y-54635771D01*
X134242856Y-54635771D02*
X134099999Y-54635771D01*
X134099999Y-54635771D02*
X134004761Y-54683390D01*
X134004761Y-54683390D02*
X133957142Y-54731009D01*
X133957142Y-54731009D02*
X133909523Y-54826247D01*
X133909523Y-54826247D02*
X133909523Y-55064342D01*
X133909523Y-55064342D02*
X133957142Y-55159580D01*
X133957142Y-55159580D02*
X134004761Y-55207200D01*
X134004761Y-55207200D02*
X134099999Y-55254819D01*
X134099999Y-55254819D02*
X134385713Y-55254819D01*
X134385713Y-55254819D02*
X134480951Y-55207200D01*
X134480951Y-55207200D02*
X134528570Y-55159580D01*
X101014285Y-65957200D02*
X100871428Y-66004819D01*
X100871428Y-66004819D02*
X100633333Y-66004819D01*
X100633333Y-66004819D02*
X100538095Y-65957200D01*
X100538095Y-65957200D02*
X100490476Y-65909580D01*
X100490476Y-65909580D02*
X100442857Y-65814342D01*
X100442857Y-65814342D02*
X100442857Y-65719104D01*
X100442857Y-65719104D02*
X100490476Y-65623866D01*
X100490476Y-65623866D02*
X100538095Y-65576247D01*
X100538095Y-65576247D02*
X100633333Y-65528628D01*
X100633333Y-65528628D02*
X100823809Y-65481009D01*
X100823809Y-65481009D02*
X100919047Y-65433390D01*
X100919047Y-65433390D02*
X100966666Y-65385771D01*
X100966666Y-65385771D02*
X101014285Y-65290533D01*
X101014285Y-65290533D02*
X101014285Y-65195295D01*
X101014285Y-65195295D02*
X100966666Y-65100057D01*
X100966666Y-65100057D02*
X100919047Y-65052438D01*
X100919047Y-65052438D02*
X100823809Y-65004819D01*
X100823809Y-65004819D02*
X100585714Y-65004819D01*
X100585714Y-65004819D02*
X100442857Y-65052438D01*
X100014285Y-66004819D02*
X100014285Y-65004819D01*
X100014285Y-65004819D02*
X99776190Y-65004819D01*
X99776190Y-65004819D02*
X99633333Y-65052438D01*
X99633333Y-65052438D02*
X99538095Y-65147676D01*
X99538095Y-65147676D02*
X99490476Y-65242914D01*
X99490476Y-65242914D02*
X99442857Y-65433390D01*
X99442857Y-65433390D02*
X99442857Y-65576247D01*
X99442857Y-65576247D02*
X99490476Y-65766723D01*
X99490476Y-65766723D02*
X99538095Y-65861961D01*
X99538095Y-65861961D02*
X99633333Y-65957200D01*
X99633333Y-65957200D02*
X99776190Y-66004819D01*
X99776190Y-66004819D02*
X100014285Y-66004819D01*
X99061904Y-65719104D02*
X98585714Y-65719104D01*
X99157142Y-66004819D02*
X98823809Y-65004819D01*
X98823809Y-65004819D02*
X98490476Y-66004819D01*
D11*
%TO.C,MO*%
X112250000Y-54600000D02*
G75*
G02*
X110350000Y-54600000I-950000J0D01*
G01*
X110350000Y-54600000D02*
G75*
G02*
X112250000Y-54600000I950000J0D01*
G01*
%TO.C,MI*%
X108850000Y-54400000D02*
G75*
G02*
X106950000Y-54400000I-950000J0D01*
G01*
X106950000Y-54400000D02*
G75*
G02*
X108850000Y-54400000I950000J0D01*
G01*
%TO.C,CS*%
X105250000Y-52600000D02*
G75*
G02*
X103350000Y-52600000I-950000J0D01*
G01*
X103350000Y-52600000D02*
G75*
G02*
X105250000Y-52600000I950000J0D01*
G01*
%TO.C,GND*%
X131950000Y-52600000D02*
G75*
G02*
X130050000Y-52600000I-950000J0D01*
G01*
X130050000Y-52600000D02*
G75*
G02*
X131950000Y-52600000I950000J0D01*
G01*
%TO.C,SCL*%
X104450000Y-67500000D02*
G75*
G02*
X102550000Y-67500000I-950000J0D01*
G01*
X102550000Y-67500000D02*
G75*
G02*
X104450000Y-67500000I950000J0D01*
G01*
%TO.C,SCK*%
X115650000Y-52800000D02*
G75*
G02*
X113750000Y-52800000I-950000J0D01*
G01*
X113750000Y-52800000D02*
G75*
G02*
X115650000Y-52800000I950000J0D01*
G01*
%TO.C,3V3*%
X135150000Y-52600000D02*
G75*
G02*
X133250000Y-52600000I-950000J0D01*
G01*
X133250000Y-52600000D02*
G75*
G02*
X135150000Y-52600000I950000J0D01*
G01*
%TO.C,SDA*%
X101950000Y-67400000D02*
G75*
G02*
X100050000Y-67400000I-950000J0D01*
G01*
X100050000Y-67400000D02*
G75*
G02*
X101950000Y-67400000I950000J0D01*
G01*
%TD*%
M02*
