%TF.GenerationSoftware,KiCad,Pcbnew,9.0.7*%
%TF.CreationDate,2026-02-03T16:32:22-08:00*%
%TF.ProjectId,BasicDatalogger,42617369-6344-4617-9461-6c6f67676572,rev?*%
%TF.SameCoordinates,Original*%
%TF.FileFunction,Legend,Top*%
%TF.FilePolarity,Positive*%
%FSLAX46Y46*%
G04 Gerber Fmt 4.6, Leading zero omitted, Abs format (unit mm)*
G04 Created by KiCad (PCBNEW 9.0.7) date 2026-02-03 16:32:22*
%MOMM*%
%LPD*%
G01*
G04 APERTURE LIST*
%ADD10C,0.200000*%
%ADD11C,0.250000*%
G04 APERTURE END LIST*
D10*
X83614400Y-58660149D02*
X83557257Y-58831578D01*
X83557257Y-58831578D02*
X83557257Y-59117292D01*
X83557257Y-59117292D02*
X83614400Y-59231578D01*
X83614400Y-59231578D02*
X83671542Y-59288720D01*
X83671542Y-59288720D02*
X83785828Y-59345863D01*
X83785828Y-59345863D02*
X83900114Y-59345863D01*
X83900114Y-59345863D02*
X84014400Y-59288720D01*
X84014400Y-59288720D02*
X84071542Y-59231578D01*
X84071542Y-59231578D02*
X84128685Y-59117292D01*
X84128685Y-59117292D02*
X84185828Y-58888720D01*
X84185828Y-58888720D02*
X84242971Y-58774435D01*
X84242971Y-58774435D02*
X84300114Y-58717292D01*
X84300114Y-58717292D02*
X84414400Y-58660149D01*
X84414400Y-58660149D02*
X84528685Y-58660149D01*
X84528685Y-58660149D02*
X84642971Y-58717292D01*
X84642971Y-58717292D02*
X84700114Y-58774435D01*
X84700114Y-58774435D02*
X84757257Y-58888720D01*
X84757257Y-58888720D02*
X84757257Y-59174435D01*
X84757257Y-59174435D02*
X84700114Y-59345863D01*
X83557257Y-59860149D02*
X84757257Y-59860149D01*
X84757257Y-59860149D02*
X84757257Y-60145863D01*
X84757257Y-60145863D02*
X84700114Y-60317292D01*
X84700114Y-60317292D02*
X84585828Y-60431577D01*
X84585828Y-60431577D02*
X84471542Y-60488720D01*
X84471542Y-60488720D02*
X84242971Y-60545863D01*
X84242971Y-60545863D02*
X84071542Y-60545863D01*
X84071542Y-60545863D02*
X83842971Y-60488720D01*
X83842971Y-60488720D02*
X83728685Y-60431577D01*
X83728685Y-60431577D02*
X83614400Y-60317292D01*
X83614400Y-60317292D02*
X83557257Y-60145863D01*
X83557257Y-60145863D02*
X83557257Y-59860149D01*
X103485828Y-37117292D02*
X103428685Y-37288720D01*
X103428685Y-37288720D02*
X103371542Y-37345863D01*
X103371542Y-37345863D02*
X103257257Y-37403006D01*
X103257257Y-37403006D02*
X103085828Y-37403006D01*
X103085828Y-37403006D02*
X102971542Y-37345863D01*
X102971542Y-37345863D02*
X102914400Y-37288720D01*
X102914400Y-37288720D02*
X102857257Y-37174435D01*
X102857257Y-37174435D02*
X102857257Y-36717292D01*
X102857257Y-36717292D02*
X104057257Y-36717292D01*
X104057257Y-36717292D02*
X104057257Y-37117292D01*
X104057257Y-37117292D02*
X104000114Y-37231578D01*
X104000114Y-37231578D02*
X103942971Y-37288720D01*
X103942971Y-37288720D02*
X103828685Y-37345863D01*
X103828685Y-37345863D02*
X103714400Y-37345863D01*
X103714400Y-37345863D02*
X103600114Y-37288720D01*
X103600114Y-37288720D02*
X103542971Y-37231578D01*
X103542971Y-37231578D02*
X103485828Y-37117292D01*
X103485828Y-37117292D02*
X103485828Y-36717292D01*
X102857257Y-37917292D02*
X104057257Y-37917292D01*
X104057257Y-37917292D02*
X103200114Y-38317292D01*
X103200114Y-38317292D02*
X104057257Y-38717292D01*
X104057257Y-38717292D02*
X102857257Y-38717292D01*
X102857257Y-39288721D02*
X104057257Y-39288721D01*
X104057257Y-39288721D02*
X104057257Y-39745864D01*
X104057257Y-39745864D02*
X104000114Y-39860149D01*
X104000114Y-39860149D02*
X103942971Y-39917292D01*
X103942971Y-39917292D02*
X103828685Y-39974435D01*
X103828685Y-39974435D02*
X103657257Y-39974435D01*
X103657257Y-39974435D02*
X103542971Y-39917292D01*
X103542971Y-39917292D02*
X103485828Y-39860149D01*
X103485828Y-39860149D02*
X103428685Y-39745864D01*
X103428685Y-39745864D02*
X103428685Y-39288721D01*
X104057257Y-40374435D02*
X104057257Y-41117292D01*
X104057257Y-41117292D02*
X103600114Y-40717292D01*
X103600114Y-40717292D02*
X103600114Y-40888721D01*
X103600114Y-40888721D02*
X103542971Y-41003007D01*
X103542971Y-41003007D02*
X103485828Y-41060149D01*
X103485828Y-41060149D02*
X103371542Y-41117292D01*
X103371542Y-41117292D02*
X103085828Y-41117292D01*
X103085828Y-41117292D02*
X102971542Y-41060149D01*
X102971542Y-41060149D02*
X102914400Y-41003007D01*
X102914400Y-41003007D02*
X102857257Y-40888721D01*
X102857257Y-40888721D02*
X102857257Y-40545864D01*
X102857257Y-40545864D02*
X102914400Y-40431578D01*
X102914400Y-40431578D02*
X102971542Y-40374435D01*
X102857257Y-41688721D02*
X102857257Y-41917292D01*
X102857257Y-41917292D02*
X102914400Y-42031578D01*
X102914400Y-42031578D02*
X102971542Y-42088721D01*
X102971542Y-42088721D02*
X103142971Y-42203006D01*
X103142971Y-42203006D02*
X103371542Y-42260149D01*
X103371542Y-42260149D02*
X103828685Y-42260149D01*
X103828685Y-42260149D02*
X103942971Y-42203006D01*
X103942971Y-42203006D02*
X104000114Y-42145864D01*
X104000114Y-42145864D02*
X104057257Y-42031578D01*
X104057257Y-42031578D02*
X104057257Y-41803006D01*
X104057257Y-41803006D02*
X104000114Y-41688721D01*
X104000114Y-41688721D02*
X103942971Y-41631578D01*
X103942971Y-41631578D02*
X103828685Y-41574435D01*
X103828685Y-41574435D02*
X103542971Y-41574435D01*
X103542971Y-41574435D02*
X103428685Y-41631578D01*
X103428685Y-41631578D02*
X103371542Y-41688721D01*
X103371542Y-41688721D02*
X103314400Y-41803006D01*
X103314400Y-41803006D02*
X103314400Y-42031578D01*
X103314400Y-42031578D02*
X103371542Y-42145864D01*
X103371542Y-42145864D02*
X103428685Y-42203006D01*
X103428685Y-42203006D02*
X103542971Y-42260149D01*
X104057257Y-43003006D02*
X104057257Y-43117292D01*
X104057257Y-43117292D02*
X104000114Y-43231578D01*
X104000114Y-43231578D02*
X103942971Y-43288721D01*
X103942971Y-43288721D02*
X103828685Y-43345863D01*
X103828685Y-43345863D02*
X103600114Y-43403006D01*
X103600114Y-43403006D02*
X103314400Y-43403006D01*
X103314400Y-43403006D02*
X103085828Y-43345863D01*
X103085828Y-43345863D02*
X102971542Y-43288721D01*
X102971542Y-43288721D02*
X102914400Y-43231578D01*
X102914400Y-43231578D02*
X102857257Y-43117292D01*
X102857257Y-43117292D02*
X102857257Y-43003006D01*
X102857257Y-43003006D02*
X102914400Y-42888721D01*
X102914400Y-42888721D02*
X102971542Y-42831578D01*
X102971542Y-42831578D02*
X103085828Y-42774435D01*
X103085828Y-42774435D02*
X103314400Y-42717292D01*
X103314400Y-42717292D02*
X103600114Y-42717292D01*
X103600114Y-42717292D02*
X103828685Y-42774435D01*
X103828685Y-42774435D02*
X103942971Y-42831578D01*
X103942971Y-42831578D02*
X104000114Y-42888721D01*
X104000114Y-42888721D02*
X104057257Y-43003006D01*
X128457257Y-36588720D02*
X128457257Y-36017292D01*
X128457257Y-36017292D02*
X129657257Y-36017292D01*
X128457257Y-36988721D02*
X129657257Y-36988721D01*
X129657257Y-36988721D02*
X129657257Y-37274435D01*
X129657257Y-37274435D02*
X129600114Y-37445864D01*
X129600114Y-37445864D02*
X129485828Y-37560149D01*
X129485828Y-37560149D02*
X129371542Y-37617292D01*
X129371542Y-37617292D02*
X129142971Y-37674435D01*
X129142971Y-37674435D02*
X128971542Y-37674435D01*
X128971542Y-37674435D02*
X128742971Y-37617292D01*
X128742971Y-37617292D02*
X128628685Y-37560149D01*
X128628685Y-37560149D02*
X128514400Y-37445864D01*
X128514400Y-37445864D02*
X128457257Y-37274435D01*
X128457257Y-37274435D02*
X128457257Y-36988721D01*
X128457257Y-38188721D02*
X129657257Y-38188721D01*
X129657257Y-38188721D02*
X128800114Y-38588721D01*
X128800114Y-38588721D02*
X129657257Y-38988721D01*
X129657257Y-38988721D02*
X128457257Y-38988721D01*
X129657257Y-40074436D02*
X129657257Y-39845864D01*
X129657257Y-39845864D02*
X129600114Y-39731578D01*
X129600114Y-39731578D02*
X129542971Y-39674436D01*
X129542971Y-39674436D02*
X129371542Y-39560150D01*
X129371542Y-39560150D02*
X129142971Y-39503007D01*
X129142971Y-39503007D02*
X128685828Y-39503007D01*
X128685828Y-39503007D02*
X128571542Y-39560150D01*
X128571542Y-39560150D02*
X128514400Y-39617293D01*
X128514400Y-39617293D02*
X128457257Y-39731578D01*
X128457257Y-39731578D02*
X128457257Y-39960150D01*
X128457257Y-39960150D02*
X128514400Y-40074436D01*
X128514400Y-40074436D02*
X128571542Y-40131578D01*
X128571542Y-40131578D02*
X128685828Y-40188721D01*
X128685828Y-40188721D02*
X128971542Y-40188721D01*
X128971542Y-40188721D02*
X129085828Y-40131578D01*
X129085828Y-40131578D02*
X129142971Y-40074436D01*
X129142971Y-40074436D02*
X129200114Y-39960150D01*
X129200114Y-39960150D02*
X129200114Y-39731578D01*
X129200114Y-39731578D02*
X129142971Y-39617293D01*
X129142971Y-39617293D02*
X129085828Y-39560150D01*
X129085828Y-39560150D02*
X128971542Y-39503007D01*
X128457257Y-40703007D02*
X129657257Y-40703007D01*
X129657257Y-40703007D02*
X129657257Y-40988721D01*
X129657257Y-40988721D02*
X129600114Y-41160150D01*
X129600114Y-41160150D02*
X129485828Y-41274435D01*
X129485828Y-41274435D02*
X129371542Y-41331578D01*
X129371542Y-41331578D02*
X129142971Y-41388721D01*
X129142971Y-41388721D02*
X128971542Y-41388721D01*
X128971542Y-41388721D02*
X128742971Y-41331578D01*
X128742971Y-41331578D02*
X128628685Y-41274435D01*
X128628685Y-41274435D02*
X128514400Y-41160150D01*
X128514400Y-41160150D02*
X128457257Y-40988721D01*
X128457257Y-40988721D02*
X128457257Y-40703007D01*
X128514400Y-41845864D02*
X128457257Y-42017293D01*
X128457257Y-42017293D02*
X128457257Y-42303007D01*
X128457257Y-42303007D02*
X128514400Y-42417293D01*
X128514400Y-42417293D02*
X128571542Y-42474435D01*
X128571542Y-42474435D02*
X128685828Y-42531578D01*
X128685828Y-42531578D02*
X128800114Y-42531578D01*
X128800114Y-42531578D02*
X128914400Y-42474435D01*
X128914400Y-42474435D02*
X128971542Y-42417293D01*
X128971542Y-42417293D02*
X129028685Y-42303007D01*
X129028685Y-42303007D02*
X129085828Y-42074435D01*
X129085828Y-42074435D02*
X129142971Y-41960150D01*
X129142971Y-41960150D02*
X129200114Y-41903007D01*
X129200114Y-41903007D02*
X129314400Y-41845864D01*
X129314400Y-41845864D02*
X129428685Y-41845864D01*
X129428685Y-41845864D02*
X129542971Y-41903007D01*
X129542971Y-41903007D02*
X129600114Y-41960150D01*
X129600114Y-41960150D02*
X129657257Y-42074435D01*
X129657257Y-42074435D02*
X129657257Y-42360150D01*
X129657257Y-42360150D02*
X129600114Y-42531578D01*
X129657257Y-43274435D02*
X129657257Y-43503007D01*
X129657257Y-43503007D02*
X129600114Y-43617292D01*
X129600114Y-43617292D02*
X129485828Y-43731578D01*
X129485828Y-43731578D02*
X129257257Y-43788721D01*
X129257257Y-43788721D02*
X128857257Y-43788721D01*
X128857257Y-43788721D02*
X128628685Y-43731578D01*
X128628685Y-43731578D02*
X128514400Y-43617292D01*
X128514400Y-43617292D02*
X128457257Y-43503007D01*
X128457257Y-43503007D02*
X128457257Y-43274435D01*
X128457257Y-43274435D02*
X128514400Y-43160150D01*
X128514400Y-43160150D02*
X128628685Y-43045864D01*
X128628685Y-43045864D02*
X128857257Y-42988721D01*
X128857257Y-42988721D02*
X129257257Y-42988721D01*
X129257257Y-42988721D02*
X129485828Y-43045864D01*
X129485828Y-43045864D02*
X129600114Y-43160150D01*
X129600114Y-43160150D02*
X129657257Y-43274435D01*
X129657257Y-44188721D02*
X128457257Y-44988721D01*
X129657257Y-44988721D02*
X128457257Y-44188721D01*
X120113828Y-53560001D02*
X120113828Y-53160001D01*
X119485257Y-53160001D02*
X120685257Y-53160001D01*
X120685257Y-53160001D02*
X120685257Y-53731429D01*
X119542400Y-54645715D02*
X119485257Y-54531429D01*
X119485257Y-54531429D02*
X119485257Y-54302858D01*
X119485257Y-54302858D02*
X119542400Y-54188572D01*
X119542400Y-54188572D02*
X119656685Y-54131429D01*
X119656685Y-54131429D02*
X120113828Y-54131429D01*
X120113828Y-54131429D02*
X120228114Y-54188572D01*
X120228114Y-54188572D02*
X120285257Y-54302858D01*
X120285257Y-54302858D02*
X120285257Y-54531429D01*
X120285257Y-54531429D02*
X120228114Y-54645715D01*
X120228114Y-54645715D02*
X120113828Y-54702858D01*
X120113828Y-54702858D02*
X119999542Y-54702858D01*
X119999542Y-54702858D02*
X119885257Y-54131429D01*
X119485257Y-55731429D02*
X120113828Y-55731429D01*
X120113828Y-55731429D02*
X120228114Y-55674286D01*
X120228114Y-55674286D02*
X120285257Y-55560000D01*
X120285257Y-55560000D02*
X120285257Y-55331429D01*
X120285257Y-55331429D02*
X120228114Y-55217143D01*
X119542400Y-55731429D02*
X119485257Y-55617143D01*
X119485257Y-55617143D02*
X119485257Y-55331429D01*
X119485257Y-55331429D02*
X119542400Y-55217143D01*
X119542400Y-55217143D02*
X119656685Y-55160000D01*
X119656685Y-55160000D02*
X119770971Y-55160000D01*
X119770971Y-55160000D02*
X119885257Y-55217143D01*
X119885257Y-55217143D02*
X119942400Y-55331429D01*
X119942400Y-55331429D02*
X119942400Y-55617143D01*
X119942400Y-55617143D02*
X119999542Y-55731429D01*
X120285257Y-56131428D02*
X120285257Y-56588571D01*
X120685257Y-56302857D02*
X119656685Y-56302857D01*
X119656685Y-56302857D02*
X119542400Y-56360000D01*
X119542400Y-56360000D02*
X119485257Y-56474285D01*
X119485257Y-56474285D02*
X119485257Y-56588571D01*
X119485257Y-56988571D02*
X120685257Y-56988571D01*
X119485257Y-57502857D02*
X120113828Y-57502857D01*
X120113828Y-57502857D02*
X120228114Y-57445714D01*
X120228114Y-57445714D02*
X120285257Y-57331428D01*
X120285257Y-57331428D02*
X120285257Y-57159999D01*
X120285257Y-57159999D02*
X120228114Y-57045714D01*
X120228114Y-57045714D02*
X120170971Y-56988571D01*
X119542400Y-58531428D02*
X119485257Y-58417142D01*
X119485257Y-58417142D02*
X119485257Y-58188571D01*
X119485257Y-58188571D02*
X119542400Y-58074285D01*
X119542400Y-58074285D02*
X119656685Y-58017142D01*
X119656685Y-58017142D02*
X120113828Y-58017142D01*
X120113828Y-58017142D02*
X120228114Y-58074285D01*
X120228114Y-58074285D02*
X120285257Y-58188571D01*
X120285257Y-58188571D02*
X120285257Y-58417142D01*
X120285257Y-58417142D02*
X120228114Y-58531428D01*
X120228114Y-58531428D02*
X120113828Y-58588571D01*
X120113828Y-58588571D02*
X119999542Y-58588571D01*
X119999542Y-58588571D02*
X119885257Y-58017142D01*
X119485257Y-59102856D02*
X120285257Y-59102856D01*
X120056685Y-59102856D02*
X120170971Y-59159999D01*
X120170971Y-59159999D02*
X120228114Y-59217142D01*
X120228114Y-59217142D02*
X120285257Y-59331427D01*
X120285257Y-59331427D02*
X120285257Y-59445713D01*
X119485257Y-61445713D02*
X120056685Y-61045713D01*
X119485257Y-60759999D02*
X120685257Y-60759999D01*
X120685257Y-60759999D02*
X120685257Y-61217142D01*
X120685257Y-61217142D02*
X120628114Y-61331427D01*
X120628114Y-61331427D02*
X120570971Y-61388570D01*
X120570971Y-61388570D02*
X120456685Y-61445713D01*
X120456685Y-61445713D02*
X120285257Y-61445713D01*
X120285257Y-61445713D02*
X120170971Y-61388570D01*
X120170971Y-61388570D02*
X120113828Y-61331427D01*
X120113828Y-61331427D02*
X120056685Y-61217142D01*
X120056685Y-61217142D02*
X120056685Y-60759999D01*
X119485257Y-61959999D02*
X120685257Y-61959999D01*
X120685257Y-61959999D02*
X120685257Y-62417142D01*
X120685257Y-62417142D02*
X120628114Y-62531427D01*
X120628114Y-62531427D02*
X120570971Y-62588570D01*
X120570971Y-62588570D02*
X120456685Y-62645713D01*
X120456685Y-62645713D02*
X120285257Y-62645713D01*
X120285257Y-62645713D02*
X120170971Y-62588570D01*
X120170971Y-62588570D02*
X120113828Y-62531427D01*
X120113828Y-62531427D02*
X120056685Y-62417142D01*
X120056685Y-62417142D02*
X120056685Y-61959999D01*
X120570971Y-63102856D02*
X120628114Y-63159999D01*
X120628114Y-63159999D02*
X120685257Y-63274285D01*
X120685257Y-63274285D02*
X120685257Y-63559999D01*
X120685257Y-63559999D02*
X120628114Y-63674285D01*
X120628114Y-63674285D02*
X120570971Y-63731427D01*
X120570971Y-63731427D02*
X120456685Y-63788570D01*
X120456685Y-63788570D02*
X120342400Y-63788570D01*
X120342400Y-63788570D02*
X120170971Y-63731427D01*
X120170971Y-63731427D02*
X119485257Y-63045713D01*
X119485257Y-63045713D02*
X119485257Y-63788570D01*
X120685257Y-64531427D02*
X120685257Y-64645713D01*
X120685257Y-64645713D02*
X120628114Y-64759999D01*
X120628114Y-64759999D02*
X120570971Y-64817142D01*
X120570971Y-64817142D02*
X120456685Y-64874284D01*
X120456685Y-64874284D02*
X120228114Y-64931427D01*
X120228114Y-64931427D02*
X119942400Y-64931427D01*
X119942400Y-64931427D02*
X119713828Y-64874284D01*
X119713828Y-64874284D02*
X119599542Y-64817142D01*
X119599542Y-64817142D02*
X119542400Y-64759999D01*
X119542400Y-64759999D02*
X119485257Y-64645713D01*
X119485257Y-64645713D02*
X119485257Y-64531427D01*
X119485257Y-64531427D02*
X119542400Y-64417142D01*
X119542400Y-64417142D02*
X119599542Y-64359999D01*
X119599542Y-64359999D02*
X119713828Y-64302856D01*
X119713828Y-64302856D02*
X119942400Y-64245713D01*
X119942400Y-64245713D02*
X120228114Y-64245713D01*
X120228114Y-64245713D02*
X120456685Y-64302856D01*
X120456685Y-64302856D02*
X120570971Y-64359999D01*
X120570971Y-64359999D02*
X120628114Y-64417142D01*
X120628114Y-64417142D02*
X120685257Y-64531427D01*
X120285257Y-65959999D02*
X119485257Y-65959999D01*
X120742400Y-65674284D02*
X119885257Y-65388570D01*
X119885257Y-65388570D02*
X119885257Y-66131427D01*
X120685257Y-66817141D02*
X120685257Y-66931427D01*
X120685257Y-66931427D02*
X120628114Y-67045713D01*
X120628114Y-67045713D02*
X120570971Y-67102856D01*
X120570971Y-67102856D02*
X120456685Y-67159998D01*
X120456685Y-67159998D02*
X120228114Y-67217141D01*
X120228114Y-67217141D02*
X119942400Y-67217141D01*
X119942400Y-67217141D02*
X119713828Y-67159998D01*
X119713828Y-67159998D02*
X119599542Y-67102856D01*
X119599542Y-67102856D02*
X119542400Y-67045713D01*
X119542400Y-67045713D02*
X119485257Y-66931427D01*
X119485257Y-66931427D02*
X119485257Y-66817141D01*
X119485257Y-66817141D02*
X119542400Y-66702856D01*
X119542400Y-66702856D02*
X119599542Y-66645713D01*
X119599542Y-66645713D02*
X119713828Y-66588570D01*
X119713828Y-66588570D02*
X119942400Y-66531427D01*
X119942400Y-66531427D02*
X120228114Y-66531427D01*
X120228114Y-66531427D02*
X120456685Y-66588570D01*
X120456685Y-66588570D02*
X120570971Y-66645713D01*
X120570971Y-66645713D02*
X120628114Y-66702856D01*
X120628114Y-66702856D02*
X120685257Y-66817141D01*
D11*
%TO.C,U1*%
X94607578Y-51230000D02*
G75*
G02*
X97107578Y-48729978I2500022J0D01*
G01*
X97126037Y-71579214D02*
G75*
G02*
X94626036Y-69079214I3J2500004D01*
G01*
X142930000Y-48744493D02*
G75*
G02*
X145430000Y-51244493I0J-2500000D01*
G01*
X145419194Y-69090000D02*
G75*
G02*
X142919194Y-71590000I-2500000J0D01*
G01*
X94626037Y-69079214D02*
X94607578Y-51230000D01*
X97169474Y-48730762D02*
X142930000Y-48744493D01*
X142863880Y-71589427D02*
X97126040Y-71579214D01*
X145430000Y-51160000D02*
X145430000Y-69090000D01*
%TO.C,U4*%
X93990000Y-50845000D02*
X93990000Y-67355000D01*
X91450000Y-69895000D02*
X78750000Y-69895000D01*
X78750000Y-48305000D02*
X91450000Y-48305000D01*
X76210000Y-67355000D02*
X76210000Y-50845000D01*
X93990000Y-67355000D02*
G75*
G02*
X91450000Y-69895000I-2540001J1D01*
G01*
X91450000Y-48305000D02*
G75*
G02*
X93990000Y-50845000I0J-2540000D01*
G01*
X78750000Y-69895000D02*
G75*
G02*
X76210000Y-67355000I1J2540001D01*
G01*
X76210000Y-50845000D02*
G75*
G02*
X78750000Y-48305000I2540000J0D01*
G01*
%TO.C,U3*%
X116300000Y-32450000D02*
X116300000Y-45150000D01*
X118840000Y-47690000D02*
X139160000Y-47690000D01*
X139160000Y-29910000D02*
X118840000Y-29910000D01*
X141700000Y-45150000D02*
X141700000Y-32450000D01*
X116300000Y-32450000D02*
G75*
G02*
X118840000Y-29910000I2540000J0D01*
G01*
X118840000Y-47690000D02*
G75*
G02*
X116300000Y-45150000I0J2540000D01*
G01*
X139160000Y-29910000D02*
G75*
G02*
X141700000Y-32450000I-1J-2540001D01*
G01*
X141700000Y-45150000D02*
G75*
G02*
X139160000Y-47690000I-2540001J1D01*
G01*
%TO.C,U2*%
X115700000Y-45150000D02*
G75*
G02*
X113160000Y-47690000I-2540001J1D01*
G01*
X113160000Y-29910000D02*
G75*
G02*
X115700000Y-32450000I-1J-2540001D01*
G01*
X92840000Y-47690000D02*
G75*
G02*
X90300000Y-45150000I0J2540000D01*
G01*
X90300000Y-32450000D02*
G75*
G02*
X92840000Y-29910000I2540000J0D01*
G01*
X115700000Y-45150000D02*
X115700000Y-32450000D01*
X113160000Y-29910000D02*
X92840000Y-29910000D01*
X92840000Y-47690000D02*
X113160000Y-47690000D01*
X90300000Y-32450000D02*
X90300000Y-45150000D01*
%TD*%
M02*
