M48
; DRILL file {KiCad 9.0.7} date 2026-02-03T16:32:27-0800
; FORMAT={-:-/ absolute / metric / decimal}
; #@! TF.CreationDate,2026-02-03T16:32:27-08:00
; #@! TF.GenerationSoftware,Kicad,Pcbnew,9.0.7
; #@! TF.FileFunction,Plated,1,4,PTH
FMAT,2
METRIC
; #@! TA.AperFunction,Plated,PTH,ViaDrill
T1C0.500
; #@! TA.AperFunction,Plated,PTH,ComponentDrill
T2C1.000
%
G90
G05
T1
X77.7Y-42.0
X79.7Y-70.9
X81.3Y-53.2
X85.6Y-32.6
X86.9Y-41.2
X89.3Y-61.6
X93.4Y-61.7
X97.0Y-70.4
X97.1Y-49.8
X97.9Y-53.8
X100.3Y-57.3
X106.7Y-34.4
X121.0Y-64.3
X130.3Y-34.2
X131.4Y-47.0
X134.2Y-57.0
T2
X91.45Y-51.48
X91.45Y-54.02
X91.45Y-56.56
X91.45Y-59.1
X91.45Y-61.64
X91.45Y-64.18
X91.45Y-66.72
X94.11Y-32.45
X96.65Y-32.45
X99.19Y-32.45
X100.98Y-50.0
X100.98Y-70.32
X101.73Y-32.45
X103.52Y-50.0
X103.52Y-70.32
X104.27Y-32.45
X106.06Y-50.0
X106.06Y-70.32
X106.81Y-32.45
X108.6Y-50.0
X108.6Y-70.32
X109.35Y-32.45
X111.14Y-50.0
X111.14Y-70.32
X111.89Y-32.45
X113.68Y-50.0
X113.68Y-70.32
X116.22Y-50.0
X116.22Y-70.32
X118.76Y-50.0
X118.76Y-70.32
X121.3Y-50.0
X121.3Y-70.32
X122.65Y-32.45
X123.84Y-50.0
X123.84Y-70.32
X125.19Y-32.45
X126.38Y-50.0
X126.38Y-70.32
X127.73Y-32.45
X128.92Y-50.0
X128.92Y-70.32
X130.27Y-32.45
X131.46Y-50.0
X132.81Y-32.45
X134.0Y-50.0
X135.35Y-32.45
X136.54Y-50.0
X139.08Y-50.0
M30
