%TF.GenerationSoftware,KiCad,Pcbnew,9.0.7*%
%TF.CreationDate,2026-02-03T16:32:22-08:00*%
%TF.ProjectId,BasicDatalogger,42617369-6344-4617-9461-6c6f67676572,rev?*%
%TF.SameCoordinates,Original*%
%TF.FileFunction,Soldermask,Top*%
%TF.FilePolarity,Negative*%
%FSLAX46Y46*%
G04 Gerber Fmt 4.6, Leading zero omitted, Abs format (unit mm)*
G04 Created by KiCad (PCBNEW 9.0.7) date 2026-02-03 16:32:22*
%MOMM*%
%LPD*%
G01*
G04 APERTURE LIST*
%ADD10C,1.700000*%
%ADD11C,1.879600*%
G04 APERTURE END LIST*
D10*
%TO.C,U1*%
X128920000Y-70320000D03*
X126380000Y-70320000D03*
X123840000Y-70320000D03*
X121300000Y-70320000D03*
X118760000Y-70320000D03*
X116220000Y-70320000D03*
X113680000Y-70320000D03*
X111140000Y-70320000D03*
X108600000Y-70320000D03*
X106060000Y-70320000D03*
X103520000Y-70320000D03*
X100980000Y-70320000D03*
X100980000Y-50000000D03*
X103520000Y-50000000D03*
X106060000Y-50000000D03*
X108600000Y-50000000D03*
X111140000Y-50000000D03*
X113680000Y-50000000D03*
X116220000Y-50000000D03*
X118760000Y-50000000D03*
X121300000Y-50000000D03*
X123840000Y-50000000D03*
X126380000Y-50000000D03*
X128920000Y-50000000D03*
X131460000Y-50000000D03*
X134000000Y-50000000D03*
X136540000Y-50000000D03*
X139080000Y-50000000D03*
%TD*%
D11*
%TO.C,U4*%
X91450000Y-66720000D03*
X91450000Y-64180000D03*
X91450000Y-61640000D03*
X91450000Y-59100000D03*
X91450000Y-56560000D03*
X91450000Y-54020000D03*
X91450000Y-51480000D03*
%TD*%
%TO.C,U3*%
X135350000Y-32450000D03*
X132810000Y-32450000D03*
X130270000Y-32450000D03*
X127730000Y-32450000D03*
X125190000Y-32450000D03*
X122650000Y-32450000D03*
%TD*%
%TO.C,U2*%
X94110000Y-32450000D03*
X96650000Y-32450000D03*
X99190000Y-32450000D03*
X101730000Y-32450000D03*
X104270000Y-32450000D03*
X106810000Y-32450000D03*
X109350000Y-32450000D03*
X111890000Y-32450000D03*
%TD*%
M02*
