%TF.GenerationSoftware,KiCad,Pcbnew,9.0.7*%
%TF.CreationDate,2026-02-04T13:27:57-08:00*%
%TF.ProjectId,BasicDatalogger,42617369-6344-4617-9461-6c6f67676572,rev?*%
%TF.SameCoordinates,Original*%
%TF.FileFunction,Drillmap*%
%TF.FilePolarity,Positive*%
%FSLAX45Y45*%
G04 Gerber Fmt 4.5, Leading zero omitted, Abs format (unit mm)*
G04 Created by KiCad (PCBNEW 9.0.7) date 2026-02-04 13:27:57*
%MOMM*%
%LPD*%
G01*
G04 APERTURE LIST*
%ADD10C,0.050000*%
%ADD11C,0.200000*%
%ADD12C,0.100000*%
G04 APERTURE END LIST*
D10*
X7340000Y-3180000D02*
G75*
G02*
X7590000Y-2930000I250000J0D01*
G01*
X14660000Y-7440000D02*
G75*
G02*
X14410000Y-7690000I-250000J0D01*
G01*
X7340000Y-7440000D02*
X7340000Y-3180000D01*
X14410000Y-7690000D02*
X7590000Y-7690000D01*
X14660000Y-3180000D02*
X14660000Y-7440000D01*
X14560000Y-3180000D02*
G75*
G02*
X14260000Y-3180000I-150000J0D01*
G01*
X14260000Y-3180000D02*
G75*
G02*
X14560000Y-3180000I150000J0D01*
G01*
X14410000Y-2930000D02*
G75*
G02*
X14660000Y-3180000I0J-250000D01*
G01*
X7590000Y-7690000D02*
G75*
G02*
X7340000Y-7440000I0J250000D01*
G01*
X7740000Y-3180000D02*
G75*
G02*
X7440000Y-3180000I-150000J0D01*
G01*
X7440000Y-3180000D02*
G75*
G02*
X7740000Y-3180000I150000J0D01*
G01*
X7740000Y-7440000D02*
G75*
G02*
X7440000Y-7440000I-150000J0D01*
G01*
X7440000Y-7440000D02*
G75*
G02*
X7740000Y-7440000I150000J0D01*
G01*
X7590000Y-2930000D02*
X14410000Y-2930000D01*
D11*
D12*
X7935000Y-7475000D02*
X7985000Y-7525000D01*
X7985000Y-7475000D02*
X7935000Y-7525000D01*
X7995000Y-5395000D02*
X8045000Y-5445000D01*
X8045000Y-5395000D02*
X7995000Y-5445000D01*
X8055000Y-3455000D02*
X8105000Y-3505000D01*
X8105000Y-3455000D02*
X8055000Y-3505000D01*
X8415000Y-6835000D02*
X8465000Y-6885000D01*
X8465000Y-6835000D02*
X8415000Y-6885000D01*
X8815000Y-3795000D02*
X8865000Y-3845000D01*
X8865000Y-3795000D02*
X8815000Y-3845000D01*
X8878905Y-7493241D02*
X8928905Y-7543241D01*
X8928905Y-7493241D02*
X8878905Y-7543241D01*
X8955000Y-6335000D02*
X9005000Y-6385000D01*
X9005000Y-6335000D02*
X8955000Y-6385000D01*
X9135158Y-7493241D02*
X9185158Y-7543241D01*
X9185158Y-7493241D02*
X9135158Y-7543241D01*
X9295000Y-6255000D02*
X9345000Y-6305000D01*
X9345000Y-6255000D02*
X9295000Y-6305000D01*
X9535000Y-3775000D02*
X9585000Y-3825000D01*
X9585000Y-3775000D02*
X9535000Y-3825000D01*
X9685000Y-4955000D02*
X9735000Y-5005000D01*
X9735000Y-4955000D02*
X9685000Y-5005000D01*
X9715000Y-3455000D02*
X9765000Y-3505000D01*
X9765000Y-3455000D02*
X9715000Y-3505000D01*
X9755000Y-5372241D02*
X9805000Y-5422241D01*
X9805000Y-5372241D02*
X9755000Y-5422241D01*
X9795000Y-6895000D02*
X9845000Y-6945000D01*
X9845000Y-6895000D02*
X9795000Y-6945000D01*
X9895000Y-6355000D02*
X9945000Y-6405000D01*
X9945000Y-6355000D02*
X9895000Y-6405000D01*
X10528096Y-7246220D02*
X10578096Y-7296220D01*
X10578096Y-7246220D02*
X10528096Y-7296220D01*
X10935000Y-6315000D02*
X10985000Y-6365000D01*
X10985000Y-6315000D02*
X10935000Y-6365000D01*
X10955000Y-5695000D02*
X11005000Y-5745000D01*
X11005000Y-5695000D02*
X10955000Y-5745000D01*
X11075000Y-3555000D02*
X11125000Y-3605000D01*
X11125000Y-3555000D02*
X11075000Y-3605000D01*
X11875000Y-3075000D02*
X11925000Y-3125000D01*
X11925000Y-3075000D02*
X11875000Y-3125000D01*
X11875000Y-3395000D02*
X11925000Y-3445000D01*
X11925000Y-3395000D02*
X11875000Y-3445000D01*
X12209753Y-7228477D02*
X12259753Y-7278477D01*
X12259753Y-7228477D02*
X12209753Y-7278477D01*
X12335000Y-4175000D02*
X12385000Y-4225000D01*
X12385000Y-4175000D02*
X12335000Y-4225000D01*
X12415000Y-7415000D02*
X12465000Y-7465000D01*
X12465000Y-7415000D02*
X12415000Y-7465000D01*
X12595000Y-6055000D02*
X12645000Y-6105000D01*
X12645000Y-6055000D02*
X12595000Y-6105000D01*
X12935000Y-5175000D02*
X12985000Y-5225000D01*
X12985000Y-5175000D02*
X12935000Y-5225000D01*
X13190618Y-5136334D02*
X13240618Y-5186334D01*
X13240618Y-5136334D02*
X13190618Y-5186334D01*
X13213666Y-4790619D02*
X13263666Y-4840619D01*
X13263666Y-4790619D02*
X13213666Y-4840619D01*
X8361000Y-3270000D02*
G75*
G02*
X8261000Y-3270000I-50000J0D01*
G01*
X8261000Y-3270000D02*
G75*
G02*
X8361000Y-3270000I50000J0D01*
G01*
X8615000Y-3270000D02*
G75*
G02*
X8515000Y-3270000I-50000J0D01*
G01*
X8515000Y-3270000D02*
G75*
G02*
X8615000Y-3270000I50000J0D01*
G01*
X8869000Y-3270000D02*
G75*
G02*
X8769000Y-3270000I-50000J0D01*
G01*
X8769000Y-3270000D02*
G75*
G02*
X8869000Y-3270000I50000J0D01*
G01*
X9123000Y-3270000D02*
G75*
G02*
X9023000Y-3270000I-50000J0D01*
G01*
X9023000Y-3270000D02*
G75*
G02*
X9123000Y-3270000I50000J0D01*
G01*
X9201380Y-5273241D02*
G75*
G02*
X9101380Y-5273241I-50000J0D01*
G01*
X9101380Y-5273241D02*
G75*
G02*
X9201380Y-5273241I50000J0D01*
G01*
X9201380Y-5527241D02*
G75*
G02*
X9101380Y-5527241I-50000J0D01*
G01*
X9101380Y-5527241D02*
G75*
G02*
X9201380Y-5527241I50000J0D01*
G01*
X9201380Y-5781241D02*
G75*
G02*
X9101380Y-5781241I-50000J0D01*
G01*
X9101380Y-5781241D02*
G75*
G02*
X9201380Y-5781241I50000J0D01*
G01*
X9201380Y-6035241D02*
G75*
G02*
X9101380Y-6035241I-50000J0D01*
G01*
X9101380Y-6035241D02*
G75*
G02*
X9201380Y-6035241I50000J0D01*
G01*
X9201380Y-6289241D02*
G75*
G02*
X9101380Y-6289241I-50000J0D01*
G01*
X9101380Y-6289241D02*
G75*
G02*
X9201380Y-6289241I50000J0D01*
G01*
X9201380Y-6543241D02*
G75*
G02*
X9101380Y-6543241I-50000J0D01*
G01*
X9101380Y-6543241D02*
G75*
G02*
X9201380Y-6543241I50000J0D01*
G01*
X9201380Y-6797241D02*
G75*
G02*
X9101380Y-6797241I-50000J0D01*
G01*
X9101380Y-6797241D02*
G75*
G02*
X9201380Y-6797241I50000J0D01*
G01*
X9377000Y-3270000D02*
G75*
G02*
X9277000Y-3270000I-50000J0D01*
G01*
X9277000Y-3270000D02*
G75*
G02*
X9377000Y-3270000I50000J0D01*
G01*
X9631000Y-3270000D02*
G75*
G02*
X9531000Y-3270000I-50000J0D01*
G01*
X9531000Y-3270000D02*
G75*
G02*
X9631000Y-3270000I50000J0D01*
G01*
X9885000Y-3270000D02*
G75*
G02*
X9785000Y-3270000I-50000J0D01*
G01*
X9785000Y-3270000D02*
G75*
G02*
X9885000Y-3270000I50000J0D01*
G01*
X10056000Y-7440000D02*
G75*
G02*
X9956000Y-7440000I-50000J0D01*
G01*
X9956000Y-7440000D02*
G75*
G02*
X10056000Y-7440000I50000J0D01*
G01*
X10139000Y-3270000D02*
G75*
G02*
X10039000Y-3270000I-50000J0D01*
G01*
X10039000Y-3270000D02*
G75*
G02*
X10139000Y-3270000I50000J0D01*
G01*
X10148000Y-5000000D02*
G75*
G02*
X10048000Y-5000000I-50000J0D01*
G01*
X10048000Y-5000000D02*
G75*
G02*
X10148000Y-5000000I50000J0D01*
G01*
X10148000Y-7032000D02*
G75*
G02*
X10048000Y-7032000I-50000J0D01*
G01*
X10048000Y-7032000D02*
G75*
G02*
X10148000Y-7032000I50000J0D01*
G01*
X10310000Y-7440000D02*
G75*
G02*
X10210000Y-7440000I-50000J0D01*
G01*
X10210000Y-7440000D02*
G75*
G02*
X10310000Y-7440000I50000J0D01*
G01*
X10402000Y-5000000D02*
G75*
G02*
X10302000Y-5000000I-50000J0D01*
G01*
X10302000Y-5000000D02*
G75*
G02*
X10402000Y-5000000I50000J0D01*
G01*
X10402000Y-7032000D02*
G75*
G02*
X10302000Y-7032000I-50000J0D01*
G01*
X10302000Y-7032000D02*
G75*
G02*
X10402000Y-7032000I50000J0D01*
G01*
X10564000Y-7440000D02*
G75*
G02*
X10464000Y-7440000I-50000J0D01*
G01*
X10464000Y-7440000D02*
G75*
G02*
X10564000Y-7440000I50000J0D01*
G01*
X10656000Y-5000000D02*
G75*
G02*
X10556000Y-5000000I-50000J0D01*
G01*
X10556000Y-5000000D02*
G75*
G02*
X10656000Y-5000000I50000J0D01*
G01*
X10656000Y-7032000D02*
G75*
G02*
X10556000Y-7032000I-50000J0D01*
G01*
X10556000Y-7032000D02*
G75*
G02*
X10656000Y-7032000I50000J0D01*
G01*
X10910000Y-5000000D02*
G75*
G02*
X10810000Y-5000000I-50000J0D01*
G01*
X10810000Y-5000000D02*
G75*
G02*
X10910000Y-5000000I50000J0D01*
G01*
X10910000Y-7032000D02*
G75*
G02*
X10810000Y-7032000I-50000J0D01*
G01*
X10810000Y-7032000D02*
G75*
G02*
X10910000Y-7032000I50000J0D01*
G01*
X10916000Y-7440000D02*
G75*
G02*
X10816000Y-7440000I-50000J0D01*
G01*
X10816000Y-7440000D02*
G75*
G02*
X10916000Y-7440000I50000J0D01*
G01*
X11164000Y-5000000D02*
G75*
G02*
X11064000Y-5000000I-50000J0D01*
G01*
X11064000Y-5000000D02*
G75*
G02*
X11164000Y-5000000I50000J0D01*
G01*
X11164000Y-7032000D02*
G75*
G02*
X11064000Y-7032000I-50000J0D01*
G01*
X11064000Y-7032000D02*
G75*
G02*
X11164000Y-7032000I50000J0D01*
G01*
X11170000Y-7440000D02*
G75*
G02*
X11070000Y-7440000I-50000J0D01*
G01*
X11070000Y-7440000D02*
G75*
G02*
X11170000Y-7440000I50000J0D01*
G01*
X11190000Y-3260000D02*
G75*
G02*
X11090000Y-3260000I-50000J0D01*
G01*
X11090000Y-3260000D02*
G75*
G02*
X11190000Y-3260000I50000J0D01*
G01*
X11418000Y-5000000D02*
G75*
G02*
X11318000Y-5000000I-50000J0D01*
G01*
X11318000Y-5000000D02*
G75*
G02*
X11418000Y-5000000I50000J0D01*
G01*
X11418000Y-7032000D02*
G75*
G02*
X11318000Y-7032000I-50000J0D01*
G01*
X11318000Y-7032000D02*
G75*
G02*
X11418000Y-7032000I50000J0D01*
G01*
X11424000Y-7440000D02*
G75*
G02*
X11324000Y-7440000I-50000J0D01*
G01*
X11324000Y-7440000D02*
G75*
G02*
X11424000Y-7440000I50000J0D01*
G01*
X11444000Y-3260000D02*
G75*
G02*
X11344000Y-3260000I-50000J0D01*
G01*
X11344000Y-3260000D02*
G75*
G02*
X11444000Y-3260000I50000J0D01*
G01*
X11672000Y-5000000D02*
G75*
G02*
X11572000Y-5000000I-50000J0D01*
G01*
X11572000Y-5000000D02*
G75*
G02*
X11672000Y-5000000I50000J0D01*
G01*
X11672000Y-7032000D02*
G75*
G02*
X11572000Y-7032000I-50000J0D01*
G01*
X11572000Y-7032000D02*
G75*
G02*
X11672000Y-7032000I50000J0D01*
G01*
X11698000Y-3260000D02*
G75*
G02*
X11598000Y-3260000I-50000J0D01*
G01*
X11598000Y-3260000D02*
G75*
G02*
X11698000Y-3260000I50000J0D01*
G01*
X11770000Y-7440000D02*
G75*
G02*
X11670000Y-7440000I-50000J0D01*
G01*
X11670000Y-7440000D02*
G75*
G02*
X11770000Y-7440000I50000J0D01*
G01*
X11926000Y-5000000D02*
G75*
G02*
X11826000Y-5000000I-50000J0D01*
G01*
X11826000Y-5000000D02*
G75*
G02*
X11926000Y-5000000I50000J0D01*
G01*
X11926000Y-7032000D02*
G75*
G02*
X11826000Y-7032000I-50000J0D01*
G01*
X11826000Y-7032000D02*
G75*
G02*
X11926000Y-7032000I50000J0D01*
G01*
X11952000Y-3260000D02*
G75*
G02*
X11852000Y-3260000I-50000J0D01*
G01*
X11852000Y-3260000D02*
G75*
G02*
X11952000Y-3260000I50000J0D01*
G01*
X12024000Y-7440000D02*
G75*
G02*
X11924000Y-7440000I-50000J0D01*
G01*
X11924000Y-7440000D02*
G75*
G02*
X12024000Y-7440000I50000J0D01*
G01*
X12180000Y-5000000D02*
G75*
G02*
X12080000Y-5000000I-50000J0D01*
G01*
X12080000Y-5000000D02*
G75*
G02*
X12180000Y-5000000I50000J0D01*
G01*
X12180000Y-7032000D02*
G75*
G02*
X12080000Y-7032000I-50000J0D01*
G01*
X12080000Y-7032000D02*
G75*
G02*
X12180000Y-7032000I50000J0D01*
G01*
X12206000Y-3260000D02*
G75*
G02*
X12106000Y-3260000I-50000J0D01*
G01*
X12106000Y-3260000D02*
G75*
G02*
X12206000Y-3260000I50000J0D01*
G01*
X12278000Y-7440000D02*
G75*
G02*
X12178000Y-7440000I-50000J0D01*
G01*
X12178000Y-7440000D02*
G75*
G02*
X12278000Y-7440000I50000J0D01*
G01*
X12434000Y-5000000D02*
G75*
G02*
X12334000Y-5000000I-50000J0D01*
G01*
X12334000Y-5000000D02*
G75*
G02*
X12434000Y-5000000I50000J0D01*
G01*
X12434000Y-7032000D02*
G75*
G02*
X12334000Y-7032000I-50000J0D01*
G01*
X12334000Y-7032000D02*
G75*
G02*
X12434000Y-7032000I50000J0D01*
G01*
X12460000Y-3260000D02*
G75*
G02*
X12360000Y-3260000I-50000J0D01*
G01*
X12360000Y-3260000D02*
G75*
G02*
X12460000Y-3260000I50000J0D01*
G01*
X12688000Y-5000000D02*
G75*
G02*
X12588000Y-5000000I-50000J0D01*
G01*
X12588000Y-5000000D02*
G75*
G02*
X12688000Y-5000000I50000J0D01*
G01*
X12688000Y-7032000D02*
G75*
G02*
X12588000Y-7032000I-50000J0D01*
G01*
X12588000Y-7032000D02*
G75*
G02*
X12688000Y-7032000I50000J0D01*
G01*
X12942000Y-5000000D02*
G75*
G02*
X12842000Y-5000000I-50000J0D01*
G01*
X12842000Y-5000000D02*
G75*
G02*
X12942000Y-5000000I50000J0D01*
G01*
X12942000Y-7032000D02*
G75*
G02*
X12842000Y-7032000I-50000J0D01*
G01*
X12842000Y-7032000D02*
G75*
G02*
X12942000Y-7032000I50000J0D01*
G01*
X13196000Y-5000000D02*
G75*
G02*
X13096000Y-5000000I-50000J0D01*
G01*
X13096000Y-5000000D02*
G75*
G02*
X13196000Y-5000000I50000J0D01*
G01*
X13450000Y-5000000D02*
G75*
G02*
X13350000Y-5000000I-50000J0D01*
G01*
X13350000Y-5000000D02*
G75*
G02*
X13450000Y-5000000I50000J0D01*
G01*
X13704000Y-5000000D02*
G75*
G02*
X13604000Y-5000000I-50000J0D01*
G01*
X13604000Y-5000000D02*
G75*
G02*
X13704000Y-5000000I50000J0D01*
G01*
X13958000Y-5000000D02*
G75*
G02*
X13858000Y-5000000I-50000J0D01*
G01*
X13858000Y-5000000D02*
G75*
G02*
X13958000Y-5000000I50000J0D01*
G01*
D11*
X7598277Y-8003984D02*
X7598277Y-7803984D01*
X7598277Y-7803984D02*
X7645896Y-7803984D01*
X7645896Y-7803984D02*
X7674467Y-7813508D01*
X7674467Y-7813508D02*
X7693515Y-7832555D01*
X7693515Y-7832555D02*
X7703039Y-7851603D01*
X7703039Y-7851603D02*
X7712562Y-7889698D01*
X7712562Y-7889698D02*
X7712562Y-7918269D01*
X7712562Y-7918269D02*
X7703039Y-7956365D01*
X7703039Y-7956365D02*
X7693515Y-7975412D01*
X7693515Y-7975412D02*
X7674467Y-7994460D01*
X7674467Y-7994460D02*
X7645896Y-8003984D01*
X7645896Y-8003984D02*
X7598277Y-8003984D01*
X7798277Y-8003984D02*
X7798277Y-7870650D01*
X7798277Y-7908746D02*
X7807801Y-7889698D01*
X7807801Y-7889698D02*
X7817324Y-7880174D01*
X7817324Y-7880174D02*
X7836372Y-7870650D01*
X7836372Y-7870650D02*
X7855420Y-7870650D01*
X7922086Y-8003984D02*
X7922086Y-7870650D01*
X7922086Y-7803984D02*
X7912562Y-7813508D01*
X7912562Y-7813508D02*
X7922086Y-7823031D01*
X7922086Y-7823031D02*
X7931610Y-7813508D01*
X7931610Y-7813508D02*
X7922086Y-7803984D01*
X7922086Y-7803984D02*
X7922086Y-7823031D01*
X8045896Y-8003984D02*
X8026848Y-7994460D01*
X8026848Y-7994460D02*
X8017324Y-7975412D01*
X8017324Y-7975412D02*
X8017324Y-7803984D01*
X8150658Y-8003984D02*
X8131610Y-7994460D01*
X8131610Y-7994460D02*
X8122086Y-7975412D01*
X8122086Y-7975412D02*
X8122086Y-7803984D01*
X8379229Y-8003984D02*
X8379229Y-7803984D01*
X8379229Y-7803984D02*
X8445896Y-7946841D01*
X8445896Y-7946841D02*
X8512563Y-7803984D01*
X8512563Y-7803984D02*
X8512563Y-8003984D01*
X8693515Y-8003984D02*
X8693515Y-7899222D01*
X8693515Y-7899222D02*
X8683991Y-7880174D01*
X8683991Y-7880174D02*
X8664944Y-7870650D01*
X8664944Y-7870650D02*
X8626848Y-7870650D01*
X8626848Y-7870650D02*
X8607801Y-7880174D01*
X8693515Y-7994460D02*
X8674467Y-8003984D01*
X8674467Y-8003984D02*
X8626848Y-8003984D01*
X8626848Y-8003984D02*
X8607801Y-7994460D01*
X8607801Y-7994460D02*
X8598277Y-7975412D01*
X8598277Y-7975412D02*
X8598277Y-7956365D01*
X8598277Y-7956365D02*
X8607801Y-7937317D01*
X8607801Y-7937317D02*
X8626848Y-7927793D01*
X8626848Y-7927793D02*
X8674467Y-7927793D01*
X8674467Y-7927793D02*
X8693515Y-7918269D01*
X8788753Y-7870650D02*
X8788753Y-8070650D01*
X8788753Y-7880174D02*
X8807801Y-7870650D01*
X8807801Y-7870650D02*
X8845896Y-7870650D01*
X8845896Y-7870650D02*
X8864944Y-7880174D01*
X8864944Y-7880174D02*
X8874467Y-7889698D01*
X8874467Y-7889698D02*
X8883991Y-7908746D01*
X8883991Y-7908746D02*
X8883991Y-7965888D01*
X8883991Y-7965888D02*
X8874467Y-7984936D01*
X8874467Y-7984936D02*
X8864944Y-7994460D01*
X8864944Y-7994460D02*
X8845896Y-8003984D01*
X8845896Y-8003984D02*
X8807801Y-8003984D01*
X8807801Y-8003984D02*
X8788753Y-7994460D01*
X8969705Y-7984936D02*
X8979229Y-7994460D01*
X8979229Y-7994460D02*
X8969705Y-8003984D01*
X8969705Y-8003984D02*
X8960182Y-7994460D01*
X8960182Y-7994460D02*
X8969705Y-7984936D01*
X8969705Y-7984936D02*
X8969705Y-8003984D01*
X8969705Y-7880174D02*
X8979229Y-7889698D01*
X8979229Y-7889698D02*
X8969705Y-7899222D01*
X8969705Y-7899222D02*
X8960182Y-7889698D01*
X8960182Y-7889698D02*
X8969705Y-7880174D01*
X8969705Y-7880174D02*
X8969705Y-7899222D01*
D12*
X7287500Y-8307500D02*
X7337500Y-8357500D01*
X7337500Y-8307500D02*
X7287500Y-8357500D01*
D11*
X7636372Y-8223984D02*
X7655420Y-8223984D01*
X7655420Y-8223984D02*
X7674467Y-8233508D01*
X7674467Y-8233508D02*
X7683991Y-8243031D01*
X7683991Y-8243031D02*
X7693515Y-8262079D01*
X7693515Y-8262079D02*
X7703039Y-8300174D01*
X7703039Y-8300174D02*
X7703039Y-8347793D01*
X7703039Y-8347793D02*
X7693515Y-8385888D01*
X7693515Y-8385888D02*
X7683991Y-8404936D01*
X7683991Y-8404936D02*
X7674467Y-8414460D01*
X7674467Y-8414460D02*
X7655420Y-8423984D01*
X7655420Y-8423984D02*
X7636372Y-8423984D01*
X7636372Y-8423984D02*
X7617324Y-8414460D01*
X7617324Y-8414460D02*
X7607801Y-8404936D01*
X7607801Y-8404936D02*
X7598277Y-8385888D01*
X7598277Y-8385888D02*
X7588753Y-8347793D01*
X7588753Y-8347793D02*
X7588753Y-8300174D01*
X7588753Y-8300174D02*
X7598277Y-8262079D01*
X7598277Y-8262079D02*
X7607801Y-8243031D01*
X7607801Y-8243031D02*
X7617324Y-8233508D01*
X7617324Y-8233508D02*
X7636372Y-8223984D01*
X7788753Y-8404936D02*
X7798277Y-8414460D01*
X7798277Y-8414460D02*
X7788753Y-8423984D01*
X7788753Y-8423984D02*
X7779229Y-8414460D01*
X7779229Y-8414460D02*
X7788753Y-8404936D01*
X7788753Y-8404936D02*
X7788753Y-8423984D01*
X7979229Y-8223984D02*
X7883991Y-8223984D01*
X7883991Y-8223984D02*
X7874467Y-8319222D01*
X7874467Y-8319222D02*
X7883991Y-8309698D01*
X7883991Y-8309698D02*
X7903039Y-8300174D01*
X7903039Y-8300174D02*
X7950658Y-8300174D01*
X7950658Y-8300174D02*
X7969705Y-8309698D01*
X7969705Y-8309698D02*
X7979229Y-8319222D01*
X7979229Y-8319222D02*
X7988753Y-8338269D01*
X7988753Y-8338269D02*
X7988753Y-8385888D01*
X7988753Y-8385888D02*
X7979229Y-8404936D01*
X7979229Y-8404936D02*
X7969705Y-8414460D01*
X7969705Y-8414460D02*
X7950658Y-8423984D01*
X7950658Y-8423984D02*
X7903039Y-8423984D01*
X7903039Y-8423984D02*
X7883991Y-8414460D01*
X7883991Y-8414460D02*
X7874467Y-8404936D01*
X8112562Y-8223984D02*
X8131610Y-8223984D01*
X8131610Y-8223984D02*
X8150658Y-8233508D01*
X8150658Y-8233508D02*
X8160182Y-8243031D01*
X8160182Y-8243031D02*
X8169705Y-8262079D01*
X8169705Y-8262079D02*
X8179229Y-8300174D01*
X8179229Y-8300174D02*
X8179229Y-8347793D01*
X8179229Y-8347793D02*
X8169705Y-8385888D01*
X8169705Y-8385888D02*
X8160182Y-8404936D01*
X8160182Y-8404936D02*
X8150658Y-8414460D01*
X8150658Y-8414460D02*
X8131610Y-8423984D01*
X8131610Y-8423984D02*
X8112562Y-8423984D01*
X8112562Y-8423984D02*
X8093515Y-8414460D01*
X8093515Y-8414460D02*
X8083991Y-8404936D01*
X8083991Y-8404936D02*
X8074467Y-8385888D01*
X8074467Y-8385888D02*
X8064943Y-8347793D01*
X8064943Y-8347793D02*
X8064943Y-8300174D01*
X8064943Y-8300174D02*
X8074467Y-8262079D01*
X8074467Y-8262079D02*
X8083991Y-8243031D01*
X8083991Y-8243031D02*
X8093515Y-8233508D01*
X8093515Y-8233508D02*
X8112562Y-8223984D01*
X8303039Y-8223984D02*
X8322086Y-8223984D01*
X8322086Y-8223984D02*
X8341134Y-8233508D01*
X8341134Y-8233508D02*
X8350658Y-8243031D01*
X8350658Y-8243031D02*
X8360182Y-8262079D01*
X8360182Y-8262079D02*
X8369705Y-8300174D01*
X8369705Y-8300174D02*
X8369705Y-8347793D01*
X8369705Y-8347793D02*
X8360182Y-8385888D01*
X8360182Y-8385888D02*
X8350658Y-8404936D01*
X8350658Y-8404936D02*
X8341134Y-8414460D01*
X8341134Y-8414460D02*
X8322086Y-8423984D01*
X8322086Y-8423984D02*
X8303039Y-8423984D01*
X8303039Y-8423984D02*
X8283991Y-8414460D01*
X8283991Y-8414460D02*
X8274467Y-8404936D01*
X8274467Y-8404936D02*
X8264943Y-8385888D01*
X8264943Y-8385888D02*
X8255420Y-8347793D01*
X8255420Y-8347793D02*
X8255420Y-8300174D01*
X8255420Y-8300174D02*
X8264943Y-8262079D01*
X8264943Y-8262079D02*
X8274467Y-8243031D01*
X8274467Y-8243031D02*
X8283991Y-8233508D01*
X8283991Y-8233508D02*
X8303039Y-8223984D01*
X8455420Y-8423984D02*
X8455420Y-8290650D01*
X8455420Y-8309698D02*
X8464944Y-8300174D01*
X8464944Y-8300174D02*
X8483991Y-8290650D01*
X8483991Y-8290650D02*
X8512563Y-8290650D01*
X8512563Y-8290650D02*
X8531610Y-8300174D01*
X8531610Y-8300174D02*
X8541134Y-8319222D01*
X8541134Y-8319222D02*
X8541134Y-8423984D01*
X8541134Y-8319222D02*
X8550658Y-8300174D01*
X8550658Y-8300174D02*
X8569705Y-8290650D01*
X8569705Y-8290650D02*
X8598277Y-8290650D01*
X8598277Y-8290650D02*
X8617325Y-8300174D01*
X8617325Y-8300174D02*
X8626848Y-8319222D01*
X8626848Y-8319222D02*
X8626848Y-8423984D01*
X8722086Y-8423984D02*
X8722086Y-8290650D01*
X8722086Y-8309698D02*
X8731610Y-8300174D01*
X8731610Y-8300174D02*
X8750658Y-8290650D01*
X8750658Y-8290650D02*
X8779229Y-8290650D01*
X8779229Y-8290650D02*
X8798277Y-8300174D01*
X8798277Y-8300174D02*
X8807801Y-8319222D01*
X8807801Y-8319222D02*
X8807801Y-8423984D01*
X8807801Y-8319222D02*
X8817325Y-8300174D01*
X8817325Y-8300174D02*
X8836372Y-8290650D01*
X8836372Y-8290650D02*
X8864944Y-8290650D01*
X8864944Y-8290650D02*
X8883991Y-8300174D01*
X8883991Y-8300174D02*
X8893515Y-8319222D01*
X8893515Y-8319222D02*
X8893515Y-8423984D01*
X9283991Y-8214460D02*
X9112563Y-8471603D01*
X9541134Y-8223984D02*
X9560182Y-8223984D01*
X9560182Y-8223984D02*
X9579229Y-8233508D01*
X9579229Y-8233508D02*
X9588753Y-8243031D01*
X9588753Y-8243031D02*
X9598277Y-8262079D01*
X9598277Y-8262079D02*
X9607801Y-8300174D01*
X9607801Y-8300174D02*
X9607801Y-8347793D01*
X9607801Y-8347793D02*
X9598277Y-8385888D01*
X9598277Y-8385888D02*
X9588753Y-8404936D01*
X9588753Y-8404936D02*
X9579229Y-8414460D01*
X9579229Y-8414460D02*
X9560182Y-8423984D01*
X9560182Y-8423984D02*
X9541134Y-8423984D01*
X9541134Y-8423984D02*
X9522087Y-8414460D01*
X9522087Y-8414460D02*
X9512563Y-8404936D01*
X9512563Y-8404936D02*
X9503039Y-8385888D01*
X9503039Y-8385888D02*
X9493515Y-8347793D01*
X9493515Y-8347793D02*
X9493515Y-8300174D01*
X9493515Y-8300174D02*
X9503039Y-8262079D01*
X9503039Y-8262079D02*
X9512563Y-8243031D01*
X9512563Y-8243031D02*
X9522087Y-8233508D01*
X9522087Y-8233508D02*
X9541134Y-8223984D01*
X9693515Y-8404936D02*
X9703039Y-8414460D01*
X9703039Y-8414460D02*
X9693515Y-8423984D01*
X9693515Y-8423984D02*
X9683991Y-8414460D01*
X9683991Y-8414460D02*
X9693515Y-8404936D01*
X9693515Y-8404936D02*
X9693515Y-8423984D01*
X9826848Y-8223984D02*
X9845896Y-8223984D01*
X9845896Y-8223984D02*
X9864944Y-8233508D01*
X9864944Y-8233508D02*
X9874468Y-8243031D01*
X9874468Y-8243031D02*
X9883991Y-8262079D01*
X9883991Y-8262079D02*
X9893515Y-8300174D01*
X9893515Y-8300174D02*
X9893515Y-8347793D01*
X9893515Y-8347793D02*
X9883991Y-8385888D01*
X9883991Y-8385888D02*
X9874468Y-8404936D01*
X9874468Y-8404936D02*
X9864944Y-8414460D01*
X9864944Y-8414460D02*
X9845896Y-8423984D01*
X9845896Y-8423984D02*
X9826848Y-8423984D01*
X9826848Y-8423984D02*
X9807801Y-8414460D01*
X9807801Y-8414460D02*
X9798277Y-8404936D01*
X9798277Y-8404936D02*
X9788753Y-8385888D01*
X9788753Y-8385888D02*
X9779229Y-8347793D01*
X9779229Y-8347793D02*
X9779229Y-8300174D01*
X9779229Y-8300174D02*
X9788753Y-8262079D01*
X9788753Y-8262079D02*
X9798277Y-8243031D01*
X9798277Y-8243031D02*
X9807801Y-8233508D01*
X9807801Y-8233508D02*
X9826848Y-8223984D01*
X10083991Y-8423984D02*
X9969706Y-8423984D01*
X10026848Y-8423984D02*
X10026848Y-8223984D01*
X10026848Y-8223984D02*
X10007801Y-8252555D01*
X10007801Y-8252555D02*
X9988753Y-8271603D01*
X9988753Y-8271603D02*
X9969706Y-8281127D01*
X10179229Y-8423984D02*
X10217325Y-8423984D01*
X10217325Y-8423984D02*
X10236372Y-8414460D01*
X10236372Y-8414460D02*
X10245896Y-8404936D01*
X10245896Y-8404936D02*
X10264944Y-8376365D01*
X10264944Y-8376365D02*
X10274468Y-8338269D01*
X10274468Y-8338269D02*
X10274468Y-8262079D01*
X10274468Y-8262079D02*
X10264944Y-8243031D01*
X10264944Y-8243031D02*
X10255420Y-8233508D01*
X10255420Y-8233508D02*
X10236372Y-8223984D01*
X10236372Y-8223984D02*
X10198277Y-8223984D01*
X10198277Y-8223984D02*
X10179229Y-8233508D01*
X10179229Y-8233508D02*
X10169706Y-8243031D01*
X10169706Y-8243031D02*
X10160182Y-8262079D01*
X10160182Y-8262079D02*
X10160182Y-8309698D01*
X10160182Y-8309698D02*
X10169706Y-8328746D01*
X10169706Y-8328746D02*
X10179229Y-8338269D01*
X10179229Y-8338269D02*
X10198277Y-8347793D01*
X10198277Y-8347793D02*
X10236372Y-8347793D01*
X10236372Y-8347793D02*
X10255420Y-8338269D01*
X10255420Y-8338269D02*
X10264944Y-8328746D01*
X10264944Y-8328746D02*
X10274468Y-8309698D01*
X10341134Y-8223984D02*
X10474468Y-8223984D01*
X10474468Y-8223984D02*
X10388753Y-8423984D01*
X10541134Y-8223984D02*
X10541134Y-8262079D01*
X10617325Y-8223984D02*
X10617325Y-8262079D01*
X10912563Y-8500174D02*
X10903039Y-8490650D01*
X10903039Y-8490650D02*
X10883991Y-8462079D01*
X10883991Y-8462079D02*
X10874468Y-8443031D01*
X10874468Y-8443031D02*
X10864944Y-8414460D01*
X10864944Y-8414460D02*
X10855420Y-8366841D01*
X10855420Y-8366841D02*
X10855420Y-8328746D01*
X10855420Y-8328746D02*
X10864944Y-8281127D01*
X10864944Y-8281127D02*
X10874468Y-8252555D01*
X10874468Y-8252555D02*
X10883991Y-8233508D01*
X10883991Y-8233508D02*
X10903039Y-8204936D01*
X10903039Y-8204936D02*
X10912563Y-8195412D01*
X10979230Y-8243031D02*
X10988753Y-8233508D01*
X10988753Y-8233508D02*
X11007801Y-8223984D01*
X11007801Y-8223984D02*
X11055420Y-8223984D01*
X11055420Y-8223984D02*
X11074468Y-8233508D01*
X11074468Y-8233508D02*
X11083991Y-8243031D01*
X11083991Y-8243031D02*
X11093515Y-8262079D01*
X11093515Y-8262079D02*
X11093515Y-8281127D01*
X11093515Y-8281127D02*
X11083991Y-8309698D01*
X11083991Y-8309698D02*
X10969706Y-8423984D01*
X10969706Y-8423984D02*
X11093515Y-8423984D01*
X11207801Y-8309698D02*
X11188753Y-8300174D01*
X11188753Y-8300174D02*
X11179230Y-8290650D01*
X11179230Y-8290650D02*
X11169706Y-8271603D01*
X11169706Y-8271603D02*
X11169706Y-8262079D01*
X11169706Y-8262079D02*
X11179230Y-8243031D01*
X11179230Y-8243031D02*
X11188753Y-8233508D01*
X11188753Y-8233508D02*
X11207801Y-8223984D01*
X11207801Y-8223984D02*
X11245896Y-8223984D01*
X11245896Y-8223984D02*
X11264944Y-8233508D01*
X11264944Y-8233508D02*
X11274468Y-8243031D01*
X11274468Y-8243031D02*
X11283991Y-8262079D01*
X11283991Y-8262079D02*
X11283991Y-8271603D01*
X11283991Y-8271603D02*
X11274468Y-8290650D01*
X11274468Y-8290650D02*
X11264944Y-8300174D01*
X11264944Y-8300174D02*
X11245896Y-8309698D01*
X11245896Y-8309698D02*
X11207801Y-8309698D01*
X11207801Y-8309698D02*
X11188753Y-8319222D01*
X11188753Y-8319222D02*
X11179230Y-8328746D01*
X11179230Y-8328746D02*
X11169706Y-8347793D01*
X11169706Y-8347793D02*
X11169706Y-8385888D01*
X11169706Y-8385888D02*
X11179230Y-8404936D01*
X11179230Y-8404936D02*
X11188753Y-8414460D01*
X11188753Y-8414460D02*
X11207801Y-8423984D01*
X11207801Y-8423984D02*
X11245896Y-8423984D01*
X11245896Y-8423984D02*
X11264944Y-8414460D01*
X11264944Y-8414460D02*
X11274468Y-8404936D01*
X11274468Y-8404936D02*
X11283991Y-8385888D01*
X11283991Y-8385888D02*
X11283991Y-8347793D01*
X11283991Y-8347793D02*
X11274468Y-8328746D01*
X11274468Y-8328746D02*
X11264944Y-8319222D01*
X11264944Y-8319222D02*
X11245896Y-8309698D01*
X11522087Y-8423984D02*
X11522087Y-8223984D01*
X11607801Y-8423984D02*
X11607801Y-8319222D01*
X11607801Y-8319222D02*
X11598277Y-8300174D01*
X11598277Y-8300174D02*
X11579230Y-8290650D01*
X11579230Y-8290650D02*
X11550658Y-8290650D01*
X11550658Y-8290650D02*
X11531610Y-8300174D01*
X11531610Y-8300174D02*
X11522087Y-8309698D01*
X11731610Y-8423984D02*
X11712563Y-8414460D01*
X11712563Y-8414460D02*
X11703039Y-8404936D01*
X11703039Y-8404936D02*
X11693515Y-8385888D01*
X11693515Y-8385888D02*
X11693515Y-8328746D01*
X11693515Y-8328746D02*
X11703039Y-8309698D01*
X11703039Y-8309698D02*
X11712563Y-8300174D01*
X11712563Y-8300174D02*
X11731610Y-8290650D01*
X11731610Y-8290650D02*
X11760182Y-8290650D01*
X11760182Y-8290650D02*
X11779230Y-8300174D01*
X11779230Y-8300174D02*
X11788753Y-8309698D01*
X11788753Y-8309698D02*
X11798277Y-8328746D01*
X11798277Y-8328746D02*
X11798277Y-8385888D01*
X11798277Y-8385888D02*
X11788753Y-8404936D01*
X11788753Y-8404936D02*
X11779230Y-8414460D01*
X11779230Y-8414460D02*
X11760182Y-8423984D01*
X11760182Y-8423984D02*
X11731610Y-8423984D01*
X11912563Y-8423984D02*
X11893515Y-8414460D01*
X11893515Y-8414460D02*
X11883991Y-8395412D01*
X11883991Y-8395412D02*
X11883991Y-8223984D01*
X12064944Y-8414460D02*
X12045896Y-8423984D01*
X12045896Y-8423984D02*
X12007801Y-8423984D01*
X12007801Y-8423984D02*
X11988753Y-8414460D01*
X11988753Y-8414460D02*
X11979230Y-8395412D01*
X11979230Y-8395412D02*
X11979230Y-8319222D01*
X11979230Y-8319222D02*
X11988753Y-8300174D01*
X11988753Y-8300174D02*
X12007801Y-8290650D01*
X12007801Y-8290650D02*
X12045896Y-8290650D01*
X12045896Y-8290650D02*
X12064944Y-8300174D01*
X12064944Y-8300174D02*
X12074468Y-8319222D01*
X12074468Y-8319222D02*
X12074468Y-8338269D01*
X12074468Y-8338269D02*
X11979230Y-8357317D01*
X12150658Y-8414460D02*
X12169706Y-8423984D01*
X12169706Y-8423984D02*
X12207801Y-8423984D01*
X12207801Y-8423984D02*
X12226849Y-8414460D01*
X12226849Y-8414460D02*
X12236372Y-8395412D01*
X12236372Y-8395412D02*
X12236372Y-8385888D01*
X12236372Y-8385888D02*
X12226849Y-8366841D01*
X12226849Y-8366841D02*
X12207801Y-8357317D01*
X12207801Y-8357317D02*
X12179230Y-8357317D01*
X12179230Y-8357317D02*
X12160182Y-8347793D01*
X12160182Y-8347793D02*
X12150658Y-8328746D01*
X12150658Y-8328746D02*
X12150658Y-8319222D01*
X12150658Y-8319222D02*
X12160182Y-8300174D01*
X12160182Y-8300174D02*
X12179230Y-8290650D01*
X12179230Y-8290650D02*
X12207801Y-8290650D01*
X12207801Y-8290650D02*
X12226849Y-8300174D01*
X12303039Y-8500174D02*
X12312563Y-8490650D01*
X12312563Y-8490650D02*
X12331611Y-8462079D01*
X12331611Y-8462079D02*
X12341134Y-8443031D01*
X12341134Y-8443031D02*
X12350658Y-8414460D01*
X12350658Y-8414460D02*
X12360182Y-8366841D01*
X12360182Y-8366841D02*
X12360182Y-8328746D01*
X12360182Y-8328746D02*
X12350658Y-8281127D01*
X12350658Y-8281127D02*
X12341134Y-8252555D01*
X12341134Y-8252555D02*
X12331611Y-8233508D01*
X12331611Y-8233508D02*
X12312563Y-8204936D01*
X12312563Y-8204936D02*
X12303039Y-8195412D01*
D12*
X7337500Y-8596500D02*
G75*
G02*
X7237500Y-8596500I-50000J0D01*
G01*
X7237500Y-8596500D02*
G75*
G02*
X7337500Y-8596500I50000J0D01*
G01*
D11*
X7703039Y-8687984D02*
X7588753Y-8687984D01*
X7645896Y-8687984D02*
X7645896Y-8487984D01*
X7645896Y-8487984D02*
X7626848Y-8516555D01*
X7626848Y-8516555D02*
X7607801Y-8535603D01*
X7607801Y-8535603D02*
X7588753Y-8545127D01*
X7788753Y-8668936D02*
X7798277Y-8678460D01*
X7798277Y-8678460D02*
X7788753Y-8687984D01*
X7788753Y-8687984D02*
X7779229Y-8678460D01*
X7779229Y-8678460D02*
X7788753Y-8668936D01*
X7788753Y-8668936D02*
X7788753Y-8687984D01*
X7922086Y-8487984D02*
X7941134Y-8487984D01*
X7941134Y-8487984D02*
X7960182Y-8497508D01*
X7960182Y-8497508D02*
X7969705Y-8507031D01*
X7969705Y-8507031D02*
X7979229Y-8526079D01*
X7979229Y-8526079D02*
X7988753Y-8564174D01*
X7988753Y-8564174D02*
X7988753Y-8611793D01*
X7988753Y-8611793D02*
X7979229Y-8649889D01*
X7979229Y-8649889D02*
X7969705Y-8668936D01*
X7969705Y-8668936D02*
X7960182Y-8678460D01*
X7960182Y-8678460D02*
X7941134Y-8687984D01*
X7941134Y-8687984D02*
X7922086Y-8687984D01*
X7922086Y-8687984D02*
X7903039Y-8678460D01*
X7903039Y-8678460D02*
X7893515Y-8668936D01*
X7893515Y-8668936D02*
X7883991Y-8649889D01*
X7883991Y-8649889D02*
X7874467Y-8611793D01*
X7874467Y-8611793D02*
X7874467Y-8564174D01*
X7874467Y-8564174D02*
X7883991Y-8526079D01*
X7883991Y-8526079D02*
X7893515Y-8507031D01*
X7893515Y-8507031D02*
X7903039Y-8497508D01*
X7903039Y-8497508D02*
X7922086Y-8487984D01*
X8112562Y-8487984D02*
X8131610Y-8487984D01*
X8131610Y-8487984D02*
X8150658Y-8497508D01*
X8150658Y-8497508D02*
X8160182Y-8507031D01*
X8160182Y-8507031D02*
X8169705Y-8526079D01*
X8169705Y-8526079D02*
X8179229Y-8564174D01*
X8179229Y-8564174D02*
X8179229Y-8611793D01*
X8179229Y-8611793D02*
X8169705Y-8649889D01*
X8169705Y-8649889D02*
X8160182Y-8668936D01*
X8160182Y-8668936D02*
X8150658Y-8678460D01*
X8150658Y-8678460D02*
X8131610Y-8687984D01*
X8131610Y-8687984D02*
X8112562Y-8687984D01*
X8112562Y-8687984D02*
X8093515Y-8678460D01*
X8093515Y-8678460D02*
X8083991Y-8668936D01*
X8083991Y-8668936D02*
X8074467Y-8649889D01*
X8074467Y-8649889D02*
X8064943Y-8611793D01*
X8064943Y-8611793D02*
X8064943Y-8564174D01*
X8064943Y-8564174D02*
X8074467Y-8526079D01*
X8074467Y-8526079D02*
X8083991Y-8507031D01*
X8083991Y-8507031D02*
X8093515Y-8497508D01*
X8093515Y-8497508D02*
X8112562Y-8487984D01*
X8303039Y-8487984D02*
X8322086Y-8487984D01*
X8322086Y-8487984D02*
X8341134Y-8497508D01*
X8341134Y-8497508D02*
X8350658Y-8507031D01*
X8350658Y-8507031D02*
X8360182Y-8526079D01*
X8360182Y-8526079D02*
X8369705Y-8564174D01*
X8369705Y-8564174D02*
X8369705Y-8611793D01*
X8369705Y-8611793D02*
X8360182Y-8649889D01*
X8360182Y-8649889D02*
X8350658Y-8668936D01*
X8350658Y-8668936D02*
X8341134Y-8678460D01*
X8341134Y-8678460D02*
X8322086Y-8687984D01*
X8322086Y-8687984D02*
X8303039Y-8687984D01*
X8303039Y-8687984D02*
X8283991Y-8678460D01*
X8283991Y-8678460D02*
X8274467Y-8668936D01*
X8274467Y-8668936D02*
X8264943Y-8649889D01*
X8264943Y-8649889D02*
X8255420Y-8611793D01*
X8255420Y-8611793D02*
X8255420Y-8564174D01*
X8255420Y-8564174D02*
X8264943Y-8526079D01*
X8264943Y-8526079D02*
X8274467Y-8507031D01*
X8274467Y-8507031D02*
X8283991Y-8497508D01*
X8283991Y-8497508D02*
X8303039Y-8487984D01*
X8455420Y-8687984D02*
X8455420Y-8554650D01*
X8455420Y-8573698D02*
X8464944Y-8564174D01*
X8464944Y-8564174D02*
X8483991Y-8554650D01*
X8483991Y-8554650D02*
X8512563Y-8554650D01*
X8512563Y-8554650D02*
X8531610Y-8564174D01*
X8531610Y-8564174D02*
X8541134Y-8583222D01*
X8541134Y-8583222D02*
X8541134Y-8687984D01*
X8541134Y-8583222D02*
X8550658Y-8564174D01*
X8550658Y-8564174D02*
X8569705Y-8554650D01*
X8569705Y-8554650D02*
X8598277Y-8554650D01*
X8598277Y-8554650D02*
X8617325Y-8564174D01*
X8617325Y-8564174D02*
X8626848Y-8583222D01*
X8626848Y-8583222D02*
X8626848Y-8687984D01*
X8722086Y-8687984D02*
X8722086Y-8554650D01*
X8722086Y-8573698D02*
X8731610Y-8564174D01*
X8731610Y-8564174D02*
X8750658Y-8554650D01*
X8750658Y-8554650D02*
X8779229Y-8554650D01*
X8779229Y-8554650D02*
X8798277Y-8564174D01*
X8798277Y-8564174D02*
X8807801Y-8583222D01*
X8807801Y-8583222D02*
X8807801Y-8687984D01*
X8807801Y-8583222D02*
X8817325Y-8564174D01*
X8817325Y-8564174D02*
X8836372Y-8554650D01*
X8836372Y-8554650D02*
X8864944Y-8554650D01*
X8864944Y-8554650D02*
X8883991Y-8564174D01*
X8883991Y-8564174D02*
X8893515Y-8583222D01*
X8893515Y-8583222D02*
X8893515Y-8687984D01*
X9283991Y-8478460D02*
X9112563Y-8735603D01*
X9541134Y-8487984D02*
X9560182Y-8487984D01*
X9560182Y-8487984D02*
X9579229Y-8497508D01*
X9579229Y-8497508D02*
X9588753Y-8507031D01*
X9588753Y-8507031D02*
X9598277Y-8526079D01*
X9598277Y-8526079D02*
X9607801Y-8564174D01*
X9607801Y-8564174D02*
X9607801Y-8611793D01*
X9607801Y-8611793D02*
X9598277Y-8649889D01*
X9598277Y-8649889D02*
X9588753Y-8668936D01*
X9588753Y-8668936D02*
X9579229Y-8678460D01*
X9579229Y-8678460D02*
X9560182Y-8687984D01*
X9560182Y-8687984D02*
X9541134Y-8687984D01*
X9541134Y-8687984D02*
X9522087Y-8678460D01*
X9522087Y-8678460D02*
X9512563Y-8668936D01*
X9512563Y-8668936D02*
X9503039Y-8649889D01*
X9503039Y-8649889D02*
X9493515Y-8611793D01*
X9493515Y-8611793D02*
X9493515Y-8564174D01*
X9493515Y-8564174D02*
X9503039Y-8526079D01*
X9503039Y-8526079D02*
X9512563Y-8507031D01*
X9512563Y-8507031D02*
X9522087Y-8497508D01*
X9522087Y-8497508D02*
X9541134Y-8487984D01*
X9693515Y-8668936D02*
X9703039Y-8678460D01*
X9703039Y-8678460D02*
X9693515Y-8687984D01*
X9693515Y-8687984D02*
X9683991Y-8678460D01*
X9683991Y-8678460D02*
X9693515Y-8668936D01*
X9693515Y-8668936D02*
X9693515Y-8687984D01*
X9826848Y-8487984D02*
X9845896Y-8487984D01*
X9845896Y-8487984D02*
X9864944Y-8497508D01*
X9864944Y-8497508D02*
X9874468Y-8507031D01*
X9874468Y-8507031D02*
X9883991Y-8526079D01*
X9883991Y-8526079D02*
X9893515Y-8564174D01*
X9893515Y-8564174D02*
X9893515Y-8611793D01*
X9893515Y-8611793D02*
X9883991Y-8649889D01*
X9883991Y-8649889D02*
X9874468Y-8668936D01*
X9874468Y-8668936D02*
X9864944Y-8678460D01*
X9864944Y-8678460D02*
X9845896Y-8687984D01*
X9845896Y-8687984D02*
X9826848Y-8687984D01*
X9826848Y-8687984D02*
X9807801Y-8678460D01*
X9807801Y-8678460D02*
X9798277Y-8668936D01*
X9798277Y-8668936D02*
X9788753Y-8649889D01*
X9788753Y-8649889D02*
X9779229Y-8611793D01*
X9779229Y-8611793D02*
X9779229Y-8564174D01*
X9779229Y-8564174D02*
X9788753Y-8526079D01*
X9788753Y-8526079D02*
X9798277Y-8507031D01*
X9798277Y-8507031D02*
X9807801Y-8497508D01*
X9807801Y-8497508D02*
X9826848Y-8487984D01*
X9960182Y-8487984D02*
X10083991Y-8487984D01*
X10083991Y-8487984D02*
X10017325Y-8564174D01*
X10017325Y-8564174D02*
X10045896Y-8564174D01*
X10045896Y-8564174D02*
X10064944Y-8573698D01*
X10064944Y-8573698D02*
X10074468Y-8583222D01*
X10074468Y-8583222D02*
X10083991Y-8602270D01*
X10083991Y-8602270D02*
X10083991Y-8649889D01*
X10083991Y-8649889D02*
X10074468Y-8668936D01*
X10074468Y-8668936D02*
X10064944Y-8678460D01*
X10064944Y-8678460D02*
X10045896Y-8687984D01*
X10045896Y-8687984D02*
X9988753Y-8687984D01*
X9988753Y-8687984D02*
X9969706Y-8678460D01*
X9969706Y-8678460D02*
X9960182Y-8668936D01*
X10179229Y-8687984D02*
X10217325Y-8687984D01*
X10217325Y-8687984D02*
X10236372Y-8678460D01*
X10236372Y-8678460D02*
X10245896Y-8668936D01*
X10245896Y-8668936D02*
X10264944Y-8640365D01*
X10264944Y-8640365D02*
X10274468Y-8602270D01*
X10274468Y-8602270D02*
X10274468Y-8526079D01*
X10274468Y-8526079D02*
X10264944Y-8507031D01*
X10264944Y-8507031D02*
X10255420Y-8497508D01*
X10255420Y-8497508D02*
X10236372Y-8487984D01*
X10236372Y-8487984D02*
X10198277Y-8487984D01*
X10198277Y-8487984D02*
X10179229Y-8497508D01*
X10179229Y-8497508D02*
X10169706Y-8507031D01*
X10169706Y-8507031D02*
X10160182Y-8526079D01*
X10160182Y-8526079D02*
X10160182Y-8573698D01*
X10160182Y-8573698D02*
X10169706Y-8592746D01*
X10169706Y-8592746D02*
X10179229Y-8602270D01*
X10179229Y-8602270D02*
X10198277Y-8611793D01*
X10198277Y-8611793D02*
X10236372Y-8611793D01*
X10236372Y-8611793D02*
X10255420Y-8602270D01*
X10255420Y-8602270D02*
X10264944Y-8592746D01*
X10264944Y-8592746D02*
X10274468Y-8573698D01*
X10445896Y-8554650D02*
X10445896Y-8687984D01*
X10398277Y-8478460D02*
X10350658Y-8621317D01*
X10350658Y-8621317D02*
X10474468Y-8621317D01*
X10541134Y-8487984D02*
X10541134Y-8526079D01*
X10617325Y-8487984D02*
X10617325Y-8526079D01*
X10912563Y-8764174D02*
X10903039Y-8754650D01*
X10903039Y-8754650D02*
X10883991Y-8726079D01*
X10883991Y-8726079D02*
X10874468Y-8707031D01*
X10874468Y-8707031D02*
X10864944Y-8678460D01*
X10864944Y-8678460D02*
X10855420Y-8630841D01*
X10855420Y-8630841D02*
X10855420Y-8592746D01*
X10855420Y-8592746D02*
X10864944Y-8545127D01*
X10864944Y-8545127D02*
X10874468Y-8516555D01*
X10874468Y-8516555D02*
X10883991Y-8497508D01*
X10883991Y-8497508D02*
X10903039Y-8468936D01*
X10903039Y-8468936D02*
X10912563Y-8459412D01*
X11083991Y-8487984D02*
X10988753Y-8487984D01*
X10988753Y-8487984D02*
X10979230Y-8583222D01*
X10979230Y-8583222D02*
X10988753Y-8573698D01*
X10988753Y-8573698D02*
X11007801Y-8564174D01*
X11007801Y-8564174D02*
X11055420Y-8564174D01*
X11055420Y-8564174D02*
X11074468Y-8573698D01*
X11074468Y-8573698D02*
X11083991Y-8583222D01*
X11083991Y-8583222D02*
X11093515Y-8602270D01*
X11093515Y-8602270D02*
X11093515Y-8649889D01*
X11093515Y-8649889D02*
X11083991Y-8668936D01*
X11083991Y-8668936D02*
X11074468Y-8678460D01*
X11074468Y-8678460D02*
X11055420Y-8687984D01*
X11055420Y-8687984D02*
X11007801Y-8687984D01*
X11007801Y-8687984D02*
X10988753Y-8678460D01*
X10988753Y-8678460D02*
X10979230Y-8668936D01*
X11207801Y-8573698D02*
X11188753Y-8564174D01*
X11188753Y-8564174D02*
X11179230Y-8554650D01*
X11179230Y-8554650D02*
X11169706Y-8535603D01*
X11169706Y-8535603D02*
X11169706Y-8526079D01*
X11169706Y-8526079D02*
X11179230Y-8507031D01*
X11179230Y-8507031D02*
X11188753Y-8497508D01*
X11188753Y-8497508D02*
X11207801Y-8487984D01*
X11207801Y-8487984D02*
X11245896Y-8487984D01*
X11245896Y-8487984D02*
X11264944Y-8497508D01*
X11264944Y-8497508D02*
X11274468Y-8507031D01*
X11274468Y-8507031D02*
X11283991Y-8526079D01*
X11283991Y-8526079D02*
X11283991Y-8535603D01*
X11283991Y-8535603D02*
X11274468Y-8554650D01*
X11274468Y-8554650D02*
X11264944Y-8564174D01*
X11264944Y-8564174D02*
X11245896Y-8573698D01*
X11245896Y-8573698D02*
X11207801Y-8573698D01*
X11207801Y-8573698D02*
X11188753Y-8583222D01*
X11188753Y-8583222D02*
X11179230Y-8592746D01*
X11179230Y-8592746D02*
X11169706Y-8611793D01*
X11169706Y-8611793D02*
X11169706Y-8649889D01*
X11169706Y-8649889D02*
X11179230Y-8668936D01*
X11179230Y-8668936D02*
X11188753Y-8678460D01*
X11188753Y-8678460D02*
X11207801Y-8687984D01*
X11207801Y-8687984D02*
X11245896Y-8687984D01*
X11245896Y-8687984D02*
X11264944Y-8678460D01*
X11264944Y-8678460D02*
X11274468Y-8668936D01*
X11274468Y-8668936D02*
X11283991Y-8649889D01*
X11283991Y-8649889D02*
X11283991Y-8611793D01*
X11283991Y-8611793D02*
X11274468Y-8592746D01*
X11274468Y-8592746D02*
X11264944Y-8583222D01*
X11264944Y-8583222D02*
X11245896Y-8573698D01*
X11522087Y-8687984D02*
X11522087Y-8487984D01*
X11607801Y-8687984D02*
X11607801Y-8583222D01*
X11607801Y-8583222D02*
X11598277Y-8564174D01*
X11598277Y-8564174D02*
X11579230Y-8554650D01*
X11579230Y-8554650D02*
X11550658Y-8554650D01*
X11550658Y-8554650D02*
X11531610Y-8564174D01*
X11531610Y-8564174D02*
X11522087Y-8573698D01*
X11731610Y-8687984D02*
X11712563Y-8678460D01*
X11712563Y-8678460D02*
X11703039Y-8668936D01*
X11703039Y-8668936D02*
X11693515Y-8649889D01*
X11693515Y-8649889D02*
X11693515Y-8592746D01*
X11693515Y-8592746D02*
X11703039Y-8573698D01*
X11703039Y-8573698D02*
X11712563Y-8564174D01*
X11712563Y-8564174D02*
X11731610Y-8554650D01*
X11731610Y-8554650D02*
X11760182Y-8554650D01*
X11760182Y-8554650D02*
X11779230Y-8564174D01*
X11779230Y-8564174D02*
X11788753Y-8573698D01*
X11788753Y-8573698D02*
X11798277Y-8592746D01*
X11798277Y-8592746D02*
X11798277Y-8649889D01*
X11798277Y-8649889D02*
X11788753Y-8668936D01*
X11788753Y-8668936D02*
X11779230Y-8678460D01*
X11779230Y-8678460D02*
X11760182Y-8687984D01*
X11760182Y-8687984D02*
X11731610Y-8687984D01*
X11912563Y-8687984D02*
X11893515Y-8678460D01*
X11893515Y-8678460D02*
X11883991Y-8659412D01*
X11883991Y-8659412D02*
X11883991Y-8487984D01*
X12064944Y-8678460D02*
X12045896Y-8687984D01*
X12045896Y-8687984D02*
X12007801Y-8687984D01*
X12007801Y-8687984D02*
X11988753Y-8678460D01*
X11988753Y-8678460D02*
X11979230Y-8659412D01*
X11979230Y-8659412D02*
X11979230Y-8583222D01*
X11979230Y-8583222D02*
X11988753Y-8564174D01*
X11988753Y-8564174D02*
X12007801Y-8554650D01*
X12007801Y-8554650D02*
X12045896Y-8554650D01*
X12045896Y-8554650D02*
X12064944Y-8564174D01*
X12064944Y-8564174D02*
X12074468Y-8583222D01*
X12074468Y-8583222D02*
X12074468Y-8602270D01*
X12074468Y-8602270D02*
X11979230Y-8621317D01*
X12150658Y-8678460D02*
X12169706Y-8687984D01*
X12169706Y-8687984D02*
X12207801Y-8687984D01*
X12207801Y-8687984D02*
X12226849Y-8678460D01*
X12226849Y-8678460D02*
X12236372Y-8659412D01*
X12236372Y-8659412D02*
X12236372Y-8649889D01*
X12236372Y-8649889D02*
X12226849Y-8630841D01*
X12226849Y-8630841D02*
X12207801Y-8621317D01*
X12207801Y-8621317D02*
X12179230Y-8621317D01*
X12179230Y-8621317D02*
X12160182Y-8611793D01*
X12160182Y-8611793D02*
X12150658Y-8592746D01*
X12150658Y-8592746D02*
X12150658Y-8583222D01*
X12150658Y-8583222D02*
X12160182Y-8564174D01*
X12160182Y-8564174D02*
X12179230Y-8554650D01*
X12179230Y-8554650D02*
X12207801Y-8554650D01*
X12207801Y-8554650D02*
X12226849Y-8564174D01*
X12303039Y-8764174D02*
X12312563Y-8754650D01*
X12312563Y-8754650D02*
X12331611Y-8726079D01*
X12331611Y-8726079D02*
X12341134Y-8707031D01*
X12341134Y-8707031D02*
X12350658Y-8678460D01*
X12350658Y-8678460D02*
X12360182Y-8630841D01*
X12360182Y-8630841D02*
X12360182Y-8592746D01*
X12360182Y-8592746D02*
X12350658Y-8545127D01*
X12350658Y-8545127D02*
X12341134Y-8516555D01*
X12341134Y-8516555D02*
X12331611Y-8497508D01*
X12331611Y-8497508D02*
X12312563Y-8468936D01*
X12312563Y-8468936D02*
X12303039Y-8459412D01*
M02*
