%TF.GenerationSoftware,KiCad,Pcbnew,9.0.7*%
%TF.CreationDate,2026-02-04T13:28:02-08:00*%
%TF.ProjectId,BasicDatalogger,42617369-6344-4617-9461-6c6f67676572,rev?*%
%TF.SameCoordinates,Original*%
%TF.FileFunction,Copper,L2,Inr*%
%TF.FilePolarity,Positive*%
%FSLAX46Y46*%
G04 Gerber Fmt 4.6, Leading zero omitted, Abs format (unit mm)*
G04 Created by KiCad (PCBNEW 9.0.7) date 2026-02-04 13:28:02*
%MOMM*%
%LPD*%
G01*
G04 APERTURE LIST*
%TA.AperFunction,ComponentPad*%
%ADD10R,1.700000X1.700000*%
%TD*%
%TA.AperFunction,ComponentPad*%
%ADD11C,1.700000*%
%TD*%
%TA.AperFunction,ComponentPad*%
%ADD12C,1.778000*%
%TD*%
%TA.AperFunction,ViaPad*%
%ADD13C,0.900000*%
%TD*%
G04 APERTURE END LIST*
D10*
%TO.N,/GND*%
%TO.C,3*%
X105140000Y-74400000D03*
D11*
%TO.N,/PWR*%
X102600000Y-74400000D03*
%TO.N,/S1*%
X100060000Y-74400000D03*
%TD*%
D10*
%TO.N,/GND*%
%TO.C,2*%
X113740000Y-74400000D03*
D11*
%TO.N,/PWR*%
X111200000Y-74400000D03*
%TO.N,/S2*%
X108660000Y-74400000D03*
%TD*%
D10*
%TO.N,/GND*%
%TO.C,1*%
X122280000Y-74400000D03*
D11*
%TO.N,/PWR*%
X119740000Y-74400000D03*
%TO.N,/S3*%
X117200000Y-74400000D03*
%TD*%
%TO.N,unconnected-(U1-RESET-Pad1)*%
%TO.C,U1*%
X139080000Y-50000000D03*
%TO.N,/3V3*%
X136540000Y-50000000D03*
X134000000Y-50000000D03*
%TO.N,/GND*%
X131460000Y-50000000D03*
%TO.N,unconnected-(U1-A0{slash}GPIO26-Pad5)*%
X128920000Y-50000000D03*
%TO.N,unconnected-(U1-A1{slash}GPIO27-Pad6)*%
X126380000Y-50000000D03*
%TO.N,unconnected-(U1-A2{slash}GPIO28-Pad7)*%
X123840000Y-50000000D03*
%TO.N,unconnected-(U1-A3{slash}GPIO29-Pad8)*%
X121300000Y-50000000D03*
%TO.N,unconnected-(U1-D24{slash}GPIO24-Pad9)*%
X118760000Y-50000000D03*
%TO.N,unconnected-(U1-D25{slash}GPIO25-Pad10)*%
X116220000Y-50000000D03*
%TO.N,/SCK*%
X113680000Y-50000000D03*
%TO.N,/MOSI*%
X111140000Y-50000000D03*
%TO.N,/MISO*%
X108600000Y-50000000D03*
%TO.N,/CS*%
X106060000Y-50000000D03*
%TO.N,unconnected-(U1-TX{slash}GPIO0-Pad15)*%
X103520000Y-50000000D03*
%TO.N,unconnected-(U1-D4{slash}GPIO6-Pad16)*%
X100980000Y-50000000D03*
%TO.N,/SDA*%
X100980000Y-70320000D03*
%TO.N,/SCL*%
X103520000Y-70320000D03*
%TO.N,/S1*%
X106060000Y-70320000D03*
%TO.N,/S2*%
X108600000Y-70320000D03*
%TO.N,/S3*%
X111140000Y-70320000D03*
%TO.N,unconnected-(U1-D10{slash}GPIO10-Pad22)*%
X113680000Y-70320000D03*
%TO.N,unconnected-(U1-D11{slash}GPIO11-Pad23)*%
X116220000Y-70320000D03*
%TO.N,unconnected-(U1-D12{slash}GPIO12-Pad24)*%
X118760000Y-70320000D03*
%TO.N,unconnected-(U1-D13{slash}GPIO13-Pad25)*%
X121300000Y-70320000D03*
%TO.N,unconnected-(U1-Vbus-Pad26)*%
X123840000Y-70320000D03*
%TO.N,unconnected-(U1-ENABLE-Pad27)*%
X126380000Y-70320000D03*
%TO.N,unconnected-(U1-VBat-Pad28)*%
X128920000Y-70320000D03*
%TD*%
D12*
%TO.N,/3V3*%
%TO.C,U2*%
X100890000Y-32700000D03*
%TO.N,unconnected-(U2-3Vo-Pad2)*%
X98350000Y-32700000D03*
%TO.N,/GND*%
X95810000Y-32700000D03*
%TO.N,/SCL*%
X93270000Y-32700000D03*
%TO.N,unconnected-(U2-SDO-Pad5)*%
X90730000Y-32700000D03*
%TO.N,/SDA*%
X88190000Y-32700000D03*
%TO.N,unconnected-(U2-CS-Pad7)*%
X85650000Y-32700000D03*
%TO.N,unconnected-(U2-INT-Pad8)*%
X83110000Y-32700000D03*
%TD*%
%TO.N,/3V3*%
%TO.C,U4*%
X91513796Y-67972407D03*
%TO.N,unconnected-(U4-3V3-Pad2)*%
X91513796Y-65432407D03*
%TO.N,/GND*%
X91513796Y-62892407D03*
%TO.N,/SCK*%
X91513796Y-60352407D03*
%TO.N,/MISO*%
X91513796Y-57812407D03*
%TO.N,/MOSI*%
X91513796Y-55272407D03*
%TO.N,/CS*%
X91513796Y-52732407D03*
%TD*%
%TO.N,/3V3*%
%TO.C,U3*%
X124100000Y-32600000D03*
%TO.N,unconnected-(U3-3Vo-Pad2)*%
X121560000Y-32600000D03*
%TO.N,/GND*%
X119020000Y-32600000D03*
%TO.N,/SCL*%
X116480000Y-32600000D03*
%TO.N,/SDA*%
X113940000Y-32600000D03*
%TO.N,unconnected-(U3-INT2-Pad6)*%
X111400000Y-32600000D03*
%TD*%
D13*
%TO.N,/GND*%
X122347526Y-72534769D03*
X124400000Y-74400000D03*
X105530956Y-72712200D03*
X98200000Y-69200000D03*
%TO.N,/PWR*%
X91601578Y-75182415D03*
%TO.N,/GND*%
X89039052Y-75182415D03*
X95600000Y-38000000D03*
X97400000Y-34800000D03*
X111000000Y-35800000D03*
X132156185Y-51613338D03*
X132386662Y-48156185D03*
X109600000Y-63400000D03*
X99200000Y-63800000D03*
X119000000Y-31000000D03*
X80800000Y-34800000D03*
X109800000Y-57200000D03*
X126200000Y-60800000D03*
X129600000Y-52000000D03*
X93200000Y-62800000D03*
X80200000Y-54200000D03*
X97800000Y-53972407D03*
X79600000Y-75000000D03*
X97100000Y-49800000D03*
X88400000Y-38200000D03*
X123600000Y-42000000D03*
X89800000Y-63600000D03*
X84400000Y-68600000D03*
X119000000Y-34200000D03*
%TD*%
%TA.AperFunction,Conductor*%
%TO.N,/GND*%
G36*
X143166501Y-29820185D02*
G01*
X143212256Y-29872989D01*
X143222200Y-29942147D01*
X143193175Y-30005703D01*
X143161462Y-30031887D01*
X142986196Y-30133075D01*
X142778148Y-30292718D01*
X142592718Y-30478148D01*
X142433075Y-30686196D01*
X142301958Y-30913299D01*
X142301953Y-30913309D01*
X142201605Y-31155571D01*
X142201602Y-31155581D01*
X142133730Y-31408884D01*
X142131468Y-31426065D01*
X142099500Y-31668872D01*
X142099500Y-31931127D01*
X142112284Y-32028225D01*
X142133730Y-32191116D01*
X142187823Y-32392993D01*
X142201602Y-32444418D01*
X142201605Y-32444428D01*
X142301953Y-32686690D01*
X142301958Y-32686700D01*
X142433075Y-32913803D01*
X142592718Y-33121851D01*
X142592726Y-33121860D01*
X142778140Y-33307274D01*
X142778148Y-33307281D01*
X142986196Y-33466924D01*
X143213299Y-33598041D01*
X143213309Y-33598046D01*
X143455571Y-33698394D01*
X143455581Y-33698398D01*
X143708884Y-33766270D01*
X143968880Y-33800500D01*
X143968887Y-33800500D01*
X144231113Y-33800500D01*
X144231120Y-33800500D01*
X144491116Y-33766270D01*
X144744419Y-33698398D01*
X144923648Y-33624159D01*
X144986690Y-33598046D01*
X144986691Y-33598045D01*
X144986697Y-33598043D01*
X145213803Y-33466924D01*
X145421851Y-33307282D01*
X145421855Y-33307277D01*
X145421860Y-33307274D01*
X145607274Y-33121860D01*
X145607277Y-33121855D01*
X145607282Y-33121851D01*
X145766924Y-32913803D01*
X145822680Y-32817231D01*
X145868113Y-32738538D01*
X145918679Y-32690322D01*
X145987286Y-32677098D01*
X146052151Y-32703066D01*
X146092680Y-32759980D01*
X146099500Y-32800537D01*
X146099500Y-74395933D01*
X146099235Y-74404043D01*
X146082925Y-74652883D01*
X146080807Y-74668964D01*
X146032954Y-74909535D01*
X146028756Y-74925202D01*
X145949909Y-75157479D01*
X145943702Y-75172465D01*
X145835212Y-75392460D01*
X145827102Y-75406507D01*
X145690825Y-75610460D01*
X145680951Y-75623328D01*
X145519218Y-75807749D01*
X145507749Y-75819218D01*
X145323328Y-75980951D01*
X145310460Y-75990825D01*
X145106507Y-76127102D01*
X145092460Y-76135212D01*
X144872465Y-76243702D01*
X144857479Y-76249909D01*
X144625202Y-76328756D01*
X144609535Y-76332954D01*
X144368964Y-76380807D01*
X144352883Y-76382925D01*
X144104043Y-76399235D01*
X144095933Y-76399500D01*
X92031754Y-76399500D01*
X91964715Y-76379815D01*
X91918960Y-76327011D01*
X91909016Y-76257853D01*
X91938041Y-76194297D01*
X91984301Y-76160939D01*
X92099176Y-76113356D01*
X92271233Y-75998392D01*
X92417555Y-75852070D01*
X92532519Y-75680013D01*
X92611708Y-75488835D01*
X92652078Y-75285880D01*
X92652078Y-75078950D01*
X92611708Y-74875995D01*
X92532519Y-74684817D01*
X92417555Y-74512760D01*
X92417553Y-74512757D01*
X92271235Y-74366439D01*
X92150604Y-74285837D01*
X98609500Y-74285837D01*
X98609500Y-74514162D01*
X98645215Y-74739660D01*
X98715770Y-74956803D01*
X98818020Y-75157479D01*
X98819421Y-75160228D01*
X98953621Y-75344937D01*
X99115063Y-75506379D01*
X99299772Y-75640579D01*
X99377162Y-75680011D01*
X99503196Y-75744229D01*
X99503198Y-75744229D01*
X99503201Y-75744231D01*
X99564253Y-75764068D01*
X99720339Y-75814784D01*
X99945838Y-75850500D01*
X99945843Y-75850500D01*
X100174162Y-75850500D01*
X100399660Y-75814784D01*
X100421311Y-75807749D01*
X100616799Y-75744231D01*
X100820228Y-75640579D01*
X101004937Y-75506379D01*
X101166379Y-75344937D01*
X101229682Y-75257807D01*
X101285012Y-75215143D01*
X101354626Y-75209164D01*
X101416421Y-75241770D01*
X101430315Y-75257804D01*
X101493621Y-75344937D01*
X101655063Y-75506379D01*
X101839772Y-75640579D01*
X101917162Y-75680011D01*
X102043196Y-75744229D01*
X102043198Y-75744229D01*
X102043201Y-75744231D01*
X102104253Y-75764068D01*
X102260339Y-75814784D01*
X102485838Y-75850500D01*
X102485843Y-75850500D01*
X102714162Y-75850500D01*
X102939660Y-75814784D01*
X102961311Y-75807749D01*
X103156799Y-75744231D01*
X103360228Y-75640579D01*
X103544937Y-75506379D01*
X103632135Y-75419180D01*
X103693454Y-75385698D01*
X103763146Y-75390682D01*
X103819080Y-75432553D01*
X103835995Y-75463531D01*
X103846645Y-75492086D01*
X103846649Y-75492093D01*
X103932809Y-75607187D01*
X103932812Y-75607190D01*
X104047906Y-75693350D01*
X104047913Y-75693354D01*
X104182620Y-75743596D01*
X104182627Y-75743598D01*
X104242155Y-75749999D01*
X104242172Y-75750000D01*
X104890000Y-75750000D01*
X104890000Y-74833012D01*
X104947007Y-74865925D01*
X105074174Y-74900000D01*
X105205826Y-74900000D01*
X105332993Y-74865925D01*
X105390000Y-74833012D01*
X105390000Y-75750000D01*
X106037828Y-75750000D01*
X106037844Y-75749999D01*
X106097372Y-75743598D01*
X106097379Y-75743596D01*
X106232086Y-75693354D01*
X106232093Y-75693350D01*
X106347187Y-75607190D01*
X106347190Y-75607187D01*
X106433350Y-75492093D01*
X106433354Y-75492086D01*
X106483596Y-75357379D01*
X106483598Y-75357372D01*
X106489999Y-75297844D01*
X106490000Y-75297827D01*
X106490000Y-74650000D01*
X105573012Y-74650000D01*
X105605925Y-74592993D01*
X105640000Y-74465826D01*
X105640000Y-74334174D01*
X105627048Y-74285837D01*
X107209500Y-74285837D01*
X107209500Y-74514162D01*
X107245215Y-74739660D01*
X107315770Y-74956803D01*
X107418020Y-75157479D01*
X107419421Y-75160228D01*
X107553621Y-75344937D01*
X107715063Y-75506379D01*
X107899772Y-75640579D01*
X107977162Y-75680011D01*
X108103196Y-75744229D01*
X108103198Y-75744229D01*
X108103201Y-75744231D01*
X108164253Y-75764068D01*
X108320339Y-75814784D01*
X108545838Y-75850500D01*
X108545843Y-75850500D01*
X108774162Y-75850500D01*
X108999660Y-75814784D01*
X109021311Y-75807749D01*
X109216799Y-75744231D01*
X109420228Y-75640579D01*
X109604937Y-75506379D01*
X109766379Y-75344937D01*
X109829682Y-75257807D01*
X109885012Y-75215143D01*
X109954626Y-75209164D01*
X110016421Y-75241770D01*
X110030315Y-75257804D01*
X110093621Y-75344937D01*
X110255063Y-75506379D01*
X110439772Y-75640579D01*
X110517162Y-75680011D01*
X110643196Y-75744229D01*
X110643198Y-75744229D01*
X110643201Y-75744231D01*
X110704253Y-75764068D01*
X110860339Y-75814784D01*
X111085838Y-75850500D01*
X111085843Y-75850500D01*
X111314162Y-75850500D01*
X111539660Y-75814784D01*
X111561311Y-75807749D01*
X111756799Y-75744231D01*
X111960228Y-75640579D01*
X112144937Y-75506379D01*
X112232135Y-75419180D01*
X112293454Y-75385698D01*
X112363146Y-75390682D01*
X112419080Y-75432553D01*
X112435995Y-75463531D01*
X112446645Y-75492086D01*
X112446649Y-75492093D01*
X112532809Y-75607187D01*
X112532812Y-75607190D01*
X112647906Y-75693350D01*
X112647913Y-75693354D01*
X112782620Y-75743596D01*
X112782627Y-75743598D01*
X112842155Y-75749999D01*
X112842172Y-75750000D01*
X113490000Y-75750000D01*
X113490000Y-74833012D01*
X113547007Y-74865925D01*
X113674174Y-74900000D01*
X113805826Y-74900000D01*
X113932993Y-74865925D01*
X113990000Y-74833012D01*
X113990000Y-75750000D01*
X114637828Y-75750000D01*
X114637844Y-75749999D01*
X114697372Y-75743598D01*
X114697379Y-75743596D01*
X114832086Y-75693354D01*
X114832093Y-75693350D01*
X114947187Y-75607190D01*
X114947190Y-75607187D01*
X115033350Y-75492093D01*
X115033354Y-75492086D01*
X115083596Y-75357379D01*
X115083598Y-75357372D01*
X115089999Y-75297844D01*
X115090000Y-75297827D01*
X115090000Y-74650000D01*
X114173012Y-74650000D01*
X114205925Y-74592993D01*
X114240000Y-74465826D01*
X114240000Y-74334174D01*
X114227048Y-74285837D01*
X115749500Y-74285837D01*
X115749500Y-74514162D01*
X115785215Y-74739660D01*
X115855770Y-74956803D01*
X115958020Y-75157479D01*
X115959421Y-75160228D01*
X116093621Y-75344937D01*
X116255063Y-75506379D01*
X116439772Y-75640579D01*
X116517162Y-75680011D01*
X116643196Y-75744229D01*
X116643198Y-75744229D01*
X116643201Y-75744231D01*
X116704253Y-75764068D01*
X116860339Y-75814784D01*
X117085838Y-75850500D01*
X117085843Y-75850500D01*
X117314162Y-75850500D01*
X117539660Y-75814784D01*
X117561311Y-75807749D01*
X117756799Y-75744231D01*
X117960228Y-75640579D01*
X118144937Y-75506379D01*
X118306379Y-75344937D01*
X118369682Y-75257807D01*
X118425012Y-75215143D01*
X118494626Y-75209164D01*
X118556421Y-75241770D01*
X118570315Y-75257804D01*
X118633621Y-75344937D01*
X118795063Y-75506379D01*
X118979772Y-75640579D01*
X119057162Y-75680011D01*
X119183196Y-75744229D01*
X119183198Y-75744229D01*
X119183201Y-75744231D01*
X119244253Y-75764068D01*
X119400339Y-75814784D01*
X119625838Y-75850500D01*
X119625843Y-75850500D01*
X119854162Y-75850500D01*
X120079660Y-75814784D01*
X120101311Y-75807749D01*
X120296799Y-75744231D01*
X120500228Y-75640579D01*
X120684937Y-75506379D01*
X120772135Y-75419180D01*
X120833454Y-75385698D01*
X120903146Y-75390682D01*
X120959080Y-75432553D01*
X120975995Y-75463531D01*
X120986645Y-75492086D01*
X120986649Y-75492093D01*
X121072809Y-75607187D01*
X121072812Y-75607190D01*
X121187906Y-75693350D01*
X121187913Y-75693354D01*
X121322620Y-75743596D01*
X121322627Y-75743598D01*
X121382155Y-75749999D01*
X121382172Y-75750000D01*
X122030000Y-75750000D01*
X122030000Y-74833012D01*
X122087007Y-74865925D01*
X122214174Y-74900000D01*
X122345826Y-74900000D01*
X122472993Y-74865925D01*
X122530000Y-74833012D01*
X122530000Y-75750000D01*
X123177828Y-75750000D01*
X123177844Y-75749999D01*
X123237372Y-75743598D01*
X123237379Y-75743596D01*
X123372086Y-75693354D01*
X123372093Y-75693350D01*
X123487187Y-75607190D01*
X123487190Y-75607187D01*
X123573350Y-75492093D01*
X123573354Y-75492086D01*
X123623596Y-75357379D01*
X123623598Y-75357372D01*
X123629999Y-75297844D01*
X123630000Y-75297827D01*
X123630000Y-74650000D01*
X122713012Y-74650000D01*
X122745925Y-74592993D01*
X122780000Y-74465826D01*
X122780000Y-74334174D01*
X122745925Y-74207007D01*
X122713012Y-74150000D01*
X123630000Y-74150000D01*
X123630000Y-73502172D01*
X123629999Y-73502155D01*
X123623598Y-73442627D01*
X123623596Y-73442620D01*
X123573354Y-73307913D01*
X123573350Y-73307906D01*
X123487190Y-73192812D01*
X123487187Y-73192809D01*
X123372093Y-73106649D01*
X123372086Y-73106645D01*
X123237379Y-73056403D01*
X123237372Y-73056401D01*
X123177844Y-73050000D01*
X122530000Y-73050000D01*
X122530000Y-73966988D01*
X122472993Y-73934075D01*
X122345826Y-73900000D01*
X122214174Y-73900000D01*
X122087007Y-73934075D01*
X122030000Y-73966988D01*
X122030000Y-73050000D01*
X121382155Y-73050000D01*
X121322627Y-73056401D01*
X121322620Y-73056403D01*
X121187913Y-73106645D01*
X121187906Y-73106649D01*
X121072812Y-73192809D01*
X121072809Y-73192812D01*
X120986649Y-73307906D01*
X120986643Y-73307918D01*
X120975994Y-73336469D01*
X120934123Y-73392403D01*
X120868658Y-73416819D01*
X120800385Y-73401967D01*
X120772132Y-73380816D01*
X120684938Y-73293622D01*
X120674718Y-73286197D01*
X120500228Y-73159421D01*
X120296803Y-73055770D01*
X120079660Y-72985215D01*
X119854162Y-72949500D01*
X119854157Y-72949500D01*
X119625843Y-72949500D01*
X119625838Y-72949500D01*
X119400339Y-72985215D01*
X119183196Y-73055770D01*
X118979771Y-73159421D01*
X118795061Y-73293622D01*
X118633623Y-73455060D01*
X118633616Y-73455069D01*
X118570317Y-73542191D01*
X118514987Y-73584857D01*
X118445373Y-73590835D01*
X118383579Y-73558228D01*
X118369683Y-73542191D01*
X118306383Y-73455069D01*
X118306379Y-73455063D01*
X118144937Y-73293621D01*
X117960228Y-73159421D01*
X117756803Y-73055770D01*
X117539660Y-72985215D01*
X117314162Y-72949500D01*
X117314157Y-72949500D01*
X117085843Y-72949500D01*
X117085838Y-72949500D01*
X116860339Y-72985215D01*
X116643196Y-73055770D01*
X116439771Y-73159421D01*
X116255061Y-73293622D01*
X116093622Y-73455061D01*
X115959421Y-73639771D01*
X115855770Y-73843196D01*
X115785215Y-74060339D01*
X115749500Y-74285837D01*
X114227048Y-74285837D01*
X114205925Y-74207007D01*
X114173012Y-74150000D01*
X115090000Y-74150000D01*
X115090000Y-73502172D01*
X115089999Y-73502155D01*
X115083598Y-73442627D01*
X115083596Y-73442620D01*
X115033354Y-73307913D01*
X115033350Y-73307906D01*
X114947190Y-73192812D01*
X114947187Y-73192809D01*
X114832093Y-73106649D01*
X114832086Y-73106645D01*
X114697379Y-73056403D01*
X114697372Y-73056401D01*
X114637844Y-73050000D01*
X113990000Y-73050000D01*
X113990000Y-73966988D01*
X113932993Y-73934075D01*
X113805826Y-73900000D01*
X113674174Y-73900000D01*
X113547007Y-73934075D01*
X113490000Y-73966988D01*
X113490000Y-73050000D01*
X112842155Y-73050000D01*
X112782627Y-73056401D01*
X112782620Y-73056403D01*
X112647913Y-73106645D01*
X112647906Y-73106649D01*
X112532812Y-73192809D01*
X112532809Y-73192812D01*
X112446649Y-73307906D01*
X112446643Y-73307918D01*
X112435994Y-73336469D01*
X112394123Y-73392403D01*
X112328658Y-73416819D01*
X112260385Y-73401967D01*
X112232132Y-73380816D01*
X112144938Y-73293622D01*
X112134718Y-73286197D01*
X111960228Y-73159421D01*
X111756803Y-73055770D01*
X111539660Y-72985215D01*
X111314162Y-72949500D01*
X111314157Y-72949500D01*
X111085843Y-72949500D01*
X111085838Y-72949500D01*
X110860339Y-72985215D01*
X110643196Y-73055770D01*
X110439771Y-73159421D01*
X110255061Y-73293622D01*
X110093623Y-73455060D01*
X110093616Y-73455069D01*
X110030317Y-73542191D01*
X109974987Y-73584857D01*
X109905373Y-73590835D01*
X109843579Y-73558228D01*
X109829683Y-73542191D01*
X109766383Y-73455069D01*
X109766379Y-73455063D01*
X109604937Y-73293621D01*
X109420228Y-73159421D01*
X109216803Y-73055770D01*
X108999660Y-72985215D01*
X108774162Y-72949500D01*
X108774157Y-72949500D01*
X108545843Y-72949500D01*
X108545838Y-72949500D01*
X108320339Y-72985215D01*
X108103196Y-73055770D01*
X107899771Y-73159421D01*
X107715061Y-73293622D01*
X107553622Y-73455061D01*
X107419421Y-73639771D01*
X107315770Y-73843196D01*
X107245215Y-74060339D01*
X107209500Y-74285837D01*
X105627048Y-74285837D01*
X105605925Y-74207007D01*
X105573012Y-74150000D01*
X106490000Y-74150000D01*
X106490000Y-73502172D01*
X106489999Y-73502155D01*
X106483598Y-73442627D01*
X106483596Y-73442620D01*
X106433354Y-73307913D01*
X106433350Y-73307906D01*
X106347190Y-73192812D01*
X106347187Y-73192809D01*
X106232093Y-73106649D01*
X106232086Y-73106645D01*
X106097379Y-73056403D01*
X106097372Y-73056401D01*
X106037844Y-73050000D01*
X105390000Y-73050000D01*
X105390000Y-73966988D01*
X105332993Y-73934075D01*
X105205826Y-73900000D01*
X105074174Y-73900000D01*
X104947007Y-73934075D01*
X104890000Y-73966988D01*
X104890000Y-73050000D01*
X104242155Y-73050000D01*
X104182627Y-73056401D01*
X104182620Y-73056403D01*
X104047913Y-73106645D01*
X104047906Y-73106649D01*
X103932812Y-73192809D01*
X103932809Y-73192812D01*
X103846649Y-73307906D01*
X103846643Y-73307918D01*
X103835994Y-73336469D01*
X103794123Y-73392403D01*
X103728658Y-73416819D01*
X103660385Y-73401967D01*
X103632132Y-73380816D01*
X103544938Y-73293622D01*
X103534718Y-73286197D01*
X103360228Y-73159421D01*
X103156803Y-73055770D01*
X102939660Y-72985215D01*
X102714162Y-72949500D01*
X102714157Y-72949500D01*
X102485843Y-72949500D01*
X102485838Y-72949500D01*
X102260339Y-72985215D01*
X102043196Y-73055770D01*
X101839771Y-73159421D01*
X101655061Y-73293622D01*
X101493623Y-73455060D01*
X101493616Y-73455069D01*
X101430317Y-73542191D01*
X101374987Y-73584857D01*
X101305373Y-73590835D01*
X101243579Y-73558228D01*
X101229683Y-73542191D01*
X101166383Y-73455069D01*
X101166379Y-73455063D01*
X101004937Y-73293621D01*
X100820228Y-73159421D01*
X100616803Y-73055770D01*
X100399660Y-72985215D01*
X100174162Y-72949500D01*
X100174157Y-72949500D01*
X99945843Y-72949500D01*
X99945838Y-72949500D01*
X99720339Y-72985215D01*
X99503196Y-73055770D01*
X99299771Y-73159421D01*
X99115061Y-73293622D01*
X98953622Y-73455061D01*
X98819421Y-73639771D01*
X98715770Y-73843196D01*
X98645215Y-74060339D01*
X98609500Y-74285837D01*
X92150604Y-74285837D01*
X92125214Y-74268872D01*
X92099176Y-74251474D01*
X91907998Y-74172285D01*
X91907990Y-74172283D01*
X91705047Y-74131915D01*
X91705043Y-74131915D01*
X91498113Y-74131915D01*
X91498108Y-74131915D01*
X91295165Y-74172283D01*
X91295157Y-74172285D01*
X91103981Y-74251473D01*
X90931920Y-74366439D01*
X90785602Y-74512757D01*
X90670636Y-74684818D01*
X90591448Y-74875994D01*
X90591446Y-74876002D01*
X90551078Y-75078945D01*
X90551078Y-75285884D01*
X90591446Y-75488827D01*
X90591448Y-75488835D01*
X90640472Y-75607190D01*
X90670637Y-75680013D01*
X90726800Y-75764068D01*
X90785602Y-75852072D01*
X90931920Y-75998390D01*
X90931923Y-75998392D01*
X91103980Y-76113356D01*
X91156745Y-76135212D01*
X91218855Y-76160939D01*
X91273258Y-76204780D01*
X91295323Y-76271074D01*
X91278044Y-76338774D01*
X91226907Y-76386384D01*
X91171402Y-76399500D01*
X76900538Y-76399500D01*
X76833499Y-76379815D01*
X76787744Y-76327011D01*
X76777800Y-76257853D01*
X76806825Y-76194297D01*
X76838538Y-76168113D01*
X77013803Y-76066924D01*
X77221851Y-75907282D01*
X77221855Y-75907277D01*
X77221860Y-75907274D01*
X77407274Y-75721860D01*
X77407277Y-75721855D01*
X77407282Y-75721851D01*
X77566924Y-75513803D01*
X77698043Y-75286697D01*
X77698382Y-75285880D01*
X77745294Y-75172624D01*
X77798398Y-75044419D01*
X77866270Y-74791116D01*
X77900500Y-74531120D01*
X77900500Y-74268880D01*
X77866270Y-74008884D01*
X77798398Y-73755581D01*
X77774346Y-73697514D01*
X77698046Y-73513309D01*
X77698041Y-73513299D01*
X77566924Y-73286196D01*
X77407281Y-73078148D01*
X77407274Y-73078140D01*
X77221860Y-72892726D01*
X77221851Y-72892718D01*
X77013803Y-72733075D01*
X76786700Y-72601958D01*
X76786690Y-72601953D01*
X76544428Y-72501605D01*
X76544421Y-72501603D01*
X76544419Y-72501602D01*
X76291116Y-72433730D01*
X76233339Y-72426123D01*
X76031127Y-72399500D01*
X76031120Y-72399500D01*
X75768880Y-72399500D01*
X75768872Y-72399500D01*
X75537772Y-72429926D01*
X75508884Y-72433730D01*
X75255581Y-72501602D01*
X75255571Y-72501605D01*
X75013309Y-72601953D01*
X75013299Y-72601958D01*
X74786196Y-72733075D01*
X74578148Y-72892718D01*
X74392718Y-73078148D01*
X74233075Y-73286196D01*
X74131887Y-73461462D01*
X74081320Y-73509677D01*
X74012713Y-73522901D01*
X73947849Y-73496933D01*
X73907320Y-73440019D01*
X73900500Y-73399462D01*
X73900500Y-70205837D01*
X99529500Y-70205837D01*
X99529500Y-70434162D01*
X99565215Y-70659660D01*
X99635770Y-70876803D01*
X99739421Y-71080228D01*
X99873621Y-71264937D01*
X100035063Y-71426379D01*
X100219772Y-71560579D01*
X100315884Y-71609550D01*
X100423196Y-71664229D01*
X100423198Y-71664229D01*
X100423201Y-71664231D01*
X100539592Y-71702049D01*
X100640339Y-71734784D01*
X100865838Y-71770500D01*
X100865843Y-71770500D01*
X101094162Y-71770500D01*
X101319660Y-71734784D01*
X101536799Y-71664231D01*
X101740228Y-71560579D01*
X101924937Y-71426379D01*
X102086379Y-71264937D01*
X102149682Y-71177807D01*
X102205012Y-71135143D01*
X102274626Y-71129164D01*
X102336421Y-71161770D01*
X102350315Y-71177804D01*
X102413621Y-71264937D01*
X102575063Y-71426379D01*
X102759772Y-71560579D01*
X102855884Y-71609550D01*
X102963196Y-71664229D01*
X102963198Y-71664229D01*
X102963201Y-71664231D01*
X103079592Y-71702049D01*
X103180339Y-71734784D01*
X103405838Y-71770500D01*
X103405843Y-71770500D01*
X103634162Y-71770500D01*
X103859660Y-71734784D01*
X104076799Y-71664231D01*
X104280228Y-71560579D01*
X104464937Y-71426379D01*
X104626379Y-71264937D01*
X104689682Y-71177807D01*
X104745012Y-71135143D01*
X104814626Y-71129164D01*
X104876421Y-71161770D01*
X104890315Y-71177804D01*
X104953621Y-71264937D01*
X105115063Y-71426379D01*
X105299772Y-71560579D01*
X105395884Y-71609550D01*
X105503196Y-71664229D01*
X105503198Y-71664229D01*
X105503201Y-71664231D01*
X105619592Y-71702049D01*
X105720339Y-71734784D01*
X105945838Y-71770500D01*
X105945843Y-71770500D01*
X106174162Y-71770500D01*
X106399660Y-71734784D01*
X106616799Y-71664231D01*
X106820228Y-71560579D01*
X107004937Y-71426379D01*
X107166379Y-71264937D01*
X107229682Y-71177807D01*
X107285012Y-71135143D01*
X107354626Y-71129164D01*
X107416421Y-71161770D01*
X107430315Y-71177804D01*
X107493621Y-71264937D01*
X107655063Y-71426379D01*
X107839772Y-71560579D01*
X107935884Y-71609550D01*
X108043196Y-71664229D01*
X108043198Y-71664229D01*
X108043201Y-71664231D01*
X108159592Y-71702049D01*
X108260339Y-71734784D01*
X108485838Y-71770500D01*
X108485843Y-71770500D01*
X108714162Y-71770500D01*
X108939660Y-71734784D01*
X109156799Y-71664231D01*
X109360228Y-71560579D01*
X109544937Y-71426379D01*
X109706379Y-71264937D01*
X109769682Y-71177807D01*
X109825012Y-71135143D01*
X109894626Y-71129164D01*
X109956421Y-71161770D01*
X109970315Y-71177804D01*
X110033621Y-71264937D01*
X110195063Y-71426379D01*
X110379772Y-71560579D01*
X110475884Y-71609550D01*
X110583196Y-71664229D01*
X110583198Y-71664229D01*
X110583201Y-71664231D01*
X110699592Y-71702049D01*
X110800339Y-71734784D01*
X111025838Y-71770500D01*
X111025843Y-71770500D01*
X111254162Y-71770500D01*
X111479660Y-71734784D01*
X111696799Y-71664231D01*
X111900228Y-71560579D01*
X112084937Y-71426379D01*
X112246379Y-71264937D01*
X112309682Y-71177807D01*
X112365012Y-71135143D01*
X112434626Y-71129164D01*
X112496421Y-71161770D01*
X112510315Y-71177804D01*
X112573621Y-71264937D01*
X112735063Y-71426379D01*
X112919772Y-71560579D01*
X113015884Y-71609550D01*
X113123196Y-71664229D01*
X113123198Y-71664229D01*
X113123201Y-71664231D01*
X113239592Y-71702049D01*
X113340339Y-71734784D01*
X113565838Y-71770500D01*
X113565843Y-71770500D01*
X113794162Y-71770500D01*
X114019660Y-71734784D01*
X114236799Y-71664231D01*
X114440228Y-71560579D01*
X114624937Y-71426379D01*
X114786379Y-71264937D01*
X114849682Y-71177807D01*
X114905012Y-71135143D01*
X114974626Y-71129164D01*
X115036421Y-71161770D01*
X115050315Y-71177804D01*
X115113621Y-71264937D01*
X115275063Y-71426379D01*
X115459772Y-71560579D01*
X115555884Y-71609550D01*
X115663196Y-71664229D01*
X115663198Y-71664229D01*
X115663201Y-71664231D01*
X115779592Y-71702049D01*
X115880339Y-71734784D01*
X116105838Y-71770500D01*
X116105843Y-71770500D01*
X116334162Y-71770500D01*
X116559660Y-71734784D01*
X116776799Y-71664231D01*
X116980228Y-71560579D01*
X117164937Y-71426379D01*
X117326379Y-71264937D01*
X117389682Y-71177807D01*
X117445012Y-71135143D01*
X117514626Y-71129164D01*
X117576421Y-71161770D01*
X117590315Y-71177804D01*
X117653621Y-71264937D01*
X117815063Y-71426379D01*
X117999772Y-71560579D01*
X118095884Y-71609550D01*
X118203196Y-71664229D01*
X118203198Y-71664229D01*
X118203201Y-71664231D01*
X118319592Y-71702049D01*
X118420339Y-71734784D01*
X118645838Y-71770500D01*
X118645843Y-71770500D01*
X118874162Y-71770500D01*
X119099660Y-71734784D01*
X119316799Y-71664231D01*
X119520228Y-71560579D01*
X119704937Y-71426379D01*
X119866379Y-71264937D01*
X119929682Y-71177807D01*
X119985012Y-71135143D01*
X120054626Y-71129164D01*
X120116421Y-71161770D01*
X120130315Y-71177804D01*
X120193621Y-71264937D01*
X120355063Y-71426379D01*
X120539772Y-71560579D01*
X120635884Y-71609550D01*
X120743196Y-71664229D01*
X120743198Y-71664229D01*
X120743201Y-71664231D01*
X120859592Y-71702049D01*
X120960339Y-71734784D01*
X121185838Y-71770500D01*
X121185843Y-71770500D01*
X121414162Y-71770500D01*
X121639660Y-71734784D01*
X121856799Y-71664231D01*
X122060228Y-71560579D01*
X122244937Y-71426379D01*
X122406379Y-71264937D01*
X122469682Y-71177807D01*
X122525012Y-71135143D01*
X122594626Y-71129164D01*
X122656421Y-71161770D01*
X122670315Y-71177804D01*
X122733621Y-71264937D01*
X122895063Y-71426379D01*
X123079772Y-71560579D01*
X123175884Y-71609550D01*
X123283196Y-71664229D01*
X123283198Y-71664229D01*
X123283201Y-71664231D01*
X123399592Y-71702049D01*
X123500339Y-71734784D01*
X123725838Y-71770500D01*
X123725843Y-71770500D01*
X123954162Y-71770500D01*
X124179660Y-71734784D01*
X124396799Y-71664231D01*
X124600228Y-71560579D01*
X124784937Y-71426379D01*
X124946379Y-71264937D01*
X125009682Y-71177807D01*
X125065012Y-71135143D01*
X125134626Y-71129164D01*
X125196421Y-71161770D01*
X125210315Y-71177804D01*
X125273621Y-71264937D01*
X125435063Y-71426379D01*
X125619772Y-71560579D01*
X125715884Y-71609550D01*
X125823196Y-71664229D01*
X125823198Y-71664229D01*
X125823201Y-71664231D01*
X125939592Y-71702049D01*
X126040339Y-71734784D01*
X126265838Y-71770500D01*
X126265843Y-71770500D01*
X126494162Y-71770500D01*
X126719660Y-71734784D01*
X126936799Y-71664231D01*
X127140228Y-71560579D01*
X127324937Y-71426379D01*
X127486379Y-71264937D01*
X127549682Y-71177807D01*
X127605012Y-71135143D01*
X127674626Y-71129164D01*
X127736421Y-71161770D01*
X127750315Y-71177804D01*
X127813621Y-71264937D01*
X127975063Y-71426379D01*
X128159772Y-71560579D01*
X128255884Y-71609550D01*
X128363196Y-71664229D01*
X128363198Y-71664229D01*
X128363201Y-71664231D01*
X128479592Y-71702049D01*
X128580339Y-71734784D01*
X128805838Y-71770500D01*
X128805843Y-71770500D01*
X129034162Y-71770500D01*
X129259660Y-71734784D01*
X129476799Y-71664231D01*
X129680228Y-71560579D01*
X129864937Y-71426379D01*
X130026379Y-71264937D01*
X130160579Y-71080228D01*
X130264231Y-70876799D01*
X130334784Y-70659660D01*
X130370500Y-70434162D01*
X130370500Y-70205837D01*
X130334784Y-69980339D01*
X130264229Y-69763196D01*
X130160578Y-69559771D01*
X130125024Y-69510835D01*
X130026379Y-69375063D01*
X129864937Y-69213621D01*
X129680228Y-69079421D01*
X129476803Y-68975770D01*
X129259660Y-68905215D01*
X129034162Y-68869500D01*
X129034157Y-68869500D01*
X128805843Y-68869500D01*
X128805838Y-68869500D01*
X128580339Y-68905215D01*
X128363196Y-68975770D01*
X128159771Y-69079421D01*
X127975061Y-69213622D01*
X127813623Y-69375060D01*
X127813616Y-69375069D01*
X127750317Y-69462191D01*
X127694987Y-69504857D01*
X127625373Y-69510835D01*
X127563579Y-69478228D01*
X127549683Y-69462191D01*
X127486383Y-69375069D01*
X127486379Y-69375063D01*
X127324937Y-69213621D01*
X127140228Y-69079421D01*
X126936803Y-68975770D01*
X126719660Y-68905215D01*
X126494162Y-68869500D01*
X126494157Y-68869500D01*
X126265843Y-68869500D01*
X126265838Y-68869500D01*
X126040339Y-68905215D01*
X125823196Y-68975770D01*
X125619771Y-69079421D01*
X125435061Y-69213622D01*
X125273623Y-69375060D01*
X125273616Y-69375069D01*
X125210317Y-69462191D01*
X125154987Y-69504857D01*
X125085373Y-69510835D01*
X125023579Y-69478228D01*
X125009683Y-69462191D01*
X124946383Y-69375069D01*
X124946379Y-69375063D01*
X124784937Y-69213621D01*
X124600228Y-69079421D01*
X124396803Y-68975770D01*
X124179660Y-68905215D01*
X123954162Y-68869500D01*
X123954157Y-68869500D01*
X123725843Y-68869500D01*
X123725838Y-68869500D01*
X123500339Y-68905215D01*
X123283196Y-68975770D01*
X123079771Y-69079421D01*
X122895061Y-69213622D01*
X122733623Y-69375060D01*
X122733616Y-69375069D01*
X122670317Y-69462191D01*
X122614987Y-69504857D01*
X122545373Y-69510835D01*
X122483579Y-69478228D01*
X122469683Y-69462191D01*
X122406383Y-69375069D01*
X122406379Y-69375063D01*
X122244937Y-69213621D01*
X122060228Y-69079421D01*
X121856803Y-68975770D01*
X121639660Y-68905215D01*
X121414162Y-68869500D01*
X121414157Y-68869500D01*
X121185843Y-68869500D01*
X121185838Y-68869500D01*
X120960339Y-68905215D01*
X120743196Y-68975770D01*
X120539771Y-69079421D01*
X120355061Y-69213622D01*
X120193623Y-69375060D01*
X120193616Y-69375069D01*
X120130317Y-69462191D01*
X120074987Y-69504857D01*
X120005373Y-69510835D01*
X119943579Y-69478228D01*
X119929683Y-69462191D01*
X119866383Y-69375069D01*
X119866379Y-69375063D01*
X119704937Y-69213621D01*
X119520228Y-69079421D01*
X119316803Y-68975770D01*
X119099660Y-68905215D01*
X118874162Y-68869500D01*
X118874157Y-68869500D01*
X118645843Y-68869500D01*
X118645838Y-68869500D01*
X118420339Y-68905215D01*
X118203196Y-68975770D01*
X117999771Y-69079421D01*
X117815061Y-69213622D01*
X117653623Y-69375060D01*
X117653616Y-69375069D01*
X117590317Y-69462191D01*
X117534987Y-69504857D01*
X117465373Y-69510835D01*
X117403579Y-69478228D01*
X117389683Y-69462191D01*
X117326383Y-69375069D01*
X117326379Y-69375063D01*
X117164937Y-69213621D01*
X116980228Y-69079421D01*
X116776803Y-68975770D01*
X116559660Y-68905215D01*
X116334162Y-68869500D01*
X116334157Y-68869500D01*
X116105843Y-68869500D01*
X116105838Y-68869500D01*
X115880339Y-68905215D01*
X115663196Y-68975770D01*
X115459771Y-69079421D01*
X115275061Y-69213622D01*
X115113623Y-69375060D01*
X115113616Y-69375069D01*
X115050317Y-69462191D01*
X114994987Y-69504857D01*
X114925373Y-69510835D01*
X114863579Y-69478228D01*
X114849683Y-69462191D01*
X114786383Y-69375069D01*
X114786379Y-69375063D01*
X114624937Y-69213621D01*
X114440228Y-69079421D01*
X114236803Y-68975770D01*
X114019660Y-68905215D01*
X113794162Y-68869500D01*
X113794157Y-68869500D01*
X113565843Y-68869500D01*
X113565838Y-68869500D01*
X113340339Y-68905215D01*
X113123196Y-68975770D01*
X112919771Y-69079421D01*
X112735061Y-69213622D01*
X112573623Y-69375060D01*
X112573616Y-69375069D01*
X112510317Y-69462191D01*
X112454987Y-69504857D01*
X112385373Y-69510835D01*
X112323579Y-69478228D01*
X112309683Y-69462191D01*
X112246383Y-69375069D01*
X112246379Y-69375063D01*
X112084937Y-69213621D01*
X111900228Y-69079421D01*
X111696803Y-68975770D01*
X111479660Y-68905215D01*
X111254162Y-68869500D01*
X111254157Y-68869500D01*
X111025843Y-68869500D01*
X111025838Y-68869500D01*
X110800339Y-68905215D01*
X110583196Y-68975770D01*
X110379771Y-69079421D01*
X110195061Y-69213622D01*
X110033623Y-69375060D01*
X110033616Y-69375069D01*
X109970317Y-69462191D01*
X109914987Y-69504857D01*
X109845373Y-69510835D01*
X109783579Y-69478228D01*
X109769683Y-69462191D01*
X109706383Y-69375069D01*
X109706379Y-69375063D01*
X109544937Y-69213621D01*
X109360228Y-69079421D01*
X109156803Y-68975770D01*
X108939660Y-68905215D01*
X108714162Y-68869500D01*
X108714157Y-68869500D01*
X108485843Y-68869500D01*
X108485838Y-68869500D01*
X108260339Y-68905215D01*
X108043196Y-68975770D01*
X107839771Y-69079421D01*
X107655061Y-69213622D01*
X107493623Y-69375060D01*
X107493616Y-69375069D01*
X107430317Y-69462191D01*
X107374987Y-69504857D01*
X107305373Y-69510835D01*
X107243579Y-69478228D01*
X107229683Y-69462191D01*
X107166383Y-69375069D01*
X107166379Y-69375063D01*
X107004937Y-69213621D01*
X106820228Y-69079421D01*
X106616803Y-68975770D01*
X106399660Y-68905215D01*
X106174162Y-68869500D01*
X106174157Y-68869500D01*
X105945843Y-68869500D01*
X105945838Y-68869500D01*
X105720339Y-68905215D01*
X105503196Y-68975770D01*
X105299771Y-69079421D01*
X105115061Y-69213622D01*
X104953623Y-69375060D01*
X104953616Y-69375069D01*
X104890317Y-69462191D01*
X104834987Y-69504857D01*
X104765373Y-69510835D01*
X104703579Y-69478228D01*
X104689683Y-69462191D01*
X104626383Y-69375069D01*
X104626379Y-69375063D01*
X104464937Y-69213621D01*
X104280228Y-69079421D01*
X104076803Y-68975770D01*
X103859660Y-68905215D01*
X103634162Y-68869500D01*
X103634157Y-68869500D01*
X103405843Y-68869500D01*
X103405838Y-68869500D01*
X103180339Y-68905215D01*
X102963196Y-68975770D01*
X102759771Y-69079421D01*
X102575061Y-69213622D01*
X102413623Y-69375060D01*
X102413616Y-69375069D01*
X102350317Y-69462191D01*
X102294987Y-69504857D01*
X102225373Y-69510835D01*
X102163579Y-69478228D01*
X102149683Y-69462191D01*
X102086383Y-69375069D01*
X102086379Y-69375063D01*
X101924937Y-69213621D01*
X101740228Y-69079421D01*
X101536803Y-68975770D01*
X101319660Y-68905215D01*
X101094162Y-68869500D01*
X101094157Y-68869500D01*
X100865843Y-68869500D01*
X100865838Y-68869500D01*
X100640339Y-68905215D01*
X100423196Y-68975770D01*
X100219771Y-69079421D01*
X100035061Y-69213622D01*
X99873622Y-69375061D01*
X99739421Y-69559771D01*
X99635770Y-69763196D01*
X99565215Y-69980339D01*
X99529500Y-70205837D01*
X73900500Y-70205837D01*
X73900500Y-52615175D01*
X90024296Y-52615175D01*
X90024296Y-52849638D01*
X90060971Y-53081199D01*
X90133423Y-53304181D01*
X90239861Y-53513075D01*
X90377669Y-53702751D01*
X90377671Y-53702753D01*
X90543452Y-53868534D01*
X90589637Y-53902090D01*
X90632302Y-53957420D01*
X90638280Y-54027034D01*
X90605673Y-54088828D01*
X90589637Y-54102724D01*
X90543452Y-54136279D01*
X90377671Y-54302060D01*
X90377671Y-54302061D01*
X90377669Y-54302063D01*
X90318485Y-54383521D01*
X90239861Y-54491738D01*
X90133423Y-54700632D01*
X90060971Y-54923614D01*
X90024296Y-55155175D01*
X90024296Y-55389638D01*
X90060971Y-55621199D01*
X90133423Y-55844181D01*
X90239861Y-56053075D01*
X90377669Y-56242751D01*
X90377671Y-56242753D01*
X90543452Y-56408534D01*
X90589637Y-56442090D01*
X90632302Y-56497420D01*
X90638280Y-56567034D01*
X90605673Y-56628828D01*
X90589637Y-56642724D01*
X90543452Y-56676279D01*
X90377671Y-56842060D01*
X90377671Y-56842061D01*
X90377669Y-56842063D01*
X90318485Y-56923521D01*
X90239861Y-57031738D01*
X90133423Y-57240632D01*
X90060971Y-57463614D01*
X90024296Y-57695175D01*
X90024296Y-57929638D01*
X90060971Y-58161199D01*
X90133423Y-58384181D01*
X90239861Y-58593075D01*
X90377669Y-58782751D01*
X90377671Y-58782753D01*
X90543452Y-58948534D01*
X90589637Y-58982090D01*
X90632302Y-59037420D01*
X90638280Y-59107034D01*
X90605673Y-59168828D01*
X90589637Y-59182724D01*
X90543452Y-59216279D01*
X90377671Y-59382060D01*
X90377671Y-59382061D01*
X90377669Y-59382063D01*
X90318485Y-59463521D01*
X90239861Y-59571738D01*
X90133423Y-59780632D01*
X90060971Y-60003614D01*
X90024296Y-60235175D01*
X90024296Y-60469638D01*
X90060971Y-60701199D01*
X90133423Y-60924181D01*
X90239861Y-61133075D01*
X90377669Y-61322751D01*
X90543452Y-61488534D01*
X90672391Y-61582214D01*
X90675126Y-61584201D01*
X90717791Y-61639531D01*
X90723770Y-61709145D01*
X90691164Y-61770940D01*
X90675126Y-61784837D01*
X90608924Y-61832935D01*
X90454324Y-61987535D01*
X90454320Y-61987540D01*
X90325819Y-62164408D01*
X90226558Y-62359215D01*
X90226557Y-62359218D01*
X90158997Y-62567148D01*
X90147078Y-62642407D01*
X91080784Y-62642407D01*
X91047871Y-62699414D01*
X91013796Y-62826581D01*
X91013796Y-62958233D01*
X91047871Y-63085400D01*
X91080784Y-63142407D01*
X90147078Y-63142407D01*
X90158997Y-63217665D01*
X90226557Y-63425595D01*
X90226558Y-63425598D01*
X90325819Y-63620405D01*
X90454320Y-63797273D01*
X90454324Y-63797278D01*
X90608922Y-63951876D01*
X90675125Y-63999975D01*
X90717791Y-64055305D01*
X90723770Y-64124919D01*
X90691165Y-64186714D01*
X90675126Y-64200611D01*
X90543458Y-64296275D01*
X90543449Y-64296282D01*
X90377671Y-64462060D01*
X90377671Y-64462061D01*
X90377669Y-64462063D01*
X90318485Y-64543521D01*
X90239861Y-64651738D01*
X90133423Y-64860632D01*
X90060971Y-65083614D01*
X90024296Y-65315175D01*
X90024296Y-65549638D01*
X90060971Y-65781199D01*
X90133423Y-66004181D01*
X90239861Y-66213075D01*
X90377669Y-66402751D01*
X90377671Y-66402753D01*
X90543452Y-66568534D01*
X90589637Y-66602090D01*
X90632302Y-66657420D01*
X90638280Y-66727034D01*
X90605673Y-66788828D01*
X90589637Y-66802724D01*
X90543452Y-66836279D01*
X90377671Y-67002060D01*
X90377671Y-67002061D01*
X90377669Y-67002063D01*
X90318485Y-67083521D01*
X90239861Y-67191738D01*
X90133423Y-67400632D01*
X90060971Y-67623614D01*
X90024296Y-67855175D01*
X90024296Y-68089638D01*
X90060971Y-68321199D01*
X90133423Y-68544181D01*
X90239861Y-68753075D01*
X90377669Y-68942751D01*
X90543452Y-69108534D01*
X90733128Y-69246342D01*
X90831823Y-69296629D01*
X90942021Y-69352779D01*
X90942023Y-69352779D01*
X90942026Y-69352781D01*
X91061548Y-69391616D01*
X91165003Y-69425231D01*
X91396565Y-69461907D01*
X91396570Y-69461907D01*
X91631027Y-69461907D01*
X91862588Y-69425231D01*
X92085566Y-69352781D01*
X92294464Y-69246342D01*
X92484140Y-69108534D01*
X92649923Y-68942751D01*
X92787731Y-68753075D01*
X92894170Y-68544177D01*
X92966620Y-68321199D01*
X93003296Y-68089638D01*
X93003296Y-67855175D01*
X92966620Y-67623614D01*
X92894168Y-67400632D01*
X92787730Y-67191738D01*
X92649923Y-67002063D01*
X92484140Y-66836280D01*
X92437954Y-66802724D01*
X92395289Y-66747396D01*
X92389310Y-66677782D01*
X92421915Y-66615987D01*
X92437954Y-66602090D01*
X92484140Y-66568534D01*
X92649923Y-66402751D01*
X92787731Y-66213075D01*
X92894170Y-66004177D01*
X92966620Y-65781199D01*
X93003296Y-65549638D01*
X93003296Y-65315175D01*
X92966620Y-65083614D01*
X92894168Y-64860632D01*
X92787730Y-64651738D01*
X92649923Y-64462063D01*
X92484140Y-64296280D01*
X92352465Y-64200612D01*
X92309800Y-64145281D01*
X92303821Y-64075668D01*
X92336427Y-64013873D01*
X92352467Y-63999975D01*
X92418665Y-63951880D01*
X92573267Y-63797278D01*
X92573271Y-63797273D01*
X92701772Y-63620405D01*
X92801033Y-63425598D01*
X92801034Y-63425595D01*
X92868594Y-63217665D01*
X92880514Y-63142407D01*
X91946808Y-63142407D01*
X91979721Y-63085400D01*
X92013796Y-62958233D01*
X92013796Y-62826581D01*
X91979721Y-62699414D01*
X91946808Y-62642407D01*
X92880514Y-62642407D01*
X92868594Y-62567148D01*
X92801034Y-62359218D01*
X92801033Y-62359215D01*
X92701772Y-62164408D01*
X92573271Y-61987540D01*
X92573267Y-61987535D01*
X92418667Y-61832935D01*
X92418662Y-61832931D01*
X92352466Y-61784837D01*
X92309800Y-61729508D01*
X92303821Y-61659894D01*
X92336426Y-61598099D01*
X92352466Y-61584201D01*
X92354946Y-61582398D01*
X92484140Y-61488534D01*
X92649923Y-61322751D01*
X92787731Y-61133075D01*
X92894170Y-60924177D01*
X92966620Y-60701199D01*
X93003296Y-60469638D01*
X93003296Y-60235175D01*
X92966620Y-60003614D01*
X92894168Y-59780632D01*
X92787730Y-59571738D01*
X92649923Y-59382063D01*
X92484140Y-59216280D01*
X92437954Y-59182724D01*
X92395289Y-59127396D01*
X92389310Y-59057782D01*
X92421915Y-58995987D01*
X92437954Y-58982090D01*
X92484140Y-58948534D01*
X92649923Y-58782751D01*
X92787731Y-58593075D01*
X92894170Y-58384177D01*
X92966620Y-58161199D01*
X93003296Y-57929638D01*
X93003296Y-57695175D01*
X92966620Y-57463614D01*
X92894168Y-57240632D01*
X92787730Y-57031738D01*
X92649923Y-56842063D01*
X92484140Y-56676280D01*
X92437954Y-56642724D01*
X92395289Y-56587396D01*
X92389310Y-56517782D01*
X92421915Y-56455987D01*
X92437954Y-56442090D01*
X92484140Y-56408534D01*
X92649923Y-56242751D01*
X92787731Y-56053075D01*
X92894170Y-55844177D01*
X92966620Y-55621199D01*
X93003296Y-55389638D01*
X93003296Y-55155175D01*
X92966620Y-54923614D01*
X92894168Y-54700632D01*
X92787730Y-54491738D01*
X92649923Y-54302063D01*
X92484140Y-54136280D01*
X92437954Y-54102724D01*
X92395289Y-54047396D01*
X92389310Y-53977782D01*
X92421915Y-53915987D01*
X92437954Y-53902090D01*
X92484140Y-53868534D01*
X92649923Y-53702751D01*
X92787731Y-53513075D01*
X92894170Y-53304177D01*
X92966620Y-53081199D01*
X93003296Y-52849638D01*
X93003296Y-52615175D01*
X92966620Y-52383614D01*
X92894168Y-52160632D01*
X92787730Y-51951738D01*
X92649923Y-51762063D01*
X92484140Y-51596280D01*
X92294464Y-51458472D01*
X92208722Y-51414784D01*
X92085570Y-51352034D01*
X91862588Y-51279582D01*
X91631027Y-51242907D01*
X91631022Y-51242907D01*
X91396570Y-51242907D01*
X91396565Y-51242907D01*
X91165003Y-51279582D01*
X90942021Y-51352034D01*
X90733127Y-51458472D01*
X90624910Y-51537096D01*
X90543452Y-51596280D01*
X90543450Y-51596282D01*
X90543449Y-51596282D01*
X90377671Y-51762060D01*
X90377671Y-51762061D01*
X90377669Y-51762063D01*
X90318485Y-51843521D01*
X90239861Y-51951738D01*
X90133423Y-52160632D01*
X90060971Y-52383614D01*
X90024296Y-52615175D01*
X73900500Y-52615175D01*
X73900500Y-49885837D01*
X99529500Y-49885837D01*
X99529500Y-50114162D01*
X99565215Y-50339660D01*
X99635770Y-50556803D01*
X99720795Y-50723672D01*
X99739421Y-50760228D01*
X99873621Y-50944937D01*
X100035063Y-51106379D01*
X100219772Y-51240579D01*
X100296320Y-51279582D01*
X100423196Y-51344229D01*
X100423198Y-51344229D01*
X100423201Y-51344231D01*
X100539592Y-51382049D01*
X100640339Y-51414784D01*
X100865838Y-51450500D01*
X100865843Y-51450500D01*
X101094162Y-51450500D01*
X101319660Y-51414784D01*
X101536799Y-51344231D01*
X101740228Y-51240579D01*
X101924937Y-51106379D01*
X102086379Y-50944937D01*
X102149682Y-50857807D01*
X102205012Y-50815143D01*
X102274626Y-50809164D01*
X102336421Y-50841770D01*
X102350315Y-50857804D01*
X102413621Y-50944937D01*
X102575063Y-51106379D01*
X102759772Y-51240579D01*
X102836320Y-51279582D01*
X102963196Y-51344229D01*
X102963198Y-51344229D01*
X102963201Y-51344231D01*
X103079592Y-51382049D01*
X103180339Y-51414784D01*
X103405838Y-51450500D01*
X103405843Y-51450500D01*
X103634162Y-51450500D01*
X103859660Y-51414784D01*
X104076799Y-51344231D01*
X104280228Y-51240579D01*
X104464937Y-51106379D01*
X104626379Y-50944937D01*
X104689682Y-50857807D01*
X104745012Y-50815143D01*
X104814626Y-50809164D01*
X104876421Y-50841770D01*
X104890315Y-50857804D01*
X104953621Y-50944937D01*
X105115063Y-51106379D01*
X105299772Y-51240579D01*
X105376320Y-51279582D01*
X105503196Y-51344229D01*
X105503198Y-51344229D01*
X105503201Y-51344231D01*
X105619592Y-51382049D01*
X105720339Y-51414784D01*
X105945838Y-51450500D01*
X105945843Y-51450500D01*
X106174162Y-51450500D01*
X106399660Y-51414784D01*
X106616799Y-51344231D01*
X106820228Y-51240579D01*
X107004937Y-51106379D01*
X107166379Y-50944937D01*
X107229682Y-50857807D01*
X107285012Y-50815143D01*
X107354626Y-50809164D01*
X107416421Y-50841770D01*
X107430315Y-50857804D01*
X107493621Y-50944937D01*
X107655063Y-51106379D01*
X107839772Y-51240579D01*
X107916320Y-51279582D01*
X108043196Y-51344229D01*
X108043198Y-51344229D01*
X108043201Y-51344231D01*
X108159592Y-51382049D01*
X108260339Y-51414784D01*
X108485838Y-51450500D01*
X108485843Y-51450500D01*
X108714162Y-51450500D01*
X108939660Y-51414784D01*
X109156799Y-51344231D01*
X109360228Y-51240579D01*
X109544937Y-51106379D01*
X109706379Y-50944937D01*
X109769682Y-50857807D01*
X109825012Y-50815143D01*
X109894626Y-50809164D01*
X109956421Y-50841770D01*
X109970315Y-50857804D01*
X110033621Y-50944937D01*
X110195063Y-51106379D01*
X110379772Y-51240579D01*
X110456320Y-51279582D01*
X110583196Y-51344229D01*
X110583198Y-51344229D01*
X110583201Y-51344231D01*
X110699592Y-51382049D01*
X110800339Y-51414784D01*
X111025838Y-51450500D01*
X111025843Y-51450500D01*
X111254162Y-51450500D01*
X111479660Y-51414784D01*
X111696799Y-51344231D01*
X111900228Y-51240579D01*
X112084937Y-51106379D01*
X112246379Y-50944937D01*
X112309682Y-50857807D01*
X112365012Y-50815143D01*
X112434626Y-50809164D01*
X112496421Y-50841770D01*
X112510315Y-50857804D01*
X112573621Y-50944937D01*
X112735063Y-51106379D01*
X112919772Y-51240579D01*
X112996320Y-51279582D01*
X113123196Y-51344229D01*
X113123198Y-51344229D01*
X113123201Y-51344231D01*
X113239592Y-51382049D01*
X113340339Y-51414784D01*
X113565838Y-51450500D01*
X113565843Y-51450500D01*
X113794162Y-51450500D01*
X114019660Y-51414784D01*
X114236799Y-51344231D01*
X114440228Y-51240579D01*
X114624937Y-51106379D01*
X114786379Y-50944937D01*
X114849682Y-50857807D01*
X114905012Y-50815143D01*
X114974626Y-50809164D01*
X115036421Y-50841770D01*
X115050315Y-50857804D01*
X115113621Y-50944937D01*
X115275063Y-51106379D01*
X115459772Y-51240579D01*
X115536320Y-51279582D01*
X115663196Y-51344229D01*
X115663198Y-51344229D01*
X115663201Y-51344231D01*
X115779592Y-51382049D01*
X115880339Y-51414784D01*
X116105838Y-51450500D01*
X116105843Y-51450500D01*
X116334162Y-51450500D01*
X116559660Y-51414784D01*
X116776799Y-51344231D01*
X116980228Y-51240579D01*
X117164937Y-51106379D01*
X117326379Y-50944937D01*
X117389682Y-50857807D01*
X117445012Y-50815143D01*
X117514626Y-50809164D01*
X117576421Y-50841770D01*
X117590315Y-50857804D01*
X117653621Y-50944937D01*
X117815063Y-51106379D01*
X117999772Y-51240579D01*
X118076320Y-51279582D01*
X118203196Y-51344229D01*
X118203198Y-51344229D01*
X118203201Y-51344231D01*
X118319592Y-51382049D01*
X118420339Y-51414784D01*
X118645838Y-51450500D01*
X118645843Y-51450500D01*
X118874162Y-51450500D01*
X119099660Y-51414784D01*
X119316799Y-51344231D01*
X119520228Y-51240579D01*
X119704937Y-51106379D01*
X119866379Y-50944937D01*
X119929682Y-50857807D01*
X119985012Y-50815143D01*
X120054626Y-50809164D01*
X120116421Y-50841770D01*
X120130315Y-50857804D01*
X120193621Y-50944937D01*
X120355063Y-51106379D01*
X120539772Y-51240579D01*
X120616320Y-51279582D01*
X120743196Y-51344229D01*
X120743198Y-51344229D01*
X120743201Y-51344231D01*
X120859592Y-51382049D01*
X120960339Y-51414784D01*
X121185838Y-51450500D01*
X121185843Y-51450500D01*
X121414162Y-51450500D01*
X121639660Y-51414784D01*
X121856799Y-51344231D01*
X122060228Y-51240579D01*
X122244937Y-51106379D01*
X122406379Y-50944937D01*
X122469682Y-50857807D01*
X122525012Y-50815143D01*
X122594626Y-50809164D01*
X122656421Y-50841770D01*
X122670315Y-50857804D01*
X122733621Y-50944937D01*
X122895063Y-51106379D01*
X123079772Y-51240579D01*
X123156320Y-51279582D01*
X123283196Y-51344229D01*
X123283198Y-51344229D01*
X123283201Y-51344231D01*
X123399592Y-51382049D01*
X123500339Y-51414784D01*
X123725838Y-51450500D01*
X123725843Y-51450500D01*
X123954162Y-51450500D01*
X124179660Y-51414784D01*
X124396799Y-51344231D01*
X124600228Y-51240579D01*
X124784937Y-51106379D01*
X124946379Y-50944937D01*
X125009682Y-50857807D01*
X125065012Y-50815143D01*
X125134626Y-50809164D01*
X125196421Y-50841770D01*
X125210315Y-50857804D01*
X125273621Y-50944937D01*
X125435063Y-51106379D01*
X125619772Y-51240579D01*
X125696320Y-51279582D01*
X125823196Y-51344229D01*
X125823198Y-51344229D01*
X125823201Y-51344231D01*
X125939592Y-51382049D01*
X126040339Y-51414784D01*
X126265838Y-51450500D01*
X126265843Y-51450500D01*
X126494162Y-51450500D01*
X126719660Y-51414784D01*
X126936799Y-51344231D01*
X127140228Y-51240579D01*
X127324937Y-51106379D01*
X127486379Y-50944937D01*
X127549682Y-50857807D01*
X127605012Y-50815143D01*
X127674626Y-50809164D01*
X127736421Y-50841770D01*
X127750315Y-50857804D01*
X127813621Y-50944937D01*
X127975063Y-51106379D01*
X128159772Y-51240579D01*
X128236320Y-51279582D01*
X128363196Y-51344229D01*
X128363198Y-51344229D01*
X128363201Y-51344231D01*
X128479592Y-51382049D01*
X128580339Y-51414784D01*
X128805838Y-51450500D01*
X128805843Y-51450500D01*
X129034162Y-51450500D01*
X129259660Y-51414784D01*
X129476799Y-51344231D01*
X129680228Y-51240579D01*
X129864937Y-51106379D01*
X130026379Y-50944937D01*
X130151796Y-50772316D01*
X130207124Y-50729653D01*
X130276738Y-50723674D01*
X130338532Y-50756280D01*
X130343134Y-50761591D01*
X130344728Y-50761716D01*
X130977037Y-50129408D01*
X130994075Y-50192993D01*
X131059901Y-50307007D01*
X131152993Y-50400099D01*
X131267007Y-50465925D01*
X131330590Y-50482962D01*
X130698282Y-51115269D01*
X130698282Y-51115270D01*
X130752449Y-51154624D01*
X130941782Y-51251095D01*
X131143870Y-51316757D01*
X131353754Y-51350000D01*
X131566246Y-51350000D01*
X131776127Y-51316757D01*
X131776130Y-51316757D01*
X131978217Y-51251095D01*
X132167554Y-51154622D01*
X132221716Y-51115270D01*
X132221717Y-51115270D01*
X131589408Y-50482962D01*
X131652993Y-50465925D01*
X131767007Y-50400099D01*
X131860099Y-50307007D01*
X131925925Y-50192993D01*
X131942962Y-50129409D01*
X132575270Y-50761717D01*
X132582002Y-50761187D01*
X132622896Y-50729653D01*
X132692509Y-50723672D01*
X132754305Y-50756277D01*
X132768204Y-50772317D01*
X132893621Y-50944937D01*
X133055063Y-51106379D01*
X133239772Y-51240579D01*
X133316320Y-51279582D01*
X133443196Y-51344229D01*
X133443198Y-51344229D01*
X133443201Y-51344231D01*
X133559592Y-51382049D01*
X133660339Y-51414784D01*
X133885838Y-51450500D01*
X133885843Y-51450500D01*
X134114162Y-51450500D01*
X134339660Y-51414784D01*
X134556799Y-51344231D01*
X134760228Y-51240579D01*
X134944937Y-51106379D01*
X135106379Y-50944937D01*
X135169682Y-50857807D01*
X135225012Y-50815143D01*
X135294626Y-50809164D01*
X135356421Y-50841770D01*
X135370315Y-50857804D01*
X135433621Y-50944937D01*
X135595063Y-51106379D01*
X135779772Y-51240579D01*
X135856320Y-51279582D01*
X135983196Y-51344229D01*
X135983198Y-51344229D01*
X135983201Y-51344231D01*
X136099592Y-51382049D01*
X136200339Y-51414784D01*
X136425838Y-51450500D01*
X136425843Y-51450500D01*
X136654162Y-51450500D01*
X136879660Y-51414784D01*
X137096799Y-51344231D01*
X137300228Y-51240579D01*
X137484937Y-51106379D01*
X137646379Y-50944937D01*
X137709682Y-50857807D01*
X137765012Y-50815143D01*
X137834626Y-50809164D01*
X137896421Y-50841770D01*
X137910315Y-50857804D01*
X137973621Y-50944937D01*
X138135063Y-51106379D01*
X138319772Y-51240579D01*
X138396320Y-51279582D01*
X138523196Y-51344229D01*
X138523198Y-51344229D01*
X138523201Y-51344231D01*
X138639592Y-51382049D01*
X138740339Y-51414784D01*
X138965838Y-51450500D01*
X138965843Y-51450500D01*
X139194162Y-51450500D01*
X139419660Y-51414784D01*
X139636799Y-51344231D01*
X139840228Y-51240579D01*
X140024937Y-51106379D01*
X140186379Y-50944937D01*
X140320579Y-50760228D01*
X140424231Y-50556799D01*
X140494784Y-50339660D01*
X140518014Y-50192993D01*
X140530500Y-50114162D01*
X140530500Y-49885837D01*
X140494784Y-49660339D01*
X140424229Y-49443196D01*
X140339203Y-49276324D01*
X140320579Y-49239772D01*
X140186379Y-49055063D01*
X140024937Y-48893621D01*
X139840228Y-48759421D01*
X139819587Y-48748904D01*
X139636803Y-48655770D01*
X139419660Y-48585215D01*
X139194162Y-48549500D01*
X139194157Y-48549500D01*
X138965843Y-48549500D01*
X138965838Y-48549500D01*
X138740339Y-48585215D01*
X138523196Y-48655770D01*
X138319771Y-48759421D01*
X138135061Y-48893622D01*
X137973623Y-49055060D01*
X137973616Y-49055069D01*
X137910317Y-49142191D01*
X137854987Y-49184857D01*
X137785373Y-49190835D01*
X137723579Y-49158228D01*
X137709683Y-49142191D01*
X137646383Y-49055069D01*
X137646379Y-49055063D01*
X137484937Y-48893621D01*
X137300228Y-48759421D01*
X137279587Y-48748904D01*
X137096803Y-48655770D01*
X136879660Y-48585215D01*
X136654162Y-48549500D01*
X136654157Y-48549500D01*
X136425843Y-48549500D01*
X136425838Y-48549500D01*
X136200339Y-48585215D01*
X135983196Y-48655770D01*
X135779771Y-48759421D01*
X135595061Y-48893622D01*
X135433623Y-49055060D01*
X135433616Y-49055069D01*
X135370317Y-49142191D01*
X135314987Y-49184857D01*
X135245373Y-49190835D01*
X135183579Y-49158228D01*
X135169683Y-49142191D01*
X135106383Y-49055069D01*
X135106379Y-49055063D01*
X134944937Y-48893621D01*
X134760228Y-48759421D01*
X134739587Y-48748904D01*
X134556803Y-48655770D01*
X134339660Y-48585215D01*
X134114162Y-48549500D01*
X134114157Y-48549500D01*
X133885843Y-48549500D01*
X133885838Y-48549500D01*
X133660339Y-48585215D01*
X133443196Y-48655770D01*
X133239771Y-48759421D01*
X133055061Y-48893622D01*
X132893622Y-49055061D01*
X132768205Y-49227682D01*
X132712874Y-49270347D01*
X132643261Y-49276326D01*
X132581466Y-49243720D01*
X132576862Y-49238407D01*
X132575269Y-49238282D01*
X131942962Y-49870590D01*
X131925925Y-49807007D01*
X131860099Y-49692993D01*
X131767007Y-49599901D01*
X131652993Y-49534075D01*
X131589409Y-49517037D01*
X132221716Y-48884728D01*
X132167550Y-48845375D01*
X131978217Y-48748904D01*
X131776129Y-48683242D01*
X131566246Y-48650000D01*
X131353754Y-48650000D01*
X131143872Y-48683242D01*
X131143869Y-48683242D01*
X130941782Y-48748904D01*
X130752439Y-48845380D01*
X130698282Y-48884727D01*
X130698282Y-48884728D01*
X131330591Y-49517037D01*
X131267007Y-49534075D01*
X131152993Y-49599901D01*
X131059901Y-49692993D01*
X130994075Y-49807007D01*
X130977037Y-49870591D01*
X130344728Y-49238282D01*
X130337992Y-49238812D01*
X130297100Y-49270345D01*
X130227487Y-49276324D01*
X130165692Y-49243718D01*
X130151794Y-49227680D01*
X130026383Y-49055069D01*
X130026379Y-49055063D01*
X129864937Y-48893621D01*
X129680228Y-48759421D01*
X129659587Y-48748904D01*
X129476803Y-48655770D01*
X129259660Y-48585215D01*
X129034162Y-48549500D01*
X129034157Y-48549500D01*
X128805843Y-48549500D01*
X128805838Y-48549500D01*
X128580339Y-48585215D01*
X128363196Y-48655770D01*
X128159771Y-48759421D01*
X127975061Y-48893622D01*
X127813623Y-49055060D01*
X127813616Y-49055069D01*
X127750317Y-49142191D01*
X127694987Y-49184857D01*
X127625373Y-49190835D01*
X127563579Y-49158228D01*
X127549683Y-49142191D01*
X127486383Y-49055069D01*
X127486379Y-49055063D01*
X127324937Y-48893621D01*
X127140228Y-48759421D01*
X127119587Y-48748904D01*
X126936803Y-48655770D01*
X126719660Y-48585215D01*
X126494162Y-48549500D01*
X126494157Y-48549500D01*
X126265843Y-48549500D01*
X126265838Y-48549500D01*
X126040339Y-48585215D01*
X125823196Y-48655770D01*
X125619771Y-48759421D01*
X125435061Y-48893622D01*
X125273623Y-49055060D01*
X125273616Y-49055069D01*
X125210317Y-49142191D01*
X125154987Y-49184857D01*
X125085373Y-49190835D01*
X125023579Y-49158228D01*
X125009683Y-49142191D01*
X124946383Y-49055069D01*
X124946379Y-49055063D01*
X124784937Y-48893621D01*
X124600228Y-48759421D01*
X124579587Y-48748904D01*
X124396803Y-48655770D01*
X124179660Y-48585215D01*
X123954162Y-48549500D01*
X123954157Y-48549500D01*
X123725843Y-48549500D01*
X123725838Y-48549500D01*
X123500339Y-48585215D01*
X123283196Y-48655770D01*
X123079771Y-48759421D01*
X122895061Y-48893622D01*
X122733623Y-49055060D01*
X122733616Y-49055069D01*
X122670317Y-49142191D01*
X122614987Y-49184857D01*
X122545373Y-49190835D01*
X122483579Y-49158228D01*
X122469683Y-49142191D01*
X122406383Y-49055069D01*
X122406379Y-49055063D01*
X122244937Y-48893621D01*
X122060228Y-48759421D01*
X122039587Y-48748904D01*
X121856803Y-48655770D01*
X121639660Y-48585215D01*
X121414162Y-48549500D01*
X121414157Y-48549500D01*
X121185843Y-48549500D01*
X121185838Y-48549500D01*
X120960339Y-48585215D01*
X120743196Y-48655770D01*
X120539771Y-48759421D01*
X120355061Y-48893622D01*
X120193623Y-49055060D01*
X120193616Y-49055069D01*
X120130317Y-49142191D01*
X120074987Y-49184857D01*
X120005373Y-49190835D01*
X119943579Y-49158228D01*
X119929683Y-49142191D01*
X119866383Y-49055069D01*
X119866379Y-49055063D01*
X119704937Y-48893621D01*
X119520228Y-48759421D01*
X119499587Y-48748904D01*
X119316803Y-48655770D01*
X119099660Y-48585215D01*
X118874162Y-48549500D01*
X118874157Y-48549500D01*
X118645843Y-48549500D01*
X118645838Y-48549500D01*
X118420339Y-48585215D01*
X118203196Y-48655770D01*
X117999771Y-48759421D01*
X117815061Y-48893622D01*
X117653623Y-49055060D01*
X117653616Y-49055069D01*
X117590317Y-49142191D01*
X117534987Y-49184857D01*
X117465373Y-49190835D01*
X117403579Y-49158228D01*
X117389683Y-49142191D01*
X117326383Y-49055069D01*
X117326379Y-49055063D01*
X117164937Y-48893621D01*
X116980228Y-48759421D01*
X116959587Y-48748904D01*
X116776803Y-48655770D01*
X116559660Y-48585215D01*
X116334162Y-48549500D01*
X116334157Y-48549500D01*
X116105843Y-48549500D01*
X116105838Y-48549500D01*
X115880339Y-48585215D01*
X115663196Y-48655770D01*
X115459771Y-48759421D01*
X115275061Y-48893622D01*
X115113623Y-49055060D01*
X115113616Y-49055069D01*
X115050317Y-49142191D01*
X114994987Y-49184857D01*
X114925373Y-49190835D01*
X114863579Y-49158228D01*
X114849683Y-49142191D01*
X114786383Y-49055069D01*
X114786379Y-49055063D01*
X114624937Y-48893621D01*
X114440228Y-48759421D01*
X114419587Y-48748904D01*
X114236803Y-48655770D01*
X114019660Y-48585215D01*
X113794162Y-48549500D01*
X113794157Y-48549500D01*
X113565843Y-48549500D01*
X113565838Y-48549500D01*
X113340339Y-48585215D01*
X113123196Y-48655770D01*
X112919771Y-48759421D01*
X112735061Y-48893622D01*
X112573623Y-49055060D01*
X112573616Y-49055069D01*
X112510317Y-49142191D01*
X112454987Y-49184857D01*
X112385373Y-49190835D01*
X112323579Y-49158228D01*
X112309683Y-49142191D01*
X112246383Y-49055069D01*
X112246379Y-49055063D01*
X112084937Y-48893621D01*
X111900228Y-48759421D01*
X111879587Y-48748904D01*
X111696803Y-48655770D01*
X111479660Y-48585215D01*
X111254162Y-48549500D01*
X111254157Y-48549500D01*
X111025843Y-48549500D01*
X111025838Y-48549500D01*
X110800339Y-48585215D01*
X110583196Y-48655770D01*
X110379771Y-48759421D01*
X110195061Y-48893622D01*
X110033623Y-49055060D01*
X110033616Y-49055069D01*
X109970317Y-49142191D01*
X109914987Y-49184857D01*
X109845373Y-49190835D01*
X109783579Y-49158228D01*
X109769683Y-49142191D01*
X109706383Y-49055069D01*
X109706379Y-49055063D01*
X109544937Y-48893621D01*
X109360228Y-48759421D01*
X109339587Y-48748904D01*
X109156803Y-48655770D01*
X108939660Y-48585215D01*
X108714162Y-48549500D01*
X108714157Y-48549500D01*
X108485843Y-48549500D01*
X108485838Y-48549500D01*
X108260339Y-48585215D01*
X108043196Y-48655770D01*
X107839771Y-48759421D01*
X107655061Y-48893622D01*
X107493623Y-49055060D01*
X107493616Y-49055069D01*
X107430317Y-49142191D01*
X107374987Y-49184857D01*
X107305373Y-49190835D01*
X107243579Y-49158228D01*
X107229683Y-49142191D01*
X107166383Y-49055069D01*
X107166379Y-49055063D01*
X107004937Y-48893621D01*
X106820228Y-48759421D01*
X106799587Y-48748904D01*
X106616803Y-48655770D01*
X106399660Y-48585215D01*
X106174162Y-48549500D01*
X106174157Y-48549500D01*
X105945843Y-48549500D01*
X105945838Y-48549500D01*
X105720339Y-48585215D01*
X105503196Y-48655770D01*
X105299771Y-48759421D01*
X105115061Y-48893622D01*
X104953623Y-49055060D01*
X104953616Y-49055069D01*
X104890317Y-49142191D01*
X104834987Y-49184857D01*
X104765373Y-49190835D01*
X104703579Y-49158228D01*
X104689683Y-49142191D01*
X104626383Y-49055069D01*
X104626379Y-49055063D01*
X104464937Y-48893621D01*
X104280228Y-48759421D01*
X104259587Y-48748904D01*
X104076803Y-48655770D01*
X103859660Y-48585215D01*
X103634162Y-48549500D01*
X103634157Y-48549500D01*
X103405843Y-48549500D01*
X103405838Y-48549500D01*
X103180339Y-48585215D01*
X102963196Y-48655770D01*
X102759771Y-48759421D01*
X102575061Y-48893622D01*
X102413623Y-49055060D01*
X102413616Y-49055069D01*
X102350317Y-49142191D01*
X102294987Y-49184857D01*
X102225373Y-49190835D01*
X102163579Y-49158228D01*
X102149683Y-49142191D01*
X102086383Y-49055069D01*
X102086379Y-49055063D01*
X101924937Y-48893621D01*
X101740228Y-48759421D01*
X101719587Y-48748904D01*
X101536803Y-48655770D01*
X101319660Y-48585215D01*
X101094162Y-48549500D01*
X101094157Y-48549500D01*
X100865843Y-48549500D01*
X100865838Y-48549500D01*
X100640339Y-48585215D01*
X100423196Y-48655770D01*
X100219771Y-48759421D01*
X100035061Y-48893622D01*
X99873622Y-49055061D01*
X99739421Y-49239771D01*
X99635770Y-49443196D01*
X99565215Y-49660339D01*
X99529500Y-49885837D01*
X73900500Y-49885837D01*
X73900500Y-32800537D01*
X73920185Y-32733498D01*
X73972989Y-32687743D01*
X74042147Y-32677799D01*
X74105703Y-32706824D01*
X74131887Y-32738538D01*
X74233072Y-32913798D01*
X74233074Y-32913802D01*
X74392718Y-33121851D01*
X74392726Y-33121860D01*
X74578140Y-33307274D01*
X74578148Y-33307281D01*
X74786196Y-33466924D01*
X75013299Y-33598041D01*
X75013309Y-33598046D01*
X75255571Y-33698394D01*
X75255581Y-33698398D01*
X75508884Y-33766270D01*
X75768880Y-33800500D01*
X75768887Y-33800500D01*
X76031113Y-33800500D01*
X76031120Y-33800500D01*
X76291116Y-33766270D01*
X76544419Y-33698398D01*
X76723648Y-33624159D01*
X76786690Y-33598046D01*
X76786691Y-33598045D01*
X76786697Y-33598043D01*
X77013803Y-33466924D01*
X77221851Y-33307282D01*
X77221855Y-33307277D01*
X77221860Y-33307274D01*
X77407274Y-33121860D01*
X77407277Y-33121855D01*
X77407282Y-33121851D01*
X77566924Y-32913803D01*
X77698043Y-32686697D01*
X77741092Y-32582768D01*
X81620500Y-32582768D01*
X81620500Y-32817231D01*
X81657175Y-33048792D01*
X81729627Y-33271774D01*
X81814665Y-33438669D01*
X81836065Y-33480668D01*
X81973873Y-33670344D01*
X82139656Y-33836127D01*
X82329332Y-33973935D01*
X82355439Y-33987237D01*
X82538225Y-34080372D01*
X82538227Y-34080372D01*
X82538230Y-34080374D01*
X82657752Y-34119209D01*
X82761207Y-34152824D01*
X82992769Y-34189500D01*
X82992774Y-34189500D01*
X83227231Y-34189500D01*
X83458792Y-34152824D01*
X83681770Y-34080374D01*
X83890668Y-33973935D01*
X84080344Y-33836127D01*
X84246127Y-33670344D01*
X84279682Y-33624158D01*
X84335011Y-33581493D01*
X84404625Y-33575514D01*
X84466420Y-33608119D01*
X84480315Y-33624155D01*
X84513873Y-33670344D01*
X84679656Y-33836127D01*
X84869332Y-33973935D01*
X84895439Y-33987237D01*
X85078225Y-34080372D01*
X85078227Y-34080372D01*
X85078230Y-34080374D01*
X85197752Y-34119209D01*
X85301207Y-34152824D01*
X85532769Y-34189500D01*
X85532774Y-34189500D01*
X85767231Y-34189500D01*
X85998792Y-34152824D01*
X86221770Y-34080374D01*
X86430668Y-33973935D01*
X86620344Y-33836127D01*
X86786127Y-33670344D01*
X86819682Y-33624158D01*
X86875011Y-33581493D01*
X86944625Y-33575514D01*
X87006420Y-33608119D01*
X87020315Y-33624155D01*
X87053873Y-33670344D01*
X87219656Y-33836127D01*
X87409332Y-33973935D01*
X87435439Y-33987237D01*
X87618225Y-34080372D01*
X87618227Y-34080372D01*
X87618230Y-34080374D01*
X87737752Y-34119209D01*
X87841207Y-34152824D01*
X88072769Y-34189500D01*
X88072774Y-34189500D01*
X88307231Y-34189500D01*
X88538792Y-34152824D01*
X88761770Y-34080374D01*
X88970668Y-33973935D01*
X89160344Y-33836127D01*
X89326127Y-33670344D01*
X89359682Y-33624158D01*
X89415011Y-33581493D01*
X89484625Y-33575514D01*
X89546420Y-33608119D01*
X89560315Y-33624155D01*
X89593873Y-33670344D01*
X89759656Y-33836127D01*
X89949332Y-33973935D01*
X89975439Y-33987237D01*
X90158225Y-34080372D01*
X90158227Y-34080372D01*
X90158230Y-34080374D01*
X90277752Y-34119209D01*
X90381207Y-34152824D01*
X90612769Y-34189500D01*
X90612774Y-34189500D01*
X90847231Y-34189500D01*
X91078792Y-34152824D01*
X91301770Y-34080374D01*
X91510668Y-33973935D01*
X91700344Y-33836127D01*
X91866127Y-33670344D01*
X91899682Y-33624158D01*
X91955011Y-33581493D01*
X92024625Y-33575514D01*
X92086420Y-33608119D01*
X92100315Y-33624155D01*
X92133873Y-33670344D01*
X92299656Y-33836127D01*
X92489332Y-33973935D01*
X92515439Y-33987237D01*
X92698225Y-34080372D01*
X92698227Y-34080372D01*
X92698230Y-34080374D01*
X92817752Y-34119209D01*
X92921207Y-34152824D01*
X93152769Y-34189500D01*
X93152774Y-34189500D01*
X93387231Y-34189500D01*
X93618792Y-34152824D01*
X93841770Y-34080374D01*
X94050668Y-33973935D01*
X94240344Y-33836127D01*
X94406127Y-33670344D01*
X94501795Y-33538669D01*
X94557124Y-33496004D01*
X94626737Y-33490025D01*
X94688532Y-33522631D01*
X94702430Y-33538670D01*
X94750524Y-33604866D01*
X94750528Y-33604871D01*
X94905128Y-33759471D01*
X94905133Y-33759475D01*
X95082001Y-33887976D01*
X95276808Y-33987237D01*
X95276811Y-33987238D01*
X95484739Y-34054797D01*
X95559999Y-34066717D01*
X95560000Y-34066717D01*
X95560000Y-33133012D01*
X95617007Y-33165925D01*
X95744174Y-33200000D01*
X95875826Y-33200000D01*
X96002993Y-33165925D01*
X96060000Y-33133012D01*
X96060000Y-34066717D01*
X96135258Y-34054797D01*
X96135261Y-34054797D01*
X96343188Y-33987238D01*
X96343191Y-33987237D01*
X96537998Y-33887976D01*
X96714866Y-33759475D01*
X96714871Y-33759471D01*
X96869473Y-33604869D01*
X96917568Y-33538671D01*
X96972897Y-33496004D01*
X97042511Y-33490024D01*
X97104306Y-33522630D01*
X97118205Y-33538669D01*
X97141219Y-33570345D01*
X97213873Y-33670344D01*
X97379656Y-33836127D01*
X97569332Y-33973935D01*
X97595439Y-33987237D01*
X97778225Y-34080372D01*
X97778227Y-34080372D01*
X97778230Y-34080374D01*
X97897752Y-34119209D01*
X98001207Y-34152824D01*
X98232769Y-34189500D01*
X98232774Y-34189500D01*
X98467231Y-34189500D01*
X98698792Y-34152824D01*
X98921770Y-34080374D01*
X99130668Y-33973935D01*
X99320344Y-33836127D01*
X99486127Y-33670344D01*
X99519682Y-33624158D01*
X99575011Y-33581493D01*
X99644625Y-33575514D01*
X99706420Y-33608119D01*
X99720315Y-33624155D01*
X99753873Y-33670344D01*
X99919656Y-33836127D01*
X100109332Y-33973935D01*
X100135439Y-33987237D01*
X100318225Y-34080372D01*
X100318227Y-34080372D01*
X100318230Y-34080374D01*
X100437752Y-34119209D01*
X100541207Y-34152824D01*
X100772769Y-34189500D01*
X100772774Y-34189500D01*
X101007231Y-34189500D01*
X101238792Y-34152824D01*
X101461770Y-34080374D01*
X101670668Y-33973935D01*
X101860344Y-33836127D01*
X102026127Y-33670344D01*
X102163935Y-33480668D01*
X102270374Y-33271770D01*
X102342824Y-33048792D01*
X102350536Y-33000099D01*
X102379500Y-32817231D01*
X102379500Y-32582768D01*
X102365963Y-32497300D01*
X102363661Y-32482768D01*
X109910500Y-32482768D01*
X109910500Y-32717231D01*
X109947175Y-32948792D01*
X110019627Y-33171774D01*
X110088672Y-33307281D01*
X110126065Y-33380668D01*
X110263873Y-33570344D01*
X110429656Y-33736127D01*
X110619332Y-33873935D01*
X110718027Y-33924222D01*
X110828225Y-33980372D01*
X110828227Y-33980372D01*
X110828230Y-33980374D01*
X110947752Y-34019209D01*
X111051207Y-34052824D01*
X111282769Y-34089500D01*
X111282774Y-34089500D01*
X111517231Y-34089500D01*
X111748792Y-34052824D01*
X111971770Y-33980374D01*
X112180668Y-33873935D01*
X112370344Y-33736127D01*
X112536127Y-33570344D01*
X112569682Y-33524158D01*
X112625011Y-33481493D01*
X112694625Y-33475514D01*
X112756420Y-33508119D01*
X112770315Y-33524155D01*
X112803873Y-33570344D01*
X112969656Y-33736127D01*
X113159332Y-33873935D01*
X113258027Y-33924222D01*
X113368225Y-33980372D01*
X113368227Y-33980372D01*
X113368230Y-33980374D01*
X113487752Y-34019209D01*
X113591207Y-34052824D01*
X113822769Y-34089500D01*
X113822774Y-34089500D01*
X114057231Y-34089500D01*
X114288792Y-34052824D01*
X114511770Y-33980374D01*
X114720668Y-33873935D01*
X114910344Y-33736127D01*
X115076127Y-33570344D01*
X115109682Y-33524158D01*
X115165011Y-33481493D01*
X115234625Y-33475514D01*
X115296420Y-33508119D01*
X115310315Y-33524155D01*
X115343873Y-33570344D01*
X115509656Y-33736127D01*
X115699332Y-33873935D01*
X115798027Y-33924222D01*
X115908225Y-33980372D01*
X115908227Y-33980372D01*
X115908230Y-33980374D01*
X116027752Y-34019209D01*
X116131207Y-34052824D01*
X116362769Y-34089500D01*
X116362774Y-34089500D01*
X116597231Y-34089500D01*
X116828792Y-34052824D01*
X117051770Y-33980374D01*
X117260668Y-33873935D01*
X117450344Y-33736127D01*
X117616127Y-33570344D01*
X117711795Y-33438669D01*
X117767124Y-33396004D01*
X117836737Y-33390025D01*
X117898532Y-33422631D01*
X117912430Y-33438670D01*
X117960524Y-33504866D01*
X117960528Y-33504871D01*
X118115128Y-33659471D01*
X118115133Y-33659475D01*
X118292001Y-33787976D01*
X118486808Y-33887237D01*
X118486811Y-33887238D01*
X118694739Y-33954797D01*
X118769999Y-33966717D01*
X118770000Y-33966717D01*
X118770000Y-33033012D01*
X118827007Y-33065925D01*
X118954174Y-33100000D01*
X119085826Y-33100000D01*
X119212993Y-33065925D01*
X119270000Y-33033012D01*
X119270000Y-33966717D01*
X119345258Y-33954797D01*
X119345261Y-33954797D01*
X119553188Y-33887238D01*
X119553191Y-33887237D01*
X119747998Y-33787976D01*
X119924866Y-33659475D01*
X119924871Y-33659471D01*
X120079473Y-33504869D01*
X120127568Y-33438671D01*
X120182897Y-33396004D01*
X120252511Y-33390024D01*
X120314306Y-33422630D01*
X120328205Y-33438669D01*
X120348734Y-33466924D01*
X120423873Y-33570344D01*
X120589656Y-33736127D01*
X120779332Y-33873935D01*
X120878027Y-33924222D01*
X120988225Y-33980372D01*
X120988227Y-33980372D01*
X120988230Y-33980374D01*
X121107752Y-34019209D01*
X121211207Y-34052824D01*
X121442769Y-34089500D01*
X121442774Y-34089500D01*
X121677231Y-34089500D01*
X121908792Y-34052824D01*
X122131770Y-33980374D01*
X122340668Y-33873935D01*
X122530344Y-33736127D01*
X122696127Y-33570344D01*
X122729682Y-33524158D01*
X122785011Y-33481493D01*
X122854625Y-33475514D01*
X122916420Y-33508119D01*
X122930315Y-33524155D01*
X122963873Y-33570344D01*
X123129656Y-33736127D01*
X123319332Y-33873935D01*
X123418027Y-33924222D01*
X123528225Y-33980372D01*
X123528227Y-33980372D01*
X123528230Y-33980374D01*
X123647752Y-34019209D01*
X123751207Y-34052824D01*
X123982769Y-34089500D01*
X123982774Y-34089500D01*
X124217231Y-34089500D01*
X124448792Y-34052824D01*
X124671770Y-33980374D01*
X124880668Y-33873935D01*
X125070344Y-33736127D01*
X125236127Y-33570344D01*
X125373935Y-33380668D01*
X125480374Y-33171770D01*
X125552824Y-32948792D01*
X125558366Y-32913802D01*
X125589500Y-32717231D01*
X125589500Y-32482768D01*
X125552824Y-32251207D01*
X125512864Y-32128225D01*
X125480374Y-32028230D01*
X125480372Y-32028227D01*
X125480372Y-32028225D01*
X125424222Y-31918027D01*
X125373935Y-31819332D01*
X125236127Y-31629656D01*
X125070344Y-31463873D01*
X124880668Y-31326065D01*
X124868031Y-31319626D01*
X124671774Y-31219627D01*
X124448792Y-31147175D01*
X124217231Y-31110500D01*
X124217226Y-31110500D01*
X123982774Y-31110500D01*
X123982769Y-31110500D01*
X123751207Y-31147175D01*
X123528225Y-31219627D01*
X123319331Y-31326065D01*
X123211114Y-31404689D01*
X123129656Y-31463873D01*
X123129654Y-31463875D01*
X123129653Y-31463875D01*
X122963872Y-31629656D01*
X122930317Y-31675841D01*
X122874987Y-31718506D01*
X122805373Y-31724484D01*
X122743579Y-31691877D01*
X122729683Y-31675841D01*
X122696127Y-31629656D01*
X122530346Y-31463875D01*
X122530344Y-31463873D01*
X122340668Y-31326065D01*
X122328031Y-31319626D01*
X122131774Y-31219627D01*
X121908792Y-31147175D01*
X121677231Y-31110500D01*
X121677226Y-31110500D01*
X121442774Y-31110500D01*
X121442769Y-31110500D01*
X121211207Y-31147175D01*
X120988225Y-31219627D01*
X120779331Y-31326065D01*
X120671114Y-31404689D01*
X120589656Y-31463873D01*
X120589654Y-31463875D01*
X120589653Y-31463875D01*
X120423875Y-31629653D01*
X120423868Y-31629662D01*
X120328204Y-31761330D01*
X120272874Y-31803996D01*
X120203261Y-31809974D01*
X120141466Y-31777368D01*
X120127568Y-31761329D01*
X120079469Y-31695126D01*
X119924871Y-31540528D01*
X119924866Y-31540524D01*
X119747998Y-31412023D01*
X119553191Y-31312762D01*
X119553188Y-31312761D01*
X119345258Y-31245201D01*
X119270000Y-31233281D01*
X119270000Y-32166988D01*
X119212993Y-32134075D01*
X119085826Y-32100000D01*
X118954174Y-32100000D01*
X118827007Y-32134075D01*
X118770000Y-32166988D01*
X118770000Y-31233281D01*
X118694741Y-31245201D01*
X118486811Y-31312761D01*
X118486808Y-31312762D01*
X118292001Y-31412023D01*
X118115133Y-31540524D01*
X118115128Y-31540528D01*
X117960528Y-31695128D01*
X117912430Y-31761330D01*
X117857100Y-31803995D01*
X117787486Y-31809974D01*
X117725691Y-31777368D01*
X117711794Y-31761330D01*
X117692016Y-31734108D01*
X117616127Y-31629656D01*
X117450344Y-31463873D01*
X117260668Y-31326065D01*
X117248031Y-31319626D01*
X117051774Y-31219627D01*
X116828792Y-31147175D01*
X116597231Y-31110500D01*
X116597226Y-31110500D01*
X116362774Y-31110500D01*
X116362769Y-31110500D01*
X116131207Y-31147175D01*
X115908225Y-31219627D01*
X115699331Y-31326065D01*
X115591114Y-31404689D01*
X115509656Y-31463873D01*
X115509654Y-31463875D01*
X115509653Y-31463875D01*
X115343872Y-31629656D01*
X115310317Y-31675841D01*
X115254987Y-31718506D01*
X115185373Y-31724484D01*
X115123579Y-31691877D01*
X115109683Y-31675841D01*
X115076127Y-31629656D01*
X114910346Y-31463875D01*
X114910344Y-31463873D01*
X114720668Y-31326065D01*
X114708031Y-31319626D01*
X114511774Y-31219627D01*
X114288792Y-31147175D01*
X114057231Y-31110500D01*
X114057226Y-31110500D01*
X113822774Y-31110500D01*
X113822769Y-31110500D01*
X113591207Y-31147175D01*
X113368225Y-31219627D01*
X113159331Y-31326065D01*
X113051114Y-31404689D01*
X112969656Y-31463873D01*
X112969654Y-31463875D01*
X112969653Y-31463875D01*
X112803872Y-31629656D01*
X112770317Y-31675841D01*
X112714987Y-31718506D01*
X112645373Y-31724484D01*
X112583579Y-31691877D01*
X112569683Y-31675841D01*
X112536127Y-31629656D01*
X112370346Y-31463875D01*
X112370344Y-31463873D01*
X112180668Y-31326065D01*
X112168031Y-31319626D01*
X111971774Y-31219627D01*
X111748792Y-31147175D01*
X111517231Y-31110500D01*
X111517226Y-31110500D01*
X111282774Y-31110500D01*
X111282769Y-31110500D01*
X111051207Y-31147175D01*
X110828225Y-31219627D01*
X110619331Y-31326065D01*
X110511114Y-31404689D01*
X110429656Y-31463873D01*
X110429654Y-31463875D01*
X110429653Y-31463875D01*
X110263875Y-31629653D01*
X110263875Y-31629654D01*
X110263873Y-31629656D01*
X110263869Y-31629662D01*
X110126065Y-31819331D01*
X110019627Y-32028225D01*
X109947175Y-32251207D01*
X109910500Y-32482768D01*
X102363661Y-32482768D01*
X102342824Y-32351207D01*
X102304765Y-32234075D01*
X102270374Y-32128230D01*
X102270372Y-32128227D01*
X102270372Y-32128225D01*
X102173811Y-31938715D01*
X102163935Y-31919332D01*
X102026127Y-31729656D01*
X101860344Y-31563873D01*
X101670668Y-31426065D01*
X101461774Y-31319627D01*
X101238792Y-31247175D01*
X101007231Y-31210500D01*
X101007226Y-31210500D01*
X100772774Y-31210500D01*
X100772769Y-31210500D01*
X100541207Y-31247175D01*
X100318225Y-31319627D01*
X100109331Y-31426065D01*
X100057291Y-31463875D01*
X99919656Y-31563873D01*
X99919654Y-31563875D01*
X99919653Y-31563875D01*
X99753872Y-31729656D01*
X99720317Y-31775841D01*
X99664987Y-31818506D01*
X99595373Y-31824484D01*
X99533579Y-31791877D01*
X99519683Y-31775841D01*
X99486127Y-31729656D01*
X99320346Y-31563875D01*
X99320344Y-31563873D01*
X99130668Y-31426065D01*
X98921774Y-31319627D01*
X98698792Y-31247175D01*
X98467231Y-31210500D01*
X98467226Y-31210500D01*
X98232774Y-31210500D01*
X98232769Y-31210500D01*
X98001207Y-31247175D01*
X97778225Y-31319627D01*
X97569331Y-31426065D01*
X97517291Y-31463875D01*
X97379656Y-31563873D01*
X97379654Y-31563875D01*
X97379653Y-31563875D01*
X97213875Y-31729653D01*
X97213868Y-31729662D01*
X97118204Y-31861330D01*
X97062874Y-31903996D01*
X96993261Y-31909974D01*
X96931466Y-31877368D01*
X96917568Y-31861329D01*
X96869469Y-31795126D01*
X96714871Y-31640528D01*
X96714866Y-31640524D01*
X96537998Y-31512023D01*
X96343191Y-31412762D01*
X96343188Y-31412761D01*
X96135258Y-31345201D01*
X96060000Y-31333281D01*
X96060000Y-32266988D01*
X96002993Y-32234075D01*
X95875826Y-32200000D01*
X95744174Y-32200000D01*
X95617007Y-32234075D01*
X95560000Y-32266988D01*
X95560000Y-31333281D01*
X95484741Y-31345201D01*
X95276811Y-31412761D01*
X95276808Y-31412762D01*
X95082001Y-31512023D01*
X94905133Y-31640524D01*
X94905128Y-31640528D01*
X94750528Y-31795128D01*
X94702430Y-31861330D01*
X94647100Y-31903995D01*
X94577486Y-31909974D01*
X94515691Y-31877368D01*
X94501794Y-31861330D01*
X94500729Y-31859865D01*
X94406127Y-31729656D01*
X94240344Y-31563873D01*
X94050668Y-31426065D01*
X93841774Y-31319627D01*
X93618792Y-31247175D01*
X93387231Y-31210500D01*
X93387226Y-31210500D01*
X93152774Y-31210500D01*
X93152769Y-31210500D01*
X92921207Y-31247175D01*
X92698225Y-31319627D01*
X92489331Y-31426065D01*
X92437291Y-31463875D01*
X92299656Y-31563873D01*
X92299654Y-31563875D01*
X92299653Y-31563875D01*
X92133872Y-31729656D01*
X92100317Y-31775841D01*
X92044987Y-31818506D01*
X91975373Y-31824484D01*
X91913579Y-31791877D01*
X91899683Y-31775841D01*
X91866127Y-31729656D01*
X91700346Y-31563875D01*
X91700344Y-31563873D01*
X91510668Y-31426065D01*
X91301774Y-31319627D01*
X91078792Y-31247175D01*
X90847231Y-31210500D01*
X90847226Y-31210500D01*
X90612774Y-31210500D01*
X90612769Y-31210500D01*
X90381207Y-31247175D01*
X90158225Y-31319627D01*
X89949331Y-31426065D01*
X89897291Y-31463875D01*
X89759656Y-31563873D01*
X89759654Y-31563875D01*
X89759653Y-31563875D01*
X89593872Y-31729656D01*
X89560317Y-31775841D01*
X89504987Y-31818506D01*
X89435373Y-31824484D01*
X89373579Y-31791877D01*
X89359683Y-31775841D01*
X89326127Y-31729656D01*
X89160346Y-31563875D01*
X89160344Y-31563873D01*
X88970668Y-31426065D01*
X88761774Y-31319627D01*
X88538792Y-31247175D01*
X88307231Y-31210500D01*
X88307226Y-31210500D01*
X88072774Y-31210500D01*
X88072769Y-31210500D01*
X87841207Y-31247175D01*
X87618225Y-31319627D01*
X87409331Y-31426065D01*
X87357291Y-31463875D01*
X87219656Y-31563873D01*
X87219654Y-31563875D01*
X87219653Y-31563875D01*
X87053872Y-31729656D01*
X87020317Y-31775841D01*
X86964987Y-31818506D01*
X86895373Y-31824484D01*
X86833579Y-31791877D01*
X86819683Y-31775841D01*
X86786127Y-31729656D01*
X86620346Y-31563875D01*
X86620344Y-31563873D01*
X86430668Y-31426065D01*
X86221774Y-31319627D01*
X85998792Y-31247175D01*
X85767231Y-31210500D01*
X85767226Y-31210500D01*
X85532774Y-31210500D01*
X85532769Y-31210500D01*
X85301207Y-31247175D01*
X85078225Y-31319627D01*
X84869331Y-31426065D01*
X84817291Y-31463875D01*
X84679656Y-31563873D01*
X84679654Y-31563875D01*
X84679653Y-31563875D01*
X84513872Y-31729656D01*
X84480317Y-31775841D01*
X84424987Y-31818506D01*
X84355373Y-31824484D01*
X84293579Y-31791877D01*
X84279683Y-31775841D01*
X84246127Y-31729656D01*
X84080346Y-31563875D01*
X84080344Y-31563873D01*
X83890668Y-31426065D01*
X83681774Y-31319627D01*
X83458792Y-31247175D01*
X83227231Y-31210500D01*
X83227226Y-31210500D01*
X82992774Y-31210500D01*
X82992769Y-31210500D01*
X82761207Y-31247175D01*
X82538225Y-31319627D01*
X82329331Y-31426065D01*
X82277291Y-31463875D01*
X82139656Y-31563873D01*
X82139654Y-31563875D01*
X82139653Y-31563875D01*
X81973875Y-31729653D01*
X81973875Y-31729654D01*
X81973873Y-31729656D01*
X81940318Y-31775841D01*
X81836065Y-31919331D01*
X81729627Y-32128225D01*
X81657175Y-32351207D01*
X81620500Y-32582768D01*
X77741092Y-32582768D01*
X77798398Y-32444419D01*
X77866270Y-32191116D01*
X77900500Y-31931120D01*
X77900500Y-31668880D01*
X77866270Y-31408884D01*
X77798398Y-31155581D01*
X77700204Y-30918520D01*
X77698046Y-30913309D01*
X77698041Y-30913299D01*
X77566924Y-30686196D01*
X77407281Y-30478148D01*
X77407274Y-30478140D01*
X77221860Y-30292726D01*
X77221851Y-30292718D01*
X77013803Y-30133075D01*
X76838538Y-30031887D01*
X76790323Y-29981320D01*
X76777099Y-29912713D01*
X76803067Y-29847849D01*
X76859981Y-29807320D01*
X76900538Y-29800500D01*
X143099462Y-29800500D01*
X143166501Y-29820185D01*
G37*
%TD.AperFunction*%
%TD*%
M02*
