%TF.GenerationSoftware,KiCad,Pcbnew,9.0.7*%
%TF.CreationDate,2026-02-04T13:12:14-08:00*%
%TF.ProjectId,BasicDatalogger,42617369-6344-4617-9461-6c6f67676572,rev?*%
%TF.SameCoordinates,Original*%
%TF.FileFunction,Copper,L1,Top*%
%TF.FilePolarity,Positive*%
%FSLAX46Y46*%
G04 Gerber Fmt 4.6, Leading zero omitted, Abs format (unit mm)*
G04 Created by KiCad (PCBNEW 9.0.7) date 2026-02-04 13:12:14*
%MOMM*%
%LPD*%
G01*
G04 APERTURE LIST*
G04 Aperture macros list*
%AMFreePoly0*
4,1,23,0.500000,-0.750000,0.000000,-0.750000,0.000000,-0.745722,-0.065263,-0.745722,-0.191342,-0.711940,-0.304381,-0.646677,-0.396677,-0.554381,-0.461940,-0.441342,-0.495722,-0.315263,-0.495722,-0.250000,-0.500000,-0.250000,-0.500000,0.250000,-0.495722,0.250000,-0.495722,0.315263,-0.461940,0.441342,-0.396677,0.554381,-0.304381,0.646677,-0.191342,0.711940,-0.065263,0.745722,0.000000,0.745722,
0.000000,0.750000,0.500000,0.750000,0.500000,-0.750000,0.500000,-0.750000,$1*%
%AMFreePoly1*
4,1,23,0.000000,0.745722,0.065263,0.745722,0.191342,0.711940,0.304381,0.646677,0.396677,0.554381,0.461940,0.441342,0.495722,0.315263,0.495722,0.250000,0.500000,0.250000,0.500000,-0.250000,0.495722,-0.250000,0.495722,-0.315263,0.461940,-0.441342,0.396677,-0.554381,0.304381,-0.646677,0.191342,-0.711940,0.065263,-0.745722,0.000000,-0.745722,0.000000,-0.750000,-0.500000,-0.750000,
-0.500000,0.750000,0.000000,0.750000,0.000000,0.745722,0.000000,0.745722,$1*%
G04 Aperture macros list end*
%TA.AperFunction,ComponentPad*%
%ADD10R,1.700000X1.700000*%
%TD*%
%TA.AperFunction,ComponentPad*%
%ADD11C,1.700000*%
%TD*%
%TA.AperFunction,SMDPad,CuDef*%
%ADD12FreePoly0,90.000000*%
%TD*%
%TA.AperFunction,SMDPad,CuDef*%
%ADD13FreePoly1,90.000000*%
%TD*%
%TA.AperFunction,ComponentPad*%
%ADD14C,1.778000*%
%TD*%
%TA.AperFunction,ViaPad*%
%ADD15C,0.900000*%
%TD*%
%TA.AperFunction,Conductor*%
%ADD16C,0.600000*%
%TD*%
%TA.AperFunction,Conductor*%
%ADD17C,0.500000*%
%TD*%
G04 APERTURE END LIST*
D10*
%TO.P,3,1,Pin_1*%
%TO.N,/GND*%
X105140000Y-74400000D03*
D11*
%TO.P,3,2,Pin_2*%
%TO.N,/PWR*%
X102600000Y-74400000D03*
%TO.P,3,3,Pin_3*%
%TO.N,/S1*%
X100060000Y-74400000D03*
%TD*%
D10*
%TO.P,2,1,Pin_1*%
%TO.N,/GND*%
X113740000Y-74400000D03*
D11*
%TO.P,2,2,Pin_2*%
%TO.N,/PWR*%
X111200000Y-74400000D03*
%TO.P,2,3,Pin_3*%
%TO.N,/S2*%
X108660000Y-74400000D03*
%TD*%
D10*
%TO.P,1,1,Pin_1*%
%TO.N,/GND*%
X122280000Y-74400000D03*
D11*
%TO.P,1,2,Pin_2*%
%TO.N,/PWR*%
X119740000Y-74400000D03*
%TO.P,1,3,Pin_3*%
%TO.N,/S3*%
X117200000Y-74400000D03*
%TD*%
D12*
%TO.P,PWR,1,A*%
%TO.N,/PWR*%
X91601578Y-75182415D03*
D13*
%TO.P,PWR,2,B*%
X91601578Y-73882415D03*
%TD*%
D12*
%TO.P,GND,1,A*%
%TO.N,/GND*%
X89039052Y-75182415D03*
D13*
%TO.P,GND,2,B*%
X89039052Y-73882415D03*
%TD*%
D11*
%TO.P,U1,1,RESET*%
%TO.N,unconnected-(U1-RESET-Pad1)*%
X139080000Y-50000000D03*
%TO.P,U1,2,3.3V*%
%TO.N,/3V3*%
X136540000Y-50000000D03*
%TO.P,U1,3,3.3V*%
X134000000Y-50000000D03*
%TO.P,U1,4,GND*%
%TO.N,/GND*%
X131460000Y-50000000D03*
%TO.P,U1,5,A0/GPIO26*%
%TO.N,unconnected-(U1-A0{slash}GPIO26-Pad5)*%
X128920000Y-50000000D03*
%TO.P,U1,6,A1/GPIO27*%
%TO.N,unconnected-(U1-A1{slash}GPIO27-Pad6)*%
X126380000Y-50000000D03*
%TO.P,U1,7,A2/GPIO28*%
%TO.N,unconnected-(U1-A2{slash}GPIO28-Pad7)*%
X123840000Y-50000000D03*
%TO.P,U1,8,A3/GPIO29*%
%TO.N,unconnected-(U1-A3{slash}GPIO29-Pad8)*%
X121300000Y-50000000D03*
%TO.P,U1,9,D24/GPIO24*%
%TO.N,unconnected-(U1-D24{slash}GPIO24-Pad9)*%
X118760000Y-50000000D03*
%TO.P,U1,10,D25/GPIO25*%
%TO.N,unconnected-(U1-D25{slash}GPIO25-Pad10)*%
X116220000Y-50000000D03*
%TO.P,U1,11,SCK/GPIO18*%
%TO.N,/SCK*%
X113680000Y-50000000D03*
%TO.P,U1,12,MOSI/GPIO19*%
%TO.N,/MOSI*%
X111140000Y-50000000D03*
%TO.P,U1,13,MISO/GPIO20*%
%TO.N,/MISO*%
X108600000Y-50000000D03*
%TO.P,U1,14,RX/CS/GPIO1*%
%TO.N,/CS*%
X106060000Y-50000000D03*
%TO.P,U1,15,TX/GPIO0*%
%TO.N,unconnected-(U1-TX{slash}GPIO0-Pad15)*%
X103520000Y-50000000D03*
%TO.P,U1,16,D4/GPIO6*%
%TO.N,unconnected-(U1-D4{slash}GPIO6-Pad16)*%
X100980000Y-50000000D03*
%TO.P,U1,17,SDA/GPIO2*%
%TO.N,/SDA*%
X100980000Y-70320000D03*
%TO.P,U1,18,SCL/GPIO3*%
%TO.N,/SCL*%
X103520000Y-70320000D03*
%TO.P,U1,19,D5/GPIO7*%
%TO.N,/S1*%
X106060000Y-70320000D03*
%TO.P,U1,20,D6/GPIO8*%
%TO.N,/S2*%
X108600000Y-70320000D03*
%TO.P,U1,21,D9/GPIO9*%
%TO.N,/S3*%
X111140000Y-70320000D03*
%TO.P,U1,22,D10/GPIO10*%
%TO.N,unconnected-(U1-D10{slash}GPIO10-Pad22)*%
X113680000Y-70320000D03*
%TO.P,U1,23,D11/GPIO11*%
%TO.N,unconnected-(U1-D11{slash}GPIO11-Pad23)*%
X116220000Y-70320000D03*
%TO.P,U1,24,D12/GPIO12*%
%TO.N,unconnected-(U1-D12{slash}GPIO12-Pad24)*%
X118760000Y-70320000D03*
%TO.P,U1,25,D13/GPIO13*%
%TO.N,unconnected-(U1-D13{slash}GPIO13-Pad25)*%
X121300000Y-70320000D03*
%TO.P,U1,26,Vbus*%
%TO.N,unconnected-(U1-Vbus-Pad26)*%
X123840000Y-70320000D03*
%TO.P,U1,27,ENABLE*%
%TO.N,unconnected-(U1-ENABLE-Pad27)*%
X126380000Y-70320000D03*
%TO.P,U1,28,VBat*%
%TO.N,unconnected-(U1-VBat-Pad28)*%
X128920000Y-70320000D03*
%TD*%
D14*
%TO.P,U2,1,VIN*%
%TO.N,/3V3*%
X100890000Y-32700000D03*
%TO.P,U2,2,3Vo*%
%TO.N,unconnected-(U2-3Vo-Pad2)*%
X98350000Y-32700000D03*
%TO.P,U2,3,GND*%
%TO.N,/GND*%
X95810000Y-32700000D03*
%TO.P,U2,4,SCL*%
%TO.N,/SCL*%
X93270000Y-32700000D03*
%TO.P,U2,5,SDO*%
%TO.N,unconnected-(U2-SDO-Pad5)*%
X90730000Y-32700000D03*
%TO.P,U2,6,SDA*%
%TO.N,/SDA*%
X88190000Y-32700000D03*
%TO.P,U2,7,CS*%
%TO.N,unconnected-(U2-CS-Pad7)*%
X85650000Y-32700000D03*
%TO.P,U2,8,INT*%
%TO.N,unconnected-(U2-INT-Pad8)*%
X83110000Y-32700000D03*
%TD*%
%TO.P,U4,1,VIN*%
%TO.N,/3V3*%
X91513796Y-67972407D03*
%TO.P,U4,2,3V3*%
%TO.N,unconnected-(U4-3V3-Pad2)*%
X91513796Y-65432407D03*
%TO.P,U4,3,GND*%
%TO.N,/GND*%
X91513796Y-62892407D03*
%TO.P,U4,4,SCK*%
%TO.N,/SCK*%
X91513796Y-60352407D03*
%TO.P,U4,5,MISO*%
%TO.N,/MISO*%
X91513796Y-57812407D03*
%TO.P,U4,6,MOSI*%
%TO.N,/MOSI*%
X91513796Y-55272407D03*
%TO.P,U4,7,CS*%
%TO.N,/CS*%
X91513796Y-52732407D03*
%TD*%
%TO.P,U3,1,VIN*%
%TO.N,/3V3*%
X124100000Y-32600000D03*
%TO.P,U3,2,3Vo*%
%TO.N,unconnected-(U3-3Vo-Pad2)*%
X121560000Y-32600000D03*
%TO.P,U3,3,GND*%
%TO.N,/GND*%
X119020000Y-32600000D03*
%TO.P,U3,4,SCL*%
%TO.N,/SCL*%
X116480000Y-32600000D03*
%TO.P,U3,5,SDA*%
%TO.N,/SDA*%
X113940000Y-32600000D03*
%TO.P,U3,6,INT2*%
%TO.N,unconnected-(U3-INT2-Pad6)*%
X111400000Y-32600000D03*
%TD*%
D15*
%TO.N,/GND*%
X122200000Y-72400000D03*
X124400000Y-74400000D03*
X115200000Y-74600000D03*
X105800000Y-72600000D03*
X98200000Y-69200000D03*
%TO.N,/PWR*%
X91601578Y-75182415D03*
%TO.N,/GND*%
X89039052Y-75182415D03*
X95600000Y-38000000D03*
X98200000Y-34800000D03*
X111000000Y-35800000D03*
X132200000Y-51400000D03*
X132600000Y-48200000D03*
X109600000Y-63400000D03*
X100600000Y-63400000D03*
X119000000Y-31000000D03*
X80800000Y-34800000D03*
X109800000Y-57200000D03*
X126200000Y-60800000D03*
X132600000Y-53800000D03*
X93400000Y-61700000D03*
X80200000Y-54200000D03*
X97800000Y-53972407D03*
X79600000Y-75000000D03*
X97100000Y-49800000D03*
X88400000Y-38200000D03*
X123600000Y-42000000D03*
X89800000Y-62600000D03*
X84400000Y-68600000D03*
X119000000Y-34200000D03*
%TD*%
D16*
%TO.N,/PWR*%
X91601578Y-73882415D02*
X91601578Y-75182415D01*
D17*
%TO.N,/GND*%
X89039052Y-75182415D02*
X89039052Y-73882415D01*
%TD*%
%TA.AperFunction,Conductor*%
%TO.N,/3V3*%
G36*
X118594409Y-29820185D02*
G01*
X118640164Y-29872989D01*
X118650108Y-29942147D01*
X118621083Y-30005703D01*
X118574823Y-30039061D01*
X118502403Y-30069058D01*
X118330342Y-30184024D01*
X118184024Y-30330342D01*
X118069058Y-30502403D01*
X117989870Y-30693579D01*
X117989868Y-30693587D01*
X117949500Y-30896530D01*
X117949500Y-31103469D01*
X117989868Y-31306412D01*
X117989871Y-31306424D01*
X118021790Y-31383484D01*
X118023635Y-31400653D01*
X118030392Y-31416549D01*
X118027293Y-31434672D01*
X118029259Y-31452954D01*
X118021481Y-31468671D01*
X118018618Y-31485419D01*
X118000951Y-31510157D01*
X117998756Y-31514594D01*
X117996852Y-31516676D01*
X117883873Y-31629656D01*
X117846230Y-31681466D01*
X117841527Y-31686612D01*
X117817366Y-31701248D01*
X117794987Y-31718506D01*
X117787873Y-31719116D01*
X117781769Y-31722815D01*
X117753528Y-31722066D01*
X117725373Y-31724484D01*
X117719058Y-31721152D01*
X117711923Y-31720963D01*
X117688565Y-31705061D01*
X117663579Y-31691877D01*
X117655495Y-31682548D01*
X117654167Y-31681644D01*
X117653642Y-31680410D01*
X117649683Y-31675841D01*
X117616127Y-31629656D01*
X117450346Y-31463875D01*
X117450344Y-31463873D01*
X117260668Y-31326065D01*
X117248031Y-31319626D01*
X117051774Y-31219627D01*
X116828792Y-31147175D01*
X116597231Y-31110500D01*
X116597226Y-31110500D01*
X116362774Y-31110500D01*
X116362769Y-31110500D01*
X116131207Y-31147175D01*
X115908225Y-31219627D01*
X115699331Y-31326065D01*
X115596671Y-31400653D01*
X115509656Y-31463873D01*
X115509654Y-31463875D01*
X115509653Y-31463875D01*
X115343872Y-31629656D01*
X115310317Y-31675841D01*
X115254987Y-31718506D01*
X115185373Y-31724484D01*
X115123579Y-31691877D01*
X115109683Y-31675841D01*
X115076127Y-31629656D01*
X114910346Y-31463875D01*
X114910344Y-31463873D01*
X114720668Y-31326065D01*
X114708031Y-31319626D01*
X114511774Y-31219627D01*
X114288792Y-31147175D01*
X114057231Y-31110500D01*
X114057226Y-31110500D01*
X113822774Y-31110500D01*
X113822769Y-31110500D01*
X113591207Y-31147175D01*
X113368225Y-31219627D01*
X113159331Y-31326065D01*
X113056671Y-31400653D01*
X112969656Y-31463873D01*
X112969654Y-31463875D01*
X112969653Y-31463875D01*
X112803872Y-31629656D01*
X112770317Y-31675841D01*
X112714987Y-31718506D01*
X112645373Y-31724484D01*
X112583579Y-31691877D01*
X112569683Y-31675841D01*
X112536127Y-31629656D01*
X112370346Y-31463875D01*
X112370344Y-31463873D01*
X112180668Y-31326065D01*
X112168031Y-31319626D01*
X111971774Y-31219627D01*
X111748792Y-31147175D01*
X111517231Y-31110500D01*
X111517226Y-31110500D01*
X111282774Y-31110500D01*
X111282769Y-31110500D01*
X111051207Y-31147175D01*
X110828225Y-31219627D01*
X110619331Y-31326065D01*
X110516671Y-31400653D01*
X110429656Y-31463873D01*
X110429654Y-31463875D01*
X110429653Y-31463875D01*
X110263875Y-31629653D01*
X110263875Y-31629654D01*
X110263873Y-31629656D01*
X110225445Y-31682548D01*
X110126065Y-31819331D01*
X110019627Y-32028225D01*
X109947175Y-32251207D01*
X109910500Y-32482768D01*
X109910500Y-32717231D01*
X109947175Y-32948792D01*
X110019627Y-33171774D01*
X110099228Y-33327998D01*
X110126065Y-33380668D01*
X110263873Y-33570344D01*
X110429656Y-33736127D01*
X110619332Y-33873935D01*
X110718027Y-33924222D01*
X110828225Y-33980372D01*
X110828227Y-33980372D01*
X110828230Y-33980374D01*
X110892874Y-34001378D01*
X111051207Y-34052824D01*
X111282769Y-34089500D01*
X111282774Y-34089500D01*
X111517231Y-34089500D01*
X111748792Y-34052824D01*
X111971770Y-33980374D01*
X112180668Y-33873935D01*
X112370344Y-33736127D01*
X112536127Y-33570344D01*
X112569682Y-33524158D01*
X112625011Y-33481493D01*
X112694625Y-33475514D01*
X112756420Y-33508119D01*
X112770315Y-33524155D01*
X112803873Y-33570344D01*
X112969656Y-33736127D01*
X113159332Y-33873935D01*
X113258027Y-33924222D01*
X113368225Y-33980372D01*
X113368227Y-33980372D01*
X113368230Y-33980374D01*
X113432874Y-34001378D01*
X113591207Y-34052824D01*
X113822769Y-34089500D01*
X113822774Y-34089500D01*
X114057231Y-34089500D01*
X114288792Y-34052824D01*
X114511770Y-33980374D01*
X114720668Y-33873935D01*
X114910344Y-33736127D01*
X115076127Y-33570344D01*
X115109682Y-33524158D01*
X115165011Y-33481493D01*
X115234625Y-33475514D01*
X115296420Y-33508119D01*
X115310315Y-33524155D01*
X115343873Y-33570344D01*
X115509656Y-33736127D01*
X115699332Y-33873935D01*
X115798027Y-33924222D01*
X115908225Y-33980372D01*
X115908227Y-33980372D01*
X115908230Y-33980374D01*
X115972874Y-34001378D01*
X116131207Y-34052824D01*
X116362769Y-34089500D01*
X116362774Y-34089500D01*
X116597231Y-34089500D01*
X116828792Y-34052824D01*
X117051770Y-33980374D01*
X117260668Y-33873935D01*
X117450344Y-33736127D01*
X117616127Y-33570344D01*
X117649682Y-33524158D01*
X117666633Y-33511086D01*
X117680219Y-33494542D01*
X117693750Y-33490175D01*
X117705011Y-33481493D01*
X117726340Y-33479661D01*
X117746713Y-33473088D01*
X117760457Y-33476730D01*
X117774625Y-33475514D01*
X117793557Y-33485503D01*
X117814251Y-33490988D01*
X117828110Y-33503734D01*
X117836420Y-33508119D01*
X117841527Y-33513386D01*
X117846224Y-33518525D01*
X117883873Y-33570344D01*
X117996875Y-33683346D01*
X117998757Y-33685405D01*
X118012934Y-33714389D01*
X118028396Y-33742705D01*
X118028190Y-33745578D01*
X118029457Y-33748168D01*
X118025713Y-33780211D01*
X118023412Y-33812397D01*
X118021791Y-33816515D01*
X117989870Y-33893578D01*
X117989867Y-33893587D01*
X117949500Y-34096530D01*
X117949500Y-34303469D01*
X117989868Y-34506412D01*
X117989870Y-34506420D01*
X118069058Y-34697596D01*
X118184024Y-34869657D01*
X118330342Y-35015975D01*
X118330345Y-35015977D01*
X118502402Y-35130941D01*
X118693580Y-35210130D01*
X118896530Y-35250499D01*
X118896534Y-35250500D01*
X118896535Y-35250500D01*
X119103466Y-35250500D01*
X119103467Y-35250499D01*
X119306420Y-35210130D01*
X119497598Y-35130941D01*
X119669655Y-35015977D01*
X119815977Y-34869655D01*
X119930941Y-34697598D01*
X120010130Y-34506420D01*
X120050500Y-34303465D01*
X120050500Y-34096535D01*
X120010130Y-33893580D01*
X119989924Y-33844801D01*
X119982455Y-33775333D01*
X120013729Y-33712853D01*
X120016804Y-33709667D01*
X120067000Y-33659471D01*
X120156127Y-33570344D01*
X120189682Y-33524158D01*
X120245011Y-33481493D01*
X120314625Y-33475514D01*
X120376420Y-33508119D01*
X120390315Y-33524155D01*
X120423873Y-33570344D01*
X120589656Y-33736127D01*
X120779332Y-33873935D01*
X120878027Y-33924222D01*
X120988225Y-33980372D01*
X120988227Y-33980372D01*
X120988230Y-33980374D01*
X121052874Y-34001378D01*
X121211207Y-34052824D01*
X121442769Y-34089500D01*
X121442774Y-34089500D01*
X121677231Y-34089500D01*
X121908792Y-34052824D01*
X122131770Y-33980374D01*
X122340668Y-33873935D01*
X122530344Y-33736127D01*
X122696127Y-33570344D01*
X122791794Y-33438670D01*
X122847124Y-33396004D01*
X122916737Y-33390025D01*
X122978532Y-33422631D01*
X122992430Y-33438670D01*
X123040524Y-33504866D01*
X123040528Y-33504871D01*
X123195128Y-33659471D01*
X123195133Y-33659475D01*
X123372001Y-33787976D01*
X123566808Y-33887237D01*
X123566811Y-33887238D01*
X123774739Y-33954797D01*
X123849999Y-33966717D01*
X123850000Y-33966717D01*
X123850000Y-33033012D01*
X123907007Y-33065925D01*
X124034174Y-33100000D01*
X124165826Y-33100000D01*
X124292993Y-33065925D01*
X124350000Y-33033012D01*
X124350000Y-33966717D01*
X124425258Y-33954797D01*
X124425261Y-33954797D01*
X124633188Y-33887238D01*
X124633191Y-33887237D01*
X124827998Y-33787976D01*
X125004866Y-33659475D01*
X125004871Y-33659471D01*
X125159471Y-33504871D01*
X125159475Y-33504866D01*
X125287976Y-33327998D01*
X125387237Y-33133191D01*
X125387238Y-33133188D01*
X125454798Y-32925258D01*
X125466718Y-32850000D01*
X124533012Y-32850000D01*
X124565925Y-32792993D01*
X124600000Y-32665826D01*
X124600000Y-32534174D01*
X124565925Y-32407007D01*
X124533012Y-32350000D01*
X125466718Y-32350000D01*
X125454798Y-32274741D01*
X125387238Y-32066811D01*
X125387237Y-32066808D01*
X125287976Y-31872001D01*
X125159475Y-31695133D01*
X125159471Y-31695128D01*
X125004871Y-31540528D01*
X125004866Y-31540524D01*
X124827998Y-31412023D01*
X124633191Y-31312762D01*
X124633188Y-31312761D01*
X124425258Y-31245201D01*
X124350000Y-31233281D01*
X124350000Y-32166988D01*
X124292993Y-32134075D01*
X124165826Y-32100000D01*
X124034174Y-32100000D01*
X123907007Y-32134075D01*
X123850000Y-32166988D01*
X123850000Y-31233281D01*
X123774741Y-31245201D01*
X123566811Y-31312761D01*
X123566808Y-31312762D01*
X123372001Y-31412023D01*
X123195133Y-31540524D01*
X123195128Y-31540528D01*
X123040528Y-31695128D01*
X122992430Y-31761330D01*
X122937100Y-31803995D01*
X122867486Y-31809974D01*
X122805691Y-31777368D01*
X122791794Y-31761330D01*
X122768779Y-31729653D01*
X122696127Y-31629656D01*
X122530344Y-31463873D01*
X122340668Y-31326065D01*
X122328031Y-31319626D01*
X122131774Y-31219627D01*
X121908792Y-31147175D01*
X121677231Y-31110500D01*
X121677226Y-31110500D01*
X121442774Y-31110500D01*
X121442769Y-31110500D01*
X121211207Y-31147175D01*
X120988225Y-31219627D01*
X120779331Y-31326065D01*
X120676671Y-31400653D01*
X120589656Y-31463873D01*
X120589654Y-31463875D01*
X120589653Y-31463875D01*
X120423872Y-31629656D01*
X120390317Y-31675841D01*
X120334987Y-31718506D01*
X120265373Y-31724484D01*
X120203579Y-31691877D01*
X120189683Y-31675841D01*
X120156127Y-31629656D01*
X120016804Y-31490333D01*
X119983319Y-31429010D01*
X119988303Y-31359318D01*
X119989925Y-31355198D01*
X120010128Y-31306425D01*
X120010128Y-31306424D01*
X120010130Y-31306420D01*
X120050500Y-31103465D01*
X120050500Y-30896535D01*
X120010130Y-30693580D01*
X119930941Y-30502402D01*
X119815977Y-30330345D01*
X119815975Y-30330342D01*
X119669657Y-30184024D01*
X119546302Y-30101602D01*
X119497598Y-30069059D01*
X119437764Y-30044275D01*
X119425177Y-30039061D01*
X119370774Y-29995220D01*
X119348709Y-29928926D01*
X119365988Y-29861226D01*
X119417126Y-29813616D01*
X119472630Y-29800500D01*
X143437438Y-29800500D01*
X143504477Y-29820185D01*
X143550232Y-29872989D01*
X143560176Y-29942147D01*
X143531151Y-30005703D01*
X143472373Y-30043477D01*
X143469565Y-30044265D01*
X143339859Y-30079020D01*
X143255581Y-30101602D01*
X143255571Y-30101605D01*
X143013309Y-30201953D01*
X143013299Y-30201958D01*
X142786196Y-30333075D01*
X142578148Y-30492718D01*
X142392718Y-30678148D01*
X142233075Y-30886196D01*
X142101958Y-31113299D01*
X142101953Y-31113309D01*
X142001605Y-31355571D01*
X142001602Y-31355581D01*
X141965496Y-31490333D01*
X141933730Y-31608885D01*
X141899500Y-31868872D01*
X141899500Y-32131127D01*
X141921721Y-32299901D01*
X141933730Y-32391116D01*
X141998831Y-32634076D01*
X142001602Y-32644418D01*
X142001605Y-32644428D01*
X142101953Y-32886690D01*
X142101958Y-32886700D01*
X142233075Y-33113803D01*
X142392718Y-33321851D01*
X142392726Y-33321860D01*
X142578140Y-33507274D01*
X142578148Y-33507281D01*
X142578149Y-33507282D01*
X142619054Y-33538670D01*
X142786196Y-33666924D01*
X143013299Y-33798041D01*
X143013309Y-33798046D01*
X143243949Y-33893580D01*
X143255581Y-33898398D01*
X143508884Y-33966270D01*
X143768880Y-34000500D01*
X143768887Y-34000500D01*
X144031113Y-34000500D01*
X144031120Y-34000500D01*
X144291116Y-33966270D01*
X144544419Y-33898398D01*
X144742102Y-33816515D01*
X144786690Y-33798046D01*
X144786691Y-33798045D01*
X144786697Y-33798043D01*
X145013803Y-33666924D01*
X145221851Y-33507282D01*
X145221855Y-33507277D01*
X145221860Y-33507274D01*
X145407274Y-33321860D01*
X145407277Y-33321855D01*
X145407282Y-33321851D01*
X145566924Y-33113803D01*
X145698043Y-32886697D01*
X145798398Y-32644419D01*
X145855725Y-32430467D01*
X145892090Y-32370808D01*
X145954937Y-32340279D01*
X146024312Y-32348574D01*
X146078190Y-32393059D01*
X146099465Y-32459611D01*
X146099500Y-32462562D01*
X146099500Y-74395933D01*
X146099235Y-74404043D01*
X146082925Y-74652883D01*
X146080807Y-74668964D01*
X146032954Y-74909535D01*
X146028756Y-74925202D01*
X145949909Y-75157479D01*
X145943702Y-75172465D01*
X145835212Y-75392460D01*
X145827102Y-75406507D01*
X145690825Y-75610460D01*
X145680951Y-75623328D01*
X145519218Y-75807749D01*
X145507749Y-75819218D01*
X145323328Y-75980951D01*
X145310460Y-75990825D01*
X145106507Y-76127102D01*
X145092460Y-76135212D01*
X144872465Y-76243702D01*
X144857479Y-76249909D01*
X144625202Y-76328756D01*
X144609535Y-76332954D01*
X144368964Y-76380807D01*
X144352883Y-76382925D01*
X144104043Y-76399235D01*
X144095933Y-76399500D01*
X92417298Y-76399500D01*
X92350259Y-76379815D01*
X92304504Y-76327011D01*
X92294560Y-76257853D01*
X92323585Y-76194297D01*
X92355297Y-76168113D01*
X92461335Y-76106892D01*
X92586738Y-76010667D01*
X92679830Y-75917575D01*
X92776055Y-75792172D01*
X92841881Y-75678158D01*
X92902370Y-75532126D01*
X92935485Y-75408541D01*
X92936064Y-75406613D01*
X92936440Y-75404977D01*
X92936445Y-75404959D01*
X92936446Y-75404956D01*
X92957078Y-75248241D01*
X92957078Y-74682415D01*
X92939460Y-74548593D01*
X92939460Y-74516236D01*
X92957078Y-74382415D01*
X92957078Y-74285837D01*
X98609500Y-74285837D01*
X98609500Y-74514162D01*
X98645215Y-74739660D01*
X98715770Y-74956803D01*
X98790499Y-75103465D01*
X98819421Y-75160228D01*
X98953621Y-75344937D01*
X99115063Y-75506379D01*
X99299772Y-75640579D01*
X99395884Y-75689550D01*
X99503196Y-75744229D01*
X99503198Y-75744229D01*
X99503201Y-75744231D01*
X99564253Y-75764068D01*
X99720339Y-75814784D01*
X99945838Y-75850500D01*
X99945843Y-75850500D01*
X100174162Y-75850500D01*
X100399660Y-75814784D01*
X100421311Y-75807749D01*
X100616799Y-75744231D01*
X100820228Y-75640579D01*
X101004937Y-75506379D01*
X101166379Y-75344937D01*
X101229682Y-75257807D01*
X101285012Y-75215143D01*
X101354626Y-75209164D01*
X101416421Y-75241770D01*
X101430315Y-75257804D01*
X101493621Y-75344937D01*
X101655063Y-75506379D01*
X101839772Y-75640579D01*
X101935884Y-75689550D01*
X102043196Y-75744229D01*
X102043198Y-75744229D01*
X102043201Y-75744231D01*
X102104253Y-75764068D01*
X102260339Y-75814784D01*
X102485838Y-75850500D01*
X102485843Y-75850500D01*
X102714162Y-75850500D01*
X102939660Y-75814784D01*
X102961311Y-75807749D01*
X103156799Y-75744231D01*
X103360228Y-75640579D01*
X103544937Y-75506379D01*
X103556037Y-75495279D01*
X103617359Y-75461792D01*
X103687051Y-75466774D01*
X103742986Y-75508643D01*
X103758281Y-75535501D01*
X103765463Y-75552839D01*
X103765464Y-75552841D01*
X103861718Y-75678282D01*
X103987159Y-75774536D01*
X104133238Y-75835044D01*
X104250639Y-75850500D01*
X106029360Y-75850499D01*
X106029363Y-75850499D01*
X106146753Y-75835046D01*
X106146757Y-75835044D01*
X106146762Y-75835044D01*
X106292841Y-75774536D01*
X106418282Y-75678282D01*
X106514536Y-75552841D01*
X106575044Y-75406762D01*
X106590500Y-75289361D01*
X106590499Y-73510640D01*
X106590499Y-73510636D01*
X106573984Y-73385179D01*
X106576400Y-73384860D01*
X106577770Y-73327355D01*
X106608201Y-73277430D01*
X106615977Y-73269655D01*
X106730941Y-73097598D01*
X106810130Y-72906420D01*
X106850500Y-72703465D01*
X106850500Y-72496535D01*
X106810130Y-72293580D01*
X106730941Y-72102402D01*
X106615977Y-71930345D01*
X106615975Y-71930342D01*
X106558408Y-71872775D01*
X106524923Y-71811452D01*
X106529907Y-71741760D01*
X106571779Y-71685827D01*
X106607769Y-71667164D01*
X106616799Y-71664231D01*
X106820228Y-71560579D01*
X107004937Y-71426379D01*
X107166379Y-71264937D01*
X107229682Y-71177807D01*
X107285012Y-71135143D01*
X107354626Y-71129164D01*
X107416421Y-71161770D01*
X107430315Y-71177804D01*
X107493621Y-71264937D01*
X107655063Y-71426379D01*
X107839772Y-71560579D01*
X107885784Y-71584023D01*
X108043196Y-71664229D01*
X108043198Y-71664229D01*
X108043201Y-71664231D01*
X108153797Y-71700166D01*
X108260339Y-71734784D01*
X108485838Y-71770500D01*
X108485843Y-71770500D01*
X108714162Y-71770500D01*
X108939660Y-71734784D01*
X108994864Y-71716847D01*
X109156799Y-71664231D01*
X109360228Y-71560579D01*
X109544937Y-71426379D01*
X109706379Y-71264937D01*
X109769682Y-71177807D01*
X109825012Y-71135143D01*
X109894626Y-71129164D01*
X109956421Y-71161770D01*
X109970315Y-71177804D01*
X110033621Y-71264937D01*
X110195063Y-71426379D01*
X110379772Y-71560579D01*
X110425784Y-71584023D01*
X110583196Y-71664229D01*
X110583198Y-71664229D01*
X110583201Y-71664231D01*
X110693797Y-71700166D01*
X110800339Y-71734784D01*
X111025838Y-71770500D01*
X111025843Y-71770500D01*
X111254162Y-71770500D01*
X111479660Y-71734784D01*
X111534864Y-71716847D01*
X111696799Y-71664231D01*
X111900228Y-71560579D01*
X112084937Y-71426379D01*
X112246379Y-71264937D01*
X112309682Y-71177807D01*
X112365012Y-71135143D01*
X112434626Y-71129164D01*
X112496421Y-71161770D01*
X112510315Y-71177804D01*
X112573621Y-71264937D01*
X112735063Y-71426379D01*
X112919772Y-71560579D01*
X112965784Y-71584023D01*
X113123196Y-71664229D01*
X113123198Y-71664229D01*
X113123201Y-71664231D01*
X113233797Y-71700166D01*
X113340339Y-71734784D01*
X113565838Y-71770500D01*
X113565843Y-71770500D01*
X113794162Y-71770500D01*
X114019660Y-71734784D01*
X114074864Y-71716847D01*
X114236799Y-71664231D01*
X114440228Y-71560579D01*
X114624937Y-71426379D01*
X114786379Y-71264937D01*
X114849682Y-71177807D01*
X114905012Y-71135143D01*
X114974626Y-71129164D01*
X115036421Y-71161770D01*
X115050315Y-71177804D01*
X115113621Y-71264937D01*
X115275063Y-71426379D01*
X115459772Y-71560579D01*
X115505784Y-71584023D01*
X115663196Y-71664229D01*
X115663198Y-71664229D01*
X115663201Y-71664231D01*
X115773797Y-71700166D01*
X115880339Y-71734784D01*
X116105838Y-71770500D01*
X116105843Y-71770500D01*
X116334162Y-71770500D01*
X116559660Y-71734784D01*
X116614864Y-71716847D01*
X116776799Y-71664231D01*
X116980228Y-71560579D01*
X117164937Y-71426379D01*
X117326379Y-71264937D01*
X117389682Y-71177807D01*
X117445012Y-71135143D01*
X117514626Y-71129164D01*
X117576421Y-71161770D01*
X117590315Y-71177804D01*
X117653621Y-71264937D01*
X117815063Y-71426379D01*
X117999772Y-71560579D01*
X118045784Y-71584023D01*
X118203196Y-71664229D01*
X118203198Y-71664229D01*
X118203201Y-71664231D01*
X118313797Y-71700166D01*
X118420339Y-71734784D01*
X118645838Y-71770500D01*
X118645843Y-71770500D01*
X118874162Y-71770500D01*
X119099660Y-71734784D01*
X119154864Y-71716847D01*
X119316799Y-71664231D01*
X119520228Y-71560579D01*
X119704937Y-71426379D01*
X119866379Y-71264937D01*
X119929682Y-71177807D01*
X119985012Y-71135143D01*
X120054626Y-71129164D01*
X120116421Y-71161770D01*
X120130315Y-71177804D01*
X120193621Y-71264937D01*
X120355063Y-71426379D01*
X120539772Y-71560579D01*
X120585784Y-71584023D01*
X120743196Y-71664229D01*
X120743198Y-71664229D01*
X120743201Y-71664231D01*
X120960340Y-71734784D01*
X121159850Y-71766383D01*
X121222984Y-71796312D01*
X121259916Y-71855623D01*
X121258918Y-71925486D01*
X121255013Y-71936308D01*
X121189871Y-72093575D01*
X121189868Y-72093587D01*
X121149500Y-72296530D01*
X121149500Y-72503469D01*
X121189868Y-72706412D01*
X121189871Y-72706424D01*
X121246032Y-72842009D01*
X121253501Y-72911478D01*
X121222226Y-72973957D01*
X121178924Y-73004022D01*
X121127160Y-73025463D01*
X121001718Y-73121718D01*
X120905463Y-73247160D01*
X120898281Y-73264499D01*
X120854438Y-73318901D01*
X120788143Y-73340964D01*
X120720444Y-73323683D01*
X120696040Y-73304724D01*
X120684938Y-73293622D01*
X120662646Y-73277426D01*
X120500228Y-73159421D01*
X120426232Y-73121718D01*
X120296803Y-73055770D01*
X120079660Y-72985215D01*
X119854162Y-72949500D01*
X119854157Y-72949500D01*
X119625843Y-72949500D01*
X119625838Y-72949500D01*
X119400339Y-72985215D01*
X119183196Y-73055770D01*
X118979771Y-73159421D01*
X118795061Y-73293622D01*
X118633623Y-73455060D01*
X118633616Y-73455069D01*
X118570317Y-73542191D01*
X118514987Y-73584857D01*
X118445373Y-73590835D01*
X118383579Y-73558228D01*
X118369683Y-73542191D01*
X118306383Y-73455069D01*
X118306379Y-73455063D01*
X118144937Y-73293621D01*
X117960228Y-73159421D01*
X117886232Y-73121718D01*
X117756803Y-73055770D01*
X117539660Y-72985215D01*
X117314162Y-72949500D01*
X117314157Y-72949500D01*
X117085843Y-72949500D01*
X117085838Y-72949500D01*
X116860339Y-72985215D01*
X116643196Y-73055770D01*
X116439771Y-73159421D01*
X116255061Y-73293622D01*
X116093623Y-73455060D01*
X116093623Y-73455061D01*
X116093621Y-73455063D01*
X115959421Y-73639772D01*
X115959418Y-73639776D01*
X115959413Y-73639785D01*
X115945138Y-73667801D01*
X115897162Y-73718596D01*
X115829341Y-73735389D01*
X115765765Y-73714606D01*
X115709065Y-73676721D01*
X115697598Y-73669059D01*
X115691101Y-73666368D01*
X115506420Y-73589870D01*
X115506412Y-73589868D01*
X115303469Y-73549500D01*
X115297404Y-73548903D01*
X115297542Y-73547497D01*
X115237322Y-73529815D01*
X115191567Y-73477011D01*
X115181422Y-73441683D01*
X115175046Y-73393246D01*
X115175044Y-73393241D01*
X115175044Y-73393238D01*
X115114536Y-73247159D01*
X115018282Y-73121718D01*
X114892841Y-73025464D01*
X114804676Y-72988945D01*
X114746762Y-72964956D01*
X114746760Y-72964955D01*
X114629370Y-72949501D01*
X114629367Y-72949500D01*
X114629361Y-72949500D01*
X114629354Y-72949500D01*
X112850636Y-72949500D01*
X112733246Y-72964953D01*
X112733237Y-72964956D01*
X112587160Y-73025463D01*
X112461718Y-73121718D01*
X112365463Y-73247160D01*
X112358281Y-73264499D01*
X112314438Y-73318901D01*
X112248143Y-73340964D01*
X112180444Y-73323683D01*
X112156040Y-73304724D01*
X112144938Y-73293622D01*
X112122646Y-73277426D01*
X111960228Y-73159421D01*
X111886232Y-73121718D01*
X111756803Y-73055770D01*
X111539660Y-72985215D01*
X111314162Y-72949500D01*
X111314157Y-72949500D01*
X111085843Y-72949500D01*
X111085838Y-72949500D01*
X110860339Y-72985215D01*
X110643196Y-73055770D01*
X110439771Y-73159421D01*
X110255061Y-73293622D01*
X110093623Y-73455060D01*
X110093616Y-73455069D01*
X110030317Y-73542191D01*
X109974987Y-73584857D01*
X109905373Y-73590835D01*
X109843579Y-73558228D01*
X109829683Y-73542191D01*
X109766383Y-73455069D01*
X109766379Y-73455063D01*
X109604937Y-73293621D01*
X109420228Y-73159421D01*
X109346232Y-73121718D01*
X109216803Y-73055770D01*
X108999660Y-72985215D01*
X108774162Y-72949500D01*
X108774157Y-72949500D01*
X108545843Y-72949500D01*
X108545838Y-72949500D01*
X108320339Y-72985215D01*
X108103196Y-73055770D01*
X107899771Y-73159421D01*
X107715061Y-73293622D01*
X107553622Y-73455061D01*
X107419421Y-73639771D01*
X107315770Y-73843196D01*
X107245215Y-74060339D01*
X107209500Y-74285837D01*
X107209500Y-74514162D01*
X107245215Y-74739660D01*
X107315770Y-74956803D01*
X107390499Y-75103465D01*
X107419421Y-75160228D01*
X107553621Y-75344937D01*
X107715063Y-75506379D01*
X107899772Y-75640579D01*
X107995884Y-75689550D01*
X108103196Y-75744229D01*
X108103198Y-75744229D01*
X108103201Y-75744231D01*
X108164253Y-75764068D01*
X108320339Y-75814784D01*
X108545838Y-75850500D01*
X108545843Y-75850500D01*
X108774162Y-75850500D01*
X108999660Y-75814784D01*
X109021311Y-75807749D01*
X109216799Y-75744231D01*
X109420228Y-75640579D01*
X109604937Y-75506379D01*
X109766379Y-75344937D01*
X109829682Y-75257807D01*
X109885012Y-75215143D01*
X109954626Y-75209164D01*
X110016421Y-75241770D01*
X110030315Y-75257804D01*
X110093621Y-75344937D01*
X110255063Y-75506379D01*
X110439772Y-75640579D01*
X110535884Y-75689550D01*
X110643196Y-75744229D01*
X110643198Y-75744229D01*
X110643201Y-75744231D01*
X110704253Y-75764068D01*
X110860339Y-75814784D01*
X111085838Y-75850500D01*
X111085843Y-75850500D01*
X111314162Y-75850500D01*
X111539660Y-75814784D01*
X111561311Y-75807749D01*
X111756799Y-75744231D01*
X111960228Y-75640579D01*
X112144937Y-75506379D01*
X112156037Y-75495279D01*
X112217359Y-75461792D01*
X112287051Y-75466774D01*
X112342986Y-75508643D01*
X112358281Y-75535501D01*
X112365463Y-75552839D01*
X112365464Y-75552841D01*
X112461718Y-75678282D01*
X112587159Y-75774536D01*
X112733238Y-75835044D01*
X112850639Y-75850500D01*
X114629360Y-75850499D01*
X114629363Y-75850499D01*
X114746753Y-75835046D01*
X114746757Y-75835044D01*
X114746762Y-75835044D01*
X114892841Y-75774536D01*
X115018282Y-75678282D01*
X115018283Y-75678279D01*
X115021093Y-75676124D01*
X115086263Y-75650930D01*
X115096580Y-75650500D01*
X115303466Y-75650500D01*
X115303467Y-75650499D01*
X115506420Y-75610130D01*
X115697598Y-75530941D01*
X115869655Y-75415977D01*
X115929478Y-75356153D01*
X115990799Y-75322670D01*
X116060491Y-75327654D01*
X116104839Y-75356155D01*
X116255063Y-75506379D01*
X116439772Y-75640579D01*
X116535884Y-75689550D01*
X116643196Y-75744229D01*
X116643198Y-75744229D01*
X116643201Y-75744231D01*
X116704253Y-75764068D01*
X116860339Y-75814784D01*
X117085838Y-75850500D01*
X117085843Y-75850500D01*
X117314162Y-75850500D01*
X117539660Y-75814784D01*
X117561311Y-75807749D01*
X117756799Y-75744231D01*
X117960228Y-75640579D01*
X118144937Y-75506379D01*
X118306379Y-75344937D01*
X118369682Y-75257807D01*
X118425012Y-75215143D01*
X118494626Y-75209164D01*
X118556421Y-75241770D01*
X118570315Y-75257804D01*
X118633621Y-75344937D01*
X118795063Y-75506379D01*
X118979772Y-75640579D01*
X119075884Y-75689550D01*
X119183196Y-75744229D01*
X119183198Y-75744229D01*
X119183201Y-75744231D01*
X119244253Y-75764068D01*
X119400339Y-75814784D01*
X119625838Y-75850500D01*
X119625843Y-75850500D01*
X119854162Y-75850500D01*
X120079660Y-75814784D01*
X120101311Y-75807749D01*
X120296799Y-75744231D01*
X120500228Y-75640579D01*
X120684937Y-75506379D01*
X120696037Y-75495279D01*
X120757359Y-75461792D01*
X120827051Y-75466774D01*
X120882986Y-75508643D01*
X120898281Y-75535501D01*
X120905463Y-75552839D01*
X120905464Y-75552841D01*
X121001718Y-75678282D01*
X121127159Y-75774536D01*
X121273238Y-75835044D01*
X121390639Y-75850500D01*
X123169360Y-75850499D01*
X123169363Y-75850499D01*
X123286753Y-75835046D01*
X123286757Y-75835044D01*
X123286762Y-75835044D01*
X123432841Y-75774536D01*
X123558282Y-75678282D01*
X123654536Y-75552841D01*
X123715044Y-75406762D01*
X123715045Y-75406753D01*
X123715936Y-75403429D01*
X123717460Y-75400927D01*
X123718154Y-75399253D01*
X123718415Y-75399361D01*
X123752296Y-75343766D01*
X123815141Y-75313232D01*
X123884517Y-75321522D01*
X123896934Y-75328254D01*
X123897032Y-75328071D01*
X123902400Y-75330940D01*
X123902401Y-75330940D01*
X123902402Y-75330941D01*
X124093580Y-75410130D01*
X124296530Y-75450499D01*
X124296534Y-75450500D01*
X124296535Y-75450500D01*
X124503466Y-75450500D01*
X124503467Y-75450499D01*
X124706420Y-75410130D01*
X124897598Y-75330941D01*
X125069655Y-75215977D01*
X125215977Y-75069655D01*
X125330941Y-74897598D01*
X125410130Y-74706420D01*
X125450500Y-74503465D01*
X125450500Y-74296535D01*
X125410130Y-74093580D01*
X125330941Y-73902402D01*
X125215977Y-73730345D01*
X125215975Y-73730342D01*
X125069657Y-73584024D01*
X124901893Y-73471929D01*
X124897598Y-73469059D01*
X124863823Y-73455069D01*
X124706420Y-73389870D01*
X124706412Y-73389868D01*
X124503469Y-73349500D01*
X124503465Y-73349500D01*
X124296535Y-73349500D01*
X124296530Y-73349500D01*
X124093587Y-73389868D01*
X124093579Y-73389870D01*
X123902400Y-73469059D01*
X123897032Y-73471929D01*
X123896132Y-73470245D01*
X123837897Y-73488465D01*
X123770522Y-73469964D01*
X123723844Y-73417974D01*
X123715941Y-73396584D01*
X123715045Y-73393241D01*
X123715044Y-73393238D01*
X123654536Y-73247159D01*
X123558282Y-73121718D01*
X123432841Y-73025464D01*
X123344676Y-72988945D01*
X123286762Y-72964956D01*
X123272755Y-72963112D01*
X123208859Y-72934844D01*
X123170389Y-72876519D01*
X123169559Y-72806654D01*
X123174374Y-72792742D01*
X123210130Y-72706420D01*
X123250500Y-72503465D01*
X123250500Y-72296535D01*
X123210130Y-72093580D01*
X123130941Y-71902402D01*
X123130940Y-71902400D01*
X123130940Y-71902399D01*
X123075061Y-71818770D01*
X123054183Y-71752093D01*
X123072668Y-71684713D01*
X123124647Y-71638023D01*
X123193617Y-71626847D01*
X123234456Y-71639394D01*
X123250211Y-71647422D01*
X123283196Y-71664229D01*
X123283198Y-71664229D01*
X123283201Y-71664231D01*
X123393797Y-71700166D01*
X123500339Y-71734784D01*
X123725838Y-71770500D01*
X123725843Y-71770500D01*
X123954162Y-71770500D01*
X124179660Y-71734784D01*
X124234864Y-71716847D01*
X124396799Y-71664231D01*
X124600228Y-71560579D01*
X124784937Y-71426379D01*
X124946379Y-71264937D01*
X125009682Y-71177807D01*
X125065012Y-71135143D01*
X125134626Y-71129164D01*
X125196421Y-71161770D01*
X125210315Y-71177804D01*
X125273621Y-71264937D01*
X125435063Y-71426379D01*
X125619772Y-71560579D01*
X125665784Y-71584023D01*
X125823196Y-71664229D01*
X125823198Y-71664229D01*
X125823201Y-71664231D01*
X125933797Y-71700166D01*
X126040339Y-71734784D01*
X126265838Y-71770500D01*
X126265843Y-71770500D01*
X126494162Y-71770500D01*
X126719660Y-71734784D01*
X126774864Y-71716847D01*
X126936799Y-71664231D01*
X127140228Y-71560579D01*
X127324937Y-71426379D01*
X127486379Y-71264937D01*
X127549682Y-71177807D01*
X127605012Y-71135143D01*
X127674626Y-71129164D01*
X127736421Y-71161770D01*
X127750315Y-71177804D01*
X127813621Y-71264937D01*
X127975063Y-71426379D01*
X128159772Y-71560579D01*
X128205784Y-71584023D01*
X128363196Y-71664229D01*
X128363198Y-71664229D01*
X128363201Y-71664231D01*
X128473797Y-71700166D01*
X128580339Y-71734784D01*
X128805838Y-71770500D01*
X128805843Y-71770500D01*
X129034162Y-71770500D01*
X129259660Y-71734784D01*
X129314864Y-71716847D01*
X129476799Y-71664231D01*
X129680228Y-71560579D01*
X129864937Y-71426379D01*
X130026379Y-71264937D01*
X130160579Y-71080228D01*
X130264231Y-70876799D01*
X130334784Y-70659660D01*
X130370500Y-70434162D01*
X130370500Y-70205837D01*
X130334784Y-69980339D01*
X130264229Y-69763196D01*
X130186238Y-69610131D01*
X130160579Y-69559772D01*
X130026379Y-69375063D01*
X129864937Y-69213621D01*
X129680228Y-69079421D01*
X129476803Y-68975770D01*
X129259660Y-68905215D01*
X129034162Y-68869500D01*
X129034157Y-68869500D01*
X128805843Y-68869500D01*
X128805838Y-68869500D01*
X128580339Y-68905215D01*
X128363196Y-68975770D01*
X128159771Y-69079421D01*
X127975061Y-69213622D01*
X127813623Y-69375060D01*
X127813616Y-69375069D01*
X127750317Y-69462191D01*
X127694987Y-69504857D01*
X127625373Y-69510835D01*
X127563579Y-69478228D01*
X127549683Y-69462191D01*
X127486383Y-69375069D01*
X127486379Y-69375063D01*
X127324937Y-69213621D01*
X127140228Y-69079421D01*
X126936803Y-68975770D01*
X126719660Y-68905215D01*
X126494162Y-68869500D01*
X126494157Y-68869500D01*
X126265843Y-68869500D01*
X126265838Y-68869500D01*
X126040339Y-68905215D01*
X125823196Y-68975770D01*
X125619771Y-69079421D01*
X125435061Y-69213622D01*
X125273623Y-69375060D01*
X125273616Y-69375069D01*
X125210317Y-69462191D01*
X125154987Y-69504857D01*
X125085373Y-69510835D01*
X125023579Y-69478228D01*
X125009683Y-69462191D01*
X124946383Y-69375069D01*
X124946379Y-69375063D01*
X124784937Y-69213621D01*
X124600228Y-69079421D01*
X124396803Y-68975770D01*
X124179660Y-68905215D01*
X123954162Y-68869500D01*
X123954157Y-68869500D01*
X123725843Y-68869500D01*
X123725838Y-68869500D01*
X123500339Y-68905215D01*
X123283196Y-68975770D01*
X123079771Y-69079421D01*
X122895061Y-69213622D01*
X122733623Y-69375060D01*
X122733616Y-69375069D01*
X122670317Y-69462191D01*
X122614987Y-69504857D01*
X122545373Y-69510835D01*
X122483579Y-69478228D01*
X122469683Y-69462191D01*
X122406383Y-69375069D01*
X122406379Y-69375063D01*
X122244937Y-69213621D01*
X122060228Y-69079421D01*
X121856803Y-68975770D01*
X121639660Y-68905215D01*
X121414162Y-68869500D01*
X121414157Y-68869500D01*
X121185843Y-68869500D01*
X121185838Y-68869500D01*
X120960339Y-68905215D01*
X120743196Y-68975770D01*
X120539771Y-69079421D01*
X120355061Y-69213622D01*
X120193623Y-69375060D01*
X120193616Y-69375069D01*
X120130317Y-69462191D01*
X120074987Y-69504857D01*
X120005373Y-69510835D01*
X119943579Y-69478228D01*
X119929683Y-69462191D01*
X119866383Y-69375069D01*
X119866379Y-69375063D01*
X119704937Y-69213621D01*
X119520228Y-69079421D01*
X119316803Y-68975770D01*
X119099660Y-68905215D01*
X118874162Y-68869500D01*
X118874157Y-68869500D01*
X118645843Y-68869500D01*
X118645838Y-68869500D01*
X118420339Y-68905215D01*
X118203196Y-68975770D01*
X117999771Y-69079421D01*
X117815061Y-69213622D01*
X117653623Y-69375060D01*
X117653616Y-69375069D01*
X117590317Y-69462191D01*
X117534987Y-69504857D01*
X117465373Y-69510835D01*
X117403579Y-69478228D01*
X117389683Y-69462191D01*
X117326383Y-69375069D01*
X117326379Y-69375063D01*
X117164937Y-69213621D01*
X116980228Y-69079421D01*
X116776803Y-68975770D01*
X116559660Y-68905215D01*
X116334162Y-68869500D01*
X116334157Y-68869500D01*
X116105843Y-68869500D01*
X116105838Y-68869500D01*
X115880339Y-68905215D01*
X115663196Y-68975770D01*
X115459771Y-69079421D01*
X115275061Y-69213622D01*
X115113623Y-69375060D01*
X115113616Y-69375069D01*
X115050317Y-69462191D01*
X114994987Y-69504857D01*
X114925373Y-69510835D01*
X114863579Y-69478228D01*
X114849683Y-69462191D01*
X114786383Y-69375069D01*
X114786379Y-69375063D01*
X114624937Y-69213621D01*
X114440228Y-69079421D01*
X114236803Y-68975770D01*
X114019660Y-68905215D01*
X113794162Y-68869500D01*
X113794157Y-68869500D01*
X113565843Y-68869500D01*
X113565838Y-68869500D01*
X113340339Y-68905215D01*
X113123196Y-68975770D01*
X112919771Y-69079421D01*
X112735061Y-69213622D01*
X112573623Y-69375060D01*
X112573616Y-69375069D01*
X112510317Y-69462191D01*
X112454987Y-69504857D01*
X112385373Y-69510835D01*
X112323579Y-69478228D01*
X112309683Y-69462191D01*
X112246383Y-69375069D01*
X112246379Y-69375063D01*
X112084937Y-69213621D01*
X111900228Y-69079421D01*
X111696803Y-68975770D01*
X111479660Y-68905215D01*
X111254162Y-68869500D01*
X111254157Y-68869500D01*
X111025843Y-68869500D01*
X111025838Y-68869500D01*
X110800339Y-68905215D01*
X110583196Y-68975770D01*
X110379771Y-69079421D01*
X110195061Y-69213622D01*
X110033623Y-69375060D01*
X110033616Y-69375069D01*
X109970317Y-69462191D01*
X109914987Y-69504857D01*
X109845373Y-69510835D01*
X109783579Y-69478228D01*
X109769683Y-69462191D01*
X109706383Y-69375069D01*
X109706379Y-69375063D01*
X109544937Y-69213621D01*
X109360228Y-69079421D01*
X109156803Y-68975770D01*
X108939660Y-68905215D01*
X108714162Y-68869500D01*
X108714157Y-68869500D01*
X108485843Y-68869500D01*
X108485838Y-68869500D01*
X108260339Y-68905215D01*
X108043196Y-68975770D01*
X107839771Y-69079421D01*
X107655061Y-69213622D01*
X107493623Y-69375060D01*
X107493616Y-69375069D01*
X107430317Y-69462191D01*
X107374987Y-69504857D01*
X107305373Y-69510835D01*
X107243579Y-69478228D01*
X107229683Y-69462191D01*
X107166383Y-69375069D01*
X107166379Y-69375063D01*
X107004937Y-69213621D01*
X106820228Y-69079421D01*
X106616803Y-68975770D01*
X106399660Y-68905215D01*
X106174162Y-68869500D01*
X106174157Y-68869500D01*
X105945843Y-68869500D01*
X105945838Y-68869500D01*
X105720339Y-68905215D01*
X105503196Y-68975770D01*
X105299771Y-69079421D01*
X105115061Y-69213622D01*
X104953623Y-69375060D01*
X104953616Y-69375069D01*
X104890317Y-69462191D01*
X104834987Y-69504857D01*
X104765373Y-69510835D01*
X104703579Y-69478228D01*
X104689683Y-69462191D01*
X104626383Y-69375069D01*
X104626379Y-69375063D01*
X104464937Y-69213621D01*
X104280228Y-69079421D01*
X104076803Y-68975770D01*
X103859660Y-68905215D01*
X103634162Y-68869500D01*
X103634157Y-68869500D01*
X103405843Y-68869500D01*
X103405838Y-68869500D01*
X103180339Y-68905215D01*
X102963196Y-68975770D01*
X102759771Y-69079421D01*
X102575061Y-69213622D01*
X102413623Y-69375060D01*
X102413616Y-69375069D01*
X102350317Y-69462191D01*
X102294987Y-69504857D01*
X102225373Y-69510835D01*
X102163579Y-69478228D01*
X102149683Y-69462191D01*
X102086383Y-69375069D01*
X102086379Y-69375063D01*
X101924937Y-69213621D01*
X101740228Y-69079421D01*
X101536803Y-68975770D01*
X101319660Y-68905215D01*
X101094162Y-68869500D01*
X101094157Y-68869500D01*
X100865843Y-68869500D01*
X100865838Y-68869500D01*
X100640339Y-68905215D01*
X100423196Y-68975770D01*
X100219771Y-69079421D01*
X100035061Y-69213622D01*
X99873622Y-69375061D01*
X99739421Y-69559771D01*
X99635770Y-69763196D01*
X99565215Y-69980339D01*
X99529500Y-70205837D01*
X99529500Y-70434162D01*
X99565215Y-70659660D01*
X99635770Y-70876803D01*
X99739421Y-71080228D01*
X99873621Y-71264937D01*
X100035063Y-71426379D01*
X100219772Y-71560579D01*
X100265784Y-71584023D01*
X100423196Y-71664229D01*
X100423198Y-71664229D01*
X100423201Y-71664231D01*
X100533797Y-71700166D01*
X100640339Y-71734784D01*
X100865838Y-71770500D01*
X100865843Y-71770500D01*
X101094162Y-71770500D01*
X101319660Y-71734784D01*
X101374864Y-71716847D01*
X101536799Y-71664231D01*
X101740228Y-71560579D01*
X101924937Y-71426379D01*
X102086379Y-71264937D01*
X102149682Y-71177807D01*
X102205012Y-71135143D01*
X102274626Y-71129164D01*
X102336421Y-71161770D01*
X102350315Y-71177804D01*
X102413621Y-71264937D01*
X102575063Y-71426379D01*
X102759772Y-71560579D01*
X102805784Y-71584023D01*
X102963196Y-71664229D01*
X102963198Y-71664229D01*
X102963201Y-71664231D01*
X103073797Y-71700166D01*
X103180339Y-71734784D01*
X103405838Y-71770500D01*
X103405843Y-71770500D01*
X103634162Y-71770500D01*
X103859660Y-71734784D01*
X103914864Y-71716847D01*
X104076799Y-71664231D01*
X104280228Y-71560579D01*
X104464937Y-71426379D01*
X104626379Y-71264937D01*
X104689682Y-71177807D01*
X104745012Y-71135143D01*
X104814626Y-71129164D01*
X104876421Y-71161770D01*
X104890315Y-71177804D01*
X104953621Y-71264937D01*
X105115063Y-71426379D01*
X105234874Y-71513428D01*
X105277539Y-71568757D01*
X105283518Y-71638371D01*
X105250912Y-71700166D01*
X105230879Y-71716847D01*
X105130345Y-71784022D01*
X105130341Y-71784025D01*
X104984024Y-71930342D01*
X104869058Y-72102403D01*
X104789870Y-72293579D01*
X104789868Y-72293587D01*
X104749500Y-72496530D01*
X104749500Y-72496534D01*
X104749500Y-72496535D01*
X104749500Y-72703465D01*
X104750087Y-72706416D01*
X104768962Y-72801310D01*
X104762733Y-72870901D01*
X104719870Y-72926078D01*
X104653980Y-72949322D01*
X104647344Y-72949500D01*
X104250636Y-72949500D01*
X104133246Y-72964953D01*
X104133237Y-72964956D01*
X103987160Y-73025463D01*
X103861718Y-73121718D01*
X103765463Y-73247160D01*
X103758281Y-73264499D01*
X103714438Y-73318901D01*
X103648143Y-73340964D01*
X103580444Y-73323683D01*
X103556040Y-73304724D01*
X103544938Y-73293622D01*
X103522646Y-73277426D01*
X103360228Y-73159421D01*
X103286232Y-73121718D01*
X103156803Y-73055770D01*
X102939660Y-72985215D01*
X102714162Y-72949500D01*
X102714157Y-72949500D01*
X102485843Y-72949500D01*
X102485838Y-72949500D01*
X102260339Y-72985215D01*
X102043196Y-73055770D01*
X101839771Y-73159421D01*
X101655061Y-73293622D01*
X101493623Y-73455060D01*
X101493616Y-73455069D01*
X101430317Y-73542191D01*
X101374987Y-73584857D01*
X101305373Y-73590835D01*
X101243579Y-73558228D01*
X101229683Y-73542191D01*
X101166383Y-73455069D01*
X101166379Y-73455063D01*
X101004937Y-73293621D01*
X100820228Y-73159421D01*
X100746232Y-73121718D01*
X100616803Y-73055770D01*
X100399660Y-72985215D01*
X100174162Y-72949500D01*
X100174157Y-72949500D01*
X99945843Y-72949500D01*
X99945838Y-72949500D01*
X99720339Y-72985215D01*
X99503196Y-73055770D01*
X99299771Y-73159421D01*
X99115061Y-73293622D01*
X98953622Y-73455061D01*
X98819421Y-73639771D01*
X98715770Y-73843196D01*
X98645215Y-74060339D01*
X98609500Y-74285837D01*
X92957078Y-74285837D01*
X92957078Y-73816586D01*
X92936445Y-73659871D01*
X92902370Y-73532704D01*
X92841881Y-73386672D01*
X92776055Y-73272658D01*
X92773748Y-73269651D01*
X92679831Y-73147256D01*
X92679825Y-73147249D01*
X92586743Y-73054167D01*
X92586736Y-73054161D01*
X92461342Y-72957943D01*
X92461340Y-72957941D01*
X92461335Y-72957938D01*
X92356823Y-72897598D01*
X92347325Y-72892114D01*
X92347323Y-72892113D01*
X92347321Y-72892112D01*
X92201289Y-72831623D01*
X92201288Y-72831622D01*
X92201284Y-72831621D01*
X92201282Y-72831620D01*
X92077707Y-72798507D01*
X92075789Y-72797931D01*
X92074119Y-72797547D01*
X91917411Y-72776915D01*
X91917404Y-72776915D01*
X91285749Y-72776915D01*
X91285748Y-72776915D01*
X91129041Y-72797547D01*
X91129034Y-72797548D01*
X91001866Y-72831623D01*
X90855830Y-72892114D01*
X90797004Y-72926078D01*
X90741821Y-72957938D01*
X90741818Y-72957939D01*
X90741813Y-72957943D01*
X90616419Y-73054161D01*
X90616412Y-73054167D01*
X90523330Y-73147249D01*
X90523324Y-73147256D01*
X90427099Y-73272659D01*
X90424852Y-73276024D01*
X90424631Y-73275876D01*
X90424630Y-73275878D01*
X90424606Y-73275860D01*
X90423811Y-73275328D01*
X90377133Y-73319835D01*
X90308526Y-73333056D01*
X90243662Y-73307087D01*
X90216390Y-73275614D01*
X90216023Y-73275860D01*
X90216000Y-73275878D01*
X90215998Y-73275876D01*
X90215778Y-73276024D01*
X90213530Y-73272659D01*
X90117305Y-73147256D01*
X90117299Y-73147249D01*
X90024217Y-73054167D01*
X90024210Y-73054161D01*
X89898816Y-72957943D01*
X89898814Y-72957941D01*
X89898809Y-72957938D01*
X89794297Y-72897598D01*
X89784799Y-72892114D01*
X89784797Y-72892113D01*
X89784795Y-72892112D01*
X89638763Y-72831623D01*
X89638762Y-72831622D01*
X89638758Y-72831621D01*
X89638756Y-72831620D01*
X89515181Y-72798507D01*
X89513263Y-72797931D01*
X89511593Y-72797547D01*
X89354885Y-72776915D01*
X89354878Y-72776915D01*
X88723223Y-72776915D01*
X88723222Y-72776915D01*
X88566515Y-72797547D01*
X88566508Y-72797548D01*
X88439340Y-72831623D01*
X88293304Y-72892114D01*
X88234478Y-72926078D01*
X88179295Y-72957938D01*
X88179292Y-72957939D01*
X88179287Y-72957943D01*
X88053893Y-73054161D01*
X88053886Y-73054167D01*
X87960804Y-73147249D01*
X87960798Y-73147256D01*
X87864580Y-73272650D01*
X87864576Y-73272655D01*
X87864575Y-73272658D01*
X87846062Y-73304724D01*
X87798751Y-73386667D01*
X87738258Y-73532708D01*
X87738257Y-73532710D01*
X87705144Y-73656285D01*
X87704569Y-73658198D01*
X87704184Y-73659873D01*
X87683552Y-73816581D01*
X87683552Y-74382416D01*
X87701168Y-74516231D01*
X87701168Y-74548599D01*
X87683553Y-74682407D01*
X87683552Y-74682415D01*
X87683552Y-75248244D01*
X87704185Y-75404959D01*
X87738260Y-75532126D01*
X87797906Y-75676124D01*
X87798751Y-75678162D01*
X87814814Y-75705984D01*
X87864575Y-75792172D01*
X87864578Y-75792177D01*
X87864580Y-75792179D01*
X87960798Y-75917573D01*
X87960804Y-75917580D01*
X88053886Y-76010662D01*
X88053893Y-76010668D01*
X88105802Y-76050499D01*
X88179295Y-76106892D01*
X88285333Y-76168113D01*
X88333548Y-76218681D01*
X88346770Y-76287288D01*
X88320802Y-76352152D01*
X88263888Y-76392680D01*
X88223332Y-76399500D01*
X76697275Y-76399500D01*
X76630236Y-76379815D01*
X76584481Y-76327011D01*
X76574537Y-76257853D01*
X76603562Y-76194297D01*
X76649822Y-76160939D01*
X76775592Y-76108843D01*
X76775593Y-76108842D01*
X76775599Y-76108840D01*
X77002705Y-75977721D01*
X77210753Y-75818079D01*
X77210757Y-75818074D01*
X77210762Y-75818071D01*
X77396176Y-75632657D01*
X77396179Y-75632652D01*
X77396184Y-75632648D01*
X77555826Y-75424600D01*
X77686945Y-75197494D01*
X77787300Y-74955216D01*
X77803025Y-74896530D01*
X78549500Y-74896530D01*
X78549500Y-75103469D01*
X78589868Y-75306412D01*
X78589870Y-75306420D01*
X78654227Y-75461792D01*
X78669059Y-75497598D01*
X78676439Y-75508643D01*
X78784024Y-75669657D01*
X78930342Y-75815975D01*
X78930345Y-75815977D01*
X79102402Y-75930941D01*
X79293580Y-76010130D01*
X79496530Y-76050499D01*
X79496534Y-76050500D01*
X79496535Y-76050500D01*
X79703466Y-76050500D01*
X79703467Y-76050499D01*
X79906420Y-76010130D01*
X80097598Y-75930941D01*
X80269655Y-75815977D01*
X80415977Y-75669655D01*
X80530941Y-75497598D01*
X80610130Y-75306420D01*
X80650500Y-75103465D01*
X80650500Y-74896535D01*
X80610130Y-74693580D01*
X80530941Y-74502402D01*
X80415977Y-74330345D01*
X80415975Y-74330342D01*
X80269657Y-74184024D01*
X80134307Y-74093587D01*
X80097598Y-74069059D01*
X80076546Y-74060339D01*
X79906420Y-73989870D01*
X79906412Y-73989868D01*
X79703469Y-73949500D01*
X79703465Y-73949500D01*
X79496535Y-73949500D01*
X79496530Y-73949500D01*
X79293587Y-73989868D01*
X79293579Y-73989870D01*
X79102403Y-74069058D01*
X78930342Y-74184024D01*
X78784024Y-74330342D01*
X78669058Y-74502403D01*
X78589870Y-74693579D01*
X78589868Y-74693587D01*
X78549500Y-74896530D01*
X77803025Y-74896530D01*
X77855172Y-74701913D01*
X77889402Y-74441917D01*
X77889402Y-74179677D01*
X77855172Y-73919681D01*
X77787300Y-73666378D01*
X77776280Y-73639773D01*
X77686948Y-73424106D01*
X77686943Y-73424096D01*
X77555826Y-73196993D01*
X77396183Y-72988945D01*
X77396176Y-72988937D01*
X77210762Y-72803523D01*
X77210753Y-72803515D01*
X77002705Y-72643872D01*
X76775602Y-72512755D01*
X76775592Y-72512750D01*
X76533330Y-72412402D01*
X76533323Y-72412400D01*
X76533321Y-72412399D01*
X76280018Y-72344527D01*
X76222241Y-72336920D01*
X76020029Y-72310297D01*
X76020022Y-72310297D01*
X75757782Y-72310297D01*
X75757774Y-72310297D01*
X75526674Y-72340723D01*
X75497786Y-72344527D01*
X75244483Y-72412399D01*
X75244473Y-72412402D01*
X75002211Y-72512750D01*
X75002201Y-72512755D01*
X74775098Y-72643872D01*
X74567050Y-72803515D01*
X74381620Y-72988945D01*
X74221977Y-73196993D01*
X74131887Y-73353036D01*
X74081320Y-73401252D01*
X74012713Y-73414475D01*
X73947848Y-73388507D01*
X73907320Y-73331593D01*
X73900500Y-73291036D01*
X73900500Y-68496530D01*
X83349500Y-68496530D01*
X83349500Y-68703469D01*
X83389868Y-68906412D01*
X83389870Y-68906420D01*
X83469058Y-69097596D01*
X83584024Y-69269657D01*
X83730342Y-69415975D01*
X83730345Y-69415977D01*
X83902402Y-69530941D01*
X84093580Y-69610130D01*
X84296530Y-69650499D01*
X84296534Y-69650500D01*
X84296535Y-69650500D01*
X84503466Y-69650500D01*
X84503467Y-69650499D01*
X84706420Y-69610130D01*
X84897598Y-69530941D01*
X85069655Y-69415977D01*
X85215977Y-69269655D01*
X85330941Y-69097598D01*
X85410130Y-68906420D01*
X85450500Y-68703465D01*
X85450500Y-68496535D01*
X85410130Y-68293580D01*
X85399973Y-68269058D01*
X85384953Y-68232796D01*
X85330942Y-68102403D01*
X85215975Y-67930342D01*
X85069657Y-67784024D01*
X84977439Y-67722407D01*
X84897598Y-67669059D01*
X84888764Y-67665400D01*
X84706420Y-67589870D01*
X84706412Y-67589868D01*
X84503469Y-67549500D01*
X84503465Y-67549500D01*
X84296535Y-67549500D01*
X84296530Y-67549500D01*
X84093587Y-67589868D01*
X84093579Y-67589870D01*
X83902403Y-67669058D01*
X83730342Y-67784024D01*
X83584024Y-67930342D01*
X83469058Y-68102403D01*
X83389870Y-68293579D01*
X83389868Y-68293587D01*
X83349500Y-68496530D01*
X73900500Y-68496530D01*
X73900500Y-62496530D01*
X88749500Y-62496530D01*
X88749500Y-62703469D01*
X88789868Y-62906412D01*
X88789870Y-62906420D01*
X88869058Y-63097596D01*
X88984024Y-63269657D01*
X89130342Y-63415975D01*
X89130345Y-63415977D01*
X89302402Y-63530941D01*
X89493580Y-63610130D01*
X89696530Y-63650499D01*
X89696534Y-63650500D01*
X89696535Y-63650500D01*
X89903466Y-63650500D01*
X89903466Y-63650499D01*
X90106398Y-63610134D01*
X90175989Y-63616361D01*
X90231166Y-63659224D01*
X90237149Y-63669025D01*
X90237316Y-63668923D01*
X90239856Y-63673068D01*
X90239860Y-63673074D01*
X90239861Y-63673075D01*
X90377669Y-63862751D01*
X90377671Y-63862753D01*
X90543452Y-64028534D01*
X90589637Y-64062090D01*
X90632302Y-64117420D01*
X90638280Y-64187034D01*
X90605673Y-64248828D01*
X90589637Y-64262724D01*
X90543452Y-64296279D01*
X90377671Y-64462060D01*
X90377671Y-64462061D01*
X90377669Y-64462063D01*
X90318485Y-64543521D01*
X90239861Y-64651738D01*
X90133423Y-64860632D01*
X90060971Y-65083614D01*
X90024296Y-65315175D01*
X90024296Y-65549638D01*
X90060971Y-65781199D01*
X90133423Y-66004181D01*
X90239861Y-66213075D01*
X90377669Y-66402751D01*
X90543452Y-66568534D01*
X90672391Y-66662214D01*
X90675126Y-66664201D01*
X90717791Y-66719531D01*
X90723770Y-66789145D01*
X90691164Y-66850940D01*
X90675126Y-66864837D01*
X90608924Y-66912935D01*
X90454324Y-67067535D01*
X90454320Y-67067540D01*
X90325819Y-67244408D01*
X90226558Y-67439215D01*
X90226557Y-67439218D01*
X90158997Y-67647148D01*
X90147078Y-67722407D01*
X91080784Y-67722407D01*
X91047871Y-67779414D01*
X91013796Y-67906581D01*
X91013796Y-68038233D01*
X91047871Y-68165400D01*
X91080784Y-68222407D01*
X90147078Y-68222407D01*
X90158997Y-68297665D01*
X90226557Y-68505595D01*
X90226558Y-68505598D01*
X90325819Y-68700405D01*
X90454320Y-68877273D01*
X90454324Y-68877278D01*
X90608924Y-69031878D01*
X90608929Y-69031882D01*
X90785797Y-69160383D01*
X90980604Y-69259644D01*
X90980607Y-69259645D01*
X91188535Y-69327204D01*
X91263795Y-69339124D01*
X91263796Y-69339124D01*
X91263796Y-68405419D01*
X91320803Y-68438332D01*
X91447970Y-68472407D01*
X91579622Y-68472407D01*
X91706789Y-68438332D01*
X91763796Y-68405419D01*
X91763796Y-69339124D01*
X91839054Y-69327204D01*
X91839057Y-69327204D01*
X92046984Y-69259645D01*
X92046987Y-69259644D01*
X92241794Y-69160383D01*
X92329681Y-69096530D01*
X97149500Y-69096530D01*
X97149500Y-69303469D01*
X97189868Y-69506412D01*
X97189870Y-69506420D01*
X97269058Y-69697596D01*
X97384024Y-69869657D01*
X97530342Y-70015975D01*
X97530345Y-70015977D01*
X97702402Y-70130941D01*
X97893580Y-70210130D01*
X98096530Y-70250499D01*
X98096534Y-70250500D01*
X98096535Y-70250500D01*
X98303466Y-70250500D01*
X98303467Y-70250499D01*
X98506420Y-70210130D01*
X98697598Y-70130941D01*
X98869655Y-70015977D01*
X99015977Y-69869655D01*
X99130941Y-69697598D01*
X99210130Y-69506420D01*
X99250500Y-69303465D01*
X99250500Y-69096535D01*
X99210130Y-68893580D01*
X99130941Y-68702402D01*
X99015977Y-68530345D01*
X99015975Y-68530342D01*
X98869657Y-68384024D01*
X98734307Y-68293587D01*
X98697598Y-68269059D01*
X98506420Y-68189870D01*
X98506412Y-68189868D01*
X98303469Y-68149500D01*
X98303465Y-68149500D01*
X98096535Y-68149500D01*
X98096530Y-68149500D01*
X97893587Y-68189868D01*
X97893579Y-68189870D01*
X97702403Y-68269058D01*
X97530342Y-68384024D01*
X97384024Y-68530342D01*
X97269058Y-68702403D01*
X97189870Y-68893579D01*
X97189868Y-68893587D01*
X97149500Y-69096530D01*
X92329681Y-69096530D01*
X92418662Y-69031882D01*
X92418667Y-69031878D01*
X92447784Y-69002762D01*
X92573267Y-68877278D01*
X92573271Y-68877273D01*
X92701772Y-68700405D01*
X92801033Y-68505598D01*
X92801034Y-68505595D01*
X92868594Y-68297665D01*
X92880514Y-68222407D01*
X91946808Y-68222407D01*
X91979721Y-68165400D01*
X92013796Y-68038233D01*
X92013796Y-67906581D01*
X91979721Y-67779414D01*
X91946808Y-67722407D01*
X92880514Y-67722407D01*
X92868594Y-67647148D01*
X92801034Y-67439218D01*
X92801033Y-67439215D01*
X92701772Y-67244408D01*
X92573271Y-67067540D01*
X92573267Y-67067535D01*
X92418667Y-66912935D01*
X92418662Y-66912931D01*
X92352466Y-66864837D01*
X92309800Y-66809508D01*
X92303821Y-66739894D01*
X92336426Y-66678099D01*
X92352466Y-66664201D01*
X92354946Y-66662398D01*
X92484140Y-66568534D01*
X92649923Y-66402751D01*
X92787731Y-66213075D01*
X92894170Y-66004177D01*
X92966620Y-65781199D01*
X93003296Y-65549638D01*
X93003296Y-65315175D01*
X92966620Y-65083614D01*
X92894168Y-64860632D01*
X92787730Y-64651738D01*
X92649923Y-64462063D01*
X92484140Y-64296280D01*
X92437954Y-64262724D01*
X92395289Y-64207396D01*
X92389310Y-64137782D01*
X92421915Y-64075987D01*
X92437954Y-64062090D01*
X92484140Y-64028534D01*
X92649923Y-63862751D01*
X92787731Y-63673075D01*
X92894170Y-63464177D01*
X92927429Y-63361814D01*
X92948642Y-63296530D01*
X99549500Y-63296530D01*
X99549500Y-63503469D01*
X99589868Y-63706412D01*
X99589870Y-63706420D01*
X99669058Y-63897596D01*
X99784024Y-64069657D01*
X99930342Y-64215975D01*
X99930345Y-64215977D01*
X100102402Y-64330941D01*
X100293580Y-64410130D01*
X100496530Y-64450499D01*
X100496534Y-64450500D01*
X100496535Y-64450500D01*
X100703466Y-64450500D01*
X100703467Y-64450499D01*
X100906420Y-64410130D01*
X101097598Y-64330941D01*
X101269655Y-64215977D01*
X101415977Y-64069655D01*
X101530941Y-63897598D01*
X101610130Y-63706420D01*
X101650500Y-63503465D01*
X101650500Y-63296535D01*
X101650499Y-63296530D01*
X108549500Y-63296530D01*
X108549500Y-63503469D01*
X108589868Y-63706412D01*
X108589870Y-63706420D01*
X108669058Y-63897596D01*
X108784024Y-64069657D01*
X108930342Y-64215975D01*
X108930345Y-64215977D01*
X109102402Y-64330941D01*
X109293580Y-64410130D01*
X109496530Y-64450499D01*
X109496534Y-64450500D01*
X109496535Y-64450500D01*
X109703466Y-64450500D01*
X109703467Y-64450499D01*
X109906420Y-64410130D01*
X110097598Y-64330941D01*
X110269655Y-64215977D01*
X110415977Y-64069655D01*
X110530941Y-63897598D01*
X110610130Y-63706420D01*
X110650500Y-63503465D01*
X110650500Y-63296535D01*
X110610130Y-63093580D01*
X110530941Y-62902402D01*
X110415977Y-62730345D01*
X110415975Y-62730342D01*
X110269657Y-62584024D01*
X110138719Y-62496535D01*
X110097598Y-62469059D01*
X109906420Y-62389870D01*
X109906412Y-62389868D01*
X109703469Y-62349500D01*
X109703465Y-62349500D01*
X109496535Y-62349500D01*
X109496530Y-62349500D01*
X109293587Y-62389868D01*
X109293579Y-62389870D01*
X109102403Y-62469058D01*
X108930342Y-62584024D01*
X108784024Y-62730342D01*
X108669058Y-62902403D01*
X108589870Y-63093579D01*
X108589868Y-63093587D01*
X108549500Y-63296530D01*
X101650499Y-63296530D01*
X101610130Y-63093580D01*
X101530941Y-62902402D01*
X101415977Y-62730345D01*
X101415975Y-62730342D01*
X101269657Y-62584024D01*
X101138719Y-62496535D01*
X101097598Y-62469059D01*
X100906420Y-62389870D01*
X100906412Y-62389868D01*
X100703469Y-62349500D01*
X100703465Y-62349500D01*
X100496535Y-62349500D01*
X100496530Y-62349500D01*
X100293587Y-62389868D01*
X100293579Y-62389870D01*
X100102403Y-62469058D01*
X99930342Y-62584024D01*
X99784024Y-62730342D01*
X99669058Y-62902403D01*
X99589870Y-63093579D01*
X99589868Y-63093587D01*
X99549500Y-63296530D01*
X92948642Y-63296530D01*
X92963071Y-63252124D01*
X92963071Y-63252123D01*
X92966618Y-63241204D01*
X92966620Y-63241199D01*
X92990000Y-63093580D01*
X93003296Y-63009638D01*
X93003296Y-62843265D01*
X93022981Y-62776226D01*
X93075785Y-62730471D01*
X93144943Y-62720527D01*
X93151468Y-62721644D01*
X93296533Y-62750499D01*
X93296534Y-62750500D01*
X93296535Y-62750500D01*
X93503466Y-62750500D01*
X93503467Y-62750499D01*
X93706420Y-62710130D01*
X93897598Y-62630941D01*
X94069655Y-62515977D01*
X94215977Y-62369655D01*
X94330941Y-62197598D01*
X94410130Y-62006420D01*
X94450500Y-61803465D01*
X94450500Y-61596535D01*
X94410130Y-61393580D01*
X94330941Y-61202402D01*
X94215977Y-61030345D01*
X94215975Y-61030342D01*
X94069657Y-60884024D01*
X94010255Y-60844333D01*
X93897598Y-60769059D01*
X93897599Y-60769059D01*
X93897597Y-60769058D01*
X93722499Y-60696530D01*
X125149500Y-60696530D01*
X125149500Y-60903469D01*
X125189868Y-61106412D01*
X125189870Y-61106420D01*
X125269058Y-61297596D01*
X125384024Y-61469657D01*
X125530342Y-61615975D01*
X125530345Y-61615977D01*
X125702402Y-61730941D01*
X125893580Y-61810130D01*
X126096530Y-61850499D01*
X126096534Y-61850500D01*
X126096535Y-61850500D01*
X126303466Y-61850500D01*
X126303467Y-61850499D01*
X126506420Y-61810130D01*
X126697598Y-61730941D01*
X126869655Y-61615977D01*
X127015977Y-61469655D01*
X127130941Y-61297598D01*
X127210130Y-61106420D01*
X127250500Y-60903465D01*
X127250500Y-60696535D01*
X127210130Y-60493580D01*
X127130941Y-60302402D01*
X127015977Y-60130345D01*
X127015975Y-60130342D01*
X126869657Y-59984024D01*
X126783626Y-59926541D01*
X126697598Y-59869059D01*
X126506420Y-59789870D01*
X126506412Y-59789868D01*
X126303469Y-59749500D01*
X126303465Y-59749500D01*
X126096535Y-59749500D01*
X126096530Y-59749500D01*
X125893587Y-59789868D01*
X125893579Y-59789870D01*
X125702403Y-59869058D01*
X125530342Y-59984024D01*
X125384024Y-60130342D01*
X125269058Y-60302403D01*
X125189870Y-60493579D01*
X125189868Y-60493587D01*
X125149500Y-60696530D01*
X93722499Y-60696530D01*
X93706420Y-60689870D01*
X93706412Y-60689868D01*
X93503469Y-60649500D01*
X93503465Y-60649500D01*
X93296535Y-60649500D01*
X93260925Y-60656583D01*
X93138838Y-60680867D01*
X93069247Y-60674638D01*
X93014070Y-60631775D01*
X92990826Y-60565885D01*
X92992175Y-60539850D01*
X93003296Y-60469637D01*
X93003296Y-60235175D01*
X92966620Y-60003614D01*
X92894168Y-59780632D01*
X92787730Y-59571738D01*
X92649923Y-59382063D01*
X92484140Y-59216280D01*
X92437954Y-59182724D01*
X92395289Y-59127396D01*
X92389310Y-59057782D01*
X92421915Y-58995987D01*
X92437954Y-58982090D01*
X92484140Y-58948534D01*
X92649923Y-58782751D01*
X92787731Y-58593075D01*
X92894170Y-58384177D01*
X92966620Y-58161199D01*
X92989621Y-58015975D01*
X93003296Y-57929638D01*
X93003296Y-57695175D01*
X92966620Y-57463614D01*
X92894168Y-57240632D01*
X92846326Y-57146738D01*
X92820746Y-57096534D01*
X92820744Y-57096530D01*
X108749500Y-57096530D01*
X108749500Y-57303469D01*
X108789868Y-57506412D01*
X108789870Y-57506420D01*
X108869058Y-57697596D01*
X108984024Y-57869657D01*
X109130342Y-58015975D01*
X109130345Y-58015977D01*
X109302402Y-58130941D01*
X109493580Y-58210130D01*
X109696530Y-58250499D01*
X109696534Y-58250500D01*
X109696535Y-58250500D01*
X109903466Y-58250500D01*
X109903467Y-58250499D01*
X110106420Y-58210130D01*
X110297598Y-58130941D01*
X110469655Y-58015977D01*
X110615977Y-57869655D01*
X110730941Y-57697598D01*
X110810130Y-57506420D01*
X110850500Y-57303465D01*
X110850500Y-57096535D01*
X110810130Y-56893580D01*
X110730941Y-56702402D01*
X110615977Y-56530345D01*
X110615975Y-56530342D01*
X110469657Y-56384024D01*
X110383626Y-56326541D01*
X110297598Y-56269059D01*
X110234085Y-56242751D01*
X110106420Y-56189870D01*
X110106412Y-56189868D01*
X109903469Y-56149500D01*
X109903465Y-56149500D01*
X109696535Y-56149500D01*
X109696530Y-56149500D01*
X109493587Y-56189868D01*
X109493579Y-56189870D01*
X109302403Y-56269058D01*
X109130342Y-56384024D01*
X108984024Y-56530342D01*
X108869058Y-56702403D01*
X108789870Y-56893579D01*
X108789868Y-56893587D01*
X108749500Y-57096530D01*
X92820744Y-57096530D01*
X92787731Y-57031739D01*
X92649923Y-56842063D01*
X92484140Y-56676280D01*
X92437954Y-56642724D01*
X92395289Y-56587396D01*
X92389310Y-56517782D01*
X92421915Y-56455987D01*
X92437954Y-56442090D01*
X92484140Y-56408534D01*
X92649923Y-56242751D01*
X92787731Y-56053075D01*
X92894170Y-55844177D01*
X92966620Y-55621199D01*
X93003296Y-55389638D01*
X93003296Y-55155175D01*
X92966620Y-54923614D01*
X92894168Y-54700632D01*
X92787730Y-54491738D01*
X92771940Y-54470005D01*
X92649923Y-54302063D01*
X92484140Y-54136280D01*
X92437954Y-54102724D01*
X92424684Y-54085516D01*
X92407964Y-54071635D01*
X92403770Y-54058395D01*
X92395289Y-54047396D01*
X92393429Y-54025742D01*
X92386868Y-54005026D01*
X92390498Y-53991620D01*
X92389310Y-53977782D01*
X92399451Y-53958561D01*
X92405132Y-53937586D01*
X92417677Y-53924018D01*
X92421915Y-53915987D01*
X92427676Y-53910430D01*
X92432587Y-53905989D01*
X92483585Y-53868937D01*
X96749500Y-53868937D01*
X96749500Y-54075876D01*
X96761516Y-54136282D01*
X96789870Y-54278827D01*
X96869059Y-54470005D01*
X96883581Y-54491739D01*
X96984024Y-54642064D01*
X97130342Y-54788382D01*
X97130345Y-54788384D01*
X97302402Y-54903348D01*
X97493580Y-54982537D01*
X97696530Y-55022906D01*
X97696534Y-55022907D01*
X97696535Y-55022907D01*
X97903466Y-55022907D01*
X97903467Y-55022906D01*
X98106420Y-54982537D01*
X98297598Y-54903348D01*
X98469655Y-54788384D01*
X98615977Y-54642062D01*
X98730941Y-54470005D01*
X98810130Y-54278827D01*
X98850500Y-54075872D01*
X98850500Y-53868942D01*
X98831408Y-53772958D01*
X98819807Y-53714634D01*
X98816206Y-53696530D01*
X131549500Y-53696530D01*
X131549500Y-53903469D01*
X131589135Y-54102725D01*
X131589870Y-54106420D01*
X131669059Y-54297598D01*
X131672979Y-54303465D01*
X131784024Y-54469657D01*
X131930342Y-54615975D01*
X131930345Y-54615977D01*
X132102402Y-54730941D01*
X132293580Y-54810130D01*
X132496530Y-54850499D01*
X132496534Y-54850500D01*
X132496535Y-54850500D01*
X132703466Y-54850500D01*
X132703467Y-54850499D01*
X132906420Y-54810130D01*
X133097598Y-54730941D01*
X133269655Y-54615977D01*
X133415977Y-54469655D01*
X133530941Y-54297598D01*
X133610130Y-54106420D01*
X133650500Y-53903465D01*
X133650500Y-53696535D01*
X133610130Y-53493580D01*
X133530941Y-53302402D01*
X133415977Y-53130345D01*
X133415975Y-53130342D01*
X133269657Y-52984024D01*
X133176691Y-52921907D01*
X133097598Y-52869059D01*
X132906420Y-52789870D01*
X132906412Y-52789868D01*
X132703469Y-52749500D01*
X132703465Y-52749500D01*
X132496535Y-52749500D01*
X132496530Y-52749500D01*
X132293587Y-52789868D01*
X132293579Y-52789870D01*
X132102403Y-52869058D01*
X131930342Y-52984024D01*
X131784024Y-53130342D01*
X131669058Y-53302403D01*
X131589870Y-53493579D01*
X131589868Y-53493587D01*
X131549500Y-53696530D01*
X98816206Y-53696530D01*
X98810131Y-53665994D01*
X98810130Y-53665987D01*
X98730941Y-53474809D01*
X98615977Y-53302752D01*
X98615975Y-53302749D01*
X98469657Y-53156431D01*
X98357063Y-53081199D01*
X98297598Y-53041466D01*
X98106420Y-52962277D01*
X98106412Y-52962275D01*
X97903469Y-52921907D01*
X97903465Y-52921907D01*
X97696535Y-52921907D01*
X97696530Y-52921907D01*
X97493587Y-52962275D01*
X97493579Y-52962277D01*
X97302403Y-53041465D01*
X97130342Y-53156431D01*
X96984024Y-53302749D01*
X96869058Y-53474810D01*
X96789870Y-53665986D01*
X96789868Y-53665994D01*
X96749500Y-53868937D01*
X92483585Y-53868937D01*
X92484140Y-53868534D01*
X92649923Y-53702751D01*
X92787731Y-53513075D01*
X92894170Y-53304177D01*
X92966620Y-53081199D01*
X92982011Y-52984023D01*
X93003296Y-52849638D01*
X93003296Y-52615175D01*
X92966620Y-52383614D01*
X92894168Y-52160632D01*
X92787730Y-51951738D01*
X92748395Y-51897598D01*
X92649923Y-51762063D01*
X92484140Y-51596280D01*
X92294464Y-51458472D01*
X92250390Y-51436015D01*
X92085570Y-51352034D01*
X91862588Y-51279582D01*
X91631027Y-51242907D01*
X91631022Y-51242907D01*
X91396570Y-51242907D01*
X91396565Y-51242907D01*
X91165003Y-51279582D01*
X90942021Y-51352034D01*
X90733127Y-51458472D01*
X90671199Y-51503466D01*
X90543452Y-51596280D01*
X90543450Y-51596282D01*
X90543449Y-51596282D01*
X90377671Y-51762060D01*
X90377671Y-51762061D01*
X90377669Y-51762063D01*
X90318485Y-51843521D01*
X90239861Y-51951738D01*
X90133423Y-52160632D01*
X90060971Y-52383614D01*
X90024296Y-52615175D01*
X90024296Y-52849638D01*
X90060971Y-53081199D01*
X90133423Y-53304181D01*
X90220363Y-53474809D01*
X90239861Y-53513075D01*
X90377669Y-53702751D01*
X90377671Y-53702753D01*
X90543452Y-53868534D01*
X90589637Y-53902090D01*
X90632302Y-53957420D01*
X90638280Y-54027034D01*
X90605673Y-54088828D01*
X90589637Y-54102724D01*
X90543452Y-54136279D01*
X90377671Y-54302060D01*
X90377671Y-54302061D01*
X90377669Y-54302063D01*
X90318485Y-54383521D01*
X90239861Y-54491738D01*
X90133423Y-54700632D01*
X90060971Y-54923614D01*
X90024296Y-55155175D01*
X90024296Y-55389638D01*
X90060971Y-55621199D01*
X90133423Y-55844181D01*
X90239861Y-56053075D01*
X90377669Y-56242751D01*
X90377671Y-56242753D01*
X90543452Y-56408534D01*
X90589637Y-56442090D01*
X90632302Y-56497420D01*
X90638280Y-56567034D01*
X90605673Y-56628828D01*
X90589637Y-56642724D01*
X90543452Y-56676279D01*
X90377671Y-56842060D01*
X90377671Y-56842061D01*
X90377669Y-56842063D01*
X90340240Y-56893580D01*
X90239861Y-57031738D01*
X90133423Y-57240632D01*
X90060971Y-57463614D01*
X90024296Y-57695175D01*
X90024296Y-57929638D01*
X90060971Y-58161199D01*
X90133423Y-58384181D01*
X90239861Y-58593075D01*
X90377669Y-58782751D01*
X90377671Y-58782753D01*
X90543452Y-58948534D01*
X90589637Y-58982090D01*
X90632302Y-59037420D01*
X90638280Y-59107034D01*
X90605673Y-59168828D01*
X90589637Y-59182724D01*
X90543452Y-59216279D01*
X90377671Y-59382060D01*
X90377671Y-59382061D01*
X90377669Y-59382063D01*
X90318485Y-59463521D01*
X90239861Y-59571738D01*
X90133423Y-59780632D01*
X90060971Y-60003614D01*
X90024296Y-60235175D01*
X90024296Y-60469638D01*
X90060971Y-60701199D01*
X90133423Y-60924181D01*
X90239861Y-61133075D01*
X90377669Y-61322751D01*
X90377671Y-61322753D01*
X90543452Y-61488534D01*
X90589637Y-61522090D01*
X90606817Y-61544370D01*
X90626419Y-61564540D01*
X90627862Y-61571662D01*
X90632302Y-61577420D01*
X90634709Y-61605452D01*
X90640295Y-61633018D01*
X90637658Y-61639791D01*
X90638280Y-61647034D01*
X90625151Y-61671913D01*
X90614946Y-61698127D01*
X90607502Y-61705361D01*
X90605673Y-61708828D01*
X90589636Y-61722725D01*
X90558124Y-61745620D01*
X90492318Y-61769100D01*
X90424264Y-61753275D01*
X90416348Y-61748404D01*
X90297599Y-61669059D01*
X90106420Y-61589870D01*
X90106412Y-61589868D01*
X89903469Y-61549500D01*
X89903465Y-61549500D01*
X89696535Y-61549500D01*
X89696530Y-61549500D01*
X89493587Y-61589868D01*
X89493579Y-61589870D01*
X89302403Y-61669058D01*
X89130342Y-61784024D01*
X88984024Y-61930342D01*
X88869058Y-62102403D01*
X88789870Y-62293579D01*
X88789868Y-62293587D01*
X88749500Y-62496530D01*
X73900500Y-62496530D01*
X73900500Y-54096530D01*
X79149500Y-54096530D01*
X79149500Y-54303469D01*
X79189868Y-54506412D01*
X79189870Y-54506420D01*
X79269059Y-54697598D01*
X79271090Y-54700637D01*
X79384024Y-54869657D01*
X79530342Y-55015975D01*
X79530345Y-55015977D01*
X79702402Y-55130941D01*
X79893580Y-55210130D01*
X80096530Y-55250499D01*
X80096534Y-55250500D01*
X80096535Y-55250500D01*
X80303466Y-55250500D01*
X80303467Y-55250499D01*
X80506420Y-55210130D01*
X80697598Y-55130941D01*
X80869655Y-55015977D01*
X81015977Y-54869655D01*
X81130941Y-54697598D01*
X81210130Y-54506420D01*
X81250500Y-54303465D01*
X81250500Y-54096535D01*
X81210130Y-53893580D01*
X81130941Y-53702402D01*
X81015977Y-53530345D01*
X81015975Y-53530342D01*
X80869657Y-53384024D01*
X80747501Y-53302403D01*
X80697598Y-53269059D01*
X80506420Y-53189870D01*
X80506412Y-53189868D01*
X80303469Y-53149500D01*
X80303465Y-53149500D01*
X80096535Y-53149500D01*
X80096530Y-53149500D01*
X79893587Y-53189868D01*
X79893579Y-53189870D01*
X79702403Y-53269058D01*
X79530342Y-53384024D01*
X79384024Y-53530342D01*
X79269058Y-53702403D01*
X79189870Y-53893579D01*
X79189868Y-53893587D01*
X79149500Y-54096530D01*
X73900500Y-54096530D01*
X73900500Y-49696530D01*
X96049500Y-49696530D01*
X96049500Y-49903469D01*
X96089868Y-50106412D01*
X96089870Y-50106420D01*
X96169058Y-50297596D01*
X96284024Y-50469657D01*
X96430342Y-50615975D01*
X96430345Y-50615977D01*
X96602402Y-50730941D01*
X96793580Y-50810130D01*
X96952646Y-50841770D01*
X96996530Y-50850499D01*
X96996534Y-50850500D01*
X96996535Y-50850500D01*
X97203466Y-50850500D01*
X97203467Y-50850499D01*
X97406420Y-50810130D01*
X97597598Y-50730941D01*
X97769655Y-50615977D01*
X97915977Y-50469655D01*
X98030941Y-50297598D01*
X98110130Y-50106420D01*
X98150500Y-49903465D01*
X98150500Y-49885837D01*
X99529500Y-49885837D01*
X99529500Y-50114162D01*
X99565215Y-50339660D01*
X99635770Y-50556803D01*
X99737408Y-50756277D01*
X99739421Y-50760228D01*
X99873621Y-50944937D01*
X100035063Y-51106379D01*
X100219772Y-51240579D01*
X100274690Y-51268561D01*
X100423196Y-51344229D01*
X100423198Y-51344229D01*
X100423201Y-51344231D01*
X100539592Y-51382049D01*
X100640339Y-51414784D01*
X100865838Y-51450500D01*
X100865843Y-51450500D01*
X101094162Y-51450500D01*
X101319660Y-51414784D01*
X101375695Y-51396577D01*
X101536799Y-51344231D01*
X101740228Y-51240579D01*
X101924937Y-51106379D01*
X102086379Y-50944937D01*
X102149682Y-50857807D01*
X102205012Y-50815143D01*
X102274626Y-50809164D01*
X102336421Y-50841770D01*
X102350315Y-50857804D01*
X102413621Y-50944937D01*
X102575063Y-51106379D01*
X102759772Y-51240579D01*
X102814690Y-51268561D01*
X102963196Y-51344229D01*
X102963198Y-51344229D01*
X102963201Y-51344231D01*
X103079592Y-51382049D01*
X103180339Y-51414784D01*
X103405838Y-51450500D01*
X103405843Y-51450500D01*
X103634162Y-51450500D01*
X103859660Y-51414784D01*
X103915695Y-51396577D01*
X104076799Y-51344231D01*
X104280228Y-51240579D01*
X104464937Y-51106379D01*
X104626379Y-50944937D01*
X104689682Y-50857807D01*
X104745012Y-50815143D01*
X104814626Y-50809164D01*
X104876421Y-50841770D01*
X104890315Y-50857804D01*
X104953621Y-50944937D01*
X105115063Y-51106379D01*
X105299772Y-51240579D01*
X105354690Y-51268561D01*
X105503196Y-51344229D01*
X105503198Y-51344229D01*
X105503201Y-51344231D01*
X105619592Y-51382049D01*
X105720339Y-51414784D01*
X105945838Y-51450500D01*
X105945843Y-51450500D01*
X106174162Y-51450500D01*
X106399660Y-51414784D01*
X106455695Y-51396577D01*
X106616799Y-51344231D01*
X106820228Y-51240579D01*
X107004937Y-51106379D01*
X107166379Y-50944937D01*
X107229682Y-50857807D01*
X107285012Y-50815143D01*
X107354626Y-50809164D01*
X107416421Y-50841770D01*
X107430315Y-50857804D01*
X107493621Y-50944937D01*
X107655063Y-51106379D01*
X107839772Y-51240579D01*
X107894690Y-51268561D01*
X108043196Y-51344229D01*
X108043198Y-51344229D01*
X108043201Y-51344231D01*
X108159592Y-51382049D01*
X108260339Y-51414784D01*
X108485838Y-51450500D01*
X108485843Y-51450500D01*
X108714162Y-51450500D01*
X108939660Y-51414784D01*
X108995695Y-51396577D01*
X109156799Y-51344231D01*
X109360228Y-51240579D01*
X109544937Y-51106379D01*
X109706379Y-50944937D01*
X109769682Y-50857807D01*
X109825012Y-50815143D01*
X109894626Y-50809164D01*
X109956421Y-50841770D01*
X109970315Y-50857804D01*
X110033621Y-50944937D01*
X110195063Y-51106379D01*
X110379772Y-51240579D01*
X110434690Y-51268561D01*
X110583196Y-51344229D01*
X110583198Y-51344229D01*
X110583201Y-51344231D01*
X110699592Y-51382049D01*
X110800339Y-51414784D01*
X111025838Y-51450500D01*
X111025843Y-51450500D01*
X111254162Y-51450500D01*
X111479660Y-51414784D01*
X111535695Y-51396577D01*
X111696799Y-51344231D01*
X111900228Y-51240579D01*
X112084937Y-51106379D01*
X112246379Y-50944937D01*
X112309682Y-50857807D01*
X112365012Y-50815143D01*
X112434626Y-50809164D01*
X112496421Y-50841770D01*
X112510315Y-50857804D01*
X112573621Y-50944937D01*
X112735063Y-51106379D01*
X112919772Y-51240579D01*
X112974690Y-51268561D01*
X113123196Y-51344229D01*
X113123198Y-51344229D01*
X113123201Y-51344231D01*
X113239592Y-51382049D01*
X113340339Y-51414784D01*
X113565838Y-51450500D01*
X113565843Y-51450500D01*
X113794162Y-51450500D01*
X114019660Y-51414784D01*
X114075695Y-51396577D01*
X114236799Y-51344231D01*
X114440228Y-51240579D01*
X114624937Y-51106379D01*
X114786379Y-50944937D01*
X114849682Y-50857807D01*
X114905012Y-50815143D01*
X114974626Y-50809164D01*
X115036421Y-50841770D01*
X115050315Y-50857804D01*
X115113621Y-50944937D01*
X115275063Y-51106379D01*
X115459772Y-51240579D01*
X115514690Y-51268561D01*
X115663196Y-51344229D01*
X115663198Y-51344229D01*
X115663201Y-51344231D01*
X115779592Y-51382049D01*
X115880339Y-51414784D01*
X116105838Y-51450500D01*
X116105843Y-51450500D01*
X116334162Y-51450500D01*
X116559660Y-51414784D01*
X116615695Y-51396577D01*
X116776799Y-51344231D01*
X116980228Y-51240579D01*
X117164937Y-51106379D01*
X117326379Y-50944937D01*
X117389682Y-50857807D01*
X117445012Y-50815143D01*
X117514626Y-50809164D01*
X117576421Y-50841770D01*
X117590315Y-50857804D01*
X117653621Y-50944937D01*
X117815063Y-51106379D01*
X117999772Y-51240579D01*
X118054690Y-51268561D01*
X118203196Y-51344229D01*
X118203198Y-51344229D01*
X118203201Y-51344231D01*
X118319592Y-51382049D01*
X118420339Y-51414784D01*
X118645838Y-51450500D01*
X118645843Y-51450500D01*
X118874162Y-51450500D01*
X119099660Y-51414784D01*
X119155695Y-51396577D01*
X119316799Y-51344231D01*
X119520228Y-51240579D01*
X119704937Y-51106379D01*
X119866379Y-50944937D01*
X119929682Y-50857807D01*
X119985012Y-50815143D01*
X120054626Y-50809164D01*
X120116421Y-50841770D01*
X120130315Y-50857804D01*
X120193621Y-50944937D01*
X120355063Y-51106379D01*
X120539772Y-51240579D01*
X120594690Y-51268561D01*
X120743196Y-51344229D01*
X120743198Y-51344229D01*
X120743201Y-51344231D01*
X120859592Y-51382049D01*
X120960339Y-51414784D01*
X121185838Y-51450500D01*
X121185843Y-51450500D01*
X121414162Y-51450500D01*
X121639660Y-51414784D01*
X121695695Y-51396577D01*
X121856799Y-51344231D01*
X122060228Y-51240579D01*
X122244937Y-51106379D01*
X122406379Y-50944937D01*
X122469682Y-50857807D01*
X122525012Y-50815143D01*
X122594626Y-50809164D01*
X122656421Y-50841770D01*
X122670315Y-50857804D01*
X122733621Y-50944937D01*
X122895063Y-51106379D01*
X123079772Y-51240579D01*
X123134690Y-51268561D01*
X123283196Y-51344229D01*
X123283198Y-51344229D01*
X123283201Y-51344231D01*
X123399592Y-51382049D01*
X123500339Y-51414784D01*
X123725838Y-51450500D01*
X123725843Y-51450500D01*
X123954162Y-51450500D01*
X124179660Y-51414784D01*
X124235695Y-51396577D01*
X124396799Y-51344231D01*
X124600228Y-51240579D01*
X124784937Y-51106379D01*
X124946379Y-50944937D01*
X125009682Y-50857807D01*
X125065012Y-50815143D01*
X125134626Y-50809164D01*
X125196421Y-50841770D01*
X125210315Y-50857804D01*
X125273621Y-50944937D01*
X125435063Y-51106379D01*
X125619772Y-51240579D01*
X125674690Y-51268561D01*
X125823196Y-51344229D01*
X125823198Y-51344229D01*
X125823201Y-51344231D01*
X125939592Y-51382049D01*
X126040339Y-51414784D01*
X126265838Y-51450500D01*
X126265843Y-51450500D01*
X126494162Y-51450500D01*
X126719660Y-51414784D01*
X126775695Y-51396577D01*
X126936799Y-51344231D01*
X127140228Y-51240579D01*
X127324937Y-51106379D01*
X127486379Y-50944937D01*
X127549682Y-50857807D01*
X127605012Y-50815143D01*
X127674626Y-50809164D01*
X127736421Y-50841770D01*
X127750315Y-50857804D01*
X127813621Y-50944937D01*
X127975063Y-51106379D01*
X128159772Y-51240579D01*
X128214690Y-51268561D01*
X128363196Y-51344229D01*
X128363198Y-51344229D01*
X128363201Y-51344231D01*
X128479592Y-51382049D01*
X128580339Y-51414784D01*
X128805838Y-51450500D01*
X128805843Y-51450500D01*
X129034162Y-51450500D01*
X129259660Y-51414784D01*
X129315695Y-51396577D01*
X129476799Y-51344231D01*
X129680228Y-51240579D01*
X129864937Y-51106379D01*
X130026379Y-50944937D01*
X130089682Y-50857807D01*
X130145012Y-50815143D01*
X130214626Y-50809164D01*
X130276421Y-50841770D01*
X130290315Y-50857804D01*
X130353621Y-50944937D01*
X130515063Y-51106379D01*
X130699772Y-51240579D01*
X130903201Y-51344231D01*
X131064305Y-51396577D01*
X131121981Y-51436015D01*
X131147987Y-51497554D01*
X131148311Y-51497490D01*
X131148622Y-51499056D01*
X131149179Y-51500373D01*
X131149389Y-51502345D01*
X131149499Y-51503463D01*
X131189868Y-51706412D01*
X131189870Y-51706420D01*
X131269058Y-51897596D01*
X131384024Y-52069657D01*
X131530342Y-52215975D01*
X131530345Y-52215977D01*
X131702402Y-52330941D01*
X131893580Y-52410130D01*
X132096530Y-52450499D01*
X132096534Y-52450500D01*
X132096535Y-52450500D01*
X132303466Y-52450500D01*
X132303467Y-52450499D01*
X132506420Y-52410130D01*
X132697598Y-52330941D01*
X132869655Y-52215977D01*
X133015977Y-52069655D01*
X133130941Y-51897598D01*
X133210130Y-51706420D01*
X133250500Y-51503465D01*
X133250500Y-51335600D01*
X133270185Y-51268561D01*
X133322989Y-51222806D01*
X133392147Y-51212862D01*
X133430796Y-51225116D01*
X133481780Y-51251094D01*
X133683870Y-51316757D01*
X133893754Y-51350000D01*
X134106246Y-51350000D01*
X134316127Y-51316757D01*
X134316130Y-51316757D01*
X134518217Y-51251095D01*
X134707554Y-51154622D01*
X134761716Y-51115270D01*
X134761717Y-51115270D01*
X134129409Y-50482962D01*
X134192993Y-50465925D01*
X134307007Y-50400099D01*
X134400099Y-50307007D01*
X134465925Y-50192993D01*
X134482962Y-50129408D01*
X135115270Y-50761717D01*
X135115270Y-50761716D01*
X135154622Y-50707554D01*
X135159514Y-50697954D01*
X135207488Y-50647157D01*
X135275308Y-50630361D01*
X135341444Y-50652897D01*
X135380486Y-50697954D01*
X135385375Y-50707550D01*
X135424728Y-50761716D01*
X136057037Y-50129408D01*
X136074075Y-50192993D01*
X136139901Y-50307007D01*
X136232993Y-50400099D01*
X136347007Y-50465925D01*
X136410590Y-50482962D01*
X135778282Y-51115269D01*
X135778282Y-51115270D01*
X135832449Y-51154624D01*
X136021782Y-51251095D01*
X136223870Y-51316757D01*
X136433754Y-51350000D01*
X136646246Y-51350000D01*
X136856127Y-51316757D01*
X136856130Y-51316757D01*
X137058217Y-51251095D01*
X137247554Y-51154622D01*
X137301716Y-51115270D01*
X137301717Y-51115270D01*
X136669408Y-50482962D01*
X136732993Y-50465925D01*
X136847007Y-50400099D01*
X136940099Y-50307007D01*
X137005925Y-50192993D01*
X137022962Y-50129409D01*
X137655270Y-50761717D01*
X137662002Y-50761187D01*
X137702896Y-50729653D01*
X137772509Y-50723672D01*
X137834305Y-50756277D01*
X137848204Y-50772317D01*
X137973621Y-50944937D01*
X138135063Y-51106379D01*
X138319772Y-51240579D01*
X138374690Y-51268561D01*
X138523196Y-51344229D01*
X138523198Y-51344229D01*
X138523201Y-51344231D01*
X138639592Y-51382049D01*
X138740339Y-51414784D01*
X138965838Y-51450500D01*
X138965843Y-51450500D01*
X139194162Y-51450500D01*
X139419660Y-51414784D01*
X139475695Y-51396577D01*
X139636799Y-51344231D01*
X139840228Y-51240579D01*
X140024937Y-51106379D01*
X140186379Y-50944937D01*
X140320579Y-50760228D01*
X140424231Y-50556799D01*
X140494784Y-50339660D01*
X140506695Y-50264457D01*
X140530500Y-50114162D01*
X140530500Y-49885837D01*
X140494784Y-49660339D01*
X140424229Y-49443196D01*
X140352491Y-49302403D01*
X140320579Y-49239772D01*
X140186379Y-49055063D01*
X140024937Y-48893621D01*
X139840228Y-48759421D01*
X139819587Y-48748904D01*
X139636803Y-48655770D01*
X139419660Y-48585215D01*
X139194162Y-48549500D01*
X139194157Y-48549500D01*
X138965843Y-48549500D01*
X138965838Y-48549500D01*
X138740339Y-48585215D01*
X138523196Y-48655770D01*
X138319771Y-48759421D01*
X138135061Y-48893622D01*
X137973622Y-49055061D01*
X137848205Y-49227682D01*
X137792874Y-49270347D01*
X137723261Y-49276326D01*
X137661466Y-49243720D01*
X137656862Y-49238407D01*
X137655269Y-49238282D01*
X137022962Y-49870590D01*
X137005925Y-49807007D01*
X136940099Y-49692993D01*
X136847007Y-49599901D01*
X136732993Y-49534075D01*
X136669409Y-49517037D01*
X137301716Y-48884728D01*
X137247550Y-48845375D01*
X137058217Y-48748904D01*
X136856129Y-48683242D01*
X136646246Y-48650000D01*
X136433754Y-48650000D01*
X136223872Y-48683242D01*
X136223869Y-48683242D01*
X136021782Y-48748904D01*
X135832439Y-48845380D01*
X135778282Y-48884727D01*
X135778282Y-48884728D01*
X136410591Y-49517037D01*
X136347007Y-49534075D01*
X136232993Y-49599901D01*
X136139901Y-49692993D01*
X136074075Y-49807007D01*
X136057037Y-49870591D01*
X135424728Y-49238282D01*
X135424727Y-49238282D01*
X135385380Y-49292440D01*
X135380483Y-49302051D01*
X135332506Y-49352845D01*
X135264684Y-49369638D01*
X135198550Y-49347098D01*
X135159516Y-49302048D01*
X135154626Y-49292452D01*
X135115270Y-49238282D01*
X135115269Y-49238282D01*
X134482962Y-49870590D01*
X134465925Y-49807007D01*
X134400099Y-49692993D01*
X134307007Y-49599901D01*
X134192993Y-49534075D01*
X134129407Y-49517036D01*
X134761716Y-48884728D01*
X134707550Y-48845375D01*
X134518217Y-48748904D01*
X134316129Y-48683242D01*
X134106246Y-48650000D01*
X133893754Y-48650000D01*
X133745259Y-48673519D01*
X133675965Y-48664564D01*
X133622513Y-48619568D01*
X133601874Y-48552816D01*
X133609576Y-48512615D01*
X133608362Y-48512247D01*
X133610124Y-48506432D01*
X133610130Y-48506420D01*
X133650500Y-48303465D01*
X133650500Y-48096535D01*
X133610130Y-47893580D01*
X133530941Y-47702402D01*
X133415977Y-47530345D01*
X133415975Y-47530342D01*
X133269657Y-47384024D01*
X133183626Y-47326541D01*
X133097598Y-47269059D01*
X132906420Y-47189870D01*
X132906412Y-47189868D01*
X132703469Y-47149500D01*
X132703465Y-47149500D01*
X132496535Y-47149500D01*
X132496530Y-47149500D01*
X132293587Y-47189868D01*
X132293579Y-47189870D01*
X132102403Y-47269058D01*
X131930342Y-47384024D01*
X131784024Y-47530342D01*
X131669058Y-47702403D01*
X131589870Y-47893579D01*
X131589868Y-47893587D01*
X131549500Y-48096530D01*
X131549500Y-48303468D01*
X131568962Y-48401309D01*
X131562735Y-48470900D01*
X131519872Y-48526078D01*
X131453982Y-48549322D01*
X131447345Y-48549500D01*
X131345838Y-48549500D01*
X131120339Y-48585215D01*
X130903196Y-48655770D01*
X130699771Y-48759421D01*
X130515061Y-48893622D01*
X130353623Y-49055060D01*
X130353616Y-49055069D01*
X130290317Y-49142191D01*
X130234987Y-49184857D01*
X130165373Y-49190835D01*
X130103579Y-49158228D01*
X130089683Y-49142191D01*
X130026383Y-49055069D01*
X130026379Y-49055063D01*
X129864937Y-48893621D01*
X129680228Y-48759421D01*
X129659587Y-48748904D01*
X129476803Y-48655770D01*
X129259660Y-48585215D01*
X129034162Y-48549500D01*
X129034157Y-48549500D01*
X128805843Y-48549500D01*
X128805838Y-48549500D01*
X128580339Y-48585215D01*
X128363196Y-48655770D01*
X128159771Y-48759421D01*
X127975061Y-48893622D01*
X127813623Y-49055060D01*
X127813616Y-49055069D01*
X127750317Y-49142191D01*
X127694987Y-49184857D01*
X127625373Y-49190835D01*
X127563579Y-49158228D01*
X127549683Y-49142191D01*
X127486383Y-49055069D01*
X127486379Y-49055063D01*
X127324937Y-48893621D01*
X127140228Y-48759421D01*
X127119587Y-48748904D01*
X126936803Y-48655770D01*
X126719660Y-48585215D01*
X126494162Y-48549500D01*
X126494157Y-48549500D01*
X126265843Y-48549500D01*
X126265838Y-48549500D01*
X126040339Y-48585215D01*
X125823196Y-48655770D01*
X125619771Y-48759421D01*
X125435061Y-48893622D01*
X125273623Y-49055060D01*
X125273616Y-49055069D01*
X125210317Y-49142191D01*
X125154987Y-49184857D01*
X125085373Y-49190835D01*
X125023579Y-49158228D01*
X125009683Y-49142191D01*
X124946383Y-49055069D01*
X124946379Y-49055063D01*
X124784937Y-48893621D01*
X124600228Y-48759421D01*
X124579587Y-48748904D01*
X124396803Y-48655770D01*
X124179660Y-48585215D01*
X123954162Y-48549500D01*
X123954157Y-48549500D01*
X123725843Y-48549500D01*
X123725838Y-48549500D01*
X123500339Y-48585215D01*
X123283196Y-48655770D01*
X123079771Y-48759421D01*
X122895061Y-48893622D01*
X122733623Y-49055060D01*
X122733616Y-49055069D01*
X122670317Y-49142191D01*
X122614987Y-49184857D01*
X122545373Y-49190835D01*
X122483579Y-49158228D01*
X122469683Y-49142191D01*
X122406383Y-49055069D01*
X122406379Y-49055063D01*
X122244937Y-48893621D01*
X122060228Y-48759421D01*
X122039587Y-48748904D01*
X121856803Y-48655770D01*
X121639660Y-48585215D01*
X121414162Y-48549500D01*
X121414157Y-48549500D01*
X121185843Y-48549500D01*
X121185838Y-48549500D01*
X120960339Y-48585215D01*
X120743196Y-48655770D01*
X120539771Y-48759421D01*
X120355061Y-48893622D01*
X120193623Y-49055060D01*
X120193616Y-49055069D01*
X120130317Y-49142191D01*
X120074987Y-49184857D01*
X120005373Y-49190835D01*
X119943579Y-49158228D01*
X119929683Y-49142191D01*
X119866383Y-49055069D01*
X119866379Y-49055063D01*
X119704937Y-48893621D01*
X119520228Y-48759421D01*
X119499587Y-48748904D01*
X119316803Y-48655770D01*
X119099660Y-48585215D01*
X118874162Y-48549500D01*
X118874157Y-48549500D01*
X118645843Y-48549500D01*
X118645838Y-48549500D01*
X118420339Y-48585215D01*
X118203196Y-48655770D01*
X117999771Y-48759421D01*
X117815061Y-48893622D01*
X117653623Y-49055060D01*
X117653616Y-49055069D01*
X117590317Y-49142191D01*
X117534987Y-49184857D01*
X117465373Y-49190835D01*
X117403579Y-49158228D01*
X117389683Y-49142191D01*
X117326383Y-49055069D01*
X117326379Y-49055063D01*
X117164937Y-48893621D01*
X116980228Y-48759421D01*
X116959587Y-48748904D01*
X116776803Y-48655770D01*
X116559660Y-48585215D01*
X116334162Y-48549500D01*
X116334157Y-48549500D01*
X116105843Y-48549500D01*
X116105838Y-48549500D01*
X115880339Y-48585215D01*
X115663196Y-48655770D01*
X115459771Y-48759421D01*
X115275061Y-48893622D01*
X115113623Y-49055060D01*
X115113616Y-49055069D01*
X115050317Y-49142191D01*
X114994987Y-49184857D01*
X114925373Y-49190835D01*
X114863579Y-49158228D01*
X114849683Y-49142191D01*
X114786383Y-49055069D01*
X114786379Y-49055063D01*
X114624937Y-48893621D01*
X114440228Y-48759421D01*
X114419587Y-48748904D01*
X114236803Y-48655770D01*
X114019660Y-48585215D01*
X113794162Y-48549500D01*
X113794157Y-48549500D01*
X113565843Y-48549500D01*
X113565838Y-48549500D01*
X113340339Y-48585215D01*
X113123196Y-48655770D01*
X112919771Y-48759421D01*
X112735061Y-48893622D01*
X112573623Y-49055060D01*
X112573616Y-49055069D01*
X112510317Y-49142191D01*
X112454987Y-49184857D01*
X112385373Y-49190835D01*
X112323579Y-49158228D01*
X112309683Y-49142191D01*
X112246383Y-49055069D01*
X112246379Y-49055063D01*
X112084937Y-48893621D01*
X111900228Y-48759421D01*
X111879587Y-48748904D01*
X111696803Y-48655770D01*
X111479660Y-48585215D01*
X111254162Y-48549500D01*
X111254157Y-48549500D01*
X111025843Y-48549500D01*
X111025838Y-48549500D01*
X110800339Y-48585215D01*
X110583196Y-48655770D01*
X110379771Y-48759421D01*
X110195061Y-48893622D01*
X110033623Y-49055060D01*
X110033616Y-49055069D01*
X109970317Y-49142191D01*
X109914987Y-49184857D01*
X109845373Y-49190835D01*
X109783579Y-49158228D01*
X109769683Y-49142191D01*
X109706383Y-49055069D01*
X109706379Y-49055063D01*
X109544937Y-48893621D01*
X109360228Y-48759421D01*
X109339587Y-48748904D01*
X109156803Y-48655770D01*
X108939660Y-48585215D01*
X108714162Y-48549500D01*
X108714157Y-48549500D01*
X108485843Y-48549500D01*
X108485838Y-48549500D01*
X108260339Y-48585215D01*
X108043196Y-48655770D01*
X107839771Y-48759421D01*
X107655061Y-48893622D01*
X107493623Y-49055060D01*
X107493616Y-49055069D01*
X107430317Y-49142191D01*
X107374987Y-49184857D01*
X107305373Y-49190835D01*
X107243579Y-49158228D01*
X107229683Y-49142191D01*
X107166383Y-49055069D01*
X107166379Y-49055063D01*
X107004937Y-48893621D01*
X106820228Y-48759421D01*
X106799587Y-48748904D01*
X106616803Y-48655770D01*
X106399660Y-48585215D01*
X106174162Y-48549500D01*
X106174157Y-48549500D01*
X105945843Y-48549500D01*
X105945838Y-48549500D01*
X105720339Y-48585215D01*
X105503196Y-48655770D01*
X105299771Y-48759421D01*
X105115061Y-48893622D01*
X104953623Y-49055060D01*
X104953616Y-49055069D01*
X104890317Y-49142191D01*
X104834987Y-49184857D01*
X104765373Y-49190835D01*
X104703579Y-49158228D01*
X104689683Y-49142191D01*
X104626383Y-49055069D01*
X104626379Y-49055063D01*
X104464937Y-48893621D01*
X104280228Y-48759421D01*
X104259587Y-48748904D01*
X104076803Y-48655770D01*
X103859660Y-48585215D01*
X103634162Y-48549500D01*
X103634157Y-48549500D01*
X103405843Y-48549500D01*
X103405838Y-48549500D01*
X103180339Y-48585215D01*
X102963196Y-48655770D01*
X102759771Y-48759421D01*
X102575061Y-48893622D01*
X102413623Y-49055060D01*
X102413616Y-49055069D01*
X102350317Y-49142191D01*
X102294987Y-49184857D01*
X102225373Y-49190835D01*
X102163579Y-49158228D01*
X102149683Y-49142191D01*
X102086383Y-49055069D01*
X102086379Y-49055063D01*
X101924937Y-48893621D01*
X101740228Y-48759421D01*
X101719587Y-48748904D01*
X101536803Y-48655770D01*
X101319660Y-48585215D01*
X101094162Y-48549500D01*
X101094157Y-48549500D01*
X100865843Y-48549500D01*
X100865838Y-48549500D01*
X100640339Y-48585215D01*
X100423196Y-48655770D01*
X100219771Y-48759421D01*
X100035061Y-48893622D01*
X99873622Y-49055061D01*
X99739421Y-49239771D01*
X99635770Y-49443196D01*
X99565215Y-49660339D01*
X99529500Y-49885837D01*
X98150500Y-49885837D01*
X98150500Y-49696535D01*
X98110130Y-49493580D01*
X98030941Y-49302402D01*
X97915977Y-49130345D01*
X97915975Y-49130342D01*
X97769657Y-48984024D01*
X97621047Y-48884727D01*
X97597598Y-48869059D01*
X97406420Y-48789870D01*
X97406412Y-48789868D01*
X97203469Y-48749500D01*
X97203465Y-48749500D01*
X96996535Y-48749500D01*
X96996530Y-48749500D01*
X96793587Y-48789868D01*
X96793579Y-48789870D01*
X96602403Y-48869058D01*
X96430342Y-48984024D01*
X96284024Y-49130342D01*
X96169058Y-49302403D01*
X96089870Y-49493579D01*
X96089868Y-49493587D01*
X96049500Y-49696530D01*
X73900500Y-49696530D01*
X73900500Y-41896530D01*
X122549500Y-41896530D01*
X122549500Y-42103469D01*
X122589868Y-42306412D01*
X122589870Y-42306420D01*
X122669058Y-42497596D01*
X122784024Y-42669657D01*
X122930342Y-42815975D01*
X122930345Y-42815977D01*
X123102402Y-42930941D01*
X123293580Y-43010130D01*
X123496530Y-43050499D01*
X123496534Y-43050500D01*
X123496535Y-43050500D01*
X123703466Y-43050500D01*
X123703467Y-43050499D01*
X123906420Y-43010130D01*
X124097598Y-42930941D01*
X124269655Y-42815977D01*
X124415977Y-42669655D01*
X124530941Y-42497598D01*
X124610130Y-42306420D01*
X124650500Y-42103465D01*
X124650500Y-41896535D01*
X124610130Y-41693580D01*
X124530941Y-41502402D01*
X124415977Y-41330345D01*
X124415975Y-41330342D01*
X124269657Y-41184024D01*
X124183626Y-41126541D01*
X124097598Y-41069059D01*
X123906420Y-40989870D01*
X123906412Y-40989868D01*
X123703469Y-40949500D01*
X123703465Y-40949500D01*
X123496535Y-40949500D01*
X123496530Y-40949500D01*
X123293587Y-40989868D01*
X123293579Y-40989870D01*
X123102403Y-41069058D01*
X122930342Y-41184024D01*
X122784024Y-41330342D01*
X122669058Y-41502403D01*
X122589870Y-41693579D01*
X122589868Y-41693587D01*
X122549500Y-41896530D01*
X73900500Y-41896530D01*
X73900500Y-38096530D01*
X87349500Y-38096530D01*
X87349500Y-38303469D01*
X87389868Y-38506412D01*
X87389870Y-38506420D01*
X87469058Y-38697596D01*
X87584024Y-38869657D01*
X87730342Y-39015975D01*
X87730345Y-39015977D01*
X87902402Y-39130941D01*
X88093580Y-39210130D01*
X88296530Y-39250499D01*
X88296534Y-39250500D01*
X88296535Y-39250500D01*
X88503466Y-39250500D01*
X88503467Y-39250499D01*
X88706420Y-39210130D01*
X88897598Y-39130941D01*
X89069655Y-39015977D01*
X89215977Y-38869655D01*
X89330941Y-38697598D01*
X89410130Y-38506420D01*
X89450500Y-38303465D01*
X89450500Y-38096535D01*
X89410717Y-37896530D01*
X94549500Y-37896530D01*
X94549500Y-38103469D01*
X94589282Y-38303465D01*
X94589870Y-38306420D01*
X94669059Y-38497598D01*
X94674954Y-38506420D01*
X94784024Y-38669657D01*
X94930342Y-38815975D01*
X94930345Y-38815977D01*
X95102402Y-38930941D01*
X95293580Y-39010130D01*
X95496530Y-39050499D01*
X95496534Y-39050500D01*
X95496535Y-39050500D01*
X95703466Y-39050500D01*
X95703467Y-39050499D01*
X95906420Y-39010130D01*
X96097598Y-38930941D01*
X96269655Y-38815977D01*
X96415977Y-38669655D01*
X96530941Y-38497598D01*
X96610130Y-38306420D01*
X96650500Y-38103465D01*
X96650500Y-37896535D01*
X96610130Y-37693580D01*
X96530941Y-37502402D01*
X96415977Y-37330345D01*
X96415975Y-37330342D01*
X96269657Y-37184024D01*
X96183626Y-37126541D01*
X96097598Y-37069059D01*
X95906420Y-36989870D01*
X95906412Y-36989868D01*
X95703469Y-36949500D01*
X95703465Y-36949500D01*
X95496535Y-36949500D01*
X95496530Y-36949500D01*
X95293587Y-36989868D01*
X95293579Y-36989870D01*
X95102403Y-37069058D01*
X94930342Y-37184024D01*
X94784024Y-37330342D01*
X94669058Y-37502403D01*
X94589870Y-37693579D01*
X94589868Y-37693587D01*
X94549500Y-37896530D01*
X89410717Y-37896530D01*
X89410130Y-37893580D01*
X89330941Y-37702402D01*
X89215977Y-37530345D01*
X89215975Y-37530342D01*
X89069657Y-37384024D01*
X88983626Y-37326541D01*
X88897598Y-37269059D01*
X88706420Y-37189870D01*
X88706412Y-37189868D01*
X88503469Y-37149500D01*
X88503465Y-37149500D01*
X88296535Y-37149500D01*
X88296530Y-37149500D01*
X88093587Y-37189868D01*
X88093579Y-37189870D01*
X87902403Y-37269058D01*
X87730342Y-37384024D01*
X87584024Y-37530342D01*
X87469058Y-37702403D01*
X87389870Y-37893579D01*
X87389868Y-37893587D01*
X87349500Y-38096530D01*
X73900500Y-38096530D01*
X73900500Y-34696530D01*
X79749500Y-34696530D01*
X79749500Y-34903469D01*
X79789868Y-35106412D01*
X79789870Y-35106420D01*
X79869058Y-35297596D01*
X79984024Y-35469657D01*
X80130342Y-35615975D01*
X80130345Y-35615977D01*
X80302402Y-35730941D01*
X80493580Y-35810130D01*
X80696530Y-35850499D01*
X80696534Y-35850500D01*
X80696535Y-35850500D01*
X80903466Y-35850500D01*
X80903467Y-35850499D01*
X81106420Y-35810130D01*
X81297598Y-35730941D01*
X81469655Y-35615977D01*
X81615977Y-35469655D01*
X81730941Y-35297598D01*
X81810130Y-35106420D01*
X81850500Y-34903465D01*
X81850500Y-34696535D01*
X81810130Y-34493580D01*
X81730941Y-34302402D01*
X81615977Y-34130345D01*
X81615975Y-34130342D01*
X81469657Y-33984024D01*
X81341507Y-33898398D01*
X81297598Y-33869059D01*
X81218086Y-33836124D01*
X81106420Y-33789870D01*
X81106412Y-33789868D01*
X80903469Y-33749500D01*
X80903465Y-33749500D01*
X80696535Y-33749500D01*
X80696530Y-33749500D01*
X80493587Y-33789868D01*
X80493579Y-33789870D01*
X80302403Y-33869058D01*
X80130342Y-33984024D01*
X79984024Y-34130342D01*
X79869058Y-34302403D01*
X79789870Y-34493579D01*
X79789868Y-34493587D01*
X79749500Y-34696530D01*
X73900500Y-34696530D01*
X73900500Y-32800537D01*
X73920185Y-32733498D01*
X73972989Y-32687743D01*
X74042147Y-32677799D01*
X74105703Y-32706824D01*
X74131887Y-32738538D01*
X74233072Y-32913798D01*
X74233074Y-32913802D01*
X74392718Y-33121851D01*
X74392726Y-33121860D01*
X74578140Y-33307274D01*
X74578148Y-33307281D01*
X74578149Y-33307282D01*
X74626554Y-33344424D01*
X74786196Y-33466924D01*
X75013299Y-33598041D01*
X75013309Y-33598046D01*
X75224213Y-33685405D01*
X75255581Y-33698398D01*
X75508884Y-33766270D01*
X75768880Y-33800500D01*
X75768887Y-33800500D01*
X76031113Y-33800500D01*
X76031120Y-33800500D01*
X76291116Y-33766270D01*
X76544419Y-33698398D01*
X76723648Y-33624159D01*
X76786690Y-33598046D01*
X76786691Y-33598045D01*
X76786697Y-33598043D01*
X77013803Y-33466924D01*
X77221851Y-33307282D01*
X77221855Y-33307277D01*
X77221860Y-33307274D01*
X77407274Y-33121860D01*
X77407277Y-33121855D01*
X77407282Y-33121851D01*
X77566924Y-32913803D01*
X77698043Y-32686697D01*
X77741092Y-32582768D01*
X81620500Y-32582768D01*
X81620500Y-32817231D01*
X81657175Y-33048792D01*
X81729627Y-33271774D01*
X81809228Y-33427998D01*
X81836065Y-33480668D01*
X81973873Y-33670344D01*
X82139656Y-33836127D01*
X82329332Y-33973935D01*
X82381467Y-34000499D01*
X82538225Y-34080372D01*
X82538227Y-34080372D01*
X82538230Y-34080374D01*
X82657752Y-34119209D01*
X82761207Y-34152824D01*
X82992769Y-34189500D01*
X82992774Y-34189500D01*
X83227231Y-34189500D01*
X83458792Y-34152824D01*
X83527984Y-34130342D01*
X83681770Y-34080374D01*
X83890668Y-33973935D01*
X84080344Y-33836127D01*
X84246127Y-33670344D01*
X84279682Y-33624158D01*
X84335011Y-33581493D01*
X84404625Y-33575514D01*
X84466420Y-33608119D01*
X84480315Y-33624155D01*
X84513873Y-33670344D01*
X84679656Y-33836127D01*
X84869332Y-33973935D01*
X84921467Y-34000499D01*
X85078225Y-34080372D01*
X85078227Y-34080372D01*
X85078230Y-34080374D01*
X85197752Y-34119209D01*
X85301207Y-34152824D01*
X85532769Y-34189500D01*
X85532774Y-34189500D01*
X85767231Y-34189500D01*
X85998792Y-34152824D01*
X86067984Y-34130342D01*
X86221770Y-34080374D01*
X86430668Y-33973935D01*
X86620344Y-33836127D01*
X86786127Y-33670344D01*
X86819682Y-33624158D01*
X86875011Y-33581493D01*
X86944625Y-33575514D01*
X87006420Y-33608119D01*
X87020315Y-33624155D01*
X87053873Y-33670344D01*
X87219656Y-33836127D01*
X87409332Y-33973935D01*
X87461467Y-34000499D01*
X87618225Y-34080372D01*
X87618227Y-34080372D01*
X87618230Y-34080374D01*
X87737752Y-34119209D01*
X87841207Y-34152824D01*
X88072769Y-34189500D01*
X88072774Y-34189500D01*
X88307231Y-34189500D01*
X88538792Y-34152824D01*
X88607984Y-34130342D01*
X88761770Y-34080374D01*
X88970668Y-33973935D01*
X89160344Y-33836127D01*
X89326127Y-33670344D01*
X89359682Y-33624158D01*
X89415011Y-33581493D01*
X89484625Y-33575514D01*
X89546420Y-33608119D01*
X89560315Y-33624155D01*
X89593873Y-33670344D01*
X89759656Y-33836127D01*
X89949332Y-33973935D01*
X90001467Y-34000499D01*
X90158225Y-34080372D01*
X90158227Y-34080372D01*
X90158230Y-34080374D01*
X90277752Y-34119209D01*
X90381207Y-34152824D01*
X90612769Y-34189500D01*
X90612774Y-34189500D01*
X90847231Y-34189500D01*
X91078792Y-34152824D01*
X91147984Y-34130342D01*
X91301770Y-34080374D01*
X91510668Y-33973935D01*
X91700344Y-33836127D01*
X91866127Y-33670344D01*
X91899682Y-33624158D01*
X91955011Y-33581493D01*
X92024625Y-33575514D01*
X92086420Y-33608119D01*
X92100315Y-33624155D01*
X92133873Y-33670344D01*
X92299656Y-33836127D01*
X92489332Y-33973935D01*
X92541467Y-34000499D01*
X92698225Y-34080372D01*
X92698227Y-34080372D01*
X92698230Y-34080374D01*
X92817752Y-34119209D01*
X92921207Y-34152824D01*
X93152769Y-34189500D01*
X93152774Y-34189500D01*
X93387231Y-34189500D01*
X93618792Y-34152824D01*
X93687984Y-34130342D01*
X93841770Y-34080374D01*
X94050668Y-33973935D01*
X94240344Y-33836127D01*
X94406127Y-33670344D01*
X94439682Y-33624158D01*
X94495011Y-33581493D01*
X94564625Y-33575514D01*
X94626420Y-33608119D01*
X94640315Y-33624155D01*
X94673873Y-33670344D01*
X94839656Y-33836127D01*
X95029332Y-33973935D01*
X95081467Y-34000499D01*
X95238225Y-34080372D01*
X95238227Y-34080372D01*
X95238230Y-34080374D01*
X95357752Y-34119209D01*
X95461207Y-34152824D01*
X95692769Y-34189500D01*
X95692774Y-34189500D01*
X95927231Y-34189500D01*
X96158792Y-34152824D01*
X96227984Y-34130342D01*
X96381770Y-34080374D01*
X96590668Y-33973935D01*
X96780344Y-33836127D01*
X96946127Y-33670344D01*
X96979682Y-33624158D01*
X97035011Y-33581493D01*
X97104625Y-33575514D01*
X97166420Y-33608119D01*
X97180315Y-33624155D01*
X97213873Y-33670344D01*
X97379656Y-33836127D01*
X97435136Y-33876436D01*
X97477802Y-33931765D01*
X97483781Y-34001378D01*
X97451176Y-34063174D01*
X97449932Y-34064435D01*
X97384025Y-34130341D01*
X97384024Y-34130342D01*
X97269058Y-34302403D01*
X97189870Y-34493579D01*
X97189868Y-34493587D01*
X97149500Y-34696530D01*
X97149500Y-34903469D01*
X97189868Y-35106412D01*
X97189870Y-35106420D01*
X97269058Y-35297596D01*
X97384024Y-35469657D01*
X97530342Y-35615975D01*
X97530345Y-35615977D01*
X97702402Y-35730941D01*
X97893580Y-35810130D01*
X98096530Y-35850499D01*
X98096534Y-35850500D01*
X98096535Y-35850500D01*
X98303466Y-35850500D01*
X98303467Y-35850499D01*
X98506420Y-35810130D01*
X98697598Y-35730941D01*
X98749098Y-35696530D01*
X109949500Y-35696530D01*
X109949500Y-35903469D01*
X109989868Y-36106412D01*
X109989870Y-36106420D01*
X110069058Y-36297596D01*
X110184024Y-36469657D01*
X110330342Y-36615975D01*
X110330345Y-36615977D01*
X110502402Y-36730941D01*
X110693580Y-36810130D01*
X110896530Y-36850499D01*
X110896534Y-36850500D01*
X110896535Y-36850500D01*
X111103466Y-36850500D01*
X111103467Y-36850499D01*
X111306420Y-36810130D01*
X111497598Y-36730941D01*
X111669655Y-36615977D01*
X111815977Y-36469655D01*
X111930941Y-36297598D01*
X112010130Y-36106420D01*
X112050500Y-35903465D01*
X112050500Y-35696535D01*
X112010130Y-35493580D01*
X111930941Y-35302402D01*
X111815977Y-35130345D01*
X111815975Y-35130342D01*
X111669657Y-34984024D01*
X111583626Y-34926541D01*
X111497598Y-34869059D01*
X111306420Y-34789870D01*
X111306412Y-34789868D01*
X111103469Y-34749500D01*
X111103465Y-34749500D01*
X110896535Y-34749500D01*
X110896530Y-34749500D01*
X110693587Y-34789868D01*
X110693579Y-34789870D01*
X110502403Y-34869058D01*
X110330342Y-34984024D01*
X110184024Y-35130342D01*
X110069058Y-35302403D01*
X109989870Y-35493579D01*
X109989868Y-35493587D01*
X109949500Y-35696530D01*
X98749098Y-35696530D01*
X98869655Y-35615977D01*
X98869658Y-35615974D01*
X98882871Y-35602762D01*
X99015974Y-35469658D01*
X99015975Y-35469657D01*
X99015977Y-35469655D01*
X99130941Y-35297598D01*
X99210130Y-35106420D01*
X99250500Y-34903465D01*
X99250500Y-34696535D01*
X99210130Y-34493580D01*
X99130941Y-34302402D01*
X99044664Y-34173279D01*
X99023788Y-34106603D01*
X99042273Y-34039223D01*
X99091473Y-33993905D01*
X99130668Y-33973935D01*
X99320344Y-33836127D01*
X99486127Y-33670344D01*
X99581794Y-33538670D01*
X99637124Y-33496004D01*
X99706737Y-33490025D01*
X99768532Y-33522631D01*
X99782430Y-33538670D01*
X99830524Y-33604866D01*
X99830528Y-33604871D01*
X99985128Y-33759471D01*
X99985133Y-33759475D01*
X100162001Y-33887976D01*
X100356808Y-33987237D01*
X100356811Y-33987238D01*
X100564739Y-34054797D01*
X100639999Y-34066717D01*
X100640000Y-34066717D01*
X100640000Y-33133012D01*
X100697007Y-33165925D01*
X100824174Y-33200000D01*
X100955826Y-33200000D01*
X101082993Y-33165925D01*
X101140000Y-33133012D01*
X101140000Y-34066717D01*
X101215258Y-34054797D01*
X101215261Y-34054797D01*
X101423188Y-33987238D01*
X101423191Y-33987237D01*
X101617998Y-33887976D01*
X101794866Y-33759475D01*
X101794871Y-33759471D01*
X101949471Y-33604871D01*
X101949475Y-33604866D01*
X102077976Y-33427998D01*
X102177237Y-33233191D01*
X102177238Y-33233188D01*
X102244798Y-33025258D01*
X102256718Y-32950000D01*
X101323012Y-32950000D01*
X101355925Y-32892993D01*
X101390000Y-32765826D01*
X101390000Y-32634174D01*
X101355925Y-32507007D01*
X101323012Y-32450000D01*
X102256718Y-32450000D01*
X102244798Y-32374741D01*
X102177238Y-32166811D01*
X102177237Y-32166808D01*
X102077976Y-31972001D01*
X101949475Y-31795133D01*
X101949471Y-31795128D01*
X101794871Y-31640528D01*
X101794866Y-31640524D01*
X101617998Y-31512023D01*
X101423191Y-31412762D01*
X101423188Y-31412761D01*
X101215258Y-31345201D01*
X101140000Y-31333281D01*
X101140000Y-32266988D01*
X101082993Y-32234075D01*
X100955826Y-32200000D01*
X100824174Y-32200000D01*
X100697007Y-32234075D01*
X100640000Y-32266988D01*
X100640000Y-31333281D01*
X100564741Y-31345201D01*
X100356811Y-31412761D01*
X100356808Y-31412762D01*
X100162001Y-31512023D01*
X99985133Y-31640524D01*
X99985128Y-31640528D01*
X99830528Y-31795128D01*
X99782430Y-31861330D01*
X99727100Y-31903995D01*
X99657486Y-31909974D01*
X99595691Y-31877368D01*
X99581794Y-31861330D01*
X99580729Y-31859865D01*
X99486127Y-31729656D01*
X99320344Y-31563873D01*
X99130668Y-31426065D01*
X99111992Y-31416549D01*
X98921774Y-31319627D01*
X98698792Y-31247175D01*
X98467231Y-31210500D01*
X98467226Y-31210500D01*
X98232774Y-31210500D01*
X98232769Y-31210500D01*
X98001207Y-31247175D01*
X97778225Y-31319627D01*
X97569331Y-31426065D01*
X97517291Y-31463875D01*
X97379656Y-31563873D01*
X97379654Y-31563875D01*
X97379653Y-31563875D01*
X97213872Y-31729656D01*
X97180317Y-31775841D01*
X97124987Y-31818506D01*
X97055373Y-31824484D01*
X96993579Y-31791877D01*
X96979683Y-31775841D01*
X96946127Y-31729656D01*
X96780346Y-31563875D01*
X96780344Y-31563873D01*
X96590668Y-31426065D01*
X96571992Y-31416549D01*
X96381774Y-31319627D01*
X96158792Y-31247175D01*
X95927231Y-31210500D01*
X95927226Y-31210500D01*
X95692774Y-31210500D01*
X95692769Y-31210500D01*
X95461207Y-31247175D01*
X95238225Y-31319627D01*
X95029331Y-31426065D01*
X94977291Y-31463875D01*
X94839656Y-31563873D01*
X94839654Y-31563875D01*
X94839653Y-31563875D01*
X94673872Y-31729656D01*
X94640317Y-31775841D01*
X94584987Y-31818506D01*
X94515373Y-31824484D01*
X94453579Y-31791877D01*
X94439683Y-31775841D01*
X94406127Y-31729656D01*
X94240346Y-31563875D01*
X94240344Y-31563873D01*
X94050668Y-31426065D01*
X94031992Y-31416549D01*
X93841774Y-31319627D01*
X93618792Y-31247175D01*
X93387231Y-31210500D01*
X93387226Y-31210500D01*
X93152774Y-31210500D01*
X93152769Y-31210500D01*
X92921207Y-31247175D01*
X92698225Y-31319627D01*
X92489331Y-31426065D01*
X92437291Y-31463875D01*
X92299656Y-31563873D01*
X92299654Y-31563875D01*
X92299653Y-31563875D01*
X92133872Y-31729656D01*
X92100317Y-31775841D01*
X92044987Y-31818506D01*
X91975373Y-31824484D01*
X91913579Y-31791877D01*
X91899683Y-31775841D01*
X91866127Y-31729656D01*
X91700346Y-31563875D01*
X91700344Y-31563873D01*
X91510668Y-31426065D01*
X91491992Y-31416549D01*
X91301774Y-31319627D01*
X91078792Y-31247175D01*
X90847231Y-31210500D01*
X90847226Y-31210500D01*
X90612774Y-31210500D01*
X90612769Y-31210500D01*
X90381207Y-31247175D01*
X90158225Y-31319627D01*
X89949331Y-31426065D01*
X89897291Y-31463875D01*
X89759656Y-31563873D01*
X89759654Y-31563875D01*
X89759653Y-31563875D01*
X89593872Y-31729656D01*
X89560317Y-31775841D01*
X89504987Y-31818506D01*
X89435373Y-31824484D01*
X89373579Y-31791877D01*
X89359683Y-31775841D01*
X89326127Y-31729656D01*
X89160346Y-31563875D01*
X89160344Y-31563873D01*
X88970668Y-31426065D01*
X88951992Y-31416549D01*
X88761774Y-31319627D01*
X88538792Y-31247175D01*
X88307231Y-31210500D01*
X88307226Y-31210500D01*
X88072774Y-31210500D01*
X88072769Y-31210500D01*
X87841207Y-31247175D01*
X87618225Y-31319627D01*
X87409331Y-31426065D01*
X87357291Y-31463875D01*
X87219656Y-31563873D01*
X87219654Y-31563875D01*
X87219653Y-31563875D01*
X87053872Y-31729656D01*
X87020317Y-31775841D01*
X86964987Y-31818506D01*
X86895373Y-31824484D01*
X86833579Y-31791877D01*
X86819683Y-31775841D01*
X86786127Y-31729656D01*
X86620346Y-31563875D01*
X86620344Y-31563873D01*
X86430668Y-31426065D01*
X86411992Y-31416549D01*
X86221774Y-31319627D01*
X85998792Y-31247175D01*
X85767231Y-31210500D01*
X85767226Y-31210500D01*
X85532774Y-31210500D01*
X85532769Y-31210500D01*
X85301207Y-31247175D01*
X85078225Y-31319627D01*
X84869331Y-31426065D01*
X84817291Y-31463875D01*
X84679656Y-31563873D01*
X84679654Y-31563875D01*
X84679653Y-31563875D01*
X84513872Y-31729656D01*
X84480317Y-31775841D01*
X84424987Y-31818506D01*
X84355373Y-31824484D01*
X84293579Y-31791877D01*
X84279683Y-31775841D01*
X84246127Y-31729656D01*
X84080346Y-31563875D01*
X84080344Y-31563873D01*
X83890668Y-31426065D01*
X83871992Y-31416549D01*
X83681774Y-31319627D01*
X83458792Y-31247175D01*
X83227231Y-31210500D01*
X83227226Y-31210500D01*
X82992774Y-31210500D01*
X82992769Y-31210500D01*
X82761207Y-31247175D01*
X82538225Y-31319627D01*
X82329331Y-31426065D01*
X82277291Y-31463875D01*
X82139656Y-31563873D01*
X82139654Y-31563875D01*
X82139653Y-31563875D01*
X81973875Y-31729653D01*
X81973875Y-31729654D01*
X81973873Y-31729656D01*
X81940318Y-31775841D01*
X81836065Y-31919331D01*
X81729627Y-32128225D01*
X81657175Y-32351207D01*
X81620500Y-32582768D01*
X77741092Y-32582768D01*
X77798398Y-32444419D01*
X77866270Y-32191116D01*
X77900500Y-31931120D01*
X77900500Y-31668880D01*
X77866270Y-31408884D01*
X77798398Y-31155581D01*
X77783047Y-31118520D01*
X77698046Y-30913309D01*
X77698041Y-30913299D01*
X77566924Y-30686196D01*
X77407281Y-30478148D01*
X77407274Y-30478140D01*
X77221860Y-30292726D01*
X77221851Y-30292718D01*
X77013803Y-30133075D01*
X76838538Y-30031887D01*
X76790323Y-29981320D01*
X76777099Y-29912713D01*
X76803067Y-29847849D01*
X76859981Y-29807320D01*
X76900538Y-29800500D01*
X118527370Y-29800500D01*
X118594409Y-29820185D01*
G37*
%TD.AperFunction*%
%TD*%
M02*
