%TF.GenerationSoftware,KiCad,Pcbnew,9.0.7*%
%TF.CreationDate,2026-02-04T13:12:15-08:00*%
%TF.ProjectId,BasicDatalogger,42617369-6344-4617-9461-6c6f67676572,rev?*%
%TF.SameCoordinates,Original*%
%TF.FileFunction,Soldermask,Bot*%
%TF.FilePolarity,Negative*%
%FSLAX46Y46*%
G04 Gerber Fmt 4.6, Leading zero omitted, Abs format (unit mm)*
G04 Created by KiCad (PCBNEW 9.0.7) date 2026-02-04 13:12:15*
%MOMM*%
%LPD*%
G01*
G04 APERTURE LIST*
%ADD10R,1.700000X1.700000*%
%ADD11C,1.700000*%
%ADD12C,1.879600*%
%ADD13C,1.500000*%
G04 APERTURE END LIST*
D10*
%TO.C,3*%
X105140000Y-74400000D03*
D11*
X102600000Y-74400000D03*
X100060000Y-74400000D03*
%TD*%
D10*
%TO.C,2*%
X113740000Y-74400000D03*
D11*
X111200000Y-74400000D03*
X108660000Y-74400000D03*
%TD*%
D10*
%TO.C,1*%
X122280000Y-74400000D03*
D11*
X119740000Y-74400000D03*
X117200000Y-74400000D03*
%TD*%
%TO.C,U1*%
X139080000Y-50000000D03*
X136540000Y-50000000D03*
X134000000Y-50000000D03*
X131460000Y-50000000D03*
X128920000Y-50000000D03*
X126380000Y-50000000D03*
X123840000Y-50000000D03*
X121300000Y-50000000D03*
X118760000Y-50000000D03*
X116220000Y-50000000D03*
X113680000Y-50000000D03*
X111140000Y-50000000D03*
X108600000Y-50000000D03*
X106060000Y-50000000D03*
X103520000Y-50000000D03*
X100980000Y-50000000D03*
X100980000Y-70320000D03*
X103520000Y-70320000D03*
X106060000Y-70320000D03*
X108600000Y-70320000D03*
X111140000Y-70320000D03*
X113680000Y-70320000D03*
X116220000Y-70320000D03*
X118760000Y-70320000D03*
X121300000Y-70320000D03*
X123840000Y-70320000D03*
X126380000Y-70320000D03*
X128920000Y-70320000D03*
%TD*%
D12*
%TO.C,U2*%
X100890000Y-32700000D03*
X98350000Y-32700000D03*
X95810000Y-32700000D03*
X93270000Y-32700000D03*
X90730000Y-32700000D03*
X88190000Y-32700000D03*
X85650000Y-32700000D03*
X83110000Y-32700000D03*
%TD*%
%TO.C,U4*%
X91513796Y-67972407D03*
X91513796Y-65432407D03*
X91513796Y-62892407D03*
X91513796Y-60352407D03*
X91513796Y-57812407D03*
X91513796Y-55272407D03*
X91513796Y-52732407D03*
%TD*%
%TO.C,U3*%
X124100000Y-32600000D03*
X121560000Y-32600000D03*
X119020000Y-32600000D03*
X116480000Y-32600000D03*
X113940000Y-32600000D03*
X111400000Y-32600000D03*
%TD*%
D13*
%TO.C,TP4*%
X111300000Y-54600000D03*
%TD*%
%TO.C,TP5*%
X107900000Y-54400000D03*
%TD*%
%TO.C,TP6*%
X104300000Y-52600000D03*
%TD*%
%TO.C,TP2*%
X131000000Y-52600000D03*
%TD*%
%TO.C,TP8*%
X103500000Y-67500000D03*
%TD*%
%TO.C,TP3*%
X114700000Y-52800000D03*
%TD*%
%TO.C,TP1*%
X134200000Y-52600000D03*
%TD*%
%TO.C,TP7*%
X101000000Y-67400000D03*
%TD*%
M02*
