%TF.GenerationSoftware,KiCad,Pcbnew,9.0.7*%
%TF.CreationDate,2026-02-04T13:12:11-08:00*%
%TF.ProjectId,BasicDatalogger,42617369-6344-4617-9461-6c6f67676572,rev?*%
%TF.SameCoordinates,Original*%
%TF.FileFunction,Drillmap*%
%TF.FilePolarity,Positive*%
%FSLAX45Y45*%
G04 Gerber Fmt 4.5, Leading zero omitted, Abs format (unit mm)*
G04 Created by KiCad (PCBNEW 9.0.7) date 2026-02-04 13:12:11*
%MOMM*%
%LPD*%
G01*
G04 APERTURE LIST*
%ADD10C,0.050000*%
%ADD11C,0.200000*%
G04 APERTURE END LIST*
D10*
X7340000Y-3180000D02*
G75*
G02*
X7590000Y-2930000I250000J0D01*
G01*
X14660000Y-7440000D02*
G75*
G02*
X14410000Y-7690000I-250000J0D01*
G01*
X7340000Y-7440000D02*
X7340000Y-3180000D01*
X14410000Y-7690000D02*
X7590000Y-7690000D01*
X14660000Y-3180000D02*
X14660000Y-7440000D01*
X14540000Y-3200000D02*
G75*
G02*
X14240000Y-3200000I-150000J0D01*
G01*
X14240000Y-3200000D02*
G75*
G02*
X14540000Y-3200000I150000J0D01*
G01*
X14410000Y-2930000D02*
G75*
G02*
X14660000Y-3180000I0J-250000D01*
G01*
X7590000Y-7690000D02*
G75*
G02*
X7340000Y-7440000I0J250000D01*
G01*
X7740000Y-3180000D02*
G75*
G02*
X7440000Y-3180000I-150000J0D01*
G01*
X7440000Y-3180000D02*
G75*
G02*
X7740000Y-3180000I150000J0D01*
G01*
X7738890Y-7431080D02*
G75*
G02*
X7438890Y-7431080I-150000J0D01*
G01*
X7438890Y-7431080D02*
G75*
G02*
X7738890Y-7431080I150000J0D01*
G01*
X7590000Y-2930000D02*
X14410000Y-2930000D01*
D11*
X7598277Y-8003984D02*
X7598277Y-7803984D01*
X7598277Y-7803984D02*
X7645896Y-7803984D01*
X7645896Y-7803984D02*
X7674467Y-7813508D01*
X7674467Y-7813508D02*
X7693515Y-7832555D01*
X7693515Y-7832555D02*
X7703039Y-7851603D01*
X7703039Y-7851603D02*
X7712562Y-7889698D01*
X7712562Y-7889698D02*
X7712562Y-7918269D01*
X7712562Y-7918269D02*
X7703039Y-7956365D01*
X7703039Y-7956365D02*
X7693515Y-7975412D01*
X7693515Y-7975412D02*
X7674467Y-7994460D01*
X7674467Y-7994460D02*
X7645896Y-8003984D01*
X7645896Y-8003984D02*
X7598277Y-8003984D01*
X7798277Y-8003984D02*
X7798277Y-7870650D01*
X7798277Y-7908746D02*
X7807801Y-7889698D01*
X7807801Y-7889698D02*
X7817324Y-7880174D01*
X7817324Y-7880174D02*
X7836372Y-7870650D01*
X7836372Y-7870650D02*
X7855420Y-7870650D01*
X7922086Y-8003984D02*
X7922086Y-7870650D01*
X7922086Y-7803984D02*
X7912562Y-7813508D01*
X7912562Y-7813508D02*
X7922086Y-7823031D01*
X7922086Y-7823031D02*
X7931610Y-7813508D01*
X7931610Y-7813508D02*
X7922086Y-7803984D01*
X7922086Y-7803984D02*
X7922086Y-7823031D01*
X8045896Y-8003984D02*
X8026848Y-7994460D01*
X8026848Y-7994460D02*
X8017324Y-7975412D01*
X8017324Y-7975412D02*
X8017324Y-7803984D01*
X8150658Y-8003984D02*
X8131610Y-7994460D01*
X8131610Y-7994460D02*
X8122086Y-7975412D01*
X8122086Y-7975412D02*
X8122086Y-7803984D01*
X8379229Y-8003984D02*
X8379229Y-7803984D01*
X8379229Y-7803984D02*
X8445896Y-7946841D01*
X8445896Y-7946841D02*
X8512563Y-7803984D01*
X8512563Y-7803984D02*
X8512563Y-8003984D01*
X8693515Y-8003984D02*
X8693515Y-7899222D01*
X8693515Y-7899222D02*
X8683991Y-7880174D01*
X8683991Y-7880174D02*
X8664944Y-7870650D01*
X8664944Y-7870650D02*
X8626848Y-7870650D01*
X8626848Y-7870650D02*
X8607801Y-7880174D01*
X8693515Y-7994460D02*
X8674467Y-8003984D01*
X8674467Y-8003984D02*
X8626848Y-8003984D01*
X8626848Y-8003984D02*
X8607801Y-7994460D01*
X8607801Y-7994460D02*
X8598277Y-7975412D01*
X8598277Y-7975412D02*
X8598277Y-7956365D01*
X8598277Y-7956365D02*
X8607801Y-7937317D01*
X8607801Y-7937317D02*
X8626848Y-7927793D01*
X8626848Y-7927793D02*
X8674467Y-7927793D01*
X8674467Y-7927793D02*
X8693515Y-7918269D01*
X8788753Y-7870650D02*
X8788753Y-8070650D01*
X8788753Y-7880174D02*
X8807801Y-7870650D01*
X8807801Y-7870650D02*
X8845896Y-7870650D01*
X8845896Y-7870650D02*
X8864944Y-7880174D01*
X8864944Y-7880174D02*
X8874467Y-7889698D01*
X8874467Y-7889698D02*
X8883991Y-7908746D01*
X8883991Y-7908746D02*
X8883991Y-7965888D01*
X8883991Y-7965888D02*
X8874467Y-7984936D01*
X8874467Y-7984936D02*
X8864944Y-7994460D01*
X8864944Y-7994460D02*
X8845896Y-8003984D01*
X8845896Y-8003984D02*
X8807801Y-8003984D01*
X8807801Y-8003984D02*
X8788753Y-7994460D01*
X8969705Y-7984936D02*
X8979229Y-7994460D01*
X8979229Y-7994460D02*
X8969705Y-8003984D01*
X8969705Y-8003984D02*
X8960182Y-7994460D01*
X8960182Y-7994460D02*
X8969705Y-7984936D01*
X8969705Y-7984936D02*
X8969705Y-8003984D01*
X8969705Y-7880174D02*
X8979229Y-7889698D01*
X8979229Y-7889698D02*
X8969705Y-7899222D01*
X8969705Y-7899222D02*
X8960182Y-7889698D01*
X8960182Y-7889698D02*
X8969705Y-7880174D01*
X8969705Y-7880174D02*
X8969705Y-7899222D01*
M02*
