%TF.GenerationSoftware,KiCad,Pcbnew,9.0.7*%
%TF.CreationDate,2026-02-04T09:14:49-08:00*%
%TF.ProjectId,BasicDatalogger,42617369-6344-4617-9461-6c6f67676572,rev?*%
%TF.SameCoordinates,Original*%
%TF.FileFunction,Legend,Bot*%
%TF.FilePolarity,Positive*%
%FSLAX46Y46*%
G04 Gerber Fmt 4.6, Leading zero omitted, Abs format (unit mm)*
G04 Created by KiCad (PCBNEW 9.0.7) date 2026-02-04 09:14:49*
%MOMM*%
%LPD*%
G01*
G04 APERTURE LIST*
%ADD10C,0.200000*%
%ADD11C,0.150000*%
%ADD12C,0.000000*%
%ADD13C,0.120000*%
G04 APERTURE END LIST*
D10*
X121877945Y-127467219D02*
X121877945Y-127657695D01*
X121496993Y-127467219D02*
X121496993Y-127657695D01*
X121068421Y-128467219D02*
X121068421Y-127467219D01*
X121068421Y-127467219D02*
X120735088Y-128181504D01*
X120735088Y-128181504D02*
X120401755Y-127467219D01*
X120401755Y-127467219D02*
X120401755Y-128467219D01*
X119496993Y-128467219D02*
X119496993Y-127943409D01*
X119496993Y-127943409D02*
X119544612Y-127848171D01*
X119544612Y-127848171D02*
X119639850Y-127800552D01*
X119639850Y-127800552D02*
X119830326Y-127800552D01*
X119830326Y-127800552D02*
X119925564Y-127848171D01*
X119496993Y-128419600D02*
X119592231Y-128467219D01*
X119592231Y-128467219D02*
X119830326Y-128467219D01*
X119830326Y-128467219D02*
X119925564Y-128419600D01*
X119925564Y-128419600D02*
X119973183Y-128324361D01*
X119973183Y-128324361D02*
X119973183Y-128229123D01*
X119973183Y-128229123D02*
X119925564Y-128133885D01*
X119925564Y-128133885D02*
X119830326Y-128086266D01*
X119830326Y-128086266D02*
X119592231Y-128086266D01*
X119592231Y-128086266D02*
X119496993Y-128038647D01*
X119116040Y-127800552D02*
X118877945Y-128467219D01*
X118639850Y-127800552D02*
X118877945Y-128467219D01*
X118877945Y-128467219D02*
X118973183Y-128705314D01*
X118973183Y-128705314D02*
X119020802Y-128752933D01*
X119020802Y-128752933D02*
X119116040Y-128800552D01*
X117592230Y-127800552D02*
X117354135Y-128467219D01*
X117116040Y-127800552D02*
X117354135Y-128467219D01*
X117354135Y-128467219D02*
X117449373Y-128705314D01*
X117449373Y-128705314D02*
X117496992Y-128752933D01*
X117496992Y-128752933D02*
X117592230Y-128800552D01*
X116592230Y-128467219D02*
X116687468Y-128419600D01*
X116687468Y-128419600D02*
X116735087Y-128371980D01*
X116735087Y-128371980D02*
X116782706Y-128276742D01*
X116782706Y-128276742D02*
X116782706Y-127991028D01*
X116782706Y-127991028D02*
X116735087Y-127895790D01*
X116735087Y-127895790D02*
X116687468Y-127848171D01*
X116687468Y-127848171D02*
X116592230Y-127800552D01*
X116592230Y-127800552D02*
X116449373Y-127800552D01*
X116449373Y-127800552D02*
X116354135Y-127848171D01*
X116354135Y-127848171D02*
X116306516Y-127895790D01*
X116306516Y-127895790D02*
X116258897Y-127991028D01*
X116258897Y-127991028D02*
X116258897Y-128276742D01*
X116258897Y-128276742D02*
X116306516Y-128371980D01*
X116306516Y-128371980D02*
X116354135Y-128419600D01*
X116354135Y-128419600D02*
X116449373Y-128467219D01*
X116449373Y-128467219D02*
X116592230Y-128467219D01*
X115401754Y-127800552D02*
X115401754Y-128467219D01*
X115830325Y-127800552D02*
X115830325Y-128324361D01*
X115830325Y-128324361D02*
X115782706Y-128419600D01*
X115782706Y-128419600D02*
X115687468Y-128467219D01*
X115687468Y-128467219D02*
X115544611Y-128467219D01*
X115544611Y-128467219D02*
X115449373Y-128419600D01*
X115449373Y-128419600D02*
X115401754Y-128371980D01*
X114925563Y-128467219D02*
X114925563Y-127800552D01*
X114925563Y-127991028D02*
X114877944Y-127895790D01*
X114877944Y-127895790D02*
X114830325Y-127848171D01*
X114830325Y-127848171D02*
X114735087Y-127800552D01*
X114735087Y-127800552D02*
X114639849Y-127800552D01*
X113592229Y-128419600D02*
X113496991Y-128467219D01*
X113496991Y-128467219D02*
X113306515Y-128467219D01*
X113306515Y-128467219D02*
X113211277Y-128419600D01*
X113211277Y-128419600D02*
X113163658Y-128324361D01*
X113163658Y-128324361D02*
X113163658Y-128276742D01*
X113163658Y-128276742D02*
X113211277Y-128181504D01*
X113211277Y-128181504D02*
X113306515Y-128133885D01*
X113306515Y-128133885D02*
X113449372Y-128133885D01*
X113449372Y-128133885D02*
X113544610Y-128086266D01*
X113544610Y-128086266D02*
X113592229Y-127991028D01*
X113592229Y-127991028D02*
X113592229Y-127943409D01*
X113592229Y-127943409D02*
X113544610Y-127848171D01*
X113544610Y-127848171D02*
X113449372Y-127800552D01*
X113449372Y-127800552D02*
X113306515Y-127800552D01*
X113306515Y-127800552D02*
X113211277Y-127848171D01*
X112735086Y-128467219D02*
X112735086Y-127467219D01*
X112639848Y-128086266D02*
X112354134Y-128467219D01*
X112354134Y-127800552D02*
X112735086Y-128181504D01*
X111925562Y-128467219D02*
X111925562Y-127800552D01*
X111925562Y-127467219D02*
X111973181Y-127514838D01*
X111973181Y-127514838D02*
X111925562Y-127562457D01*
X111925562Y-127562457D02*
X111877943Y-127514838D01*
X111877943Y-127514838D02*
X111925562Y-127467219D01*
X111925562Y-127467219D02*
X111925562Y-127562457D01*
X111068420Y-128419600D02*
X111163658Y-128467219D01*
X111163658Y-128467219D02*
X111354134Y-128467219D01*
X111354134Y-128467219D02*
X111449372Y-128419600D01*
X111449372Y-128419600D02*
X111496991Y-128324361D01*
X111496991Y-128324361D02*
X111496991Y-127943409D01*
X111496991Y-127943409D02*
X111449372Y-127848171D01*
X111449372Y-127848171D02*
X111354134Y-127800552D01*
X111354134Y-127800552D02*
X111163658Y-127800552D01*
X111163658Y-127800552D02*
X111068420Y-127848171D01*
X111068420Y-127848171D02*
X111020801Y-127943409D01*
X111020801Y-127943409D02*
X111020801Y-128038647D01*
X111020801Y-128038647D02*
X111496991Y-128133885D01*
X110639848Y-128419600D02*
X110544610Y-128467219D01*
X110544610Y-128467219D02*
X110354134Y-128467219D01*
X110354134Y-128467219D02*
X110258896Y-128419600D01*
X110258896Y-128419600D02*
X110211277Y-128324361D01*
X110211277Y-128324361D02*
X110211277Y-128276742D01*
X110211277Y-128276742D02*
X110258896Y-128181504D01*
X110258896Y-128181504D02*
X110354134Y-128133885D01*
X110354134Y-128133885D02*
X110496991Y-128133885D01*
X110496991Y-128133885D02*
X110592229Y-128086266D01*
X110592229Y-128086266D02*
X110639848Y-127991028D01*
X110639848Y-127991028D02*
X110639848Y-127943409D01*
X110639848Y-127943409D02*
X110592229Y-127848171D01*
X110592229Y-127848171D02*
X110496991Y-127800552D01*
X110496991Y-127800552D02*
X110354134Y-127800552D01*
X110354134Y-127800552D02*
X110258896Y-127848171D01*
X109020800Y-128467219D02*
X109020800Y-127467219D01*
X109020800Y-127848171D02*
X108925562Y-127800552D01*
X108925562Y-127800552D02*
X108735086Y-127800552D01*
X108735086Y-127800552D02*
X108639848Y-127848171D01*
X108639848Y-127848171D02*
X108592229Y-127895790D01*
X108592229Y-127895790D02*
X108544610Y-127991028D01*
X108544610Y-127991028D02*
X108544610Y-128276742D01*
X108544610Y-128276742D02*
X108592229Y-128371980D01*
X108592229Y-128371980D02*
X108639848Y-128419600D01*
X108639848Y-128419600D02*
X108735086Y-128467219D01*
X108735086Y-128467219D02*
X108925562Y-128467219D01*
X108925562Y-128467219D02*
X109020800Y-128419600D01*
X107735086Y-128419600D02*
X107830324Y-128467219D01*
X107830324Y-128467219D02*
X108020800Y-128467219D01*
X108020800Y-128467219D02*
X108116038Y-128419600D01*
X108116038Y-128419600D02*
X108163657Y-128324361D01*
X108163657Y-128324361D02*
X108163657Y-127943409D01*
X108163657Y-127943409D02*
X108116038Y-127848171D01*
X108116038Y-127848171D02*
X108020800Y-127800552D01*
X108020800Y-127800552D02*
X107830324Y-127800552D01*
X107830324Y-127800552D02*
X107735086Y-127848171D01*
X107735086Y-127848171D02*
X107687467Y-127943409D01*
X107687467Y-127943409D02*
X107687467Y-128038647D01*
X107687467Y-128038647D02*
X108163657Y-128133885D01*
X106496990Y-128467219D02*
X106496990Y-127467219D01*
X106496990Y-127848171D02*
X106401752Y-127800552D01*
X106401752Y-127800552D02*
X106211276Y-127800552D01*
X106211276Y-127800552D02*
X106116038Y-127848171D01*
X106116038Y-127848171D02*
X106068419Y-127895790D01*
X106068419Y-127895790D02*
X106020800Y-127991028D01*
X106020800Y-127991028D02*
X106020800Y-128276742D01*
X106020800Y-128276742D02*
X106068419Y-128371980D01*
X106068419Y-128371980D02*
X106116038Y-128419600D01*
X106116038Y-128419600D02*
X106211276Y-128467219D01*
X106211276Y-128467219D02*
X106401752Y-128467219D01*
X106401752Y-128467219D02*
X106496990Y-128419600D01*
X105449371Y-128467219D02*
X105544609Y-128419600D01*
X105544609Y-128419600D02*
X105592228Y-128324361D01*
X105592228Y-128324361D02*
X105592228Y-127467219D01*
X104639847Y-127800552D02*
X104639847Y-128467219D01*
X105068418Y-127800552D02*
X105068418Y-128324361D01*
X105068418Y-128324361D02*
X105020799Y-128419600D01*
X105020799Y-128419600D02*
X104925561Y-128467219D01*
X104925561Y-128467219D02*
X104782704Y-128467219D01*
X104782704Y-128467219D02*
X104687466Y-128419600D01*
X104687466Y-128419600D02*
X104639847Y-128371980D01*
X103782704Y-128419600D02*
X103877942Y-128467219D01*
X103877942Y-128467219D02*
X104068418Y-128467219D01*
X104068418Y-128467219D02*
X104163656Y-128419600D01*
X104163656Y-128419600D02*
X104211275Y-128324361D01*
X104211275Y-128324361D02*
X104211275Y-127943409D01*
X104211275Y-127943409D02*
X104163656Y-127848171D01*
X104163656Y-127848171D02*
X104068418Y-127800552D01*
X104068418Y-127800552D02*
X103877942Y-127800552D01*
X103877942Y-127800552D02*
X103782704Y-127848171D01*
X103782704Y-127848171D02*
X103735085Y-127943409D01*
X103735085Y-127943409D02*
X103735085Y-128038647D01*
X103735085Y-128038647D02*
X104211275Y-128133885D01*
X102116037Y-128467219D02*
X102116037Y-127943409D01*
X102116037Y-127943409D02*
X102163656Y-127848171D01*
X102163656Y-127848171D02*
X102258894Y-127800552D01*
X102258894Y-127800552D02*
X102449370Y-127800552D01*
X102449370Y-127800552D02*
X102544608Y-127848171D01*
X102116037Y-128419600D02*
X102211275Y-128467219D01*
X102211275Y-128467219D02*
X102449370Y-128467219D01*
X102449370Y-128467219D02*
X102544608Y-128419600D01*
X102544608Y-128419600D02*
X102592227Y-128324361D01*
X102592227Y-128324361D02*
X102592227Y-128229123D01*
X102592227Y-128229123D02*
X102544608Y-128133885D01*
X102544608Y-128133885D02*
X102449370Y-128086266D01*
X102449370Y-128086266D02*
X102211275Y-128086266D01*
X102211275Y-128086266D02*
X102116037Y-128038647D01*
X101639846Y-127800552D02*
X101639846Y-128467219D01*
X101639846Y-127895790D02*
X101592227Y-127848171D01*
X101592227Y-127848171D02*
X101496989Y-127800552D01*
X101496989Y-127800552D02*
X101354132Y-127800552D01*
X101354132Y-127800552D02*
X101258894Y-127848171D01*
X101258894Y-127848171D02*
X101211275Y-127943409D01*
X101211275Y-127943409D02*
X101211275Y-128467219D01*
X100306513Y-128467219D02*
X100306513Y-127467219D01*
X100306513Y-128419600D02*
X100401751Y-128467219D01*
X100401751Y-128467219D02*
X100592227Y-128467219D01*
X100592227Y-128467219D02*
X100687465Y-128419600D01*
X100687465Y-128419600D02*
X100735084Y-128371980D01*
X100735084Y-128371980D02*
X100782703Y-128276742D01*
X100782703Y-128276742D02*
X100782703Y-127991028D01*
X100782703Y-127991028D02*
X100735084Y-127895790D01*
X100735084Y-127895790D02*
X100687465Y-127848171D01*
X100687465Y-127848171D02*
X100592227Y-127800552D01*
X100592227Y-127800552D02*
X100401751Y-127800552D01*
X100401751Y-127800552D02*
X100306513Y-127848171D01*
X99163655Y-127800552D02*
X98925560Y-128467219D01*
X98687465Y-127800552D02*
X98925560Y-128467219D01*
X98925560Y-128467219D02*
X99020798Y-128705314D01*
X99020798Y-128705314D02*
X99068417Y-128752933D01*
X99068417Y-128752933D02*
X99163655Y-128800552D01*
X98163655Y-128467219D02*
X98258893Y-128419600D01*
X98258893Y-128419600D02*
X98306512Y-128371980D01*
X98306512Y-128371980D02*
X98354131Y-128276742D01*
X98354131Y-128276742D02*
X98354131Y-127991028D01*
X98354131Y-127991028D02*
X98306512Y-127895790D01*
X98306512Y-127895790D02*
X98258893Y-127848171D01*
X98258893Y-127848171D02*
X98163655Y-127800552D01*
X98163655Y-127800552D02*
X98020798Y-127800552D01*
X98020798Y-127800552D02*
X97925560Y-127848171D01*
X97925560Y-127848171D02*
X97877941Y-127895790D01*
X97877941Y-127895790D02*
X97830322Y-127991028D01*
X97830322Y-127991028D02*
X97830322Y-128276742D01*
X97830322Y-128276742D02*
X97877941Y-128371980D01*
X97877941Y-128371980D02*
X97925560Y-128419600D01*
X97925560Y-128419600D02*
X98020798Y-128467219D01*
X98020798Y-128467219D02*
X98163655Y-128467219D01*
X96973179Y-127800552D02*
X96973179Y-128467219D01*
X97401750Y-127800552D02*
X97401750Y-128324361D01*
X97401750Y-128324361D02*
X97354131Y-128419600D01*
X97354131Y-128419600D02*
X97258893Y-128467219D01*
X97258893Y-128467219D02*
X97116036Y-128467219D01*
X97116036Y-128467219D02*
X97020798Y-128419600D01*
X97020798Y-128419600D02*
X96973179Y-128371980D01*
X96496988Y-128467219D02*
X96496988Y-127800552D01*
X96496988Y-127991028D02*
X96449369Y-127895790D01*
X96449369Y-127895790D02*
X96401750Y-127848171D01*
X96401750Y-127848171D02*
X96306512Y-127800552D01*
X96306512Y-127800552D02*
X96211274Y-127800552D01*
X95211273Y-127800552D02*
X95020797Y-128467219D01*
X95020797Y-128467219D02*
X94830321Y-127991028D01*
X94830321Y-127991028D02*
X94639845Y-128467219D01*
X94639845Y-128467219D02*
X94449369Y-127800552D01*
X94068416Y-128467219D02*
X94068416Y-127800552D01*
X94068416Y-127467219D02*
X94116035Y-127514838D01*
X94116035Y-127514838D02*
X94068416Y-127562457D01*
X94068416Y-127562457D02*
X94020797Y-127514838D01*
X94020797Y-127514838D02*
X94068416Y-127467219D01*
X94068416Y-127467219D02*
X94068416Y-127562457D01*
X93592226Y-127800552D02*
X93592226Y-128467219D01*
X93592226Y-127895790D02*
X93544607Y-127848171D01*
X93544607Y-127848171D02*
X93449369Y-127800552D01*
X93449369Y-127800552D02*
X93306512Y-127800552D01*
X93306512Y-127800552D02*
X93211274Y-127848171D01*
X93211274Y-127848171D02*
X93163655Y-127943409D01*
X93163655Y-127943409D02*
X93163655Y-128467219D01*
X92258893Y-128467219D02*
X92258893Y-127467219D01*
X92258893Y-128419600D02*
X92354131Y-128467219D01*
X92354131Y-128467219D02*
X92544607Y-128467219D01*
X92544607Y-128467219D02*
X92639845Y-128419600D01*
X92639845Y-128419600D02*
X92687464Y-128371980D01*
X92687464Y-128371980D02*
X92735083Y-128276742D01*
X92735083Y-128276742D02*
X92735083Y-127991028D01*
X92735083Y-127991028D02*
X92687464Y-127895790D01*
X92687464Y-127895790D02*
X92639845Y-127848171D01*
X92639845Y-127848171D02*
X92544607Y-127800552D01*
X92544607Y-127800552D02*
X92354131Y-127800552D01*
X92354131Y-127800552D02*
X92258893Y-127848171D01*
X91830321Y-128419600D02*
X91735083Y-128467219D01*
X91735083Y-128467219D02*
X91544607Y-128467219D01*
X91544607Y-128467219D02*
X91449369Y-128419600D01*
X91449369Y-128419600D02*
X91401750Y-128324361D01*
X91401750Y-128324361D02*
X91401750Y-128276742D01*
X91401750Y-128276742D02*
X91449369Y-128181504D01*
X91449369Y-128181504D02*
X91544607Y-128133885D01*
X91544607Y-128133885D02*
X91687464Y-128133885D01*
X91687464Y-128133885D02*
X91782702Y-128086266D01*
X91782702Y-128086266D02*
X91830321Y-127991028D01*
X91830321Y-127991028D02*
X91830321Y-127943409D01*
X91830321Y-127943409D02*
X91782702Y-127848171D01*
X91782702Y-127848171D02*
X91687464Y-127800552D01*
X91687464Y-127800552D02*
X91544607Y-127800552D01*
X91544607Y-127800552D02*
X91449369Y-127848171D01*
X90211273Y-128467219D02*
X90211273Y-127467219D01*
X90211273Y-127848171D02*
X90116035Y-127800552D01*
X90116035Y-127800552D02*
X89925559Y-127800552D01*
X89925559Y-127800552D02*
X89830321Y-127848171D01*
X89830321Y-127848171D02*
X89782702Y-127895790D01*
X89782702Y-127895790D02*
X89735083Y-127991028D01*
X89735083Y-127991028D02*
X89735083Y-128276742D01*
X89735083Y-128276742D02*
X89782702Y-128371980D01*
X89782702Y-128371980D02*
X89830321Y-128419600D01*
X89830321Y-128419600D02*
X89925559Y-128467219D01*
X89925559Y-128467219D02*
X90116035Y-128467219D01*
X90116035Y-128467219D02*
X90211273Y-128419600D01*
X88925559Y-128419600D02*
X89020797Y-128467219D01*
X89020797Y-128467219D02*
X89211273Y-128467219D01*
X89211273Y-128467219D02*
X89306511Y-128419600D01*
X89306511Y-128419600D02*
X89354130Y-128324361D01*
X89354130Y-128324361D02*
X89354130Y-127943409D01*
X89354130Y-127943409D02*
X89306511Y-127848171D01*
X89306511Y-127848171D02*
X89211273Y-127800552D01*
X89211273Y-127800552D02*
X89020797Y-127800552D01*
X89020797Y-127800552D02*
X88925559Y-127848171D01*
X88925559Y-127848171D02*
X88877940Y-127943409D01*
X88877940Y-127943409D02*
X88877940Y-128038647D01*
X88877940Y-128038647D02*
X89354130Y-128133885D01*
X87544606Y-128467219D02*
X87639844Y-128419600D01*
X87639844Y-128419600D02*
X87687463Y-128324361D01*
X87687463Y-128324361D02*
X87687463Y-127467219D01*
X87020796Y-128467219D02*
X87116034Y-128419600D01*
X87116034Y-128419600D02*
X87163653Y-128371980D01*
X87163653Y-128371980D02*
X87211272Y-128276742D01*
X87211272Y-128276742D02*
X87211272Y-127991028D01*
X87211272Y-127991028D02*
X87163653Y-127895790D01*
X87163653Y-127895790D02*
X87116034Y-127848171D01*
X87116034Y-127848171D02*
X87020796Y-127800552D01*
X87020796Y-127800552D02*
X86877939Y-127800552D01*
X86877939Y-127800552D02*
X86782701Y-127848171D01*
X86782701Y-127848171D02*
X86735082Y-127895790D01*
X86735082Y-127895790D02*
X86687463Y-127991028D01*
X86687463Y-127991028D02*
X86687463Y-128276742D01*
X86687463Y-128276742D02*
X86735082Y-128371980D01*
X86735082Y-128371980D02*
X86782701Y-128419600D01*
X86782701Y-128419600D02*
X86877939Y-128467219D01*
X86877939Y-128467219D02*
X87020796Y-128467219D01*
X86354129Y-127800552D02*
X86163653Y-128467219D01*
X86163653Y-128467219D02*
X85973177Y-127991028D01*
X85973177Y-127991028D02*
X85782701Y-128467219D01*
X85782701Y-128467219D02*
X85592225Y-127800552D01*
X85211272Y-128371980D02*
X85163653Y-128419600D01*
X85163653Y-128419600D02*
X85211272Y-128467219D01*
X85211272Y-128467219D02*
X85258891Y-128419600D01*
X85258891Y-128419600D02*
X85211272Y-128371980D01*
X85211272Y-128371980D02*
X85211272Y-128467219D01*
X85211272Y-128086266D02*
X85258891Y-127514838D01*
X85258891Y-127514838D02*
X85211272Y-127467219D01*
X85211272Y-127467219D02*
X85163653Y-127514838D01*
X85163653Y-127514838D02*
X85211272Y-128086266D01*
X85211272Y-128086266D02*
X85211272Y-127467219D01*
X84782701Y-127467219D02*
X84782701Y-127657695D01*
X84401749Y-127467219D02*
X84401749Y-127657695D01*
D11*
X112157142Y-57054819D02*
X112157142Y-56054819D01*
X112157142Y-56054819D02*
X111823809Y-56769104D01*
X111823809Y-56769104D02*
X111490476Y-56054819D01*
X111490476Y-56054819D02*
X111490476Y-57054819D01*
X110823809Y-56054819D02*
X110633333Y-56054819D01*
X110633333Y-56054819D02*
X110538095Y-56102438D01*
X110538095Y-56102438D02*
X110442857Y-56197676D01*
X110442857Y-56197676D02*
X110395238Y-56388152D01*
X110395238Y-56388152D02*
X110395238Y-56721485D01*
X110395238Y-56721485D02*
X110442857Y-56911961D01*
X110442857Y-56911961D02*
X110538095Y-57007200D01*
X110538095Y-57007200D02*
X110633333Y-57054819D01*
X110633333Y-57054819D02*
X110823809Y-57054819D01*
X110823809Y-57054819D02*
X110919047Y-57007200D01*
X110919047Y-57007200D02*
X111014285Y-56911961D01*
X111014285Y-56911961D02*
X111061904Y-56721485D01*
X111061904Y-56721485D02*
X111061904Y-56388152D01*
X111061904Y-56388152D02*
X111014285Y-56197676D01*
X111014285Y-56197676D02*
X110919047Y-56102438D01*
X110919047Y-56102438D02*
X110823809Y-56054819D01*
X108471427Y-56854819D02*
X108471427Y-55854819D01*
X108471427Y-55854819D02*
X108138094Y-56569104D01*
X108138094Y-56569104D02*
X107804761Y-55854819D01*
X107804761Y-55854819D02*
X107804761Y-56854819D01*
X107328570Y-56854819D02*
X107328570Y-55854819D01*
X104466666Y-55159580D02*
X104514285Y-55207200D01*
X104514285Y-55207200D02*
X104657142Y-55254819D01*
X104657142Y-55254819D02*
X104752380Y-55254819D01*
X104752380Y-55254819D02*
X104895237Y-55207200D01*
X104895237Y-55207200D02*
X104990475Y-55111961D01*
X104990475Y-55111961D02*
X105038094Y-55016723D01*
X105038094Y-55016723D02*
X105085713Y-54826247D01*
X105085713Y-54826247D02*
X105085713Y-54683390D01*
X105085713Y-54683390D02*
X105038094Y-54492914D01*
X105038094Y-54492914D02*
X104990475Y-54397676D01*
X104990475Y-54397676D02*
X104895237Y-54302438D01*
X104895237Y-54302438D02*
X104752380Y-54254819D01*
X104752380Y-54254819D02*
X104657142Y-54254819D01*
X104657142Y-54254819D02*
X104514285Y-54302438D01*
X104514285Y-54302438D02*
X104466666Y-54350057D01*
X104085713Y-55207200D02*
X103942856Y-55254819D01*
X103942856Y-55254819D02*
X103704761Y-55254819D01*
X103704761Y-55254819D02*
X103609523Y-55207200D01*
X103609523Y-55207200D02*
X103561904Y-55159580D01*
X103561904Y-55159580D02*
X103514285Y-55064342D01*
X103514285Y-55064342D02*
X103514285Y-54969104D01*
X103514285Y-54969104D02*
X103561904Y-54873866D01*
X103561904Y-54873866D02*
X103609523Y-54826247D01*
X103609523Y-54826247D02*
X103704761Y-54778628D01*
X103704761Y-54778628D02*
X103895237Y-54731009D01*
X103895237Y-54731009D02*
X103990475Y-54683390D01*
X103990475Y-54683390D02*
X104038094Y-54635771D01*
X104038094Y-54635771D02*
X104085713Y-54540533D01*
X104085713Y-54540533D02*
X104085713Y-54445295D01*
X104085713Y-54445295D02*
X104038094Y-54350057D01*
X104038094Y-54350057D02*
X103990475Y-54302438D01*
X103990475Y-54302438D02*
X103895237Y-54254819D01*
X103895237Y-54254819D02*
X103657142Y-54254819D01*
X103657142Y-54254819D02*
X103514285Y-54302438D01*
X130761904Y-54202438D02*
X130857142Y-54154819D01*
X130857142Y-54154819D02*
X130999999Y-54154819D01*
X130999999Y-54154819D02*
X131142856Y-54202438D01*
X131142856Y-54202438D02*
X131238094Y-54297676D01*
X131238094Y-54297676D02*
X131285713Y-54392914D01*
X131285713Y-54392914D02*
X131333332Y-54583390D01*
X131333332Y-54583390D02*
X131333332Y-54726247D01*
X131333332Y-54726247D02*
X131285713Y-54916723D01*
X131285713Y-54916723D02*
X131238094Y-55011961D01*
X131238094Y-55011961D02*
X131142856Y-55107200D01*
X131142856Y-55107200D02*
X130999999Y-55154819D01*
X130999999Y-55154819D02*
X130904761Y-55154819D01*
X130904761Y-55154819D02*
X130761904Y-55107200D01*
X130761904Y-55107200D02*
X130714285Y-55059580D01*
X130714285Y-55059580D02*
X130714285Y-54726247D01*
X130714285Y-54726247D02*
X130904761Y-54726247D01*
X130285713Y-55154819D02*
X130285713Y-54154819D01*
X130285713Y-54154819D02*
X129714285Y-55154819D01*
X129714285Y-55154819D02*
X129714285Y-54154819D01*
X129238094Y-55154819D02*
X129238094Y-54154819D01*
X129238094Y-54154819D02*
X128999999Y-54154819D01*
X128999999Y-54154819D02*
X128857142Y-54202438D01*
X128857142Y-54202438D02*
X128761904Y-54297676D01*
X128761904Y-54297676D02*
X128714285Y-54392914D01*
X128714285Y-54392914D02*
X128666666Y-54583390D01*
X128666666Y-54583390D02*
X128666666Y-54726247D01*
X128666666Y-54726247D02*
X128714285Y-54916723D01*
X128714285Y-54916723D02*
X128761904Y-55011961D01*
X128761904Y-55011961D02*
X128857142Y-55107200D01*
X128857142Y-55107200D02*
X128999999Y-55154819D01*
X128999999Y-55154819D02*
X129238094Y-55154819D01*
X106090475Y-66007200D02*
X105947618Y-66054819D01*
X105947618Y-66054819D02*
X105709523Y-66054819D01*
X105709523Y-66054819D02*
X105614285Y-66007200D01*
X105614285Y-66007200D02*
X105566666Y-65959580D01*
X105566666Y-65959580D02*
X105519047Y-65864342D01*
X105519047Y-65864342D02*
X105519047Y-65769104D01*
X105519047Y-65769104D02*
X105566666Y-65673866D01*
X105566666Y-65673866D02*
X105614285Y-65626247D01*
X105614285Y-65626247D02*
X105709523Y-65578628D01*
X105709523Y-65578628D02*
X105899999Y-65531009D01*
X105899999Y-65531009D02*
X105995237Y-65483390D01*
X105995237Y-65483390D02*
X106042856Y-65435771D01*
X106042856Y-65435771D02*
X106090475Y-65340533D01*
X106090475Y-65340533D02*
X106090475Y-65245295D01*
X106090475Y-65245295D02*
X106042856Y-65150057D01*
X106042856Y-65150057D02*
X105995237Y-65102438D01*
X105995237Y-65102438D02*
X105899999Y-65054819D01*
X105899999Y-65054819D02*
X105661904Y-65054819D01*
X105661904Y-65054819D02*
X105519047Y-65102438D01*
X104519047Y-65959580D02*
X104566666Y-66007200D01*
X104566666Y-66007200D02*
X104709523Y-66054819D01*
X104709523Y-66054819D02*
X104804761Y-66054819D01*
X104804761Y-66054819D02*
X104947618Y-66007200D01*
X104947618Y-66007200D02*
X105042856Y-65911961D01*
X105042856Y-65911961D02*
X105090475Y-65816723D01*
X105090475Y-65816723D02*
X105138094Y-65626247D01*
X105138094Y-65626247D02*
X105138094Y-65483390D01*
X105138094Y-65483390D02*
X105090475Y-65292914D01*
X105090475Y-65292914D02*
X105042856Y-65197676D01*
X105042856Y-65197676D02*
X104947618Y-65102438D01*
X104947618Y-65102438D02*
X104804761Y-65054819D01*
X104804761Y-65054819D02*
X104709523Y-65054819D01*
X104709523Y-65054819D02*
X104566666Y-65102438D01*
X104566666Y-65102438D02*
X104519047Y-65150057D01*
X103614285Y-66054819D02*
X104090475Y-66054819D01*
X104090475Y-66054819D02*
X104090475Y-65054819D01*
X115985713Y-55307200D02*
X115842856Y-55354819D01*
X115842856Y-55354819D02*
X115604761Y-55354819D01*
X115604761Y-55354819D02*
X115509523Y-55307200D01*
X115509523Y-55307200D02*
X115461904Y-55259580D01*
X115461904Y-55259580D02*
X115414285Y-55164342D01*
X115414285Y-55164342D02*
X115414285Y-55069104D01*
X115414285Y-55069104D02*
X115461904Y-54973866D01*
X115461904Y-54973866D02*
X115509523Y-54926247D01*
X115509523Y-54926247D02*
X115604761Y-54878628D01*
X115604761Y-54878628D02*
X115795237Y-54831009D01*
X115795237Y-54831009D02*
X115890475Y-54783390D01*
X115890475Y-54783390D02*
X115938094Y-54735771D01*
X115938094Y-54735771D02*
X115985713Y-54640533D01*
X115985713Y-54640533D02*
X115985713Y-54545295D01*
X115985713Y-54545295D02*
X115938094Y-54450057D01*
X115938094Y-54450057D02*
X115890475Y-54402438D01*
X115890475Y-54402438D02*
X115795237Y-54354819D01*
X115795237Y-54354819D02*
X115557142Y-54354819D01*
X115557142Y-54354819D02*
X115414285Y-54402438D01*
X114414285Y-55259580D02*
X114461904Y-55307200D01*
X114461904Y-55307200D02*
X114604761Y-55354819D01*
X114604761Y-55354819D02*
X114699999Y-55354819D01*
X114699999Y-55354819D02*
X114842856Y-55307200D01*
X114842856Y-55307200D02*
X114938094Y-55211961D01*
X114938094Y-55211961D02*
X114985713Y-55116723D01*
X114985713Y-55116723D02*
X115033332Y-54926247D01*
X115033332Y-54926247D02*
X115033332Y-54783390D01*
X115033332Y-54783390D02*
X114985713Y-54592914D01*
X114985713Y-54592914D02*
X114938094Y-54497676D01*
X114938094Y-54497676D02*
X114842856Y-54402438D01*
X114842856Y-54402438D02*
X114699999Y-54354819D01*
X114699999Y-54354819D02*
X114604761Y-54354819D01*
X114604761Y-54354819D02*
X114461904Y-54402438D01*
X114461904Y-54402438D02*
X114414285Y-54450057D01*
X113985713Y-55354819D02*
X113985713Y-54354819D01*
X113414285Y-55354819D02*
X113842856Y-54783390D01*
X113414285Y-54354819D02*
X113985713Y-54926247D01*
X136338094Y-54254819D02*
X135719047Y-54254819D01*
X135719047Y-54254819D02*
X136052380Y-54635771D01*
X136052380Y-54635771D02*
X135909523Y-54635771D01*
X135909523Y-54635771D02*
X135814285Y-54683390D01*
X135814285Y-54683390D02*
X135766666Y-54731009D01*
X135766666Y-54731009D02*
X135719047Y-54826247D01*
X135719047Y-54826247D02*
X135719047Y-55064342D01*
X135719047Y-55064342D02*
X135766666Y-55159580D01*
X135766666Y-55159580D02*
X135814285Y-55207200D01*
X135814285Y-55207200D02*
X135909523Y-55254819D01*
X135909523Y-55254819D02*
X136195237Y-55254819D01*
X136195237Y-55254819D02*
X136290475Y-55207200D01*
X136290475Y-55207200D02*
X136338094Y-55159580D01*
X135433332Y-54254819D02*
X135099999Y-55254819D01*
X135099999Y-55254819D02*
X134766666Y-54254819D01*
X134528570Y-54254819D02*
X133909523Y-54254819D01*
X133909523Y-54254819D02*
X134242856Y-54635771D01*
X134242856Y-54635771D02*
X134099999Y-54635771D01*
X134099999Y-54635771D02*
X134004761Y-54683390D01*
X134004761Y-54683390D02*
X133957142Y-54731009D01*
X133957142Y-54731009D02*
X133909523Y-54826247D01*
X133909523Y-54826247D02*
X133909523Y-55064342D01*
X133909523Y-55064342D02*
X133957142Y-55159580D01*
X133957142Y-55159580D02*
X134004761Y-55207200D01*
X134004761Y-55207200D02*
X134099999Y-55254819D01*
X134099999Y-55254819D02*
X134385713Y-55254819D01*
X134385713Y-55254819D02*
X134480951Y-55207200D01*
X134480951Y-55207200D02*
X134528570Y-55159580D01*
X101014285Y-65957200D02*
X100871428Y-66004819D01*
X100871428Y-66004819D02*
X100633333Y-66004819D01*
X100633333Y-66004819D02*
X100538095Y-65957200D01*
X100538095Y-65957200D02*
X100490476Y-65909580D01*
X100490476Y-65909580D02*
X100442857Y-65814342D01*
X100442857Y-65814342D02*
X100442857Y-65719104D01*
X100442857Y-65719104D02*
X100490476Y-65623866D01*
X100490476Y-65623866D02*
X100538095Y-65576247D01*
X100538095Y-65576247D02*
X100633333Y-65528628D01*
X100633333Y-65528628D02*
X100823809Y-65481009D01*
X100823809Y-65481009D02*
X100919047Y-65433390D01*
X100919047Y-65433390D02*
X100966666Y-65385771D01*
X100966666Y-65385771D02*
X101014285Y-65290533D01*
X101014285Y-65290533D02*
X101014285Y-65195295D01*
X101014285Y-65195295D02*
X100966666Y-65100057D01*
X100966666Y-65100057D02*
X100919047Y-65052438D01*
X100919047Y-65052438D02*
X100823809Y-65004819D01*
X100823809Y-65004819D02*
X100585714Y-65004819D01*
X100585714Y-65004819D02*
X100442857Y-65052438D01*
X100014285Y-66004819D02*
X100014285Y-65004819D01*
X100014285Y-65004819D02*
X99776190Y-65004819D01*
X99776190Y-65004819D02*
X99633333Y-65052438D01*
X99633333Y-65052438D02*
X99538095Y-65147676D01*
X99538095Y-65147676D02*
X99490476Y-65242914D01*
X99490476Y-65242914D02*
X99442857Y-65433390D01*
X99442857Y-65433390D02*
X99442857Y-65576247D01*
X99442857Y-65576247D02*
X99490476Y-65766723D01*
X99490476Y-65766723D02*
X99538095Y-65861961D01*
X99538095Y-65861961D02*
X99633333Y-65957200D01*
X99633333Y-65957200D02*
X99776190Y-66004819D01*
X99776190Y-66004819D02*
X100014285Y-66004819D01*
X99061904Y-65719104D02*
X98585714Y-65719104D01*
X99157142Y-66004819D02*
X98823809Y-65004819D01*
X98823809Y-65004819D02*
X98490476Y-66004819D01*
D12*
%TO.C,G\u002A\u002A\u002A*%
G36*
X137342183Y-34137416D02*
G01*
X137768542Y-34144341D01*
X138100257Y-34161021D01*
X138371949Y-34190589D01*
X138618242Y-34236184D01*
X138873760Y-34300939D01*
X138929019Y-34316808D01*
X139247471Y-34423660D01*
X139403257Y-34484836D01*
X139600216Y-34562181D01*
X139958352Y-34718626D01*
X140292975Y-34879249D01*
X140575185Y-35030307D01*
X140776080Y-35158053D01*
X140866756Y-35248744D01*
X140876819Y-35291102D01*
X140826197Y-35380167D01*
X140675981Y-35404673D01*
X140454807Y-35357087D01*
X140435044Y-35350415D01*
X140268355Y-35312273D01*
X140176184Y-35322632D01*
X140169513Y-35351888D01*
X140243731Y-35408235D01*
X140313603Y-35448194D01*
X140484591Y-35585445D01*
X140710608Y-35791966D01*
X140966236Y-36041995D01*
X141226058Y-36309768D01*
X141464660Y-36569524D01*
X141656624Y-36795498D01*
X141776534Y-36961929D01*
X141884338Y-37165644D01*
X141913360Y-37294585D01*
X141871506Y-37387960D01*
X141841675Y-37446144D01*
X141861862Y-37538435D01*
X141961326Y-37676217D01*
X142155382Y-37886380D01*
X142295829Y-38034144D01*
X142585759Y-38357345D01*
X142800988Y-38625273D01*
X142930033Y-38822984D01*
X142961413Y-38935530D01*
X142960043Y-38939047D01*
X142869365Y-39000330D01*
X142697906Y-39038833D01*
X142460572Y-39062214D01*
X142680406Y-39339777D01*
X142763525Y-39447811D01*
X142956743Y-39745526D01*
X143033114Y-39964940D01*
X142995203Y-40112346D01*
X142957543Y-40173382D01*
X142957120Y-40260133D01*
X142959818Y-40262359D01*
X143035383Y-40236623D01*
X143147025Y-40123675D01*
X143253351Y-40011154D01*
X143558994Y-39789473D01*
X143667323Y-39732206D01*
X144004911Y-39553744D01*
X144532357Y-39328571D01*
X144594477Y-39302051D01*
X144714165Y-39256313D01*
X145069763Y-39131903D01*
X145438821Y-39016244D01*
X145783322Y-38920190D01*
X146065246Y-38854597D01*
X146246577Y-38830320D01*
X146253610Y-38837247D01*
X146274456Y-38951292D01*
X146291731Y-39193765D01*
X146304826Y-39549635D01*
X146313131Y-40003874D01*
X146316034Y-40541450D01*
X146315680Y-40976503D01*
X146313477Y-41419662D01*
X146308074Y-41744986D01*
X146298139Y-41969536D01*
X146282340Y-42110368D01*
X146259346Y-42184541D01*
X146227824Y-42209112D01*
X146186443Y-42201138D01*
X146026989Y-42151662D01*
X145757392Y-42082911D01*
X145418681Y-42004215D01*
X145049607Y-41923992D01*
X144688921Y-41850658D01*
X144375374Y-41792629D01*
X144147717Y-41758323D01*
X143902369Y-41741980D01*
X143726532Y-41770412D01*
X143581791Y-41855830D01*
X143402358Y-41997520D01*
X143635065Y-42117857D01*
X143641900Y-42121149D01*
X143793093Y-42164752D01*
X144056645Y-42216595D01*
X144400215Y-42272357D01*
X144427696Y-42276245D01*
X144791464Y-42327717D01*
X145198051Y-42378355D01*
X145587636Y-42419950D01*
X145927880Y-42448180D01*
X146186443Y-42458727D01*
X146256419Y-42476889D01*
X146303487Y-42571134D01*
X146316034Y-42777317D01*
X146313659Y-42851476D01*
X146281409Y-43062494D01*
X146223469Y-43195470D01*
X146219841Y-43199386D01*
X146167945Y-43265141D01*
X146223469Y-43242936D01*
X146245364Y-43233686D01*
X146299525Y-43274349D01*
X146316034Y-43444748D01*
X146316034Y-43698820D01*
X145779154Y-43554920D01*
X145614823Y-43508037D01*
X145256181Y-43395221D01*
X144854566Y-43259263D01*
X144469969Y-43120087D01*
X144248080Y-43038381D01*
X143927249Y-42928319D01*
X143684518Y-42855568D01*
X143535004Y-42823873D01*
X143493824Y-42836979D01*
X143576093Y-42898630D01*
X143637574Y-42929140D01*
X143847884Y-43015542D01*
X144139171Y-43124577D01*
X144165256Y-43134341D01*
X144567564Y-43277567D01*
X145032682Y-43437251D01*
X145538483Y-43605424D01*
X146279008Y-43847753D01*
X146301503Y-44147379D01*
X146323998Y-44447004D01*
X145931241Y-44341461D01*
X145771340Y-44303252D01*
X145424682Y-44238875D01*
X145094169Y-44196245D01*
X144897028Y-44176599D01*
X144640061Y-44145147D01*
X144464723Y-44116620D01*
X144415199Y-44103988D01*
X144199436Y-44029925D01*
X143919115Y-43916845D01*
X143614846Y-43783051D01*
X143327238Y-43646847D01*
X143096900Y-43526535D01*
X142964440Y-43440418D01*
X142902087Y-43390281D01*
X142794284Y-43363219D01*
X142641443Y-43426387D01*
X142526564Y-43514418D01*
X142406445Y-43666900D01*
X142338477Y-43820448D01*
X142351701Y-43925073D01*
X142420699Y-43913346D01*
X142543425Y-43825182D01*
X142608691Y-43769499D01*
X142698658Y-43731228D01*
X142764902Y-43794781D01*
X142796706Y-43854115D01*
X142834434Y-43983833D01*
X142834448Y-43985330D01*
X142780521Y-44165222D01*
X142629181Y-44419164D01*
X142397995Y-44728295D01*
X142104528Y-45073755D01*
X141766346Y-45436684D01*
X141401015Y-45798223D01*
X141026100Y-46139511D01*
X140659168Y-46441690D01*
X140317784Y-46685898D01*
X139845738Y-46978260D01*
X139245821Y-47301879D01*
X138688629Y-47540454D01*
X138429446Y-47636064D01*
X138657886Y-47639315D01*
X138845760Y-47619835D01*
X139148138Y-47551072D01*
X139492102Y-47447250D01*
X139827882Y-47323629D01*
X140105709Y-47195466D01*
X140236019Y-47128499D01*
X140418420Y-47061061D01*
X140512950Y-47082448D01*
X140539941Y-47192524D01*
X140489510Y-47331014D01*
X140322039Y-47522084D01*
X140061114Y-47732478D01*
X139731468Y-47946342D01*
X139357836Y-48147824D01*
X138964952Y-48321072D01*
X138577551Y-48450233D01*
X138477067Y-48471944D01*
X138161076Y-48508047D01*
X137758477Y-48525863D01*
X137311176Y-48525850D01*
X136861083Y-48508465D01*
X136450104Y-48474165D01*
X136120147Y-48423408D01*
X135787808Y-48344793D01*
X134972423Y-48093254D01*
X134154635Y-47765242D01*
X133364544Y-47376404D01*
X132632249Y-46942388D01*
X131987850Y-46478843D01*
X131461446Y-46001417D01*
X131319064Y-45849595D01*
X130706307Y-45114673D01*
X130229874Y-44380945D01*
X129881838Y-43628107D01*
X129654270Y-42835856D01*
X129539242Y-41983886D01*
X129534092Y-41523111D01*
X129806384Y-41523111D01*
X129823818Y-41847427D01*
X129850958Y-42115689D01*
X129939466Y-42636014D01*
X130068581Y-43183748D01*
X130223765Y-43700396D01*
X130390481Y-44127464D01*
X130476921Y-44291325D01*
X130684302Y-44616427D01*
X130951217Y-44985427D01*
X131249212Y-45361431D01*
X131549831Y-45707548D01*
X131824620Y-45986882D01*
X132324696Y-46401427D01*
X132959223Y-46837380D01*
X133641367Y-47229557D01*
X134319533Y-47545721D01*
X134597104Y-47655696D01*
X134883223Y-47762857D01*
X135097749Y-47836153D01*
X135208163Y-47863941D01*
X135325766Y-47885362D01*
X135539902Y-47941750D01*
X135800583Y-48020452D01*
X135807077Y-48022518D01*
X136176382Y-48112975D01*
X136633392Y-48174724D01*
X137207580Y-48211771D01*
X137402983Y-48219255D01*
X137751938Y-48227243D01*
X138013345Y-48219704D01*
X138228839Y-48192424D01*
X138440056Y-48141183D01*
X138688629Y-48061766D01*
X139244023Y-47874262D01*
X138836734Y-47922650D01*
X138778475Y-47929251D01*
X138200752Y-47966284D01*
X137593721Y-47961477D01*
X137015096Y-47917014D01*
X136522594Y-47835079D01*
X136446070Y-47816707D01*
X136192756Y-47746268D01*
X136015457Y-47681735D01*
X135948688Y-47635132D01*
X135958554Y-47623324D01*
X136073059Y-47595309D01*
X136288803Y-47575821D01*
X136571619Y-47568513D01*
X136724351Y-47566207D01*
X137231297Y-47531294D01*
X137740588Y-47460678D01*
X138202219Y-47362474D01*
X138566185Y-47244798D01*
X138623372Y-47220319D01*
X138775646Y-47147762D01*
X138836734Y-47105954D01*
X138772937Y-47097240D01*
X138599072Y-47098886D01*
X138353733Y-47110908D01*
X138192888Y-47117710D01*
X137879858Y-47118983D01*
X137530787Y-47109824D01*
X137176364Y-47092239D01*
X136847280Y-47068237D01*
X136574223Y-47039824D01*
X136387883Y-47009009D01*
X136318950Y-46977800D01*
X136339262Y-46962846D01*
X136473619Y-46934062D01*
X136706037Y-46907823D01*
X137003935Y-46888383D01*
X137620980Y-46825068D01*
X138265434Y-46676609D01*
X138316543Y-46660230D01*
X138589878Y-46559831D01*
X139061595Y-46559831D01*
X139084842Y-46584656D01*
X139214500Y-46595695D01*
X139424437Y-46574800D01*
X139676177Y-46528215D01*
X139931244Y-46462186D01*
X140151166Y-46382960D01*
X140230019Y-46346532D01*
X140411541Y-46236640D01*
X140447830Y-46155297D01*
X140339390Y-46104805D01*
X140086720Y-46087463D01*
X139992529Y-46089509D01*
X139682716Y-46143285D01*
X139385926Y-46291107D01*
X139268921Y-46369542D01*
X139120694Y-46486347D01*
X139061595Y-46559831D01*
X138589878Y-46559831D01*
X138616161Y-46550177D01*
X138875403Y-46433561D01*
X139042985Y-46333043D01*
X139244023Y-46169929D01*
X138910787Y-46291971D01*
X138771955Y-46334183D01*
X138563007Y-46371773D01*
X138287794Y-46395035D01*
X137919106Y-46406083D01*
X137429737Y-46407029D01*
X137247537Y-46405046D01*
X136826359Y-46394111D01*
X136445552Y-46375967D01*
X136141025Y-46352581D01*
X135948688Y-46325920D01*
X135888172Y-46311885D01*
X135803431Y-46285419D01*
X135812874Y-46267149D01*
X135929981Y-46255179D01*
X136168232Y-46247610D01*
X136541107Y-46242548D01*
X136903775Y-46235464D01*
X137195910Y-46219471D01*
X137345571Y-46194918D01*
X137355685Y-46161516D01*
X137268326Y-46121989D01*
X137083764Y-46088597D01*
X136983813Y-46073463D01*
X136755781Y-46017986D01*
X136440692Y-45930423D01*
X136067931Y-45819919D01*
X135666880Y-45695616D01*
X135266923Y-45566658D01*
X134897442Y-45442190D01*
X134587820Y-45331355D01*
X134367442Y-45243297D01*
X134362835Y-45241237D01*
X134170246Y-45141463D01*
X133894912Y-44982582D01*
X133572041Y-44786715D01*
X133236843Y-44575985D01*
X132924525Y-44372514D01*
X132670297Y-44198425D01*
X132509368Y-44075839D01*
X132523540Y-44071263D01*
X132644026Y-44108801D01*
X132857421Y-44187788D01*
X133138815Y-44299377D01*
X133200842Y-44324378D01*
X133579286Y-44470828D01*
X134051528Y-44646265D01*
X134578483Y-44836699D01*
X135121069Y-45028141D01*
X135640200Y-45206604D01*
X136096792Y-45358096D01*
X136121079Y-45365956D01*
X136323707Y-45431859D01*
X136467055Y-45478996D01*
X136499901Y-45488967D01*
X136532290Y-45478163D01*
X136457903Y-45387971D01*
X136380343Y-45327590D01*
X136186033Y-45207508D01*
X136132619Y-45177864D01*
X136442507Y-45177864D01*
X136524586Y-45248799D01*
X136716713Y-45383964D01*
X137026274Y-45591103D01*
X137093045Y-45634537D01*
X137364877Y-45796574D01*
X137607950Y-45920642D01*
X137776331Y-45982758D01*
X137965368Y-45991452D01*
X138060626Y-45933521D01*
X138035784Y-45822279D01*
X138003655Y-45794434D01*
X137840357Y-45705777D01*
X137557487Y-45579380D01*
X137169090Y-45421340D01*
X136689212Y-45237753D01*
X136578947Y-45197712D01*
X136463090Y-45163416D01*
X136442507Y-45177864D01*
X136132619Y-45177864D01*
X135916885Y-45058135D01*
X135606299Y-44898663D01*
X135348559Y-44767528D01*
X135130424Y-44647871D01*
X135002299Y-44566516D01*
X134986005Y-44536216D01*
X135075239Y-44548589D01*
X135295730Y-44604102D01*
X135598397Y-44694473D01*
X135950593Y-44808981D01*
X136319671Y-44936909D01*
X136463090Y-44989936D01*
X136672983Y-45067540D01*
X136977882Y-45190153D01*
X137055664Y-45222951D01*
X137299836Y-45320666D01*
X137476314Y-45383208D01*
X137551195Y-45398269D01*
X137549734Y-45384868D01*
X137470601Y-45303200D01*
X137304821Y-45169279D01*
X137080047Y-45002696D01*
X136823933Y-44823039D01*
X136564134Y-44649897D01*
X136328302Y-44502859D01*
X136144091Y-44401515D01*
X136099629Y-44380302D01*
X135303518Y-44066754D01*
X134413765Y-43828196D01*
X133467930Y-43674828D01*
X133449208Y-43672717D01*
X133187521Y-43637529D01*
X134911953Y-43637529D01*
X134915475Y-43644183D01*
X135006681Y-43699156D01*
X135196263Y-43784435D01*
X135450553Y-43884576D01*
X135759584Y-44011608D01*
X136120013Y-44181675D01*
X136422207Y-44345642D01*
X136422566Y-44345858D01*
X136648735Y-44477110D01*
X136825641Y-44570712D01*
X136915013Y-44606413D01*
X136945856Y-44563653D01*
X136987622Y-44409104D01*
X137022786Y-44180612D01*
X137041444Y-44019928D01*
X137073646Y-43788239D01*
X137102401Y-43677682D01*
X137133970Y-43670442D01*
X137174616Y-43748705D01*
X137190481Y-43835519D01*
X137185185Y-44046216D01*
X137147412Y-44298503D01*
X137061875Y-44706300D01*
X137536614Y-45160471D01*
X138011353Y-45614642D01*
X138085800Y-45192000D01*
X138114412Y-45056612D01*
X138127539Y-45013702D01*
X138540524Y-45013702D01*
X138577551Y-45050728D01*
X138614577Y-45013702D01*
X138577551Y-44976676D01*
X138540524Y-45013702D01*
X138127539Y-45013702D01*
X138217041Y-44721143D01*
X138353561Y-44393403D01*
X138503359Y-44119299D01*
X138577551Y-44028392D01*
X138645826Y-43944735D01*
X138720786Y-43896918D01*
X138762682Y-43928550D01*
X138781558Y-43964936D01*
X138881093Y-43963907D01*
X138920320Y-43950510D01*
X138963674Y-43965186D01*
X138918119Y-44077310D01*
X138859390Y-44192045D01*
X138757215Y-44392005D01*
X138721135Y-44486453D01*
X138750170Y-44503067D01*
X138763656Y-44498245D01*
X138794506Y-44561791D01*
X138784133Y-44745404D01*
X138772507Y-44836160D01*
X138773761Y-44976153D01*
X138846415Y-45036635D01*
X139026651Y-45065342D01*
X139296508Y-45045403D01*
X139493298Y-44912987D01*
X139590168Y-44676446D01*
X139593909Y-44600670D01*
X139549429Y-44497571D01*
X139417293Y-44404616D01*
X139169970Y-44296939D01*
X139034005Y-44239017D01*
X139013602Y-44205519D01*
X139112613Y-44180993D01*
X139279174Y-44187782D01*
X139482875Y-44250750D01*
X139499503Y-44258853D01*
X139621535Y-44342257D01*
X139675918Y-44465179D01*
X139688338Y-44681464D01*
X139687656Y-44759396D01*
X139666528Y-44939414D01*
X139591280Y-45047891D01*
X139429154Y-45143179D01*
X139369227Y-45169522D01*
X139103356Y-45243140D01*
X138826144Y-45272771D01*
X138706390Y-45276248D01*
X138511537Y-45321093D01*
X138417092Y-45439416D01*
X138392419Y-45658461D01*
X138392374Y-45682442D01*
X138399179Y-45746426D01*
X138438308Y-45777227D01*
X138537971Y-45775799D01*
X138726378Y-45743096D01*
X139031739Y-45680071D01*
X139093977Y-45667359D01*
X139176090Y-45657566D01*
X139141839Y-45691863D01*
X138984839Y-45784466D01*
X138863134Y-45862762D01*
X138822472Y-45920651D01*
X138909611Y-45928262D01*
X139117996Y-45885485D01*
X139441069Y-45792208D01*
X139485112Y-45778496D01*
X139815640Y-45684426D01*
X140012839Y-45647635D01*
X140075662Y-45668208D01*
X140003061Y-45746233D01*
X139924721Y-45811685D01*
X139873861Y-45873469D01*
X139933030Y-45890137D01*
X140086720Y-45906992D01*
X140103265Y-45908806D01*
X140345587Y-45924155D01*
X140542633Y-45930090D01*
X140748012Y-45915884D01*
X140896188Y-45862650D01*
X141040907Y-45757506D01*
X141116492Y-45681199D01*
X141293415Y-45436013D01*
X141491493Y-45092098D01*
X141696047Y-44678137D01*
X141892398Y-44222813D01*
X142065865Y-43754810D01*
X142083843Y-43701085D01*
X142163494Y-43438146D01*
X142218358Y-43189804D01*
X142254039Y-42915389D01*
X142260907Y-42809362D01*
X142755148Y-42809362D01*
X142785725Y-42848951D01*
X142905310Y-42965437D01*
X142980055Y-43032715D01*
X143192504Y-43201941D01*
X143374100Y-43319941D01*
X143546719Y-43382869D01*
X143701555Y-43353621D01*
X144132337Y-43353621D01*
X144208859Y-43488202D01*
X144343485Y-43637648D01*
X144501915Y-43764745D01*
X144649854Y-43832275D01*
X144750807Y-43845567D01*
X145002771Y-43857452D01*
X145279300Y-43852014D01*
X145686588Y-43828862D01*
X145390378Y-43774138D01*
X145366495Y-43769875D01*
X145086452Y-43733837D01*
X144821761Y-43718599D01*
X144677511Y-43706284D01*
X144436960Y-43598241D01*
X144249753Y-43362996D01*
X144201773Y-43298100D01*
X144139171Y-43278127D01*
X144132337Y-43353621D01*
X143701555Y-43353621D01*
X143707336Y-43352529D01*
X143756735Y-43321996D01*
X143775632Y-43285255D01*
X143658886Y-43275721D01*
X143597457Y-43268657D01*
X143369145Y-43189082D01*
X143087702Y-43037787D01*
X142794231Y-42835688D01*
X142755148Y-42809362D01*
X142260907Y-42809362D01*
X142276138Y-42574230D01*
X142278659Y-42494142D01*
X142645458Y-42494142D01*
X142720189Y-42563766D01*
X142755148Y-42580852D01*
X142928134Y-42665397D01*
X142968011Y-42682302D01*
X143096839Y-42730525D01*
X143111075Y-42703836D01*
X143028693Y-42588483D01*
X143006440Y-42569970D01*
X144390670Y-42569970D01*
X144427696Y-42606997D01*
X144464723Y-42569970D01*
X144427696Y-42532944D01*
X144390670Y-42569970D01*
X143006440Y-42569970D01*
X142936191Y-42511528D01*
X142757054Y-42458892D01*
X142707681Y-42461036D01*
X142645458Y-42494142D01*
X142278659Y-42494142D01*
X142290257Y-42125655D01*
X142290505Y-42114178D01*
X142539358Y-42114178D01*
X142539452Y-42126696D01*
X142573860Y-42270317D01*
X142687463Y-42310787D01*
X142757054Y-42301314D01*
X142773447Y-42299083D01*
X142835568Y-42248211D01*
X142797749Y-42172331D01*
X142687463Y-42051603D01*
X142594930Y-41973256D01*
X142546981Y-41978750D01*
X142539358Y-42114178D01*
X142290505Y-42114178D01*
X142291910Y-42049131D01*
X142292484Y-41564124D01*
X142550863Y-41564124D01*
X142591905Y-41680255D01*
X142594930Y-41684032D01*
X142750580Y-41878376D01*
X142961802Y-42114775D01*
X143134806Y-41953597D01*
X143136357Y-41952155D01*
X143285017Y-41839291D01*
X143400555Y-41792419D01*
X143473603Y-41784843D01*
X143535084Y-41733910D01*
X143485467Y-41665161D01*
X143337480Y-41614503D01*
X143331033Y-41613512D01*
X143079976Y-41574579D01*
X142886105Y-41544180D01*
X144191799Y-41544180D01*
X144261610Y-41531204D01*
X144370305Y-41429508D01*
X144501749Y-41267774D01*
X145007776Y-41573292D01*
X145077184Y-41614676D01*
X145305857Y-41742985D01*
X145473772Y-41824817D01*
X145548614Y-41843999D01*
X145532389Y-41808286D01*
X145422438Y-41714428D01*
X145243338Y-41588118D01*
X145029934Y-41451439D01*
X144817072Y-41326471D01*
X144639597Y-41235298D01*
X144532357Y-41199999D01*
X144530604Y-41200014D01*
X144409452Y-41245037D01*
X144283284Y-41347034D01*
X144196075Y-41461562D01*
X144191799Y-41544180D01*
X142886105Y-41544180D01*
X142817055Y-41533353D01*
X142629497Y-41519379D01*
X142550863Y-41564124D01*
X142292484Y-41564124D01*
X142292566Y-41494735D01*
X142282552Y-41324173D01*
X142588146Y-41324173D01*
X142622613Y-41345206D01*
X142629497Y-41344721D01*
X142662877Y-41342372D01*
X142838189Y-41304805D01*
X143057725Y-41237026D01*
X143172692Y-41198780D01*
X143482624Y-41131203D01*
X143682507Y-41156217D01*
X143776794Y-41274052D01*
X143811800Y-41360529D01*
X143880940Y-41422157D01*
X143934046Y-41401301D01*
X143926043Y-41299162D01*
X143815420Y-41128761D01*
X143755611Y-41060663D01*
X143667323Y-41007746D01*
X143537448Y-41009526D01*
X143315566Y-41058964D01*
X143066161Y-41127995D01*
X142837178Y-41204309D01*
X142668754Y-41273454D01*
X142588146Y-41324173D01*
X142282552Y-41324173D01*
X142265317Y-41030623D01*
X142203076Y-40606486D01*
X142098754Y-40172012D01*
X141945263Y-39676891D01*
X141917764Y-39602164D01*
X141799355Y-39344593D01*
X141637559Y-39045231D01*
X141454006Y-38739075D01*
X141270325Y-38461122D01*
X141108147Y-38246370D01*
X140989101Y-38129816D01*
X140955162Y-38071779D01*
X140980071Y-37915671D01*
X140983404Y-37906343D01*
X141006654Y-37695195D01*
X140978544Y-37409624D01*
X140908347Y-37106554D01*
X140805334Y-36842910D01*
X140770114Y-36778841D01*
X140506265Y-36449073D01*
X140171128Y-36213579D01*
X139793769Y-36079156D01*
X139403257Y-36052603D01*
X139028658Y-36140718D01*
X138699042Y-36350299D01*
X138433327Y-36593809D01*
X138791441Y-36804922D01*
X138903754Y-36873565D01*
X139322550Y-37167977D01*
X139735651Y-37511818D01*
X140118607Y-37880284D01*
X140446967Y-38248568D01*
X140696281Y-38591865D01*
X140842100Y-38885370D01*
X140887932Y-39051842D01*
X140879630Y-39161425D01*
X140786480Y-39152969D01*
X140600344Y-39031388D01*
X140434756Y-38919114D01*
X140213748Y-38786271D01*
X139987741Y-38662002D01*
X139800000Y-38570038D01*
X139693785Y-38534110D01*
X139689273Y-38541894D01*
X139722681Y-38632890D01*
X139809228Y-38793294D01*
X139856141Y-38877041D01*
X139902973Y-39003896D01*
X139857034Y-39038743D01*
X139709761Y-38982622D01*
X139452588Y-38836572D01*
X139307112Y-38752343D01*
X139086042Y-38637592D01*
X138929300Y-38572398D01*
X138898602Y-38563952D01*
X138808025Y-38560343D01*
X138770251Y-38636034D01*
X138762682Y-38825330D01*
X138765305Y-38924008D01*
X138797898Y-39080077D01*
X138799708Y-39081165D01*
X138875171Y-39126530D01*
X138878501Y-39126557D01*
X138952567Y-39168971D01*
X138941369Y-39310971D01*
X138929895Y-39448491D01*
X139008163Y-39538807D01*
X139070110Y-39579118D01*
X139065402Y-39660274D01*
X138980401Y-39820921D01*
X138933572Y-39901750D01*
X138879361Y-40032506D01*
X138895878Y-40151060D01*
X138983565Y-40328333D01*
X139000518Y-40360699D01*
X139071877Y-40545000D01*
X139045100Y-40624519D01*
X139033669Y-40631094D01*
X139088766Y-40646042D01*
X139247725Y-40652011D01*
X139429094Y-40636932D01*
X139648250Y-40538337D01*
X139763953Y-40339273D01*
X139784801Y-40029775D01*
X139778361Y-39943481D01*
X139743430Y-39757473D01*
X139657568Y-39640698D01*
X139484893Y-39533819D01*
X139417415Y-39495022D01*
X139267221Y-39382397D01*
X139207197Y-39293148D01*
X139208282Y-39270491D01*
X139262746Y-39205512D01*
X139399790Y-39262384D01*
X139619942Y-39441298D01*
X139657569Y-39476780D01*
X139841360Y-39712096D01*
X139921361Y-39978178D01*
X139929277Y-40051127D01*
X139906902Y-40390594D01*
X139771819Y-40635364D01*
X139521092Y-40788777D01*
X139151789Y-40854174D01*
X139117208Y-40856942D01*
X138959202Y-40906901D01*
X138908480Y-40993506D01*
X138984839Y-41088921D01*
X139004629Y-41104025D01*
X139058892Y-41213437D01*
X139043461Y-41249274D01*
X138955014Y-41205976D01*
X138873250Y-41157641D01*
X138821321Y-41209212D01*
X138809150Y-41229083D01*
X138757381Y-41194424D01*
X138685482Y-41054144D01*
X138603354Y-40836336D01*
X138520899Y-40569090D01*
X138448020Y-40280498D01*
X138394618Y-39998652D01*
X138356269Y-39661552D01*
X138344136Y-39459766D01*
X138762682Y-39459766D01*
X138799708Y-39496792D01*
X138836734Y-39459766D01*
X138799708Y-39422740D01*
X138762682Y-39459766D01*
X138344136Y-39459766D01*
X138332463Y-39265631D01*
X138332116Y-38924891D01*
X138355393Y-38423032D01*
X137874052Y-38446447D01*
X137707327Y-38455498D01*
X137424738Y-38480636D01*
X137249700Y-38518883D01*
X137154106Y-38578359D01*
X137109851Y-38667182D01*
X137102865Y-38693195D01*
X137079412Y-38747426D01*
X137068065Y-38657193D01*
X137067710Y-38651263D01*
X137062608Y-38599358D01*
X137039931Y-38565696D01*
X136978215Y-38551014D01*
X136855994Y-38556046D01*
X136651805Y-38581526D01*
X136344182Y-38628189D01*
X135911661Y-38696769D01*
X135895977Y-38699276D01*
X135584028Y-38756496D01*
X135365521Y-38810698D01*
X135253622Y-38856575D01*
X135261497Y-38888819D01*
X135402312Y-38902121D01*
X135486751Y-38908990D01*
X135720174Y-38946679D01*
X136027014Y-39009708D01*
X136363296Y-39089504D01*
X136581486Y-39144678D01*
X136848965Y-39211747D01*
X137034844Y-39257630D01*
X137108165Y-39274635D01*
X137124735Y-39237614D01*
X137133527Y-39200357D01*
X137155318Y-39108017D01*
X137172290Y-39026780D01*
X137187636Y-39010553D01*
X137197495Y-39136059D01*
X137200925Y-39173946D01*
X137268875Y-39320804D01*
X137448250Y-39424864D01*
X137618412Y-39492809D01*
X137930510Y-39629929D01*
X138111703Y-39733306D01*
X138170262Y-39807324D01*
X138170152Y-39809586D01*
X138102996Y-39845677D01*
X137948104Y-39835912D01*
X137754086Y-39798438D01*
X137503790Y-39750092D01*
X137281632Y-39707182D01*
X137281911Y-40398051D01*
X137282190Y-41088921D01*
X137799969Y-41397073D01*
X137879902Y-41443553D01*
X138110960Y-41564579D01*
X138281569Y-41633937D01*
X138359454Y-41637744D01*
X138416776Y-41580146D01*
X138489499Y-41585853D01*
X138493229Y-41681398D01*
X138498712Y-41748583D01*
X138607128Y-41910990D01*
X138831675Y-42135170D01*
X138843542Y-42145862D01*
X139026359Y-42317151D01*
X139149870Y-42445079D01*
X139187913Y-42502659D01*
X139152098Y-42503932D01*
X139008014Y-42475157D01*
X138796587Y-42417221D01*
X138583726Y-42357785D01*
X138392570Y-42328606D01*
X138322673Y-42372560D01*
X138364943Y-42499199D01*
X138510292Y-42718075D01*
X138602580Y-42850842D01*
X138770538Y-43122306D01*
X138901308Y-43372473D01*
X138986966Y-43580274D01*
X139019592Y-43724641D01*
X138991265Y-43784505D01*
X138894063Y-43738798D01*
X138777514Y-43684344D01*
X138545004Y-43608195D01*
X138231504Y-43520710D01*
X137869859Y-43430515D01*
X137492918Y-43346235D01*
X137133527Y-43276497D01*
X136915410Y-43242195D01*
X136686754Y-43229702D01*
X136475346Y-43262647D01*
X136207871Y-43346580D01*
X136012020Y-43407256D01*
X135656878Y-43493339D01*
X135337755Y-43545945D01*
X135152341Y-43570161D01*
X134978907Y-43605391D01*
X134911953Y-43637529D01*
X133187521Y-43637529D01*
X133025271Y-43615712D01*
X132580963Y-43540990D01*
X132144136Y-43454859D01*
X131742637Y-43363625D01*
X131404320Y-43273597D01*
X131157032Y-43191082D01*
X131028625Y-43122386D01*
X131014078Y-43106847D01*
X131005239Y-43057793D01*
X131117157Y-43064872D01*
X131357923Y-43128227D01*
X131927998Y-43275344D01*
X132771987Y-43420082D01*
X133625303Y-43488004D01*
X134464398Y-43480709D01*
X135265723Y-43399794D01*
X136005727Y-43246857D01*
X136528003Y-43068793D01*
X137059475Y-43068793D01*
X137112686Y-43107205D01*
X137258395Y-43125364D01*
X137269623Y-43125576D01*
X137448773Y-43149093D01*
X137711642Y-43203915D01*
X138005536Y-43279195D01*
X138063075Y-43295078D01*
X138318735Y-43358823D01*
X138507205Y-43394813D01*
X138591157Y-43395625D01*
X138576044Y-43361769D01*
X138474503Y-43259122D01*
X138309250Y-43115978D01*
X138113537Y-42958795D01*
X137920616Y-42814032D01*
X137763741Y-42708147D01*
X137676164Y-42667597D01*
X137587985Y-42697591D01*
X137429603Y-42783996D01*
X137256350Y-42895726D01*
X137116787Y-43001189D01*
X137059475Y-43068793D01*
X136528003Y-43068793D01*
X136660863Y-43023496D01*
X137207580Y-42731310D01*
X137391379Y-42603758D01*
X137608071Y-42444379D01*
X137676164Y-42390951D01*
X137788497Y-42302811D01*
X137904317Y-42201446D01*
X137927189Y-42162682D01*
X137916724Y-42165332D01*
X137805943Y-42209653D01*
X137604894Y-42297283D01*
X137347600Y-42413500D01*
X136725272Y-42654458D01*
X136038985Y-42834397D01*
X135355761Y-42934012D01*
X134712170Y-42948076D01*
X134144782Y-42871361D01*
X133874973Y-42810787D01*
X133497808Y-42732183D01*
X133073723Y-42648171D01*
X132653352Y-42569016D01*
X131690670Y-42393308D01*
X132357142Y-42428756D01*
X133243107Y-42474387D01*
X134049364Y-42512147D01*
X134729198Y-42539093D01*
X135293556Y-42555355D01*
X135753383Y-42561063D01*
X136119626Y-42556346D01*
X136403230Y-42541333D01*
X136615142Y-42516155D01*
X136766308Y-42480940D01*
X136911324Y-42428124D01*
X137050543Y-42357631D01*
X137080680Y-42309113D01*
X137062721Y-42296349D01*
X136914712Y-42227438D01*
X136660828Y-42132063D01*
X136330299Y-42019873D01*
X135952355Y-41900513D01*
X135556224Y-41783632D01*
X135171137Y-41678876D01*
X134872708Y-41611234D01*
X134410887Y-41527561D01*
X133913953Y-41455419D01*
X133444966Y-41404820D01*
X133238248Y-41386294D01*
X132867297Y-41344261D01*
X132639870Y-41304004D01*
X132552774Y-41266678D01*
X132602816Y-41233435D01*
X132786801Y-41205430D01*
X133101538Y-41183816D01*
X133543832Y-41169747D01*
X134110490Y-41164376D01*
X134135902Y-41164343D01*
X134559905Y-41161351D01*
X134920008Y-41154347D01*
X135195160Y-41144102D01*
X135364310Y-41131384D01*
X135406409Y-41116965D01*
X135336897Y-41083795D01*
X135081310Y-41001546D01*
X134736794Y-40940318D01*
X134288744Y-40898581D01*
X133722553Y-40874807D01*
X133023615Y-40867465D01*
X132509478Y-40869743D01*
X132081658Y-40877693D01*
X131752935Y-40893071D01*
X131498055Y-40917643D01*
X131291762Y-40953177D01*
X131108804Y-41001439D01*
X130905662Y-41059152D01*
X130724933Y-41099588D01*
X130643160Y-41102830D01*
X130655098Y-41072388D01*
X130761849Y-40982670D01*
X130946819Y-40857593D01*
X131178268Y-40717059D01*
X131424456Y-40580970D01*
X131653644Y-40469228D01*
X131718140Y-40440344D01*
X131866429Y-40367031D01*
X131903000Y-40329538D01*
X131819624Y-40326879D01*
X131608073Y-40358069D01*
X131260117Y-40422124D01*
X131102339Y-40455899D01*
X130616483Y-40608631D01*
X130208664Y-40812704D01*
X129913294Y-41052024D01*
X129892344Y-41076491D01*
X129836633Y-41173330D01*
X129809318Y-41310308D01*
X129806384Y-41523111D01*
X129534092Y-41523111D01*
X129528826Y-41051895D01*
X129562037Y-40551548D01*
X129628905Y-40125188D01*
X134115123Y-40125188D01*
X134134210Y-40150454D01*
X134282507Y-40161109D01*
X134367915Y-40166617D01*
X134639858Y-40208921D01*
X134992527Y-40284122D01*
X135385050Y-40381710D01*
X135776552Y-40491177D01*
X136126160Y-40602014D01*
X136393002Y-40703714D01*
X136574953Y-40782219D01*
X136808496Y-40877598D01*
X136966909Y-40935776D01*
X137045290Y-40954681D01*
X137095528Y-40933981D01*
X137121810Y-40845714D01*
X137131891Y-40663034D01*
X137133527Y-40359097D01*
X137133527Y-39730371D01*
X136559620Y-39764402D01*
X136474004Y-39769821D01*
X136101400Y-39800143D01*
X135715344Y-39840707D01*
X135333667Y-39888406D01*
X134974203Y-39940133D01*
X134654784Y-39992782D01*
X134393242Y-40043245D01*
X134207411Y-40088416D01*
X134115123Y-40125188D01*
X129628905Y-40125188D01*
X129718823Y-39551863D01*
X129996037Y-38632518D01*
X130397607Y-37784389D01*
X130927461Y-36998350D01*
X131589527Y-36265277D01*
X131598397Y-36256652D01*
X131819624Y-36047872D01*
X132026950Y-35852210D01*
X132393542Y-35537086D01*
X132730456Y-35287309D01*
X133069977Y-35078902D01*
X133444390Y-34887894D01*
X133868642Y-34696869D01*
X134456455Y-34473118D01*
X135029561Y-34313507D01*
X135627844Y-34209747D01*
X136291187Y-34153551D01*
X137059475Y-34136629D01*
X137342183Y-34137416D01*
G37*
G36*
X144816088Y-45139830D02*
G01*
X144996455Y-45178434D01*
X145215498Y-45228457D01*
X145420063Y-45277753D01*
X145556997Y-45314176D01*
X145609321Y-45339228D01*
X145654834Y-45431517D01*
X145600711Y-45525847D01*
X145465930Y-45569096D01*
X145352562Y-45558978D01*
X145130964Y-45502924D01*
X144915201Y-45415488D01*
X144751698Y-45317007D01*
X144686880Y-45227819D01*
X144690705Y-45184616D01*
X144728141Y-45124781D01*
X144816088Y-45139830D01*
G37*
G36*
X145172029Y-45927619D02*
G01*
X145193114Y-45937850D01*
X145313889Y-46043995D01*
X145316587Y-46151149D01*
X145197678Y-46219195D01*
X145099407Y-46208381D01*
X144944631Y-46131615D01*
X144923582Y-46115653D01*
X144844960Y-46020906D01*
X144888516Y-45931542D01*
X144901877Y-45918765D01*
X145008625Y-45877045D01*
X145172029Y-45927619D01*
G37*
G36*
X143576093Y-38941399D02*
G01*
X143539067Y-38978425D01*
X143502040Y-38941399D01*
X143539067Y-38904373D01*
X143576093Y-38941399D01*
G37*
G36*
X143353935Y-44347230D02*
G01*
X143316909Y-44384256D01*
X143279883Y-44347230D01*
X143316909Y-44310204D01*
X143353935Y-44347230D01*
G37*
G36*
X142687463Y-45375224D02*
G01*
X142684131Y-45388244D01*
X142613411Y-45458017D01*
X142587192Y-45471810D01*
X142539358Y-45466758D01*
X142542690Y-45453738D01*
X142613411Y-45383965D01*
X142639629Y-45370171D01*
X142687463Y-45375224D01*
G37*
G36*
X141946938Y-46124489D02*
G01*
X141909912Y-46161516D01*
X141872886Y-46124489D01*
X141909912Y-46087463D01*
X141946938Y-46124489D01*
G37*
G36*
X141502623Y-35312827D02*
G01*
X141465597Y-35349854D01*
X141428571Y-35312827D01*
X141465597Y-35275801D01*
X141502623Y-35312827D01*
G37*
G36*
X140984256Y-47753644D02*
G01*
X140947230Y-47790670D01*
X140910204Y-47753644D01*
X140947230Y-47716618D01*
X140984256Y-47753644D01*
G37*
G36*
X141683377Y-42692049D02*
G01*
X141724781Y-42787757D01*
X141718866Y-42833088D01*
X141650728Y-42940233D01*
X141605183Y-42935918D01*
X141576676Y-42833524D01*
X141591144Y-42743258D01*
X141650728Y-42681049D01*
X141683377Y-42692049D01*
G37*
G36*
X141194581Y-39576662D02*
G01*
X141307710Y-39622773D01*
X141347426Y-39723158D01*
X141298116Y-39852537D01*
X141170894Y-39930285D01*
X141119444Y-39939033D01*
X141067118Y-39924791D01*
X141129957Y-39832926D01*
X141153055Y-39804249D01*
X141195851Y-39710277D01*
X141127599Y-39640387D01*
X141122780Y-39637326D01*
X141062397Y-39584710D01*
X141138532Y-39571979D01*
X141194581Y-39576662D01*
G37*
G36*
X140119739Y-45210916D02*
G01*
X140155485Y-45278440D01*
X140145429Y-45300395D01*
X140058600Y-45358046D01*
X140038165Y-45354948D01*
X139961715Y-45278440D01*
X139966437Y-45236408D01*
X140058600Y-45198833D01*
X140119739Y-45210916D01*
G37*
G36*
X139300136Y-39961662D02*
G01*
X139336588Y-40033673D01*
X139299685Y-40082552D01*
X139169970Y-40126239D01*
X139093597Y-40112186D01*
X139003352Y-40033673D01*
X139025792Y-39969446D01*
X139169970Y-39941107D01*
X139300136Y-39961662D01*
G37*
G36*
X139077423Y-44623089D02*
G01*
X139132944Y-44712062D01*
X139105969Y-44781529D01*
X138978668Y-44828571D01*
X138934370Y-44824483D01*
X138858471Y-44766901D01*
X138886051Y-44681337D01*
X139009489Y-44619497D01*
X139077423Y-44623089D01*
G37*
G36*
X138170262Y-40496501D02*
G01*
X138225817Y-40631160D01*
X138227600Y-40673623D01*
X138170262Y-40644606D01*
X138135380Y-40607200D01*
X138101414Y-40473617D01*
X138103042Y-40445296D01*
X138121343Y-40403458D01*
X138170262Y-40496501D01*
G37*
G36*
X138096209Y-44421282D02*
G01*
X138059183Y-44458309D01*
X138022157Y-44421282D01*
X138059183Y-44384256D01*
X138096209Y-44421282D01*
G37*
G36*
X138019889Y-44643440D02*
G01*
X138009896Y-44734047D01*
X137948104Y-44902623D01*
X137934557Y-44923047D01*
X137887508Y-44962744D01*
X137876320Y-44865597D01*
X137886312Y-44774990D01*
X137948104Y-44606413D01*
X137961652Y-44585990D01*
X138008701Y-44546293D01*
X138019889Y-44643440D01*
G37*
G36*
X130913119Y-43014285D02*
G01*
X130876093Y-43051311D01*
X130839067Y-43014285D01*
X130876093Y-42977259D01*
X130913119Y-43014285D01*
G37*
G36*
X81050603Y-35573309D02*
G01*
X81149639Y-35719458D01*
X81292754Y-35955650D01*
X81576008Y-36211375D01*
X81986314Y-36440519D01*
X82195655Y-36530964D01*
X82370076Y-36580772D01*
X82539094Y-36584264D01*
X82763176Y-36549958D01*
X83360137Y-36467461D01*
X84036607Y-36432749D01*
X84706922Y-36454037D01*
X85340921Y-36528986D01*
X85908442Y-36655255D01*
X86379324Y-36830505D01*
X86539932Y-36915199D01*
X86953458Y-37190319D01*
X87368907Y-37537338D01*
X87761535Y-37930184D01*
X88106597Y-38342783D01*
X88379347Y-38749064D01*
X88555041Y-39122953D01*
X88585413Y-39204264D01*
X88714144Y-39414562D01*
X88920322Y-39569123D01*
X89099853Y-39689186D01*
X89409105Y-39979893D01*
X89676797Y-40332448D01*
X89864623Y-40700937D01*
X89935725Y-40884262D01*
X90149754Y-41349885D01*
X90380769Y-41713760D01*
X90646588Y-42000737D01*
X90965027Y-42235668D01*
X91007910Y-42263858D01*
X91136808Y-42394711D01*
X91140786Y-42510123D01*
X91028182Y-42602261D01*
X90807331Y-42663289D01*
X90486567Y-42685373D01*
X90251117Y-42673830D01*
X89988563Y-42613959D01*
X89702619Y-42484930D01*
X89321572Y-42284488D01*
X89354644Y-42501819D01*
X89429422Y-43216070D01*
X89417432Y-44049463D01*
X89288041Y-44864092D01*
X89038119Y-45691490D01*
X88965521Y-45891380D01*
X88786654Y-46426684D01*
X88666655Y-46878002D01*
X88602274Y-47271965D01*
X88590258Y-47635202D01*
X88627355Y-47994345D01*
X88710313Y-48376022D01*
X88711691Y-48381324D01*
X88764137Y-48619091D01*
X88789114Y-48808404D01*
X88781223Y-48908702D01*
X88683116Y-48965780D01*
X88523086Y-48931426D01*
X88484118Y-48909055D01*
X88322727Y-48816405D01*
X88100889Y-48636122D01*
X87876425Y-48405979D01*
X87668185Y-48141380D01*
X87495021Y-47857730D01*
X87274443Y-47432294D01*
X86932700Y-47650726D01*
X86860114Y-47695654D01*
X86607382Y-47841135D01*
X86302658Y-48005898D01*
X85996651Y-48162233D01*
X85580558Y-48399534D01*
X85192993Y-48718452D01*
X84884036Y-49111005D01*
X84625368Y-49607029D01*
X84612759Y-49635735D01*
X84480216Y-49898134D01*
X84367158Y-50029319D01*
X84264245Y-50029845D01*
X84162134Y-49900267D01*
X84051484Y-49641140D01*
X83902891Y-49233610D01*
X83644715Y-49590475D01*
X83519502Y-49769544D01*
X83437353Y-49897634D01*
X83422362Y-49921009D01*
X83384360Y-49998006D01*
X83365482Y-50024603D01*
X83263963Y-50048601D01*
X83231530Y-50042982D01*
X83163902Y-49978613D01*
X83099150Y-49824595D01*
X83026568Y-49558840D01*
X83022170Y-49540666D01*
X82964319Y-49279831D01*
X82923516Y-49056454D01*
X82908350Y-48917155D01*
X82897821Y-48822703D01*
X82858644Y-48766602D01*
X82857269Y-48766667D01*
X82769408Y-48827263D01*
X82659530Y-48972441D01*
X82551499Y-49160714D01*
X82469180Y-49350594D01*
X82436437Y-49500593D01*
X82407452Y-49667472D01*
X82281641Y-49823866D01*
X82069841Y-49890180D01*
X81963519Y-49878166D01*
X81786947Y-49858213D01*
X81724025Y-49842580D01*
X81473928Y-49796851D01*
X81386007Y-49789345D01*
X81258469Y-49778458D01*
X81078004Y-49749406D01*
X80837231Y-49621924D01*
X80834984Y-49620088D01*
X80631268Y-49482602D01*
X80409841Y-49370746D01*
X80359450Y-49346103D01*
X80179410Y-49224614D01*
X79958806Y-49043832D01*
X79734309Y-48832952D01*
X79295213Y-48389802D01*
X79036940Y-48420356D01*
X78889894Y-48437752D01*
X78465238Y-48445820D01*
X78208962Y-48385700D01*
X78058642Y-48350437D01*
X77729634Y-48149197D01*
X77707713Y-48122059D01*
X77485123Y-47846495D01*
X77393817Y-47608090D01*
X78118100Y-47608090D01*
X78180586Y-47819415D01*
X78208962Y-47853818D01*
X78241656Y-47829719D01*
X78257808Y-47684309D01*
X78258121Y-47677872D01*
X78258357Y-47667826D01*
X78438977Y-47667826D01*
X78536695Y-47823957D01*
X78768321Y-47977917D01*
X78864656Y-48025627D01*
X79036940Y-48088977D01*
X79107040Y-48065899D01*
X79078003Y-47952547D01*
X78952879Y-47745074D01*
X78848166Y-47581982D01*
X78756355Y-47420527D01*
X78721011Y-47331483D01*
X78700005Y-47306568D01*
X78615993Y-47349604D01*
X78474000Y-47504697D01*
X78438977Y-47667826D01*
X78258357Y-47667826D01*
X78262900Y-47474326D01*
X78258638Y-47312766D01*
X78262523Y-47233100D01*
X78303033Y-47262824D01*
X78323764Y-47286126D01*
X78399577Y-47280916D01*
X78516281Y-47175549D01*
X78856117Y-47175549D01*
X78890184Y-47281944D01*
X78993892Y-47469093D01*
X79149595Y-47707624D01*
X79339355Y-47974009D01*
X79545233Y-48244720D01*
X79749290Y-48496230D01*
X79933586Y-48705009D01*
X80080183Y-48847531D01*
X80171141Y-48900266D01*
X80256170Y-48934005D01*
X80376064Y-49035373D01*
X80483862Y-49123319D01*
X80614699Y-49170479D01*
X80691565Y-49187356D01*
X80818857Y-49276263D01*
X80853428Y-49312797D01*
X81021392Y-49436112D01*
X81220500Y-49535178D01*
X81386007Y-49575798D01*
X81455149Y-49543135D01*
X81490692Y-49403654D01*
X81489268Y-49369150D01*
X81433790Y-49237973D01*
X81284321Y-49146579D01*
X81496517Y-49146579D01*
X81553751Y-49201478D01*
X81598292Y-49263369D01*
X81625798Y-49405535D01*
X81627804Y-49445402D01*
X81681679Y-49551747D01*
X81835135Y-49611041D01*
X81963519Y-49625941D01*
X82098333Y-49588358D01*
X82144114Y-49497596D01*
X82104215Y-49380557D01*
X81981991Y-49264146D01*
X81976164Y-49261572D01*
X81780797Y-49175266D01*
X81705763Y-49155967D01*
X81552684Y-49130774D01*
X81496517Y-49146579D01*
X81284321Y-49146579D01*
X81274682Y-49140685D01*
X81258365Y-49134020D01*
X81088817Y-49085098D01*
X80970692Y-49083620D01*
X80910479Y-49073621D01*
X80882713Y-48952686D01*
X80873656Y-48893457D01*
X80779948Y-48749206D01*
X80626978Y-48653131D01*
X80467696Y-48644545D01*
X80396024Y-48632970D01*
X80308182Y-48536460D01*
X80306539Y-48533263D01*
X80193062Y-48418853D01*
X80020553Y-48335463D01*
X80000350Y-48329472D01*
X79859517Y-48274294D01*
X79801862Y-48226662D01*
X79810950Y-48207713D01*
X79899861Y-48194846D01*
X80045911Y-48222961D01*
X80202321Y-48280455D01*
X80322311Y-48355729D01*
X80439537Y-48438395D01*
X80626928Y-48517831D01*
X80807068Y-48593846D01*
X80958272Y-48722837D01*
X81017820Y-48863440D01*
X81061768Y-48930738D01*
X81190623Y-48985103D01*
X81242785Y-48993797D01*
X81327066Y-48984273D01*
X81318065Y-48908536D01*
X81306623Y-48880699D01*
X81736551Y-48880699D01*
X81850468Y-48912122D01*
X81855782Y-48913193D01*
X81976164Y-48923918D01*
X81975862Y-48885543D01*
X81922680Y-48855141D01*
X81784968Y-48846622D01*
X81750461Y-48855405D01*
X81736551Y-48880699D01*
X81306623Y-48880699D01*
X81296763Y-48856710D01*
X81246539Y-48707794D01*
X81266970Y-48632802D01*
X81379438Y-48610119D01*
X81605325Y-48618127D01*
X81768646Y-48620600D01*
X82017577Y-48602243D01*
X82200000Y-48562416D01*
X82201335Y-48561905D01*
X82333450Y-48504566D01*
X82352201Y-48458083D01*
X82271531Y-48388571D01*
X82247342Y-48373331D01*
X82076560Y-48315298D01*
X81866211Y-48291292D01*
X81787676Y-48289814D01*
X81642424Y-48272956D01*
X81501528Y-48224668D01*
X81326771Y-48129415D01*
X81152926Y-48018309D01*
X81079939Y-47971663D01*
X81040826Y-47947362D01*
X81006610Y-47931310D01*
X80847255Y-47856549D01*
X80684234Y-47819668D01*
X80630891Y-47815615D01*
X80511171Y-47769684D01*
X80395605Y-47725346D01*
X80259335Y-47620948D01*
X80137828Y-47527860D01*
X79917171Y-47281479D01*
X81575282Y-47281479D01*
X81667715Y-47372168D01*
X81880337Y-47520847D01*
X81980317Y-47582535D01*
X82505260Y-47811934D01*
X83088066Y-47923244D01*
X83720787Y-47915621D01*
X84395479Y-47788220D01*
X84524465Y-47753381D01*
X84795080Y-47681561D01*
X84960204Y-47641349D01*
X85037921Y-47629451D01*
X85046311Y-47642571D01*
X85003458Y-47677413D01*
X84908364Y-47727146D01*
X84718197Y-47805802D01*
X84485033Y-47889739D01*
X84280133Y-47965477D01*
X84097262Y-48047996D01*
X84002055Y-48110323D01*
X83979389Y-48140870D01*
X83878451Y-48310273D01*
X83756670Y-48546769D01*
X83635645Y-48804902D01*
X83536975Y-49039217D01*
X83482260Y-49204256D01*
X83437353Y-49406915D01*
X83625781Y-49170479D01*
X83632560Y-49162012D01*
X83795806Y-48973925D01*
X83983951Y-48779501D01*
X84173687Y-48599861D01*
X84341702Y-48456126D01*
X84464687Y-48369417D01*
X84519332Y-48360853D01*
X84516959Y-48445242D01*
X84486815Y-48624327D01*
X84434890Y-48853932D01*
X84412343Y-48944898D01*
X84353767Y-49206468D01*
X84339188Y-49344891D01*
X84372171Y-49364955D01*
X84456276Y-49271445D01*
X84595067Y-49069149D01*
X84695622Y-48918635D01*
X84914568Y-48621271D01*
X85130465Y-48388036D01*
X85375759Y-48191189D01*
X85682893Y-48002987D01*
X86084309Y-47795686D01*
X86098874Y-47788508D01*
X86409631Y-47631318D01*
X86688404Y-47483219D01*
X86905207Y-47360572D01*
X87030054Y-47279734D01*
X87057597Y-47257905D01*
X87128873Y-47197053D01*
X87122933Y-47180452D01*
X87022974Y-47208131D01*
X86812193Y-47280121D01*
X86683980Y-47317199D01*
X86334780Y-47376989D01*
X85928090Y-47407453D01*
X85511059Y-47407768D01*
X85130837Y-47377111D01*
X84834575Y-47314658D01*
X84716619Y-47275783D01*
X85510107Y-47275783D01*
X85887732Y-47277386D01*
X86114726Y-47264240D01*
X86424517Y-47219505D01*
X86749630Y-47151752D01*
X87052621Y-47070047D01*
X87296046Y-46983452D01*
X87442460Y-46901034D01*
X87460776Y-46882984D01*
X87571990Y-46735341D01*
X87678249Y-46546651D01*
X87685067Y-46532526D01*
X87769006Y-46402080D01*
X87821651Y-46390528D01*
X87830801Y-46483884D01*
X87784255Y-46668162D01*
X87753395Y-46814919D01*
X87774561Y-47088933D01*
X87816647Y-47248336D01*
X87882825Y-47498437D01*
X87954199Y-47767768D01*
X87975403Y-47843308D01*
X88108362Y-48187629D01*
X88268983Y-48430461D01*
X88319563Y-48483115D01*
X88430152Y-48586080D01*
X88484118Y-48617124D01*
X88483458Y-48572783D01*
X88455629Y-48429172D01*
X88404495Y-48224644D01*
X88335879Y-47861464D01*
X88330124Y-47281016D01*
X88437040Y-46637154D01*
X88657151Y-45925111D01*
X88687553Y-45842715D01*
X88850735Y-45382603D01*
X88967787Y-45004672D01*
X89045783Y-44673051D01*
X89091796Y-44351869D01*
X89112899Y-44005256D01*
X89116166Y-43597341D01*
X89115864Y-43557951D01*
X89111620Y-43238964D01*
X89103955Y-43041603D01*
X89091238Y-42953633D01*
X89071839Y-42962815D01*
X89044125Y-43056915D01*
X88946429Y-43425714D01*
X88694242Y-44162369D01*
X88372686Y-44838892D01*
X87960672Y-45502895D01*
X87899232Y-45590460D01*
X87660003Y-45895859D01*
X87400416Y-46160965D01*
X87086242Y-46417811D01*
X86683255Y-46698431D01*
X86498189Y-46812451D01*
X86189600Y-46980441D01*
X85906393Y-47112852D01*
X85510107Y-47275783D01*
X84716619Y-47275783D01*
X84564362Y-47225603D01*
X84908441Y-47218520D01*
X85254545Y-47179726D01*
X85746965Y-47039092D01*
X86248574Y-46811739D01*
X86724753Y-46514046D01*
X87140880Y-46162392D01*
X87312069Y-45981344D01*
X87484486Y-45763370D01*
X87643081Y-45511193D01*
X87807133Y-45193637D01*
X87995919Y-44779522D01*
X88026325Y-44707218D01*
X88108424Y-44489068D01*
X88194739Y-44234378D01*
X88278596Y-43966688D01*
X88353321Y-43709540D01*
X88412243Y-43486476D01*
X88448687Y-43321036D01*
X88455980Y-43236762D01*
X88427449Y-43257196D01*
X88346720Y-43364562D01*
X88184287Y-43553652D01*
X87960441Y-43800864D01*
X87692900Y-44086988D01*
X87399383Y-44392811D01*
X87097607Y-44699122D01*
X86840238Y-44940452D01*
X86486840Y-45237774D01*
X86096625Y-45538152D01*
X85689457Y-45828528D01*
X85285197Y-46095847D01*
X84903707Y-46327049D01*
X84564850Y-46509077D01*
X84288488Y-46628875D01*
X84094482Y-46673384D01*
X83973132Y-46691149D01*
X83762942Y-46740132D01*
X83517288Y-46809015D01*
X83078192Y-46942272D01*
X83686171Y-46914344D01*
X83870085Y-46901504D01*
X84573448Y-46779723D01*
X85287129Y-46550801D01*
X85976370Y-46227722D01*
X86606414Y-45823469D01*
X86678654Y-45770472D01*
X86871503Y-45641819D01*
X86993899Y-45579101D01*
X87034701Y-45583559D01*
X86982769Y-45656429D01*
X86826962Y-45798950D01*
X86793630Y-45826554D01*
X86444906Y-46080170D01*
X86032766Y-46330415D01*
X85585760Y-46564296D01*
X85132440Y-46768822D01*
X84701355Y-46930998D01*
X84321056Y-47037832D01*
X84020093Y-47076330D01*
X83992500Y-47076708D01*
X83846858Y-47094240D01*
X83787500Y-47129873D01*
X83784443Y-47143740D01*
X83696178Y-47204425D01*
X83506369Y-47256985D01*
X83242554Y-47299314D01*
X82932276Y-47329303D01*
X82603075Y-47344844D01*
X82282493Y-47343830D01*
X81998070Y-47324153D01*
X81777347Y-47283705D01*
X81752100Y-47276637D01*
X81603318Y-47249421D01*
X81575282Y-47281479D01*
X79917171Y-47281479D01*
X79884692Y-47245213D01*
X80477394Y-47245213D01*
X80511171Y-47278990D01*
X80544947Y-47245213D01*
X80511171Y-47211437D01*
X80477394Y-47245213D01*
X79884692Y-47245213D01*
X79878414Y-47238203D01*
X79872952Y-47231088D01*
X79829444Y-47181647D01*
X81085373Y-47181647D01*
X81087129Y-47188388D01*
X81152926Y-47211437D01*
X81171442Y-47208687D01*
X81220479Y-47139897D01*
X81215175Y-47115463D01*
X81152926Y-47110107D01*
X81132710Y-47123972D01*
X81085373Y-47181647D01*
X79829444Y-47181647D01*
X79712891Y-47049201D01*
X79561735Y-46960763D01*
X79375310Y-46952797D01*
X79109442Y-47012329D01*
X79060741Y-47027588D01*
X78914840Y-47099952D01*
X78856117Y-47175549D01*
X78516281Y-47175549D01*
X78522785Y-47169677D01*
X78712024Y-47006865D01*
X79052977Y-46855480D01*
X79478815Y-46804063D01*
X79550329Y-46803291D01*
X79711693Y-46794288D01*
X79759479Y-46771339D01*
X79710180Y-46729101D01*
X79613993Y-46700037D01*
X79412243Y-46679951D01*
X79169755Y-46682717D01*
X79132406Y-46685476D01*
X78733383Y-46771549D01*
X78422562Y-46952852D01*
X78207778Y-47224970D01*
X78154119Y-47353105D01*
X78118100Y-47608090D01*
X77393817Y-47608090D01*
X77332017Y-47446726D01*
X77296933Y-47274191D01*
X77253362Y-46969040D01*
X77235896Y-46707200D01*
X77235094Y-46622332D01*
X77225035Y-46473319D01*
X77196702Y-46429953D01*
X77141527Y-46470764D01*
X77140036Y-46472382D01*
X77072316Y-46587112D01*
X76985318Y-46787781D01*
X76897481Y-47031982D01*
X76801822Y-47281300D01*
X76678613Y-47531477D01*
X76561861Y-47707513D01*
X76538105Y-47735634D01*
X76391807Y-47934944D01*
X76281900Y-48123405D01*
X76170523Y-48270772D01*
X76102052Y-48297799D01*
X75988014Y-48342813D01*
X75728315Y-48325211D01*
X75378276Y-48219362D01*
X75023457Y-48041230D01*
X74614277Y-47713395D01*
X74567735Y-47668113D01*
X74396804Y-47492354D01*
X74305072Y-47367768D01*
X74274207Y-47262634D01*
X74285874Y-47145234D01*
X74297263Y-47056478D01*
X74271745Y-46865279D01*
X74183202Y-46743185D01*
X74049268Y-46721756D01*
X73954827Y-46717159D01*
X73924734Y-46611337D01*
X73931875Y-46546191D01*
X73936443Y-46541643D01*
X76037032Y-46541643D01*
X76086437Y-46772341D01*
X76102052Y-46792561D01*
X76124546Y-46730161D01*
X76137643Y-46541430D01*
X76140786Y-46231915D01*
X76139004Y-46027449D01*
X76133576Y-45818477D01*
X76123487Y-45727769D01*
X76107153Y-45745132D01*
X76082988Y-45860373D01*
X76052660Y-46099227D01*
X76037727Y-46216834D01*
X76037032Y-46541643D01*
X73936443Y-46541643D01*
X73994435Y-46483907D01*
X74152726Y-46468351D01*
X74420846Y-46458551D01*
X74624097Y-46414633D01*
X74789837Y-46315721D01*
X74952732Y-46140941D01*
X75147449Y-45869420D01*
X75176463Y-45827295D01*
X75404787Y-45520000D01*
X75663304Y-45202970D01*
X75893111Y-44947877D01*
X76049572Y-44947877D01*
X76052660Y-44966477D01*
X76100611Y-44947129D01*
X76249617Y-44882234D01*
X76446691Y-44793480D01*
X76570296Y-44739902D01*
X76762181Y-44668005D01*
X76885787Y-44636423D01*
X76897535Y-44635167D01*
X76901951Y-44614592D01*
X76795745Y-44580842D01*
X76627398Y-44562525D01*
X76491756Y-44585495D01*
X76472916Y-44596011D01*
X76365021Y-44670679D01*
X76237400Y-44772518D01*
X76121701Y-44874071D01*
X76049572Y-44947877D01*
X75893111Y-44947877D01*
X75901481Y-44938586D01*
X76078590Y-44754405D01*
X76195147Y-44621842D01*
X76237672Y-44544991D01*
X76217266Y-44502658D01*
X76145032Y-44473650D01*
X76063689Y-44433373D01*
X75896568Y-44310310D01*
X75816224Y-44235214D01*
X75720458Y-44145704D01*
X75701148Y-44125409D01*
X75897227Y-44125409D01*
X75934192Y-44200685D01*
X76075196Y-44276477D01*
X76302151Y-44348348D01*
X76596969Y-44411861D01*
X76941561Y-44462579D01*
X77317838Y-44496066D01*
X77707713Y-44507883D01*
X77875135Y-44506057D01*
X78140051Y-44492520D01*
X78275096Y-44468867D01*
X78283243Y-44438750D01*
X78167465Y-44405820D01*
X77930734Y-44373728D01*
X77576022Y-44346126D01*
X77364318Y-44328204D01*
X77092893Y-44305226D01*
X76729122Y-44251240D01*
X76683487Y-44244468D01*
X76380991Y-44168297D01*
X76341100Y-44155921D01*
X77185143Y-44155921D01*
X77245943Y-44212532D01*
X77364318Y-44237042D01*
X77385517Y-44236299D01*
X77425867Y-44218557D01*
X77347992Y-44163297D01*
X77269140Y-44126374D01*
X77195998Y-44120315D01*
X77185143Y-44155921D01*
X76341100Y-44155921D01*
X76210253Y-44115326D01*
X76034775Y-44075774D01*
X75943404Y-44075112D01*
X75897227Y-44125409D01*
X75701148Y-44125409D01*
X75652906Y-44074706D01*
X75592977Y-44011720D01*
X75760620Y-44011720D01*
X75816224Y-44036437D01*
X75851986Y-44031561D01*
X75861259Y-43991401D01*
X75851358Y-43983316D01*
X75771188Y-43991401D01*
X75760620Y-44011720D01*
X75592977Y-44011720D01*
X75455809Y-43867554D01*
X75394402Y-44160736D01*
X75374544Y-44247280D01*
X75332665Y-44383291D01*
X75302053Y-44422975D01*
X75296616Y-44408874D01*
X75300706Y-44297568D01*
X75331816Y-44121858D01*
X75358822Y-43895914D01*
X75328823Y-43737864D01*
X75303851Y-43671688D01*
X75319709Y-43579914D01*
X75357507Y-43579914D01*
X75366959Y-43631929D01*
X75448512Y-43751193D01*
X75543038Y-43850502D01*
X75652906Y-43901330D01*
X75704742Y-43892614D01*
X75711215Y-43837440D01*
X75648543Y-43700995D01*
X75550869Y-43565983D01*
X75444149Y-43539340D01*
X75419198Y-43548745D01*
X75357507Y-43579914D01*
X75319709Y-43579914D01*
X75326064Y-43543139D01*
X75360470Y-43478327D01*
X75391271Y-43338876D01*
X75390677Y-43327128D01*
X75478458Y-43327128D01*
X75485432Y-43373661D01*
X75540501Y-43428458D01*
X75556861Y-43433706D01*
X75641385Y-43513968D01*
X75745812Y-43660269D01*
X75764461Y-43689398D01*
X75884807Y-43827831D01*
X76056043Y-43934140D01*
X76319394Y-44035279D01*
X76347877Y-44044733D01*
X76575943Y-44115029D01*
X76729122Y-44141554D01*
X76854614Y-44127000D01*
X76999623Y-44074058D01*
X77163817Y-44022255D01*
X77512402Y-44011671D01*
X77529423Y-44014309D01*
X77713694Y-44023498D01*
X77775266Y-43977517D01*
X77772588Y-43954102D01*
X77720153Y-43901330D01*
X77660068Y-43856676D01*
X77645382Y-43835629D01*
X77842820Y-43835629D01*
X77863509Y-43898290D01*
X77961524Y-44023947D01*
X78102621Y-44150893D01*
X78244718Y-44243204D01*
X78345736Y-44264957D01*
X78401803Y-44258383D01*
X78482001Y-44316811D01*
X78504406Y-44420816D01*
X78445647Y-44512493D01*
X78437168Y-44517875D01*
X78400212Y-44570142D01*
X78486468Y-44619703D01*
X78602107Y-44675000D01*
X78824608Y-44810923D01*
X79070571Y-44983525D01*
X79294765Y-45160490D01*
X79451958Y-45309503D01*
X79468697Y-45329170D01*
X79592117Y-45488415D01*
X79753069Y-45711181D01*
X79921208Y-45955683D01*
X79978774Y-46039740D01*
X80114095Y-46220597D01*
X80213724Y-46329618D01*
X80259335Y-46345667D01*
X80264107Y-46219129D01*
X80228857Y-45999920D01*
X80161826Y-45733359D01*
X80073199Y-45459555D01*
X79973160Y-45218617D01*
X79851258Y-44985235D01*
X79702171Y-44763680D01*
X79524341Y-44582530D01*
X79292754Y-44421485D01*
X78982395Y-44260246D01*
X78609072Y-44096427D01*
X78568249Y-44078513D01*
X78290893Y-43966975D01*
X78072756Y-43887845D01*
X78058096Y-43882527D01*
X77918002Y-43841161D01*
X78358399Y-43841161D01*
X78361892Y-43891785D01*
X78478718Y-43953923D01*
X78483861Y-43956259D01*
X78609072Y-43999644D01*
X78641690Y-43958406D01*
X78596530Y-43815089D01*
X78583203Y-43783894D01*
X78527110Y-43731876D01*
X78426538Y-43784689D01*
X78358399Y-43841161D01*
X77918002Y-43841161D01*
X77900672Y-43836044D01*
X77842820Y-43835629D01*
X77645382Y-43835629D01*
X77568329Y-43725204D01*
X77473756Y-43550071D01*
X77399809Y-43375258D01*
X77394486Y-43351994D01*
X77379301Y-43285629D01*
X77369947Y-43244748D01*
X77364352Y-43167411D01*
X77335604Y-43078867D01*
X77309002Y-43073206D01*
X77173260Y-43077100D01*
X76952112Y-43097816D01*
X76676961Y-43132784D01*
X76562678Y-43148344D01*
X76328808Y-43176211D01*
X76247050Y-43185953D01*
X75964632Y-43212640D01*
X75765559Y-43223421D01*
X75665373Y-43227016D01*
X75521517Y-43258003D01*
X75478458Y-43327128D01*
X75390677Y-43327128D01*
X75384901Y-43212996D01*
X75339369Y-43158245D01*
X75338286Y-43158200D01*
X75260678Y-43110180D01*
X75121694Y-42989110D01*
X75087483Y-42955378D01*
X74950667Y-42820479D01*
X74821700Y-42691105D01*
X74664319Y-42560336D01*
X74528587Y-42498370D01*
X74386966Y-42483814D01*
X74376249Y-42482713D01*
X74279516Y-42483879D01*
X74172605Y-42507144D01*
X74130950Y-42589847D01*
X74120909Y-42769814D01*
X74115835Y-42858440D01*
X74079650Y-43128833D01*
X74021869Y-43394681D01*
X73997290Y-43484437D01*
X73966443Y-43592405D01*
X73950050Y-43631440D01*
X73948426Y-43588497D01*
X73961887Y-43450533D01*
X73990746Y-43204505D01*
X74035318Y-42837367D01*
X74048481Y-42704658D01*
X74044930Y-42536519D01*
X74001588Y-42482713D01*
X73999006Y-42482508D01*
X73959715Y-42416050D01*
X73934660Y-42259352D01*
X73933766Y-42241423D01*
X76966180Y-42241423D01*
X76970893Y-42286393D01*
X77029516Y-42463209D01*
X77132522Y-42661053D01*
X77251225Y-42830076D01*
X77356937Y-42920430D01*
X77379301Y-42924235D01*
X77376132Y-42870664D01*
X77289582Y-42737390D01*
X77234841Y-42659192D01*
X77218139Y-42635333D01*
X77429168Y-42635333D01*
X77510255Y-42880345D01*
X77574371Y-42993764D01*
X77592818Y-43071292D01*
X77537837Y-43090692D01*
X77492145Y-43098150D01*
X77437500Y-43158245D01*
X77439463Y-43174392D01*
X77505054Y-43225798D01*
X77552275Y-43281509D01*
X77572607Y-43420186D01*
X77599350Y-43572773D01*
X77675483Y-43699954D01*
X77698397Y-43718577D01*
X77752896Y-43745364D01*
X77731795Y-43663990D01*
X77725435Y-43647242D01*
X77710154Y-43582815D01*
X77756625Y-43588559D01*
X77891640Y-43664574D01*
X77956905Y-43702373D01*
X78072756Y-43749360D01*
X78177752Y-43729897D01*
X78334104Y-43640613D01*
X78570160Y-43494723D01*
X78573220Y-43206247D01*
X78663580Y-43206247D01*
X78677566Y-43300571D01*
X78698306Y-43462234D01*
X78704949Y-43516765D01*
X78741994Y-43789484D01*
X78782534Y-43963468D01*
X78842702Y-44069355D01*
X78938629Y-44137786D01*
X79086449Y-44199398D01*
X79323737Y-44318280D01*
X79662519Y-44594887D01*
X79942489Y-44957876D01*
X80137750Y-45378207D01*
X80207030Y-45614331D01*
X80277797Y-45915899D01*
X80317977Y-46164362D01*
X80346133Y-46423867D01*
X80383015Y-46623946D01*
X80439398Y-46749239D01*
X80530658Y-46831853D01*
X80672172Y-46903893D01*
X80849505Y-46972423D01*
X81006610Y-46985496D01*
X81197162Y-46936915D01*
X81204389Y-46934567D01*
X81408024Y-46891281D01*
X81685866Y-46859198D01*
X81979988Y-46845112D01*
X82019241Y-46844635D01*
X82309577Y-46832677D01*
X82467454Y-46806712D01*
X82494661Y-46766156D01*
X82392991Y-46710425D01*
X82338153Y-46681751D01*
X82316069Y-46633754D01*
X82393449Y-46630272D01*
X82536614Y-46670573D01*
X82559571Y-46678939D01*
X82703363Y-46703672D01*
X82823405Y-46652855D01*
X82942502Y-46509169D01*
X83083462Y-46255293D01*
X83132711Y-46155216D01*
X83216840Y-45958407D01*
X83241111Y-45852593D01*
X83204771Y-45847434D01*
X83107066Y-45952592D01*
X83072926Y-45993629D01*
X82957586Y-46099812D01*
X82873520Y-46133364D01*
X82849755Y-46079921D01*
X82852102Y-46051189D01*
X82847607Y-45927926D01*
X82844903Y-45907078D01*
X82815905Y-45873333D01*
X82742917Y-45951380D01*
X82693025Y-46046772D01*
X82684740Y-46170928D01*
X82688882Y-46190848D01*
X82636153Y-46247783D01*
X82500941Y-46266927D01*
X82321386Y-46247143D01*
X82135626Y-46187295D01*
X82102592Y-46171563D01*
X82101386Y-46170989D01*
X82025595Y-46117037D01*
X81984247Y-46030034D01*
X81967014Y-45875978D01*
X81965806Y-45786657D01*
X82070021Y-45786657D01*
X82077092Y-45936027D01*
X82102592Y-45995479D01*
X82103653Y-45995474D01*
X82230149Y-45934940D01*
X82341813Y-45785057D01*
X82405675Y-45589938D01*
X82410350Y-45544822D01*
X82394920Y-45360009D01*
X82335667Y-45213604D01*
X82251111Y-45137670D01*
X82159774Y-45164269D01*
X82129470Y-45233834D01*
X82099201Y-45392081D01*
X82078388Y-45590848D01*
X82070021Y-45786657D01*
X81965806Y-45786657D01*
X81963564Y-45620863D01*
X81963643Y-45569633D01*
X81969747Y-45330137D01*
X81992791Y-45183449D01*
X82042868Y-45093378D01*
X82130071Y-45023727D01*
X82283703Y-44941979D01*
X82441294Y-44928812D01*
X82535364Y-45032846D01*
X82556649Y-45084133D01*
X82597436Y-45114344D01*
X82668256Y-45032846D01*
X82679442Y-45018101D01*
X82793149Y-44927248D01*
X82919421Y-44951209D01*
X83081418Y-45093375D01*
X83191717Y-45200215D01*
X83240275Y-45214661D01*
X83212118Y-45126135D01*
X83106459Y-44939490D01*
X83048412Y-44829350D01*
X83027197Y-44727680D01*
X83074174Y-44715986D01*
X83178904Y-44812555D01*
X83236531Y-44862513D01*
X83323698Y-44875246D01*
X83365450Y-44883150D01*
X83437135Y-44980246D01*
X83508394Y-45142957D01*
X83563029Y-45332021D01*
X83584841Y-45508176D01*
X83584762Y-45518494D01*
X83551766Y-45773827D01*
X83471863Y-46070727D01*
X83364024Y-46350426D01*
X83247217Y-46554157D01*
X83240444Y-46562810D01*
X83149479Y-46688808D01*
X83111969Y-46759579D01*
X83146771Y-46774229D01*
X83275628Y-46738268D01*
X83477618Y-46653440D01*
X83729486Y-46532003D01*
X84007979Y-46386217D01*
X84289843Y-46228341D01*
X84551823Y-46070634D01*
X84770666Y-45925355D01*
X84923117Y-45804765D01*
X84972436Y-45757362D01*
X85079868Y-45624030D01*
X85127675Y-45473747D01*
X85138564Y-45247809D01*
X85140040Y-45154586D01*
X85157460Y-44987299D01*
X85189413Y-44951597D01*
X85229470Y-45046377D01*
X85271204Y-45270537D01*
X85311264Y-45556383D01*
X85748451Y-45126966D01*
X85856899Y-45017585D01*
X85996762Y-44863525D01*
X86065908Y-44767342D01*
X86050532Y-44746427D01*
X86023902Y-44753226D01*
X85868591Y-44773737D01*
X85616617Y-44794722D01*
X85296286Y-44814067D01*
X84935905Y-44829659D01*
X84414952Y-44847929D01*
X83956383Y-44864012D01*
X83965309Y-45379081D01*
X83974234Y-45894149D01*
X83931532Y-45407557D01*
X83929819Y-45388569D01*
X83899021Y-45142237D01*
X83860180Y-44950615D01*
X83821277Y-44853785D01*
X83814956Y-44848191D01*
X83695748Y-44795451D01*
X83517288Y-44758319D01*
X83503634Y-44756645D01*
X83314181Y-44726185D01*
X83179522Y-44692873D01*
X83128317Y-44674177D01*
X82963075Y-44614114D01*
X82755108Y-44538714D01*
X82639158Y-44494273D01*
X82477983Y-44422183D01*
X82401817Y-44372839D01*
X82400839Y-44369908D01*
X82456235Y-44323256D01*
X82607960Y-44252727D01*
X82826231Y-44172387D01*
X82979342Y-44117189D01*
X83336408Y-43961214D01*
X83677992Y-43779257D01*
X83966043Y-43592664D01*
X84162509Y-43422780D01*
X84294149Y-43275471D01*
X84023937Y-43412066D01*
X83838924Y-43494773D01*
X83580385Y-43591967D01*
X83558658Y-43599039D01*
X83312406Y-43679191D01*
X83079544Y-43742069D01*
X82926359Y-43766224D01*
X82920529Y-43763819D01*
X82949837Y-43700472D01*
X83057867Y-43564033D01*
X83179321Y-43428458D01*
X83558658Y-43428458D01*
X83569471Y-43425873D01*
X83673867Y-43384665D01*
X83859778Y-43303675D01*
X83956868Y-43259575D01*
X84327926Y-43259575D01*
X84361703Y-43293351D01*
X84395479Y-43259575D01*
X84361703Y-43225798D01*
X84327926Y-43259575D01*
X83956868Y-43259575D01*
X84095917Y-43196417D01*
X84232127Y-43131063D01*
X84466686Y-42994403D01*
X84585035Y-42872080D01*
X84597323Y-42749944D01*
X84513697Y-42613843D01*
X84491581Y-42593452D01*
X84430399Y-42583951D01*
X84337217Y-42635230D01*
X84192431Y-42760376D01*
X83976438Y-42972474D01*
X83857841Y-43093163D01*
X83693466Y-43265743D01*
X83587465Y-43384356D01*
X83558658Y-43428458D01*
X83179321Y-43428458D01*
X83230015Y-43371870D01*
X83451677Y-43141357D01*
X83700847Y-42881139D01*
X83959712Y-42594183D01*
X84182090Y-42331200D01*
X84337543Y-42127040D01*
X84604557Y-41737590D01*
X84488285Y-41316402D01*
X84430282Y-41119166D01*
X84338490Y-40839516D01*
X84255372Y-40618217D01*
X84218153Y-40533345D01*
X84192168Y-40491821D01*
X84346330Y-40491821D01*
X84409336Y-40658777D01*
X84444890Y-40759526D01*
X84504209Y-40976373D01*
X84558814Y-41223743D01*
X84635446Y-41619826D01*
X84908007Y-41071396D01*
X85180567Y-40522966D01*
X84940018Y-40456142D01*
X84930369Y-40453501D01*
X84709990Y-40407966D01*
X84513697Y-40388941D01*
X84453861Y-40389850D01*
X84356998Y-40412968D01*
X84346330Y-40491821D01*
X84192168Y-40491821D01*
X84135428Y-40401151D01*
X84019113Y-40334879D01*
X83818581Y-40297339D01*
X83786843Y-40293320D01*
X83544945Y-40273088D01*
X83237075Y-40258844D01*
X82921882Y-40253458D01*
X82345332Y-40253458D01*
X82488311Y-40405652D01*
X82567418Y-40504937D01*
X82720423Y-40765267D01*
X82862798Y-41081204D01*
X82973057Y-41402254D01*
X83029712Y-41677923D01*
X83035583Y-41837458D01*
X83002585Y-42131753D01*
X82922471Y-42384957D01*
X82806967Y-42551106D01*
X82785650Y-42567370D01*
X82742984Y-42572013D01*
X82733154Y-42488854D01*
X82751222Y-42295224D01*
X82758776Y-42214520D01*
X82759651Y-42016969D01*
X82737963Y-41868879D01*
X82701658Y-41791584D01*
X82658678Y-41806416D01*
X82616969Y-41934707D01*
X82585443Y-42038146D01*
X82521437Y-42131653D01*
X82462380Y-42136971D01*
X82436437Y-42037988D01*
X82424369Y-41987329D01*
X82351995Y-41960924D01*
X82297789Y-42035142D01*
X82282225Y-42183485D01*
X82284167Y-42251485D01*
X82243273Y-42389637D01*
X82116294Y-42460828D01*
X81880858Y-42481679D01*
X81858894Y-42481573D01*
X81719322Y-42463668D01*
X81653966Y-42425333D01*
X81611331Y-42400325D01*
X81518993Y-42270096D01*
X81426380Y-42051532D01*
X81317563Y-41723187D01*
X81273759Y-41583280D01*
X81412170Y-41583280D01*
X81419515Y-41686185D01*
X81476069Y-41874734D01*
X81493204Y-41926429D01*
X81558168Y-42111614D01*
X81604973Y-42195218D01*
X81653966Y-42199396D01*
X81725496Y-42146302D01*
X81813849Y-42001553D01*
X81808979Y-41803689D01*
X81704999Y-41602131D01*
X81588764Y-41500108D01*
X81478468Y-41510205D01*
X81454300Y-41525734D01*
X81412170Y-41583280D01*
X81273759Y-41583280D01*
X81196088Y-41335204D01*
X81349188Y-41172236D01*
X81413727Y-41109593D01*
X81581898Y-40997441D01*
X81722773Y-40969742D01*
X81806041Y-41035563D01*
X81853811Y-41108681D01*
X81927664Y-41121290D01*
X81963564Y-41030320D01*
X81968602Y-40979763D01*
X82016530Y-40936128D01*
X82130145Y-40974159D01*
X82327701Y-41097209D01*
X82432095Y-41167491D01*
X82524788Y-41221921D01*
X82539079Y-41203434D01*
X82495509Y-41114097D01*
X82399562Y-40957499D01*
X82247319Y-40755590D01*
X82083883Y-40572615D01*
X81937698Y-40439911D01*
X81837209Y-40388817D01*
X81812760Y-40391327D01*
X81668053Y-40440193D01*
X81490692Y-40531701D01*
X81254256Y-40674332D01*
X81418026Y-40497672D01*
X81444520Y-40468338D01*
X81524744Y-40363425D01*
X81531385Y-40321011D01*
X81528442Y-40321054D01*
X81385989Y-40370499D01*
X81178424Y-40500175D01*
X80930748Y-40690876D01*
X80667964Y-40923395D01*
X80415075Y-41178527D01*
X79948632Y-41684740D01*
X79981676Y-41266047D01*
X80085086Y-41266047D01*
X80590419Y-40800413D01*
X80671655Y-40726405D01*
X80927226Y-40510950D01*
X81172370Y-40341908D01*
X81453432Y-40190010D01*
X81816760Y-40025990D01*
X81967744Y-39961514D01*
X82353489Y-39800231D01*
X82660270Y-39680668D01*
X82921221Y-39592316D01*
X83169475Y-39524662D01*
X83438167Y-39467197D01*
X83760432Y-39409408D01*
X84003591Y-39373447D01*
X84646893Y-39318081D01*
X85375000Y-39303675D01*
X85397537Y-39303862D01*
X85803696Y-39303415D01*
X86215564Y-39296803D01*
X86586214Y-39285104D01*
X86868717Y-39269394D01*
X87144912Y-39257534D01*
X87521811Y-39272023D01*
X87852343Y-39319218D01*
X88107359Y-39394426D01*
X88257708Y-39492956D01*
X88287736Y-39531106D01*
X88304295Y-39577509D01*
X88212234Y-39549133D01*
X88039417Y-39487497D01*
X87870920Y-39457079D01*
X87676245Y-39463933D01*
X87402798Y-39505206D01*
X87079606Y-39584144D01*
X86696627Y-39716518D01*
X86313527Y-39880655D01*
X85974577Y-40057495D01*
X85724050Y-40227978D01*
X85536855Y-40416086D01*
X85299145Y-40726293D01*
X85083049Y-41078615D01*
X84921010Y-41424705D01*
X84860286Y-41650438D01*
X84812169Y-41999779D01*
X84791375Y-42394819D01*
X84800124Y-42788320D01*
X84840640Y-43133039D01*
X84856028Y-43211003D01*
X84878145Y-43279443D01*
X84906538Y-43275451D01*
X84949931Y-43184967D01*
X85017049Y-42993927D01*
X85116618Y-42688270D01*
X85309992Y-42149941D01*
X85565088Y-41604333D01*
X85865432Y-41129771D01*
X86230342Y-40691624D01*
X86456318Y-40463715D01*
X86692508Y-40253092D01*
X86899036Y-40096055D01*
X87055456Y-40008030D01*
X87141319Y-40004440D01*
X87139707Y-40024238D01*
X87064539Y-40102097D01*
X86918218Y-40207652D01*
X86845977Y-40255800D01*
X86397790Y-40641755D01*
X85990930Y-41147271D01*
X85631104Y-41762813D01*
X85324023Y-42478844D01*
X85075394Y-43285828D01*
X84964870Y-43717401D01*
X84835783Y-43420935D01*
X84793203Y-43323969D01*
X84724070Y-43170714D01*
X84688970Y-43099098D01*
X84680173Y-43098851D01*
X84635446Y-43135871D01*
X84609412Y-43157419D01*
X84496541Y-43281350D01*
X84429485Y-43355420D01*
X84361703Y-43417088D01*
X84197379Y-43566590D01*
X83912277Y-43782141D01*
X83604750Y-43982999D01*
X83305371Y-44150087D01*
X83044712Y-44264330D01*
X82853346Y-44306649D01*
X82845733Y-44306676D01*
X82708746Y-44324823D01*
X82692777Y-44368935D01*
X82789407Y-44427740D01*
X82990219Y-44489963D01*
X83602200Y-44605786D01*
X84414952Y-44680300D01*
X85225417Y-44672971D01*
X85472074Y-44655974D01*
X85716568Y-44635757D01*
X85879024Y-44618166D01*
X85933016Y-44605711D01*
X85875143Y-44588179D01*
X85716932Y-44555897D01*
X85497196Y-44517898D01*
X85280228Y-44469596D01*
X85023956Y-44391184D01*
X84768144Y-44296840D01*
X84545222Y-44199585D01*
X84387620Y-44112439D01*
X84327768Y-44048419D01*
X84338459Y-44040067D01*
X84446567Y-44025241D01*
X84646294Y-44019680D01*
X84906838Y-44024650D01*
X85276610Y-44025973D01*
X85609297Y-43990279D01*
X85939987Y-43908765D01*
X86408258Y-43723992D01*
X86974962Y-43385747D01*
X87503055Y-42945694D01*
X87973946Y-42422285D01*
X88369047Y-41833971D01*
X88669769Y-41199203D01*
X88669858Y-41198968D01*
X88701158Y-41146368D01*
X88713550Y-41223321D01*
X88710363Y-41271505D01*
X88651704Y-41469011D01*
X88532870Y-41730587D01*
X88370747Y-42024716D01*
X88182221Y-42319883D01*
X87984179Y-42584572D01*
X87875742Y-42710167D01*
X87551383Y-43040223D01*
X87189652Y-43357768D01*
X86829174Y-43630320D01*
X86508577Y-43825398D01*
X86347585Y-43898914D01*
X85944684Y-44037958D01*
X85520262Y-44136410D01*
X85141260Y-44177054D01*
X84834575Y-44182564D01*
X85071011Y-44291073D01*
X85266195Y-44351169D01*
X85567496Y-44389520D01*
X85983600Y-44403781D01*
X86296234Y-44402691D01*
X86527950Y-44389016D01*
X86711237Y-44354231D01*
X86890057Y-44289883D01*
X87108369Y-44187520D01*
X87453985Y-43989335D01*
X87914165Y-43622324D01*
X88288779Y-43190683D01*
X88553484Y-42719149D01*
X88587645Y-42636187D01*
X88661839Y-42436391D01*
X88709529Y-42253351D01*
X88736530Y-42049109D01*
X88748658Y-41785711D01*
X88751728Y-41425201D01*
X88753440Y-41197407D01*
X88763699Y-40884407D01*
X88782868Y-40701233D01*
X88810583Y-40649155D01*
X88846480Y-40729441D01*
X88890194Y-40943360D01*
X88934138Y-41100654D01*
X89071043Y-41364479D01*
X89304817Y-41686778D01*
X89509769Y-41934382D01*
X89714843Y-42146560D01*
X89899630Y-42281543D01*
X90092822Y-42359438D01*
X90323114Y-42400353D01*
X90641884Y-42436283D01*
X90330313Y-42089741D01*
X90193098Y-41920382D01*
X89959012Y-41543989D01*
X89727978Y-41054135D01*
X89565177Y-40690527D01*
X89382721Y-40354537D01*
X89197912Y-40107359D01*
X88992720Y-39925637D01*
X88749118Y-39786014D01*
X88646162Y-39731948D01*
X88486821Y-39620801D01*
X88409160Y-39525623D01*
X88249103Y-39126218D01*
X87969524Y-38658580D01*
X87606759Y-38195753D01*
X87184193Y-37764054D01*
X86725209Y-37389799D01*
X86253192Y-37099305D01*
X85992724Y-36978178D01*
X85607614Y-36834780D01*
X85268137Y-36748548D01*
X85105198Y-36724461D01*
X84726716Y-36689346D01*
X84326405Y-36675081D01*
X83930319Y-36680327D01*
X83564512Y-36703748D01*
X83255038Y-36744004D01*
X83027952Y-36799759D01*
X82909309Y-36869674D01*
X82870388Y-36902681D01*
X82739398Y-36990125D01*
X82555486Y-37100950D01*
X82456336Y-37163982D01*
X82265827Y-37316397D01*
X82106024Y-37481261D01*
X81995770Y-37634544D01*
X81953908Y-37752217D01*
X81999283Y-37810248D01*
X82109019Y-37799195D01*
X82262455Y-37729766D01*
X82354705Y-37685638D01*
X82562724Y-37610741D01*
X82840694Y-37524989D01*
X83154213Y-37439575D01*
X83378729Y-37386943D01*
X83919460Y-37294498D01*
X84448169Y-37248201D01*
X84936318Y-37248592D01*
X85355370Y-37296215D01*
X85676789Y-37391613D01*
X85978577Y-37528652D01*
X85405002Y-37498547D01*
X85379319Y-37497290D01*
X85034249Y-37493304D01*
X84676733Y-37508062D01*
X84380235Y-37538686D01*
X84197034Y-37570234D01*
X83880325Y-37637305D01*
X83585746Y-37713461D01*
X83341015Y-37790493D01*
X83173850Y-37860191D01*
X83111969Y-37914345D01*
X83112203Y-37915978D01*
X83184284Y-37937743D01*
X83373876Y-37948187D01*
X83664787Y-37946970D01*
X84040825Y-37933754D01*
X84120027Y-37930107D01*
X84467569Y-37916490D01*
X84697956Y-37913330D01*
X84826027Y-37921382D01*
X84866621Y-37941401D01*
X84834575Y-37974142D01*
X84753229Y-38002006D01*
X84569036Y-38027300D01*
X84280249Y-38044612D01*
X83876746Y-38054507D01*
X83348405Y-38057555D01*
X83131379Y-38057008D01*
X82627604Y-38049214D01*
X82226165Y-38028301D01*
X81903249Y-37989331D01*
X81635044Y-37927367D01*
X81397736Y-37837471D01*
X81167512Y-37714704D01*
X80920559Y-37554130D01*
X80609540Y-37340143D01*
X80651541Y-37631508D01*
X80709958Y-37952819D01*
X80875604Y-38476967D01*
X81113515Y-38888215D01*
X81424621Y-39187965D01*
X81809853Y-39377622D01*
X81853384Y-39392206D01*
X82027522Y-39464006D01*
X82132447Y-39528476D01*
X82159909Y-39568695D01*
X82098671Y-39562705D01*
X82022280Y-39540485D01*
X81838963Y-39494201D01*
X81610788Y-39441103D01*
X81224235Y-39354608D01*
X80879420Y-39685815D01*
X80701126Y-39871499D01*
X80525094Y-40083983D01*
X80410425Y-40256374D01*
X80358421Y-40369742D01*
X80265135Y-40618833D01*
X80185665Y-40880887D01*
X80085086Y-41266047D01*
X79981676Y-41266047D01*
X79982453Y-41256200D01*
X80003111Y-41055357D01*
X80043052Y-40789655D01*
X80087165Y-40591224D01*
X80161104Y-40387982D01*
X80292821Y-40087631D01*
X80452639Y-39760258D01*
X80617528Y-39452758D01*
X80764459Y-39212025D01*
X80930286Y-38967988D01*
X80773488Y-38648090D01*
X80723252Y-38539247D01*
X80629783Y-38301581D01*
X80573300Y-38108644D01*
X80569561Y-38090528D01*
X80526455Y-37947676D01*
X80483184Y-37889096D01*
X80478829Y-37889213D01*
X80349629Y-37943639D01*
X80175060Y-38076729D01*
X79986517Y-38258373D01*
X79815393Y-38458460D01*
X79693084Y-38646880D01*
X79623915Y-38788890D01*
X79560060Y-38936733D01*
X79543996Y-39001193D01*
X79544686Y-39001725D01*
X79620779Y-39033811D01*
X79768086Y-39084546D01*
X79834268Y-39108841D01*
X79943215Y-39194703D01*
X79970745Y-39347119D01*
X79970659Y-39364998D01*
X79953402Y-39485482D01*
X79879033Y-39541530D01*
X79708557Y-39565644D01*
X79637076Y-39571504D01*
X79446368Y-39587139D01*
X79485603Y-39918416D01*
X79494789Y-40022578D01*
X79491056Y-40202663D01*
X79457953Y-40291031D01*
X79323872Y-40422593D01*
X79172466Y-40682764D01*
X79030104Y-41040384D01*
X78903474Y-41475352D01*
X78799261Y-41967571D01*
X78724152Y-42496939D01*
X78705795Y-42672545D01*
X78681067Y-42931452D01*
X78666086Y-43120001D01*
X78663580Y-43206247D01*
X78573220Y-43206247D01*
X78577676Y-42786058D01*
X78585193Y-42077394D01*
X78412679Y-42077394D01*
X78306149Y-42059831D01*
X78281287Y-42010858D01*
X78266119Y-41971563D01*
X78163568Y-41974773D01*
X78009942Y-42012473D01*
X77842245Y-42075535D01*
X77697482Y-42154833D01*
X77650667Y-42189917D01*
X77477659Y-42398656D01*
X77429168Y-42635333D01*
X77218139Y-42635333D01*
X77165809Y-42560580D01*
X77086790Y-42383861D01*
X77081764Y-42204276D01*
X77114750Y-42069121D01*
X77394486Y-42069121D01*
X77572108Y-41942643D01*
X77740300Y-41845088D01*
X77931847Y-41770456D01*
X78113963Y-41724748D01*
X77931250Y-41516649D01*
X77898074Y-41478863D01*
X77824437Y-41399207D01*
X77695145Y-41279923D01*
X77613943Y-41232979D01*
X77572452Y-41283365D01*
X77519205Y-41434452D01*
X77470094Y-41651050D01*
X77394486Y-42069121D01*
X77114750Y-42069121D01*
X77139908Y-41966040D01*
X77148353Y-41937517D01*
X77202198Y-41718050D01*
X77218196Y-41577901D01*
X77200441Y-41530590D01*
X77153031Y-41589634D01*
X77080063Y-41768550D01*
X77041526Y-41888056D01*
X76986940Y-42097571D01*
X76966180Y-42241423D01*
X73933766Y-42241423D01*
X73924434Y-42054275D01*
X73929628Y-41842679D01*
X73931668Y-41825721D01*
X75707613Y-41825721D01*
X75709852Y-41842321D01*
X75784507Y-41911669D01*
X75922482Y-42007360D01*
X76085024Y-42105315D01*
X76233383Y-42181456D01*
X76328808Y-42211706D01*
X76322294Y-42189163D01*
X76229878Y-42112259D01*
X76067570Y-41999765D01*
X75925986Y-41913095D01*
X75779199Y-41839379D01*
X75707613Y-41825721D01*
X73931668Y-41825721D01*
X73945514Y-41710639D01*
X74337585Y-41710639D01*
X74386966Y-41712428D01*
X74431509Y-41659526D01*
X74465160Y-41522605D01*
X74485629Y-41449693D01*
X74586751Y-41293162D01*
X74746613Y-41121273D01*
X74864276Y-41007145D01*
X74957022Y-40902001D01*
X74969792Y-40861437D01*
X74885334Y-40887966D01*
X74734887Y-40980452D01*
X74587155Y-41097702D01*
X74575328Y-41107089D01*
X74448610Y-41233824D01*
X74396684Y-41326608D01*
X74387206Y-41425903D01*
X74352267Y-41598197D01*
X74337585Y-41710639D01*
X73945514Y-41710639D01*
X73950834Y-41666423D01*
X73988645Y-41567367D01*
X74004575Y-41547154D01*
X74071922Y-41417475D01*
X74143535Y-41232979D01*
X74181479Y-41108097D01*
X74197258Y-40967882D01*
X74164475Y-40817290D01*
X74077339Y-40601019D01*
X74035885Y-40501373D01*
X73977139Y-40321786D01*
X73945109Y-40131769D01*
X73934330Y-39889895D01*
X73939338Y-39554737D01*
X73949082Y-39273937D01*
X74069733Y-39273937D01*
X74088668Y-39498776D01*
X74189458Y-40061225D01*
X74355654Y-40550439D01*
X74376916Y-40597778D01*
X74468022Y-40789220D01*
X74531148Y-40879740D01*
X74587155Y-40889219D01*
X74627513Y-40859316D01*
X75073139Y-40859316D01*
X75087483Y-40887270D01*
X75174469Y-40885866D01*
X75222975Y-40863991D01*
X75275798Y-40820433D01*
X75264599Y-40808336D01*
X75174469Y-40793883D01*
X75127886Y-40801255D01*
X75073139Y-40859316D01*
X74627513Y-40859316D01*
X74656902Y-40837540D01*
X74750416Y-40767962D01*
X74854923Y-40726330D01*
X74890321Y-40724048D01*
X74957827Y-40670841D01*
X74910661Y-40547733D01*
X74749063Y-40355568D01*
X74615522Y-40215043D01*
X74557023Y-40138686D01*
X74580803Y-40120770D01*
X74680533Y-40141522D01*
X74757664Y-40157722D01*
X74833650Y-40144293D01*
X74875856Y-40056828D01*
X74909161Y-39865266D01*
X74925126Y-39777239D01*
X74991182Y-39546863D01*
X75072489Y-39375266D01*
X75110651Y-39304222D01*
X75162212Y-39138480D01*
X75187638Y-38963003D01*
X75181830Y-38823902D01*
X75139693Y-38767288D01*
X75120638Y-38779595D01*
X75052444Y-38879134D01*
X74967998Y-39045952D01*
X74925387Y-39132909D01*
X74855359Y-39239238D01*
X74816281Y-39246447D01*
X74829962Y-39143388D01*
X74902161Y-38997440D01*
X74972662Y-38855983D01*
X74987784Y-38747660D01*
X74981720Y-38737366D01*
X74924336Y-38758453D01*
X74837879Y-38869997D01*
X74829658Y-38883382D01*
X74643790Y-39181875D01*
X74511348Y-39382404D01*
X74418407Y-39503141D01*
X74351039Y-39562258D01*
X74295319Y-39577926D01*
X74241791Y-39559707D01*
X74193913Y-39459708D01*
X74186544Y-39396331D01*
X74127394Y-39240160D01*
X74115321Y-39221926D01*
X74074073Y-39185816D01*
X74069733Y-39273937D01*
X73949082Y-39273937D01*
X73949363Y-39265847D01*
X73964655Y-39054608D01*
X73989531Y-38930749D01*
X74029271Y-38869271D01*
X74089152Y-38845176D01*
X74188520Y-38856020D01*
X74315072Y-38945713D01*
X74366527Y-39010103D01*
X74423098Y-39032272D01*
X74488420Y-38944009D01*
X74540212Y-38863252D01*
X74712544Y-38638932D01*
X74875516Y-38486035D01*
X75004107Y-38429522D01*
X75024918Y-38430361D01*
X75205912Y-38503160D01*
X75350538Y-38663441D01*
X75418594Y-38868617D01*
X75421422Y-38963367D01*
X75406634Y-39185346D01*
X75371251Y-39409580D01*
X75323536Y-39590305D01*
X75271756Y-39681754D01*
X75242058Y-39713371D01*
X75178818Y-39854696D01*
X75127013Y-40051210D01*
X75099208Y-40248434D01*
X75107969Y-40391886D01*
X75154718Y-40467185D01*
X75276364Y-40523671D01*
X75349079Y-40533800D01*
X75444681Y-40591224D01*
X75532363Y-40638465D01*
X75690301Y-40658777D01*
X75823464Y-40680297D01*
X76044391Y-40815409D01*
X76237261Y-41061379D01*
X76387672Y-41402841D01*
X76458235Y-41599114D01*
X76566583Y-41818719D01*
X76666642Y-41924057D01*
X76751527Y-41905616D01*
X76767418Y-41882451D01*
X76829770Y-41722329D01*
X76907887Y-41436363D01*
X76921337Y-41377145D01*
X77179237Y-41377145D01*
X77234841Y-41401862D01*
X77270603Y-41396987D01*
X77279876Y-41356827D01*
X77269975Y-41348742D01*
X77260739Y-41349673D01*
X77189805Y-41356827D01*
X77179237Y-41377145D01*
X76921337Y-41377145D01*
X76966027Y-41180380D01*
X77180883Y-41180380D01*
X77260739Y-41199203D01*
X77299096Y-41188512D01*
X77372520Y-41100999D01*
X77402930Y-40980242D01*
X77366995Y-40893388D01*
X77315562Y-40900096D01*
X77238230Y-40990210D01*
X77183825Y-41103673D01*
X77180883Y-41180380D01*
X76966027Y-41180380D01*
X77000024Y-41030698D01*
X77054134Y-40851250D01*
X77166059Y-40704023D01*
X77335030Y-40658777D01*
X77344580Y-40658557D01*
X77450066Y-40619406D01*
X77504957Y-40558354D01*
X77842820Y-40558354D01*
X77846770Y-40571670D01*
X77931250Y-40600103D01*
X78097984Y-40593533D01*
X78310126Y-40557700D01*
X78530832Y-40498343D01*
X78723257Y-40421203D01*
X78862303Y-40348716D01*
X79003909Y-40268818D01*
X79058777Y-40228770D01*
X79016963Y-40218751D01*
X78957447Y-40224681D01*
X78878004Y-40232596D01*
X78677903Y-40267470D01*
X78454472Y-40315815D01*
X78245524Y-40370070D01*
X78088872Y-40422677D01*
X78037850Y-40444710D01*
X77898686Y-40514215D01*
X77842820Y-40558354D01*
X77504957Y-40558354D01*
X77559750Y-40497410D01*
X77694178Y-40270346D01*
X77848366Y-40023055D01*
X78055942Y-39747912D01*
X78283777Y-39485357D01*
X78424617Y-39346211D01*
X79153716Y-39346211D01*
X79192259Y-39396718D01*
X79313215Y-39433753D01*
X79542548Y-39471230D01*
X79637076Y-39482747D01*
X79830515Y-39477902D01*
X79913516Y-39412151D01*
X79896184Y-39280033D01*
X79872236Y-39242120D01*
X79755592Y-39188784D01*
X79531649Y-39172607D01*
X79464013Y-39173685D01*
X79259301Y-39202192D01*
X79170285Y-39271773D01*
X79153716Y-39346211D01*
X78424617Y-39346211D01*
X78501947Y-39269811D01*
X78680531Y-39135696D01*
X78700131Y-39124611D01*
X78748995Y-39084587D01*
X78768806Y-39020782D01*
X78757981Y-38906543D01*
X78714942Y-38715216D01*
X78649344Y-38463298D01*
X78923671Y-38463298D01*
X78957447Y-38497075D01*
X78991224Y-38463298D01*
X78957447Y-38429522D01*
X78923671Y-38463298D01*
X78649344Y-38463298D01*
X78638109Y-38420150D01*
X78560519Y-38100107D01*
X78519974Y-37835961D01*
X78532929Y-37667141D01*
X78601003Y-37577610D01*
X78725816Y-37551330D01*
X78828565Y-37588283D01*
X78932215Y-37711990D01*
X78976199Y-37775519D01*
X79128115Y-37906686D01*
X79331342Y-38025304D01*
X79657267Y-38177959D01*
X79944383Y-37932198D01*
X80066087Y-37832155D01*
X80208861Y-37727167D01*
X80286894Y-37686437D01*
X80291048Y-37685822D01*
X80327666Y-37616380D01*
X80343210Y-37466889D01*
X80364810Y-37191972D01*
X80431676Y-37006702D01*
X80541117Y-36943351D01*
X80581376Y-36937089D01*
X80629129Y-36883722D01*
X80653703Y-36752099D01*
X80663147Y-36513886D01*
X80665448Y-36421592D01*
X80695857Y-36054121D01*
X80755682Y-35771086D01*
X80840196Y-35589089D01*
X80944675Y-35524734D01*
X81050603Y-35573309D01*
G37*
G36*
X74767814Y-45301458D02*
G01*
X74600266Y-45364151D01*
X74523714Y-45393651D01*
X74292492Y-45499403D01*
X74110506Y-45604392D01*
X74087439Y-45620082D01*
X73971814Y-45681409D01*
X73924734Y-45674752D01*
X73955230Y-45624027D01*
X74080877Y-45531652D01*
X74267733Y-45432489D01*
X74476485Y-45346666D01*
X74667820Y-45294310D01*
X74744143Y-45281817D01*
X74813715Y-45276142D01*
X74767814Y-45301458D01*
G37*
G36*
X74600266Y-45085005D02*
G01*
X74595407Y-45093104D01*
X74512278Y-45146237D01*
X74360232Y-45222186D01*
X74183811Y-45300802D01*
X74027560Y-45361938D01*
X73936022Y-45385446D01*
X73927654Y-45372718D01*
X74002082Y-45319792D01*
X74156554Y-45239420D01*
X74364467Y-45146445D01*
X74410229Y-45128030D01*
X74545742Y-45084137D01*
X74600266Y-45085005D01*
G37*
G36*
X75126259Y-45014600D02*
G01*
X75118174Y-45094770D01*
X75097855Y-45105338D01*
X75073139Y-45049734D01*
X75078014Y-45013972D01*
X75118174Y-45004699D01*
X75126259Y-45014600D01*
G37*
G36*
X75193812Y-44811941D02*
G01*
X75185727Y-44892110D01*
X75165409Y-44902679D01*
X75140692Y-44847075D01*
X75145567Y-44811312D01*
X75185727Y-44802039D01*
X75193812Y-44811941D01*
G37*
G36*
X75261365Y-44541728D02*
G01*
X75253281Y-44621898D01*
X75232962Y-44632466D01*
X75208245Y-44576862D01*
X75213120Y-44541100D01*
X75253281Y-44531827D01*
X75261365Y-44541728D01*
G37*
G36*
X75140692Y-39097570D02*
G01*
X75140690Y-39097853D01*
X75099809Y-39187180D01*
X75002244Y-39317118D01*
X74863796Y-39476596D01*
X74970202Y-39257048D01*
X75056449Y-39100080D01*
X75118546Y-39038436D01*
X75140692Y-39097570D01*
G37*
G36*
X77693280Y-42785345D02*
G01*
X77685195Y-42865515D01*
X77664877Y-42876083D01*
X77640160Y-42820479D01*
X77645035Y-42784717D01*
X77685195Y-42775444D01*
X77693280Y-42785345D01*
G37*
G36*
X78415233Y-42306831D02*
G01*
X78297394Y-42414241D01*
X78218183Y-42484739D01*
X77970420Y-42784481D01*
X77809805Y-43151576D01*
X77798830Y-43189333D01*
X77793454Y-43278064D01*
X77859980Y-43275299D01*
X77953865Y-43279960D01*
X78096065Y-43330827D01*
X78240300Y-43406345D01*
X78343291Y-43483682D01*
X78361764Y-43540010D01*
X78355947Y-43543532D01*
X78266502Y-43527249D01*
X78122139Y-43456868D01*
X78025033Y-43404141D01*
X77908643Y-43376257D01*
X77813473Y-43424781D01*
X77783452Y-43448589D01*
X77721609Y-43466510D01*
X77707713Y-43367007D01*
X77717039Y-43264099D01*
X77808722Y-42982035D01*
X77975103Y-42692170D01*
X78187447Y-42439055D01*
X78417022Y-42267241D01*
X78449768Y-42257976D01*
X78415233Y-42306831D01*
G37*
G36*
X78106655Y-42203815D02*
G01*
X78041932Y-42308536D01*
X77925444Y-42451571D01*
X77924461Y-42452668D01*
X77813654Y-42569613D01*
X77784464Y-42584012D01*
X77835615Y-42499974D01*
X77965828Y-42321608D01*
X77992919Y-42286726D01*
X78077887Y-42193827D01*
X78111215Y-42186502D01*
X78106655Y-42203815D01*
G37*
G36*
X78248139Y-44137766D02*
G01*
X78214362Y-44171543D01*
X78180586Y-44137766D01*
X78214362Y-44103990D01*
X78248139Y-44137766D01*
G37*
G36*
X79244732Y-44501277D02*
G01*
X79365513Y-44587966D01*
X79472365Y-44688823D01*
X79481232Y-44699283D01*
X79583091Y-44840045D01*
X79702922Y-45030208D01*
X79817396Y-45229386D01*
X79903188Y-45397189D01*
X79936969Y-45493228D01*
X79935733Y-45497068D01*
X79893831Y-45453499D01*
X79804357Y-45321087D01*
X79683644Y-45123660D01*
X79677966Y-45114068D01*
X79531096Y-44887664D01*
X79387794Y-44701087D01*
X79278325Y-44593890D01*
X79175927Y-44518986D01*
X79126330Y-44465386D01*
X79152073Y-44455909D01*
X79244732Y-44501277D01*
G37*
G36*
X80004522Y-45623937D02*
G01*
X79970745Y-45657713D01*
X79936969Y-45623937D01*
X79970745Y-45590160D01*
X80004522Y-45623937D01*
G37*
G36*
X80058722Y-45835015D02*
G01*
X80050668Y-45940592D01*
X80026353Y-45971860D01*
X80009855Y-45899779D01*
X80014631Y-45831262D01*
X80045335Y-45811115D01*
X80058722Y-45835015D01*
G37*
G36*
X78968706Y-46761082D02*
G01*
X78979275Y-46781401D01*
X78923671Y-46806117D01*
X78887908Y-46801242D01*
X78878635Y-46761082D01*
X78888536Y-46752997D01*
X78968706Y-46761082D01*
G37*
G36*
X80130708Y-42929010D02*
G01*
X80175371Y-43054520D01*
X80268536Y-43377975D01*
X80347670Y-43734449D01*
X80410211Y-44100474D01*
X80453595Y-44452578D01*
X80475262Y-44767293D01*
X80472649Y-45021147D01*
X80443195Y-45190671D01*
X80384336Y-45252394D01*
X80320974Y-45236218D01*
X80205898Y-45149518D01*
X80189573Y-45129508D01*
X80158474Y-45071870D01*
X80231403Y-45089192D01*
X80271899Y-45099244D01*
X80316402Y-45069207D01*
X80336836Y-44956928D01*
X80341400Y-44736084D01*
X80335664Y-44596859D01*
X80300801Y-44272835D01*
X80241754Y-43896584D01*
X80167165Y-43514841D01*
X80085675Y-43174338D01*
X80005926Y-42921809D01*
X79926108Y-42719149D01*
X79762906Y-42921809D01*
X79717288Y-42984807D01*
X79592816Y-43205745D01*
X79492694Y-43445346D01*
X79452586Y-43559976D01*
X79392889Y-43708216D01*
X79357337Y-43766224D01*
X79328140Y-43747227D01*
X79327366Y-43640861D01*
X79376718Y-43467155D01*
X79463251Y-43256165D01*
X79574020Y-43037951D01*
X79696081Y-42842569D01*
X79816488Y-42700078D01*
X79984100Y-42545900D01*
X80130708Y-42929010D01*
G37*
G36*
X79954100Y-39846024D02*
G01*
X80004522Y-39983245D01*
X80000998Y-40026161D01*
X79931890Y-40143385D01*
X79811793Y-40167067D01*
X79798484Y-40157735D01*
X79690103Y-40081736D01*
X79671764Y-40055817D01*
X79658014Y-40019417D01*
X79740854Y-40019417D01*
X79798484Y-40040665D01*
X79834960Y-40022262D01*
X79873032Y-39954696D01*
X79820439Y-39910625D01*
X79801278Y-39914137D01*
X79744442Y-39986623D01*
X79740854Y-40019417D01*
X79658014Y-40019417D01*
X79632843Y-39952785D01*
X79694633Y-39858863D01*
X79701968Y-39851810D01*
X79836445Y-39795468D01*
X79954100Y-39846024D01*
G37*
G36*
X79936969Y-42989362D02*
G01*
X79903192Y-43023139D01*
X79869415Y-42989362D01*
X79903192Y-42955586D01*
X79936969Y-42989362D01*
G37*
G36*
X80004522Y-43192022D02*
G01*
X79970745Y-43225798D01*
X79936969Y-43192022D01*
X79970745Y-43158245D01*
X80004522Y-43192022D01*
G37*
G36*
X83067002Y-40527056D02*
G01*
X83158713Y-40669976D01*
X83260356Y-40847491D01*
X83353596Y-41030921D01*
X83429309Y-41226646D01*
X83497561Y-41468282D01*
X83548793Y-41714291D01*
X83577315Y-41931300D01*
X83577439Y-42085936D01*
X83543477Y-42144826D01*
X83517355Y-42109241D01*
X83489062Y-41971513D01*
X83474475Y-41765613D01*
X83448794Y-41501470D01*
X83372457Y-41243122D01*
X83228257Y-40938207D01*
X83208482Y-40900745D01*
X83097402Y-40686848D01*
X83017914Y-40527957D01*
X82986116Y-40456117D01*
X83003559Y-40447410D01*
X83067002Y-40527056D01*
G37*
G36*
X79948323Y-47558558D02*
G01*
X80096355Y-47597875D01*
X80196181Y-47652851D01*
X80205225Y-47704825D01*
X80196321Y-47709045D01*
X80091788Y-47714885D01*
X79920080Y-47701108D01*
X79753547Y-47664264D01*
X79673799Y-47613059D01*
X79703899Y-47568587D01*
X79852527Y-47550237D01*
X79948323Y-47558558D01*
G37*
G36*
X80532241Y-47923556D02*
G01*
X80627279Y-48025140D01*
X80711372Y-48143969D01*
X80747607Y-48235985D01*
X80744316Y-48244912D01*
X80688157Y-48216103D01*
X80584471Y-48110283D01*
X80557462Y-48077858D01*
X80472310Y-47954189D01*
X80455179Y-47886969D01*
X80463174Y-47883277D01*
X80532241Y-47923556D01*
G37*
G36*
X81085373Y-38598405D02*
G01*
X81051596Y-38632181D01*
X81017820Y-38598405D01*
X81051596Y-38564628D01*
X81085373Y-38598405D01*
G37*
G36*
X81828458Y-39881915D02*
G01*
X81794681Y-39915692D01*
X81760905Y-39881915D01*
X81794681Y-39848139D01*
X81828458Y-39881915D01*
G37*
%TO.C,*%
G36*
X143944089Y-66117685D02*
G01*
X143764418Y-67098799D01*
X143454612Y-68051357D01*
X143303586Y-68389679D01*
X143210657Y-68561670D01*
X143111963Y-68744332D01*
X142907448Y-69061965D01*
X142703431Y-69325450D01*
X142513303Y-69517662D01*
X142350455Y-69621475D01*
X142228278Y-69619763D01*
X142171207Y-69551236D01*
X142178693Y-69399492D01*
X142284496Y-69169398D01*
X142291262Y-69157333D01*
X142388793Y-68946359D01*
X142411908Y-68873742D01*
X142709778Y-68873742D01*
X142750821Y-68851081D01*
X142843393Y-68708866D01*
X142857442Y-68683427D01*
X142905690Y-68561670D01*
X142890739Y-68512137D01*
X142827386Y-68560540D01*
X142757944Y-68688978D01*
X142726636Y-68778331D01*
X142709778Y-68873742D01*
X142411908Y-68873742D01*
X142452348Y-68746701D01*
X142460884Y-68704081D01*
X142467939Y-68628086D01*
X142436186Y-68626497D01*
X142348831Y-68707865D01*
X142189081Y-68880738D01*
X142021327Y-69080579D01*
X141763697Y-69466254D01*
X141576075Y-69858640D01*
X141466506Y-70234375D01*
X141443032Y-70570093D01*
X141513698Y-70842432D01*
X141532929Y-70881981D01*
X141584823Y-71078113D01*
X141542984Y-71210994D01*
X141412441Y-71259894D01*
X141383201Y-71255849D01*
X141237002Y-71182351D01*
X141050180Y-71038441D01*
X140853926Y-70852882D01*
X140679432Y-70654439D01*
X140557889Y-70471872D01*
X140442412Y-70246785D01*
X140288183Y-70602548D01*
X140225294Y-70746327D01*
X140120299Y-70981798D01*
X140070231Y-71090832D01*
X140038543Y-71159839D01*
X140019443Y-71201484D01*
X139980710Y-71330306D01*
X139998906Y-71457699D01*
X140078954Y-71642485D01*
X140147029Y-71809358D01*
X140215190Y-72217453D01*
X140152011Y-72634688D01*
X139958215Y-73052638D01*
X139866482Y-73150761D01*
X139737939Y-73203430D01*
X139679251Y-73203079D01*
X139630642Y-73188541D01*
X139629203Y-73133110D01*
X139677601Y-73009699D01*
X139778502Y-72791219D01*
X139850307Y-72622718D01*
X139932333Y-72303213D01*
X139915647Y-72006181D01*
X139801185Y-71686062D01*
X139655668Y-71376488D01*
X139281792Y-71783701D01*
X139271133Y-71795312D01*
X138977484Y-72117237D01*
X138764718Y-72358289D01*
X138747651Y-72379432D01*
X138622264Y-72534765D01*
X138539552Y-72662958D01*
X138506012Y-72759165D01*
X138508707Y-72802050D01*
X138511072Y-72839679D01*
X138544162Y-72920797D01*
X138614705Y-73061792D01*
X138660031Y-73153166D01*
X138657763Y-73178567D01*
X138578409Y-73203430D01*
X138526746Y-73193187D01*
X138472296Y-73123007D01*
X138458281Y-73076381D01*
X138391874Y-73123007D01*
X138386920Y-73127385D01*
X138260878Y-73168792D01*
X138014072Y-73194560D01*
X137657999Y-73203430D01*
X137004546Y-73203430D01*
X136958859Y-72799611D01*
X136955558Y-72772959D01*
X137074682Y-72772959D01*
X137078089Y-72842380D01*
X137119655Y-72981431D01*
X137128030Y-73003726D01*
X137173845Y-73089939D01*
X137193654Y-73052638D01*
X137223632Y-72962058D01*
X137301021Y-72944437D01*
X137375765Y-73035883D01*
X137396493Y-73069697D01*
X137528137Y-73125721D01*
X137748277Y-73113786D01*
X138036676Y-73033951D01*
X138105521Y-73009315D01*
X138254314Y-72957483D01*
X138321504Y-72936365D01*
X138331160Y-72911255D01*
X138338259Y-72802050D01*
X138330269Y-72740187D01*
X138289486Y-72703809D01*
X138190705Y-72689267D01*
X138008724Y-72692853D01*
X137718338Y-72710860D01*
X137570852Y-72721404D01*
X137323241Y-72741815D01*
X137147538Y-72759995D01*
X137074682Y-72772959D01*
X136955558Y-72772959D01*
X136942990Y-72671496D01*
X136910131Y-72504229D01*
X136907392Y-72499736D01*
X137064908Y-72499736D01*
X137111011Y-72572652D01*
X137274170Y-72600263D01*
X137380314Y-72596478D01*
X137438522Y-72568967D01*
X137400001Y-72499736D01*
X137338815Y-72447883D01*
X137190739Y-72399208D01*
X137120232Y-72416589D01*
X137064908Y-72499736D01*
X136907392Y-72499736D01*
X136866506Y-72432655D01*
X136801224Y-72431324D01*
X136703506Y-72431949D01*
X136558754Y-72368145D01*
X136461295Y-72306447D01*
X136352276Y-72267302D01*
X136310382Y-72278596D01*
X136250791Y-72365616D01*
X136243932Y-72482265D01*
X136301602Y-72560323D01*
X136376629Y-72615605D01*
X136383010Y-72695287D01*
X136294196Y-72734300D01*
X136263464Y-72740393D01*
X136202322Y-72821126D01*
X136191283Y-72953539D01*
X136228206Y-73083589D01*
X136310950Y-73157232D01*
X136320035Y-73159731D01*
X136345925Y-73182621D01*
X136244787Y-73195655D01*
X136061341Y-73203430D01*
X136104724Y-72690205D01*
X136110017Y-72624740D01*
X136122435Y-72374259D01*
X136111030Y-72243467D01*
X136075151Y-72222070D01*
X136020545Y-72217578D01*
X136010863Y-72198153D01*
X137577691Y-72198153D01*
X137724024Y-72353916D01*
X137732613Y-72363222D01*
X137816000Y-72481150D01*
X137825064Y-72554971D01*
X137818196Y-72568967D01*
X137809737Y-72586206D01*
X137882651Y-72586230D01*
X138070185Y-72540298D01*
X138177495Y-72485804D01*
X138232147Y-72379432D01*
X138231093Y-72358009D01*
X138217107Y-72148676D01*
X138192400Y-72043493D01*
X138142624Y-72014802D01*
X138053431Y-72034949D01*
X137955227Y-72076555D01*
X137880300Y-72139993D01*
X137840719Y-72173947D01*
X137717826Y-72198153D01*
X137577691Y-72198153D01*
X136010863Y-72198153D01*
X135969604Y-72115373D01*
X135952824Y-72040515D01*
X135941119Y-72020883D01*
X135942775Y-72131134D01*
X135942965Y-72159165D01*
X135920109Y-72328703D01*
X135910602Y-72399223D01*
X135839715Y-72660290D01*
X135829522Y-72697828D01*
X135713224Y-73003666D01*
X135681164Y-73062506D01*
X135583963Y-73165377D01*
X135484572Y-73209833D01*
X135417672Y-73186299D01*
X135417938Y-73085201D01*
X135420339Y-73002521D01*
X135326719Y-72886570D01*
X135254504Y-72849392D01*
X135195084Y-72872327D01*
X135154349Y-73004799D01*
X135099436Y-73141199D01*
X134997700Y-73203430D01*
X134946459Y-73175913D01*
X134894106Y-73041231D01*
X134871951Y-72815788D01*
X134880158Y-72523578D01*
X134887836Y-72457173D01*
X135123961Y-72457173D01*
X135142817Y-72559480D01*
X135177768Y-72620493D01*
X135287235Y-72716174D01*
X135409087Y-72760870D01*
X135492686Y-72729913D01*
X135525613Y-72700503D01*
X135636390Y-72696268D01*
X135685869Y-72705609D01*
X135711038Y-72660290D01*
X135660994Y-72612198D01*
X135527466Y-72540792D01*
X135361429Y-72473957D01*
X135213030Y-72431405D01*
X135132413Y-72432846D01*
X135123961Y-72457173D01*
X134887836Y-72457173D01*
X134910280Y-72263069D01*
X135357838Y-72263069D01*
X135396518Y-72324998D01*
X135523563Y-72389193D01*
X135638569Y-72424114D01*
X135709374Y-72413590D01*
X135724539Y-72328703D01*
X135690992Y-72231846D01*
X135560948Y-72198153D01*
X135448909Y-72211900D01*
X135359972Y-72258643D01*
X135357838Y-72263069D01*
X134910280Y-72263069D01*
X134918891Y-72188597D01*
X134976976Y-71892614D01*
X135255410Y-71892614D01*
X135256720Y-71926451D01*
X135288378Y-71994135D01*
X135353075Y-71934710D01*
X135362182Y-71910545D01*
X135323521Y-71830227D01*
X135288383Y-71823588D01*
X135255410Y-71892614D01*
X134976976Y-71892614D01*
X134988315Y-71834837D01*
X135005746Y-71759835D01*
X135055106Y-71517234D01*
X135081616Y-71334645D01*
X135079848Y-71246926D01*
X135079586Y-71246512D01*
X135004280Y-71188987D01*
X134843124Y-71093976D01*
X134630607Y-70981832D01*
X134414777Y-70869090D01*
X134192024Y-70744074D01*
X134038731Y-70648239D01*
X133850354Y-70560930D01*
X133632405Y-70522691D01*
X133576771Y-70519581D01*
X133333129Y-70425018D01*
X133111765Y-70199480D01*
X132913938Y-69844157D01*
X132829515Y-69619447D01*
X132722822Y-69263033D01*
X132614641Y-68837010D01*
X132512959Y-68375491D01*
X132425762Y-67912588D01*
X132361036Y-67482414D01*
X132281845Y-66855422D01*
X131942374Y-67008856D01*
X131852585Y-67047121D01*
X131551556Y-67143522D01*
X131280528Y-67185498D01*
X131069082Y-67170464D01*
X130946799Y-67095837D01*
X130937329Y-67079180D01*
X130927175Y-66986365D01*
X130980032Y-66865012D01*
X131336591Y-66865012D01*
X131341694Y-66903381D01*
X131408459Y-66864319D01*
X131521745Y-66755690D01*
X131666408Y-66585356D01*
X131842712Y-66331700D01*
X132063047Y-65947202D01*
X132265635Y-65527472D01*
X132428374Y-65119055D01*
X132529159Y-64768498D01*
X132583368Y-64525833D01*
X132631853Y-64369056D01*
X132664567Y-64342691D01*
X132680746Y-64445209D01*
X132679623Y-64675079D01*
X132660433Y-65030772D01*
X132649094Y-65204571D01*
X132611266Y-66061321D01*
X132613312Y-66821812D01*
X132657784Y-67513505D01*
X132747235Y-68163859D01*
X132884219Y-68800336D01*
X133071287Y-69450395D01*
X133232010Y-69953034D01*
X133216740Y-69680525D01*
X133512929Y-69680525D01*
X133513286Y-69720022D01*
X133547462Y-70012758D01*
X133635339Y-70193087D01*
X133774009Y-70254617D01*
X133812872Y-70260095D01*
X133966398Y-70319861D01*
X134146322Y-70424262D01*
X134211887Y-70467488D01*
X134451357Y-70611114D01*
X134713368Y-70752285D01*
X134963733Y-70874077D01*
X135168262Y-70959563D01*
X135292769Y-70991820D01*
X135318974Y-70994299D01*
X135367479Y-71036296D01*
X135385122Y-71152858D01*
X135378453Y-71373129D01*
X135370186Y-71562675D01*
X135381302Y-71695695D01*
X135426406Y-71760766D01*
X135517275Y-71793550D01*
X135627861Y-71846458D01*
X135681019Y-71910545D01*
X135724189Y-71962590D01*
X135750640Y-71993524D01*
X135783376Y-71910204D01*
X135787976Y-71879938D01*
X137012416Y-71879938D01*
X137015638Y-72070282D01*
X137021672Y-72114659D01*
X137041094Y-72192901D01*
X137054183Y-72151844D01*
X137093493Y-72009501D01*
X137190898Y-71955163D01*
X137326527Y-72024765D01*
X137390465Y-72074084D01*
X137473807Y-72093985D01*
X137599724Y-72065867D01*
X137808188Y-71986560D01*
X137888281Y-71953959D01*
X138112530Y-71854425D01*
X138230946Y-71779619D01*
X138260366Y-71715643D01*
X138217626Y-71648601D01*
X138181816Y-71601482D01*
X138139335Y-71464300D01*
X138140642Y-71441178D01*
X138167100Y-71412163D01*
X138241135Y-71494459D01*
X138249429Y-71505593D01*
X138415127Y-71715699D01*
X138529458Y-71829098D01*
X138609689Y-71863060D01*
X138632763Y-71856739D01*
X138744797Y-71782691D01*
X138904070Y-71648439D01*
X139080432Y-71483056D01*
X139243733Y-71315612D01*
X139363824Y-71175181D01*
X139410555Y-71090832D01*
X139410385Y-71078911D01*
X139372078Y-70961702D01*
X139260477Y-70931536D01*
X139066585Y-70989042D01*
X138781406Y-71134851D01*
X138720148Y-71169472D01*
X138512700Y-71282184D01*
X138362895Y-71356497D01*
X138299761Y-71377772D01*
X138298998Y-71375134D01*
X138331532Y-71299774D01*
X138418547Y-71145845D01*
X138543553Y-70942767D01*
X138640439Y-70786388D01*
X138763596Y-70555272D01*
X138795723Y-70413671D01*
X138732115Y-70351663D01*
X138568069Y-70359330D01*
X138298882Y-70426752D01*
X138131155Y-70474909D01*
X137946152Y-70526381D01*
X137844215Y-70552566D01*
X137828897Y-70555726D01*
X137697444Y-70582787D01*
X137512443Y-70620823D01*
X137495841Y-70624316D01*
X137355297Y-70667768D01*
X137255951Y-70743368D01*
X137241796Y-70769349D01*
X137183502Y-70876349D01*
X137123649Y-71091943D01*
X137062090Y-71415382D01*
X137032728Y-71622390D01*
X137012416Y-71879938D01*
X135787976Y-71879938D01*
X135816393Y-71692960D01*
X135836975Y-71523224D01*
X135872036Y-71254929D01*
X135901706Y-71049712D01*
X136610176Y-71049712D01*
X136654381Y-71037835D01*
X136780080Y-71011541D01*
X136826803Y-70999449D01*
X136908658Y-70927854D01*
X136928740Y-70769349D01*
X136928717Y-70767097D01*
X136922513Y-70628273D01*
X136894257Y-70607817D01*
X136823301Y-70690237D01*
X136749099Y-70793158D01*
X136687222Y-70891292D01*
X136655529Y-70941556D01*
X136621249Y-71008875D01*
X136610176Y-71049712D01*
X135901706Y-71049712D01*
X135902200Y-71046294D01*
X135906398Y-71019450D01*
X135918689Y-70891292D01*
X136059631Y-70891292D01*
X136093140Y-70924802D01*
X136126650Y-70891292D01*
X136093140Y-70857783D01*
X136076618Y-70874305D01*
X136059631Y-70891292D01*
X135918689Y-70891292D01*
X135920318Y-70874305D01*
X135888500Y-70824362D01*
X135794414Y-70837618D01*
X135770698Y-70843426D01*
X135677638Y-70839774D01*
X135669240Y-70749634D01*
X135672747Y-70716204D01*
X135633012Y-70638307D01*
X135489974Y-70605522D01*
X135357756Y-70592826D01*
X135337211Y-70589709D01*
X135858576Y-70589709D01*
X135861303Y-70608078D01*
X135929549Y-70656728D01*
X135953790Y-70651466D01*
X135959103Y-70589709D01*
X135945348Y-70569653D01*
X135888130Y-70522691D01*
X135881441Y-70524433D01*
X135858576Y-70589709D01*
X135337211Y-70589709D01*
X135073836Y-70549750D01*
X134909100Y-70485046D01*
X134852633Y-70385241D01*
X134861673Y-70352435D01*
X135008426Y-70352435D01*
X135028617Y-70373795D01*
X135148950Y-70416259D01*
X135335737Y-70442235D01*
X135340557Y-70442550D01*
X135532400Y-70445192D01*
X135631001Y-70412210D01*
X135674463Y-70331104D01*
X135677031Y-70249849D01*
X135606871Y-70185449D01*
X135595490Y-70181746D01*
X135856214Y-70181746D01*
X135898118Y-70249849D01*
X136064199Y-70519765D01*
X136108310Y-70589709D01*
X136159120Y-70670274D01*
X136250367Y-70805622D01*
X136294148Y-70857783D01*
X136295032Y-70805210D01*
X136265491Y-70673482D01*
X136249387Y-70538076D01*
X136279049Y-70421108D01*
X136470888Y-70421108D01*
X136473337Y-70658103D01*
X136495251Y-70885038D01*
X136755286Y-70506328D01*
X136858853Y-70371419D01*
X137072313Y-70371419D01*
X137079580Y-70533002D01*
X137103705Y-70757256D01*
X137173545Y-70522691D01*
X137187760Y-70467826D01*
X137189706Y-70442978D01*
X137341953Y-70442978D01*
X137382051Y-70484886D01*
X137517430Y-70470415D01*
X137580210Y-70450987D01*
X137698248Y-70364667D01*
X137706726Y-70351194D01*
X137838912Y-70351194D01*
X137921497Y-70380880D01*
X138076581Y-70359351D01*
X138217185Y-70310328D01*
X138273542Y-70253753D01*
X138231613Y-70207039D01*
X138146501Y-70196313D01*
X138433726Y-70196313D01*
X138435911Y-70251910D01*
X138514135Y-70248789D01*
X138632891Y-70196309D01*
X138756672Y-70103825D01*
X138782156Y-70079171D01*
X138838276Y-70018611D01*
X138805396Y-70036807D01*
X138730593Y-70081419D01*
X138697896Y-70090415D01*
X138588257Y-70120580D01*
X138534910Y-70127865D01*
X138438787Y-70187599D01*
X138433726Y-70196313D01*
X138146501Y-70196313D01*
X138077355Y-70187599D01*
X137935784Y-70213114D01*
X137886563Y-70253736D01*
X137844894Y-70288126D01*
X137838912Y-70351194D01*
X137706726Y-70351194D01*
X137768052Y-70253736D01*
X137755074Y-70162901D01*
X137700390Y-70137709D01*
X137563642Y-70120580D01*
X137447323Y-70155234D01*
X137370495Y-70296034D01*
X137367202Y-70309168D01*
X137365242Y-70319553D01*
X137341953Y-70442978D01*
X137189706Y-70442978D01*
X137199375Y-70319553D01*
X137163431Y-70245760D01*
X137089502Y-70274702D01*
X137086917Y-70278043D01*
X137072313Y-70371419D01*
X136858853Y-70371419D01*
X136899218Y-70318839D01*
X137047107Y-70167755D01*
X137157397Y-70099717D01*
X137187938Y-70090415D01*
X137157230Y-70073455D01*
X137020126Y-70062688D01*
X136964049Y-70060177D01*
X136768482Y-70041508D01*
X136638857Y-70014451D01*
X136631101Y-70012423D01*
X138003167Y-70012423D01*
X138003169Y-70012614D01*
X138062074Y-70041540D01*
X138202658Y-70053562D01*
X138327086Y-70037824D01*
X138343540Y-70025581D01*
X138556013Y-70025581D01*
X138593791Y-70013455D01*
X138689938Y-69934319D01*
X138804790Y-69818749D01*
X138901051Y-69704926D01*
X138941425Y-69631029D01*
X138916558Y-69578827D01*
X138834318Y-69589275D01*
X138728961Y-69666588D01*
X138636622Y-69791716D01*
X138624123Y-69816432D01*
X138565685Y-69954970D01*
X138556013Y-70025581D01*
X138343540Y-70025581D01*
X138430472Y-69960897D01*
X138530011Y-69788918D01*
X138584957Y-69668177D01*
X138621376Y-69530407D01*
X138575275Y-69466203D01*
X138439958Y-69450395D01*
X138434970Y-69450469D01*
X138292889Y-69516695D01*
X138149545Y-69710839D01*
X138109188Y-69784244D01*
X138033285Y-69933911D01*
X138003167Y-70012423D01*
X136631101Y-70012423D01*
X136611704Y-70007351D01*
X136566986Y-70033298D01*
X136541645Y-70048002D01*
X136494179Y-70203254D01*
X136470888Y-70421108D01*
X136279049Y-70421108D01*
X136316807Y-70272213D01*
X136371008Y-70140501D01*
X136376989Y-70033298D01*
X136289510Y-70015959D01*
X136099203Y-70080219D01*
X135856214Y-70181746D01*
X135595490Y-70181746D01*
X135431827Y-70128495D01*
X135254832Y-70091492D01*
X135145248Y-70102282D01*
X135070205Y-70169897D01*
X135025766Y-70247391D01*
X135008426Y-70352435D01*
X134861673Y-70352435D01*
X134893520Y-70236860D01*
X135020845Y-70026428D01*
X135065945Y-69957826D01*
X135089365Y-69917830D01*
X135236216Y-69917830D01*
X135259712Y-69971377D01*
X135396749Y-70011460D01*
X135577691Y-70040399D01*
X135763134Y-70039109D01*
X135832841Y-69983644D01*
X135818678Y-69953034D01*
X135925594Y-69953034D01*
X135956204Y-69983644D01*
X135959103Y-69986543D01*
X135992613Y-69953034D01*
X135959103Y-69919525D01*
X135925594Y-69953034D01*
X135818678Y-69953034D01*
X135782770Y-69875427D01*
X135740625Y-69839572D01*
X135579360Y-69790988D01*
X135396642Y-69803695D01*
X135262540Y-69877423D01*
X135236216Y-69917830D01*
X135089365Y-69917830D01*
X135153579Y-69808166D01*
X135188391Y-69721643D01*
X135185971Y-69714334D01*
X135110606Y-69646802D01*
X134950987Y-69541091D01*
X134736016Y-69416683D01*
X134714352Y-69404790D01*
X134474926Y-69265906D01*
X134269844Y-69134769D01*
X134141446Y-69038324D01*
X134063190Y-68971198D01*
X133991673Y-68951155D01*
X133902624Y-69002822D01*
X133756090Y-69136364D01*
X133723413Y-69167556D01*
X133651182Y-69249340D01*
X133587505Y-69321438D01*
X133526830Y-69471199D01*
X133512929Y-69680525D01*
X133216740Y-69680525D01*
X133196335Y-69316358D01*
X133192315Y-69254321D01*
X133188000Y-69214484D01*
X133393211Y-69214484D01*
X133401232Y-69294019D01*
X133421390Y-69304504D01*
X133445911Y-69249340D01*
X133441074Y-69213861D01*
X133401232Y-69204661D01*
X133393211Y-69214484D01*
X133188000Y-69214484D01*
X133154365Y-68904002D01*
X133461660Y-68904002D01*
X133495066Y-69013983D01*
X133521026Y-69057134D01*
X133573245Y-69085535D01*
X133652000Y-69006462D01*
X133687701Y-68961305D01*
X133708404Y-68912361D01*
X133630212Y-68933106D01*
X133562455Y-68945958D01*
X133512929Y-68900974D01*
X133510099Y-68875649D01*
X133473277Y-68864542D01*
X133461660Y-68904002D01*
X133154365Y-68904002D01*
X133149856Y-68862375D01*
X133136596Y-68780211D01*
X133747494Y-68780211D01*
X133761249Y-68800267D01*
X133818468Y-68847229D01*
X133825156Y-68845487D01*
X133848022Y-68780211D01*
X133845294Y-68761842D01*
X133777048Y-68713192D01*
X133752808Y-68718454D01*
X133747494Y-68780211D01*
X133136596Y-68780211D01*
X133082149Y-68442835D01*
X133001871Y-68076517D01*
X132994797Y-68047259D01*
X133349852Y-68047259D01*
X133350416Y-68133013D01*
X133362704Y-68294327D01*
X133370555Y-68376262D01*
X133392291Y-68566934D01*
X133416906Y-68657802D01*
X133456159Y-68674656D01*
X133521809Y-68643286D01*
X133548391Y-68627104D01*
X133591552Y-68573229D01*
X133575723Y-68481504D01*
X133498050Y-68312158D01*
X133458473Y-68233326D01*
X133386344Y-68096960D01*
X133351837Y-68043007D01*
X133349852Y-68047259D01*
X132994797Y-68047259D01*
X132936090Y-67804436D01*
X132889575Y-67542665D01*
X132861125Y-67262752D01*
X132846863Y-66926118D01*
X132842914Y-66494182D01*
X132843140Y-66387459D01*
X132847592Y-66011365D01*
X132856870Y-65665762D01*
X132869839Y-65385161D01*
X132885363Y-65204076D01*
X132890771Y-65165774D01*
X132927766Y-64967235D01*
X132960801Y-64895426D01*
X132988278Y-64943954D01*
X133008597Y-65106426D01*
X133020158Y-65376447D01*
X133021362Y-65747625D01*
X133024174Y-66092563D01*
X133072783Y-66712389D01*
X133182494Y-67235422D01*
X133357621Y-67678826D01*
X133602476Y-68059762D01*
X133652760Y-68119962D01*
X133710340Y-68164395D01*
X133725132Y-68115386D01*
X133697986Y-67961465D01*
X133629749Y-67691161D01*
X133585724Y-67504927D01*
X133535661Y-67185231D01*
X133514657Y-66899312D01*
X133646966Y-66899312D01*
X133649545Y-66956764D01*
X133681835Y-67188219D01*
X133742019Y-67481957D01*
X133818579Y-67790188D01*
X133899992Y-68065123D01*
X133974738Y-68258970D01*
X134045613Y-68420949D01*
X134059665Y-68526204D01*
X133989626Y-68529459D01*
X133832677Y-68434192D01*
X133718685Y-68361263D01*
X133675552Y-68355562D01*
X133710133Y-68416316D01*
X133811872Y-68530242D01*
X133856124Y-68573229D01*
X133970215Y-68684058D01*
X134079141Y-68780211D01*
X134174606Y-68864481D01*
X134236940Y-68912361D01*
X134536655Y-69142577D01*
X135080407Y-69456603D01*
X135677745Y-69679701D01*
X136361214Y-69826186D01*
X136530373Y-69851849D01*
X136866590Y-69898315D01*
X137102590Y-69917572D01*
X137261134Y-69906166D01*
X137310236Y-69884642D01*
X137557746Y-69884642D01*
X137615324Y-69953034D01*
X137638211Y-69980219D01*
X137769202Y-69984725D01*
X137917893Y-69893617D01*
X138056374Y-69716316D01*
X138114178Y-69607338D01*
X138168430Y-69437272D01*
X138125287Y-69344563D01*
X137982457Y-69316816D01*
X137920877Y-69331042D01*
X137782476Y-69429547D01*
X137653611Y-69584343D01*
X137567596Y-69750888D01*
X137557746Y-69884642D01*
X137310236Y-69884642D01*
X137364982Y-69860644D01*
X137436895Y-69777553D01*
X137499633Y-69653437D01*
X137525975Y-69598240D01*
X137636643Y-69408114D01*
X137742027Y-69276574D01*
X137787616Y-69238640D01*
X137857513Y-69204382D01*
X137953891Y-69197816D01*
X138102252Y-69221560D01*
X138328100Y-69278230D01*
X138656935Y-69370441D01*
X138891349Y-69437272D01*
X139143158Y-69509062D01*
X139401334Y-69127882D01*
X139537075Y-68918821D01*
X139710445Y-68628805D01*
X139866654Y-68344183D01*
X139991823Y-68091764D01*
X140072075Y-67898353D01*
X140093531Y-67790761D01*
X140106733Y-67698250D01*
X140178116Y-67558039D01*
X140198982Y-67525594D01*
X140270900Y-67321002D01*
X140265090Y-67118210D01*
X140181267Y-66970712D01*
X140151008Y-66948362D01*
X140106066Y-66947968D01*
X140085595Y-67035198D01*
X140081694Y-67194231D01*
X140080739Y-67233175D01*
X140079294Y-67333203D01*
X140054834Y-67519976D01*
X139980087Y-67669563D01*
X139919635Y-67739671D01*
X139829420Y-67844297D01*
X139578101Y-68109526D01*
X139149526Y-68059512D01*
X138937697Y-68025516D01*
X138692125Y-67935651D01*
X138541524Y-67782895D01*
X138468608Y-67545906D01*
X138464734Y-67439841D01*
X138613114Y-67439841D01*
X138637303Y-67579199D01*
X138725106Y-67750146D01*
X138725134Y-67750181D01*
X138896214Y-67868239D01*
X139181606Y-67935277D01*
X139253671Y-67943700D01*
X139438563Y-67951635D01*
X139554741Y-67917743D01*
X139650735Y-67831263D01*
X139658521Y-67822302D01*
X139718736Y-67739671D01*
X139698746Y-67731781D01*
X139641355Y-67727687D01*
X139551107Y-67648206D01*
X139479680Y-67529230D01*
X139464292Y-67420217D01*
X139444227Y-67402420D01*
X139349348Y-67436731D01*
X139255033Y-67469148D01*
X139111330Y-67464982D01*
X139010829Y-67465851D01*
X138873308Y-67541363D01*
X138838221Y-67571982D01*
X138754838Y-67617722D01*
X138713568Y-67566246D01*
X138685811Y-67480364D01*
X138641093Y-67359171D01*
X138620054Y-67349682D01*
X138613114Y-67439841D01*
X138464734Y-67439841D01*
X138456095Y-67203346D01*
X138456778Y-67126963D01*
X139548711Y-67126963D01*
X139573730Y-67263625D01*
X139674223Y-67370465D01*
X139757088Y-67412162D01*
X139828365Y-67439841D01*
X139893798Y-67401786D01*
X139975308Y-67298043D01*
X140013721Y-67194231D01*
X140005299Y-67157559D01*
X139914791Y-67061734D01*
X139772924Y-66997614D01*
X139639882Y-66996957D01*
X139604372Y-67017119D01*
X139548711Y-67126963D01*
X138456778Y-67126963D01*
X138457999Y-66990484D01*
X138450487Y-66830732D01*
X138434960Y-66769657D01*
X138423901Y-66771548D01*
X138321103Y-66806320D01*
X138158270Y-66871064D01*
X138108702Y-66890925D01*
X137960467Y-66938634D01*
X137886448Y-66943351D01*
X137883785Y-66932963D01*
X137920955Y-66843792D01*
X138012979Y-66703699D01*
X138040058Y-66668989D01*
X138172903Y-66546845D01*
X138364221Y-66447759D01*
X138651186Y-66351198D01*
X139133739Y-66209228D01*
X138801010Y-65845170D01*
X138677657Y-65706007D01*
X138480083Y-65448333D01*
X138673226Y-65448333D01*
X138772152Y-65600241D01*
X138974470Y-65825191D01*
X139040938Y-65894188D01*
X139214556Y-66067503D01*
X139345522Y-66188208D01*
X139409549Y-66233509D01*
X139412146Y-66232638D01*
X139418190Y-66159803D01*
X139397676Y-65992864D01*
X139354432Y-65764380D01*
X139278888Y-65412533D01*
X139434932Y-65412533D01*
X139455197Y-65493889D01*
X139497211Y-65683947D01*
X139544728Y-65915171D01*
X139552943Y-65956514D01*
X139597525Y-66154115D01*
X139600233Y-66159803D01*
X139646223Y-66256386D01*
X139724570Y-66294725D01*
X139858096Y-66300527D01*
X139986317Y-66294999D01*
X140058547Y-66261860D01*
X140047169Y-66183245D01*
X140013997Y-66096298D01*
X139945889Y-65907830D01*
X139866300Y-65680606D01*
X139817412Y-65545081D01*
X139743287Y-65386917D01*
X139667472Y-65313325D01*
X139567432Y-65295250D01*
X139550341Y-65295439D01*
X139441630Y-65323102D01*
X139434932Y-65412533D01*
X139278888Y-65412533D01*
X139253706Y-65295250D01*
X139013793Y-65296276D01*
X139006797Y-65296313D01*
X138789547Y-65309825D01*
X138678691Y-65356014D01*
X138673226Y-65448333D01*
X138480083Y-65448333D01*
X138306789Y-65222324D01*
X138031827Y-64750489D01*
X137860894Y-64306275D01*
X137802111Y-63905454D01*
X137797479Y-63785424D01*
X137774223Y-63702783D01*
X137735406Y-63735493D01*
X137685543Y-63873425D01*
X137629149Y-64106449D01*
X137570740Y-64424437D01*
X137541385Y-64623668D01*
X137490186Y-65136017D01*
X137472143Y-65632531D01*
X137487875Y-66075360D01*
X137538001Y-66426654D01*
X137555545Y-66511772D01*
X137575705Y-66676908D01*
X137564845Y-66761188D01*
X137559527Y-66766022D01*
X137531634Y-66770826D01*
X137489648Y-66732318D01*
X137420603Y-66632151D01*
X137311535Y-66451983D01*
X137149480Y-66173470D01*
X137067852Y-66038284D01*
X136983738Y-65927249D01*
X136939892Y-65923553D01*
X136934874Y-66032740D01*
X136967243Y-66260356D01*
X137035558Y-66611946D01*
X137046767Y-66667141D01*
X137089670Y-66901297D01*
X137113479Y-67072080D01*
X137113279Y-67145737D01*
X137081900Y-67140630D01*
X136967539Y-67078566D01*
X136804277Y-66968399D01*
X136740562Y-66918538D01*
X136488190Y-66659378D01*
X136241754Y-66322242D01*
X136029182Y-65948967D01*
X135878402Y-65581389D01*
X135830952Y-65445208D01*
X135738680Y-65270448D01*
X135604830Y-65141375D01*
X135399674Y-65032943D01*
X135093486Y-64920106D01*
X134819789Y-64827992D01*
X135087863Y-64860530D01*
X135122740Y-64864957D01*
X135342712Y-64899765D01*
X135518033Y-64937385D01*
X135568270Y-64949884D01*
X135646896Y-64946327D01*
X135637124Y-64869634D01*
X135624828Y-64835220D01*
X135560820Y-64568536D01*
X135512529Y-64222178D01*
X135483676Y-63842132D01*
X135477984Y-63474385D01*
X135499173Y-63164924D01*
X135503804Y-63129874D01*
X135527678Y-62902672D01*
X135533965Y-62742285D01*
X135521173Y-62681530D01*
X135451901Y-62729794D01*
X135316200Y-62862317D01*
X135132012Y-63058658D01*
X134917075Y-63298376D01*
X134689128Y-63561028D01*
X134465911Y-63826171D01*
X134265164Y-64073364D01*
X134104627Y-64282164D01*
X134002037Y-64432128D01*
X133953196Y-64519479D01*
X133779246Y-64969500D01*
X133680932Y-65515730D01*
X133656599Y-66166490D01*
X133658108Y-66235982D01*
X133666987Y-66429440D01*
X133679782Y-66530498D01*
X133694263Y-66518337D01*
X133724129Y-66427027D01*
X133797744Y-66369308D01*
X133880906Y-66433553D01*
X133888933Y-66443216D01*
X133985816Y-66518724D01*
X134160995Y-66634309D01*
X134383293Y-66769144D01*
X134573709Y-66875722D01*
X134814459Y-66983963D01*
X135053360Y-67045819D01*
X135353974Y-67081762D01*
X135616107Y-67111972D01*
X135789174Y-67152390D01*
X135838312Y-67198546D01*
X135774007Y-67226879D01*
X135602521Y-67248084D01*
X135353541Y-67259423D01*
X135056251Y-67260797D01*
X134739835Y-67252109D01*
X134433476Y-67233260D01*
X134166359Y-67204152D01*
X134100851Y-67193192D01*
X133934981Y-67147132D01*
X133851122Y-67096111D01*
X133864689Y-67054765D01*
X133991097Y-67037730D01*
X133993212Y-67037730D01*
X134081577Y-67031322D01*
X134073502Y-66995169D01*
X133963771Y-66903694D01*
X133962635Y-66902801D01*
X133785726Y-66790438D01*
X133681272Y-66789285D01*
X133646966Y-66899312D01*
X133514657Y-66899312D01*
X133507909Y-66807451D01*
X133498849Y-66334037D01*
X133505904Y-65926802D01*
X133551755Y-65342640D01*
X133647433Y-64790437D01*
X133801301Y-64235946D01*
X134021720Y-63644920D01*
X134317053Y-62983113D01*
X134348743Y-62917870D01*
X134500631Y-62634646D01*
X134680753Y-62333225D01*
X134873472Y-62036120D01*
X135063148Y-61765847D01*
X135234143Y-61544920D01*
X135370819Y-61395853D01*
X135457537Y-61341161D01*
X135461484Y-61347829D01*
X135434166Y-61438605D01*
X135356151Y-61619089D01*
X135236980Y-61868123D01*
X135086196Y-62164549D01*
X135058925Y-62216988D01*
X134891477Y-62547047D01*
X134740580Y-62857252D01*
X134621850Y-63114855D01*
X134550901Y-63287109D01*
X134445385Y-63586279D01*
X134881024Y-63117150D01*
X134938226Y-63054804D01*
X135193152Y-62745881D01*
X135387644Y-62436439D01*
X135563655Y-62061609D01*
X135627746Y-61911832D01*
X135728339Y-61687257D01*
X135803643Y-61532712D01*
X135840893Y-61475197D01*
X135847030Y-61484683D01*
X135849108Y-61588028D01*
X135833914Y-61780024D01*
X135804924Y-62029219D01*
X135765617Y-62304160D01*
X135719470Y-62573395D01*
X135674946Y-62913489D01*
X135654716Y-63388847D01*
X135669088Y-63888425D01*
X135716283Y-64360549D01*
X135794522Y-64753544D01*
X135861876Y-64988931D01*
X136046735Y-65552178D01*
X136237329Y-66005573D01*
X136441780Y-66366776D01*
X136668208Y-66653448D01*
X136707136Y-66694736D01*
X136857550Y-66849463D01*
X136934791Y-66913812D01*
X136952440Y-66895731D01*
X136924077Y-66803166D01*
X136920880Y-66794292D01*
X136861587Y-66537050D01*
X136823920Y-66188360D01*
X136808344Y-65787358D01*
X136815319Y-65373179D01*
X136845308Y-64984958D01*
X136898775Y-64661829D01*
X136912696Y-64603874D01*
X136975429Y-64368143D01*
X137031132Y-64195467D01*
X137069130Y-64119818D01*
X137070270Y-64119230D01*
X137094539Y-64169183D01*
X137111113Y-64320350D01*
X137116462Y-64541295D01*
X137125806Y-64811033D01*
X137157671Y-65167151D01*
X137204706Y-65496306D01*
X137295607Y-65998944D01*
X137338170Y-65261741D01*
X137346764Y-65121880D01*
X137381177Y-64707109D01*
X137430718Y-64330255D01*
X137502816Y-63950261D01*
X137604901Y-63526069D01*
X137744401Y-63016622D01*
X137753105Y-62986064D01*
X137865075Y-62613001D01*
X137950364Y-62371038D01*
X138008932Y-62260217D01*
X138040739Y-62280582D01*
X138045746Y-62432175D01*
X138023912Y-62715039D01*
X137984604Y-63225666D01*
X137981699Y-63761388D01*
X138030624Y-64204347D01*
X138132402Y-64572054D01*
X138251251Y-64859989D01*
X138363081Y-65050754D01*
X138489607Y-65153783D01*
X138656932Y-65190003D01*
X138891161Y-65180343D01*
X139276518Y-65144615D01*
X139276518Y-64752556D01*
X139415579Y-64752556D01*
X139423703Y-64967454D01*
X139462707Y-65090594D01*
X139544592Y-65161213D01*
X139581070Y-65179336D01*
X139652280Y-65192190D01*
X139669937Y-65131902D01*
X139634041Y-64981896D01*
X139544592Y-64725593D01*
X139420943Y-64390501D01*
X139415749Y-64739990D01*
X139415579Y-64752556D01*
X139276518Y-64752556D01*
X139276518Y-64319139D01*
X139280861Y-64007280D01*
X139294635Y-63726475D01*
X139316117Y-63533826D01*
X139343536Y-63452242D01*
X139387874Y-63463945D01*
X139410555Y-63570514D01*
X139420311Y-63661734D01*
X139469798Y-63890392D01*
X139555219Y-64206982D01*
X139669943Y-64588772D01*
X139807339Y-65013028D01*
X139848421Y-65131902D01*
X139960779Y-65457016D01*
X140055574Y-65707555D01*
X140140080Y-65896561D01*
X140190532Y-65971396D01*
X140201144Y-65930297D01*
X140166132Y-65771503D01*
X140079710Y-65493250D01*
X140020093Y-65301335D01*
X139928235Y-64971207D01*
X139827614Y-64581816D01*
X139727352Y-64170789D01*
X139636570Y-63775755D01*
X139564390Y-63434338D01*
X139519934Y-63184168D01*
X139518971Y-63148874D01*
X139547302Y-63183412D01*
X139607800Y-63322144D01*
X139694398Y-63550612D01*
X139801033Y-63854353D01*
X139838219Y-63962885D01*
X139964159Y-64321928D01*
X140084028Y-64651990D01*
X140185774Y-64920327D01*
X140257348Y-65094195D01*
X140394093Y-65395778D01*
X140482022Y-64692084D01*
X140493573Y-64593747D01*
X140528617Y-63692615D01*
X140432855Y-62818788D01*
X140206462Y-61974005D01*
X140103194Y-61655693D01*
X140047551Y-61426996D01*
X140041355Y-61299681D01*
X140084962Y-61281339D01*
X140178725Y-61379562D01*
X140228094Y-61471943D01*
X140311842Y-61671213D01*
X140412508Y-61939693D01*
X140517776Y-62245910D01*
X140630300Y-62635805D01*
X140779213Y-63398542D01*
X140859289Y-64209669D01*
X140869090Y-65029246D01*
X140807178Y-65817334D01*
X140723402Y-66261860D01*
X140672116Y-66533994D01*
X140651635Y-66616983D01*
X140636954Y-66757895D01*
X140688126Y-66861133D01*
X140825366Y-66986369D01*
X140850696Y-67007628D01*
X140964602Y-67112295D01*
X140981551Y-67160269D01*
X140910866Y-67171767D01*
X140894197Y-67172305D01*
X140772425Y-67211574D01*
X140644707Y-67321002D01*
X140642956Y-67322502D01*
X140495554Y-67518398D01*
X140319984Y-67812573D01*
X140106009Y-68218338D01*
X139966549Y-68483144D01*
X139783679Y-68807686D01*
X139610595Y-69093067D01*
X139471321Y-69298407D01*
X139296415Y-69530407D01*
X139220555Y-69631029D01*
X139206964Y-69649057D01*
X139573723Y-69392142D01*
X139746866Y-69257902D01*
X140112520Y-68899862D01*
X140476351Y-68453908D01*
X140817911Y-67948948D01*
X141116750Y-67413891D01*
X141352420Y-66877644D01*
X141356091Y-66867986D01*
X141415168Y-66748138D01*
X141458344Y-66717534D01*
X141459071Y-66718344D01*
X141457863Y-66803250D01*
X141415157Y-66982983D01*
X141340510Y-67229426D01*
X141243480Y-67514466D01*
X141133622Y-67809986D01*
X141020492Y-68087871D01*
X140913649Y-68320006D01*
X140868541Y-68406225D01*
X140598202Y-68841095D01*
X140246779Y-69308877D01*
X139840283Y-69776946D01*
X139598713Y-70018611D01*
X139404723Y-70212678D01*
X139360857Y-70253753D01*
X139300897Y-70309899D01*
X139084356Y-70519450D01*
X138905579Y-70701226D01*
X138795450Y-70824229D01*
X138783527Y-70839593D01*
X138702398Y-70959956D01*
X138682466Y-71021749D01*
X138704238Y-71025598D01*
X138815599Y-70977605D01*
X138993664Y-70863958D01*
X139215703Y-70701719D01*
X139458984Y-70507951D01*
X139700777Y-70299714D01*
X139918352Y-70094072D01*
X140402313Y-69549628D01*
X140547313Y-69342788D01*
X140750924Y-69342788D01*
X140751084Y-69346919D01*
X140802982Y-69377589D01*
X140930311Y-69336507D01*
X141107624Y-69237728D01*
X141309472Y-69095309D01*
X141510406Y-68923305D01*
X141641192Y-68787232D01*
X141799158Y-68590113D01*
X141913325Y-68410399D01*
X141957256Y-68285809D01*
X141940541Y-68265442D01*
X141844484Y-68202731D01*
X141707669Y-68129699D01*
X141581830Y-68073046D01*
X141518700Y-68059471D01*
X141518536Y-68059672D01*
X141482456Y-68125546D01*
X141403722Y-68278287D01*
X141299091Y-68485395D01*
X141187752Y-68692486D01*
X141044492Y-68928140D01*
X140922547Y-69098236D01*
X140887908Y-69140239D01*
X140790189Y-69270358D01*
X140750924Y-69342788D01*
X140547313Y-69342788D01*
X140939098Y-68783914D01*
X141412267Y-67914743D01*
X141527824Y-67667494D01*
X141631147Y-67416993D01*
X141693608Y-67203301D01*
X141727876Y-66980492D01*
X141746619Y-66702638D01*
X141756417Y-66547834D01*
X141783476Y-66339575D01*
X141815814Y-66260419D01*
X141847614Y-66307574D01*
X141873056Y-66478250D01*
X141886323Y-66769657D01*
X141921742Y-67201356D01*
X142010151Y-67596651D01*
X142142325Y-67927374D01*
X142309114Y-68170703D01*
X142475363Y-68285809D01*
X142501369Y-68303815D01*
X142671436Y-68358071D01*
X142765393Y-68362713D01*
X142757269Y-68292089D01*
X142658609Y-68133709D01*
X142533963Y-67902662D01*
X142398604Y-67537530D01*
X142287629Y-67117444D01*
X142210247Y-66685447D01*
X142175666Y-66284582D01*
X142193096Y-65957890D01*
X142230182Y-65792793D01*
X142276891Y-65706917D01*
X142319235Y-65742376D01*
X142351002Y-65892279D01*
X142365984Y-66149736D01*
X142372600Y-66602110D01*
X142498468Y-65939063D01*
X142536002Y-65747637D01*
X142589437Y-65496576D01*
X142632862Y-65317733D01*
X142659398Y-65240954D01*
X142680130Y-65269407D01*
X142692201Y-65406658D01*
X142694165Y-65631031D01*
X142686675Y-65918405D01*
X142670383Y-66244660D01*
X142645944Y-66585676D01*
X142614009Y-66917332D01*
X142592702Y-67122685D01*
X142570796Y-67429252D01*
X142574700Y-67621713D01*
X142604273Y-67711554D01*
X142638324Y-67725640D01*
X142695254Y-67655287D01*
X142757488Y-67460263D01*
X142784445Y-67358978D01*
X142846356Y-67148578D01*
X142896725Y-67004221D01*
X142919799Y-66974330D01*
X142943562Y-67024464D01*
X142956394Y-67156730D01*
X142958262Y-67340833D01*
X142949131Y-67546478D01*
X142928968Y-67743371D01*
X142897738Y-67901218D01*
X142868041Y-68057278D01*
X142903947Y-68259818D01*
X142946400Y-68324978D01*
X142996746Y-68342524D01*
X143056428Y-68277538D01*
X143137530Y-68115515D01*
X143252140Y-67841952D01*
X143268859Y-67800252D01*
X143423739Y-67354907D01*
X143536480Y-66894052D01*
X143611519Y-66388614D01*
X143653290Y-65809522D01*
X143666227Y-65127704D01*
X143664809Y-64765107D01*
X143657423Y-64401262D01*
X143641164Y-64115792D01*
X143613204Y-63877607D01*
X143570719Y-63655617D01*
X143510882Y-63418733D01*
X143424791Y-63117590D01*
X143295592Y-62738014D01*
X143148612Y-62411380D01*
X142961140Y-62089624D01*
X142710468Y-61724683D01*
X142255235Y-61190888D01*
X141663156Y-60682717D01*
X140969034Y-60240594D01*
X140183790Y-59871418D01*
X139318345Y-59582086D01*
X139005381Y-59513321D01*
X138485596Y-59448961D01*
X137921573Y-59424997D01*
X137356377Y-59441254D01*
X136833072Y-59497563D01*
X136394723Y-59593750D01*
X136019785Y-59718747D01*
X135314281Y-60026064D01*
X134686838Y-60408925D01*
X134131147Y-60875062D01*
X133640897Y-61432211D01*
X133209781Y-62088105D01*
X132831488Y-62850477D01*
X132499709Y-63727062D01*
X132208134Y-64725593D01*
X132092185Y-65149073D01*
X131880756Y-65795390D01*
X131660262Y-66316043D01*
X131432316Y-66706909D01*
X131408295Y-66741349D01*
X131336591Y-66865012D01*
X130980032Y-66865012D01*
X130985231Y-66853076D01*
X131122936Y-66650384D01*
X131152115Y-66610126D01*
X131335349Y-66326913D01*
X131495415Y-66014491D01*
X131642872Y-65646992D01*
X131788277Y-65198552D01*
X131942188Y-64643304D01*
X132155760Y-63895494D01*
X132431227Y-63109538D01*
X132738880Y-62417045D01*
X133088524Y-61796367D01*
X133489965Y-61225853D01*
X133752147Y-60907907D01*
X134213459Y-60441974D01*
X134714282Y-60059710D01*
X135285777Y-59738788D01*
X135959103Y-59456885D01*
X136079636Y-59412790D01*
X136268804Y-59347139D01*
X136434890Y-59300011D01*
X136604081Y-59268276D01*
X136802563Y-59248806D01*
X137056523Y-59238474D01*
X137392146Y-59234151D01*
X137835621Y-59232708D01*
X139108972Y-59230079D01*
X139938611Y-59515501D01*
X140311055Y-59652162D01*
X141054739Y-59989679D01*
X141707510Y-60387188D01*
X142295156Y-60859396D01*
X142544551Y-61100990D01*
X143005895Y-61649941D01*
X143371122Y-62252228D01*
X143647282Y-62923407D01*
X143841422Y-63679029D01*
X143960591Y-64534651D01*
X143992504Y-65115809D01*
X143991929Y-65127704D01*
X143944089Y-66117685D01*
G37*
G36*
X142842693Y-60671784D02*
G01*
X142914889Y-60725805D01*
X143029552Y-60838522D01*
X143049924Y-60860515D01*
X143136060Y-60963988D01*
X143153444Y-61006068D01*
X143149393Y-61005260D01*
X143077196Y-60951239D01*
X142962534Y-60838522D01*
X142942162Y-60816529D01*
X142856025Y-60713056D01*
X142838641Y-60670976D01*
X142842693Y-60671784D01*
G37*
G36*
X142664823Y-60472936D02*
G01*
X142727969Y-60536939D01*
X142740452Y-60560667D01*
X142735879Y-60603957D01*
X142724096Y-60600942D01*
X142660950Y-60536939D01*
X142648467Y-60513211D01*
X142653040Y-60469920D01*
X142664823Y-60472936D01*
G37*
G36*
X142359367Y-60235356D02*
G01*
X142325858Y-60268865D01*
X142292349Y-60235356D01*
X142325858Y-60201847D01*
X142359367Y-60235356D01*
G37*
G36*
X142091293Y-60034300D02*
G01*
X142057784Y-60067810D01*
X142024275Y-60034300D01*
X142057784Y-60000791D01*
X142091293Y-60034300D01*
G37*
G36*
X141957256Y-59967282D02*
G01*
X141923747Y-60000791D01*
X141890238Y-59967282D01*
X141923747Y-59933773D01*
X141957256Y-59967282D01*
G37*
G36*
X141555146Y-59699208D02*
G01*
X141521636Y-59732717D01*
X141488127Y-59699208D01*
X141521636Y-59665699D01*
X141555146Y-59699208D01*
G37*
G36*
X141220053Y-59498153D02*
G01*
X141186544Y-59531662D01*
X141153035Y-59498153D01*
X141186544Y-59464643D01*
X141220053Y-59498153D01*
G37*
G36*
X140750924Y-59230079D02*
G01*
X140717415Y-59263588D01*
X140683906Y-59230079D01*
X140717415Y-59196570D01*
X140750924Y-59230079D01*
G37*
G36*
X135523483Y-72298680D02*
G01*
X135489974Y-72332190D01*
X135456465Y-72298680D01*
X135489974Y-72265171D01*
X135523483Y-72298680D01*
G37*
G36*
X136863853Y-70853828D02*
G01*
X136861277Y-70873281D01*
X136796834Y-70924802D01*
X136781667Y-70924033D01*
X136729816Y-70895248D01*
X136732900Y-70884497D01*
X136796834Y-70824274D01*
X136822795Y-70813802D01*
X136863853Y-70853828D01*
G37*
G36*
X136800606Y-69326902D02*
G01*
X136947331Y-69377070D01*
X137076442Y-69445388D01*
X137131927Y-69505755D01*
X137128287Y-69514911D01*
X137048594Y-69524437D01*
X136897362Y-69491015D01*
X136810070Y-69459214D01*
X136691661Y-69393388D01*
X136656793Y-69339000D01*
X136725453Y-69316358D01*
X136800606Y-69326902D01*
G37*
G36*
X139265936Y-68646174D02*
G01*
X139256594Y-68738366D01*
X139232133Y-68729947D01*
X139223281Y-68699611D01*
X139232133Y-68562401D01*
X139255404Y-68551032D01*
X139265936Y-68646174D01*
G37*
G36*
X139063784Y-68474682D02*
G01*
X139075462Y-68616620D01*
X139059221Y-68723021D01*
X139014736Y-68750590D01*
X138986028Y-68703724D01*
X138989043Y-68579089D01*
X138989110Y-68578831D01*
X139032916Y-68461180D01*
X139063784Y-68474682D01*
G37*
G36*
X134652243Y-67804488D02*
G01*
X134644041Y-67854420D01*
X134585225Y-67908971D01*
X134569324Y-67907165D01*
X134518206Y-67845907D01*
X134520763Y-67827105D01*
X134585225Y-67741424D01*
X134619753Y-67735120D01*
X134652243Y-67804488D01*
G37*
G36*
X134415000Y-67719257D02*
G01*
X134451188Y-67808443D01*
X134443627Y-67854688D01*
X134384169Y-67908971D01*
X134353339Y-67897629D01*
X134317151Y-67808443D01*
X134324712Y-67762197D01*
X134384169Y-67707915D01*
X134415000Y-67719257D01*
G37*
G36*
X135674209Y-66727591D02*
G01*
X135791557Y-66769657D01*
X135820962Y-66802084D01*
X135760699Y-66827398D01*
X135577702Y-66835649D01*
X135479472Y-66832732D01*
X135308220Y-66809223D01*
X135221900Y-66769657D01*
X135245087Y-66728880D01*
X135356883Y-66707203D01*
X135514620Y-66706773D01*
X135674209Y-66727591D01*
G37*
G36*
X138740370Y-66015761D02*
G01*
X138729451Y-66036090D01*
X138628318Y-66094028D01*
X138455541Y-66148920D01*
X138379202Y-66167201D01*
X138217316Y-66205372D01*
X138137204Y-66223329D01*
X138147714Y-66202541D01*
X138233786Y-66130850D01*
X138331765Y-66070100D01*
X138446115Y-66032453D01*
X138492605Y-66028363D01*
X138634361Y-65991774D01*
X138690834Y-65980110D01*
X138740370Y-66015761D01*
G37*
D13*
%TO.C,MO*%
X112250000Y-54600000D02*
G75*
G02*
X110350000Y-54600000I-950000J0D01*
G01*
X110350000Y-54600000D02*
G75*
G02*
X112250000Y-54600000I950000J0D01*
G01*
%TO.C,MI*%
X108850000Y-54400000D02*
G75*
G02*
X106950000Y-54400000I-950000J0D01*
G01*
X106950000Y-54400000D02*
G75*
G02*
X108850000Y-54400000I950000J0D01*
G01*
%TO.C,CS*%
X105250000Y-52600000D02*
G75*
G02*
X103350000Y-52600000I-950000J0D01*
G01*
X103350000Y-52600000D02*
G75*
G02*
X105250000Y-52600000I950000J0D01*
G01*
%TO.C,GND*%
X131950000Y-52600000D02*
G75*
G02*
X130050000Y-52600000I-950000J0D01*
G01*
X130050000Y-52600000D02*
G75*
G02*
X131950000Y-52600000I950000J0D01*
G01*
%TO.C,SCL*%
X104450000Y-67500000D02*
G75*
G02*
X102550000Y-67500000I-950000J0D01*
G01*
X102550000Y-67500000D02*
G75*
G02*
X104450000Y-67500000I950000J0D01*
G01*
%TO.C,SCK*%
X115650000Y-52800000D02*
G75*
G02*
X113750000Y-52800000I-950000J0D01*
G01*
X113750000Y-52800000D02*
G75*
G02*
X115650000Y-52800000I950000J0D01*
G01*
%TO.C,3V3*%
X135150000Y-52600000D02*
G75*
G02*
X133250000Y-52600000I-950000J0D01*
G01*
X133250000Y-52600000D02*
G75*
G02*
X135150000Y-52600000I950000J0D01*
G01*
%TO.C,SDA*%
X101950000Y-67400000D02*
G75*
G02*
X100050000Y-67400000I-950000J0D01*
G01*
X100050000Y-67400000D02*
G75*
G02*
X101950000Y-67400000I950000J0D01*
G01*
%TD*%
M02*
