M48
; DRILL file {KiCad 9.0.7} date 2026-02-04T09:14:42-0800
; FORMAT={-:-/ absolute / metric / decimal}
; #@! TF.CreationDate,2026-02-04T09:14:42-08:00
; #@! TF.GenerationSoftware,Kicad,Pcbnew,9.0.7
; #@! TF.FileFunction,Plated,1,4,PTH
FMAT,2
METRIC
; #@! TA.AperFunction,Plated,PTH,ViaDrill
T1C0.500
; #@! TA.AperFunction,Plated,PTH,ComponentDrill
T2C1.000
%
G90
G05
T1
X79.7Y-70.9
X80.2Y-54.2
X80.8Y-34.8
X88.4Y-38.2
X89.8Y-62.6
X93.4Y-61.7
X95.8Y-34.4
X97.0Y-70.4
X97.1Y-49.8
X97.9Y-53.8
X100.6Y-63.4
X109.6Y-63.4
X109.8Y-53.2
X119.0Y-31.0
X119.0Y-34.2
X123.6Y-45.4
X126.2Y-60.8
X132.2Y-51.4
X132.6Y-48.2
X132.6Y-53.8
T2
X83.11Y-32.7
X85.65Y-32.7
X88.19Y-32.7
X90.73Y-32.7
X91.45Y-51.48
X91.45Y-54.02
X91.45Y-56.56
X91.45Y-59.1
X91.45Y-61.64
X91.45Y-64.18
X91.45Y-66.72
X93.27Y-32.7
X95.81Y-32.7
X98.35Y-32.7
X100.89Y-32.7
X100.98Y-50.0
X100.98Y-70.32
X103.52Y-50.0
X103.52Y-70.32
X106.06Y-50.0
X106.06Y-70.32
X108.6Y-50.0
X108.6Y-70.32
X111.14Y-50.0
X111.14Y-70.32
X111.4Y-32.6
X113.68Y-50.0
X113.68Y-70.32
X113.94Y-32.6
X116.22Y-50.0
X116.22Y-70.32
X116.48Y-32.6
X118.76Y-50.0
X118.76Y-70.32
X119.02Y-32.6
X121.3Y-50.0
X121.3Y-70.32
X121.56Y-32.6
X123.84Y-50.0
X123.84Y-70.32
X124.1Y-32.6
X126.38Y-50.0
X126.38Y-70.32
X128.92Y-50.0
X128.92Y-70.32
X131.46Y-50.0
X134.0Y-50.0
X136.54Y-50.0
X139.08Y-50.0
M30
